<?xml version="1.0" standalone="no"?>
<!DOCTYPE svg PUBLIC "-//W3C//DTD SVG 1.1//EN" "http://www.w3.org/Graphics/SVG/1.1/DTD/svg11.dtd" >
<svg>
<metadata>
Created by FontForge 20120731 at Sat Jun 29 17:47:49 2019
 By www
Copyright (c) 2009 by Sudtipos. Designed by Angel Koziupa &#38; Alejandro Paul. All rights reserved.
</metadata>
<defs>
<font id="BravissimaScriptW00-Reg" horiz-adv-x="397" >
  <font-face 
    font-family="BravissimaScriptW00-Reg"
    font-weight="400"
    font-stretch="normal"
    units-per-em="1000"
    panose-1="2 0 5 5 0 0 0 2 0 4"
    ascent="548"
    descent="-452"
    x-height="373"
    cap-height="686"
    bbox="-751 -963 1608 1129"
    underline-thickness="50"
    underline-position="-100"
    unicode-range="U+000D-FB02"
  />
<missing-glyph horiz-adv-x="250" 
 />
    <glyph glyph-name=".notdef" horiz-adv-x="250" 
 />
    <glyph glyph-name="glyph1" horiz-adv-x="930" 
d="M883 -168q-18 13 -37.5 28t-38 34t-34.5 43t-28 56h-1q-5 0 -9.5 9.5t-8 24.5t-5.5 34t-2 38v17q1 24 5 45q2 18 6.5 36.5t10.5 29.5q1 2 2 5t1 8q0 8 -4 13q-23 4 -47 4q-17 0 -34.5 -1t-37.5 -2q-11 -8 -24.5 -10t-29.5 -2h-33q-14 0 -27 -1t-25 -6q-5 1 -13 1
q-13 0 -21.5 -6t-15 -14t-12.5 -16.5t-15 -13.5q-16 -17 -35 -40.5t-35.5 -47t-27.5 -42.5t-11 -25v-5q0 -5 2 -9.5t10 -5.5h25q9 0 15.5 -1t6.5 -6q0 -8 -18 -21.5t-34 -24.5q-6 -3 -19 -8.5t-27.5 -10.5l-29 -10t-24.5 -6q-3 1 -9 1q-9 0 -17.5 -2t-15.5 -2q-11 0 -16 8
q1 12 7 23.5t14 22.5t16.5 21t14.5 19q35 46 80.5 93.5t83.5 93.5q9 2 12.5 6.5t8.5 10.5v3q0 8 -8 9q-5 0 -9.5 0.5t-9.5 0.5q-34 0 -67.5 -5.5t-49.5 -5.5h-2q-13 -7 -25 -7q-9 0 -17 2q-4 1 -7 3q-23 0 -34.5 1t-18 2.5t-12 2.5t-14.5 1q-14 0 -22 11.5t-13 22.5
q-9 2 -9 9.5t-6 9.5q-1 1 -1 3q0 4 3.5 5.5t5.5 1.5q22 -2 38 -3t28 -1t22.5 0.5t22 1.5t25 1.5t33.5 0.5q8 1 15.5 1.5t15.5 0.5q29 0 62 -3t64 -3q37 0 67 8.5t44 35.5q41 37 78 74.5t72 72.5t69 66.5t68 55.5q24 16 44.5 34.5t36.5 33.5t26 25t12 10q25 0 44 -11t32 -30
q9 3 17.5 13.5t23.5 10.5q8 0 12 -2q25 -20 42 -38t17 -38q0 -5 -4.5 -8.5t-10 -7.5t-10 -8t-4.5 -10l-7 -5q-16 -11 -25 -20.5t-9 -33.5q0 -9 -7 -13.5t-16.5 -8.5t-19 -8.5t-13.5 -14.5q2 -4 4.5 -9.5t2.5 -10.5q-3 -5 -8 -9.5t-14 -4.5q-9 -3 -18.5 -15.5t-17.5 -27
t-13 -27t-5 -16.5v-4q0 -8 -8.5 -14t-8.5 -11t11 -9q23 -5 52.5 -5t58 -1.5t51.5 -9t33 -27.5q0 -1 0.5 -1t0.5 -1q0 -5 -5 -5h-1q-11 4 -26.5 5.5t-29.5 1.5q-15 0 -26.5 -1t-16.5 -3h-1q-5 0 -21 3.5t-33 3.5q-19 0 -26 -7q-2 -2 -12 -2h-20q-11 0 -20 -2t-11 -10v-8
q0 -6 -1 -12.5t-6 -9.5q-4 -2 -7.5 -9t-5.5 -15q-3 -9 -5 -19q-2 -3 -3 -12l-2 -18q-1 -11 -2 -23q-2 -8 -2.5 -16t-0.5 -16t-0.5 -16.5t-2.5 -15.5v-1q0 -4 7 -11t7 -15q0 -2 -2 -6q-3 -4 -6.5 -10.5t-3.5 -14.5q0 -2 2 -8q7 -5 9.5 -12t3 -13.5t2 -13t6.5 -9.5v-4
q0 -16 11.5 -26t16.5 -19q20 -20 47.5 -34.5t58.5 -24.5t64 -15.5t64 -6.5q3 0 3 -3q0 -4 -7.5 -9t-19 -9.5t-24.5 -7.5t-24 -3q-15 0 -32.5 4t-36 10.5t-36.5 15.5t-32 20zM547 303q5 -1 20 -1h35q22 0 47.5 0.5t48.5 1t40.5 1.5t22.5 2q3 3 9 16t14.5 31.5t20.5 41.5
t28 45q1 3 8 13.5t17 25t21 31t20.5 31.5t15.5 26t6 15q-3 4 -8 4q-8 0 -20.5 -6.5t-27 -16.5t-28.5 -20.5t-26 -18.5q0 -8 -6.5 -10.5t-15 -4t-17.5 -3t-13 -6.5q-8 -2 -9.5 -6.5t-1.5 -9.5v-2q0 -5 -1 -10.5t-8 -8.5q-18 -3 -31 -10t-24 -16t-21 -18.5t-22 -15.5
q-12 -12 -27.5 -25.5t-29.5 -26t-25 -24t-15 -20.5z" />
    <glyph glyph-name="uni000D" unicode="&#xd;" horiz-adv-x="0" 
 />
    <glyph glyph-name="space" unicode=" " horiz-adv-x="250" 
 />
    <glyph glyph-name="exclam" unicode="!" horiz-adv-x="297" 
d="M245 293q-5 -8 -12 -19t-14 -21q-8 -11 -16 -24q-6 -7 -9 -16t-10 -9h-2q-4 1 -6.5 8.5t-4.5 11.5v1q-1 3 -1 9q0 19 13.5 39t22.5 43q8 4 9 13t9 11q8 19 17.5 32.5t12.5 25.5q1 6 6.5 10t10.5 7.5t9.5 8t4.5 10.5v1q12 14 21.5 27t18.5 26t18.5 27t22.5 29q2 3 3.5 8.5
t4 10.5t6.5 9.5t12 6.5q6 10 15.5 25.5t18.5 30.5t16 25.5t8 12.5q8 11 9 19.5t5 14.5l8 11q6 11 15.5 22.5t20 20.5t20 15.5t15.5 6.5q10 -1 19.5 -7t17 -14t13.5 -16.5t10 -14.5q2 -6 2 -8q0 -8 -6 -15t-13 -14l-3 -3q-2 -4 -2 -6v-7q0 -5 -2 -11t-11 -13h-3
q-13 0 -22 -11q2 -6 2 -10q0 -6 -3 -9q-18 -11 -26 -22t-16 -11q-1 0 -1.5 0.5t-1.5 0.5q-3 0 -16 -14.5t-27 -31.5q-17 -20 -36 -46q-8 -8 -13.5 -17t-15.5 -19q-9 -8 -11 -14.5t-2 -11.5v-6q0 -6 -3 -9q-8 -8 -19.5 -7.5t-13.5 -3.5q0 -8 -6 -13t-11 -10
q-7 -9 -14.5 -18.5t-13.5 -17.5q-8 -10 -15 -19q-5 -5 -7.5 -12t-5 -13t-7.5 -11t-15 -5zM44 10q-4 5 -12.5 10.5t-8.5 13.5q0 6 7 13q6 5 10 10q9 11 13 20q5 3 6.5 5.5t2 5.5t2.5 6t8 6q6 0 9.5 4t6.5 8.5t5 8.5t5 5q2 0 3 0.5t2 0.5q7 0 10 -8q8 -8 19.5 -14t11.5 -17
q0 -7 -5 -13q6 -3 6 -11q0 -7 -4 -11q-3 -5 -11 -12t-10 -19q-2 -7 -6 -10.5t-7 -10.5q-6 -4 -10.5 -11t-16.5 -7h-3q-7 3 -10 6.5t-5 7.5t-6 7.5t-12 5.5z" />
    <glyph glyph-name="quotedbl" unicode="&#x22;" horiz-adv-x="320" 
d="M577 677q0 -3 -3.5 -8t-8 -10t-9 -8.5t-7.5 -3.5q-2 0 -6 -4.5t-10 -10.5l-12.5 -12.5t-12.5 -9.5q-1 -10 -5 -15t-10 -9t-14 -9t-15 -15q-6 -8 -13.5 -17.5t-22.5 -12.5q-6 -3 -9 -7t-6 -7.5t-8 -5.5t-14 -2q-3 0 -3 3t3.5 8.5t4.5 9.5q9 15 14 23t5 14v4q0 3 6 11
q3 3 7 6q3 5 6.5 9.5t5.5 9.5l5 10q0 2 2 5q2 4 9 7q4 2 6.5 6t4.5 9t3 12v1q0 3 4.5 10t10 15.5t11.5 17.5t9 16q1 2 3 3q4 2 7 3q3 0 13 -4t21 -10t19.5 -14.5t8.5 -17.5zM437 677q0 -3 -3.5 -8t-8 -10t-9 -8.5t-7.5 -3.5q-2 0 -6 -4.5t-10 -10.5l-12.5 -12.5t-12.5 -9.5
q-1 -10 -5 -15t-10 -9t-14 -9t-15 -15q-6 -8 -13.5 -17.5t-22.5 -12.5q-6 -3 -9 -7t-6 -7.5t-8 -5.5t-14 -2q-3 0 -3 3t3.5 8.5t4.5 9.5q9 15 14 23t5 14v4q0 3 6 11q3 3 7 6q3 5 6.5 9.5t5.5 9.5l5 10q0 2 2 5q2 4 9 7q4 2 6.5 6t4.5 9t3 12v1q0 3 4.5 10t10 15.5
t11.5 17.5t9 16q1 2 3 3q4 2 7 3q3 0 13 -4t21 -10t19.5 -14.5t8.5 -17.5z" />
    <glyph glyph-name="numbersign" unicode="#" horiz-adv-x="833" 
d="M214 84q-6 1 -6 8q0 4 3 12q11 13 21 28.5t21 15.5q3 0 5 -1q11 6 14 15t5.5 18t7.5 17t20 11q5 7 10 13t10 13q-8 1 -15 1h-14q-17 0 -34 -1.5t-37 -6.5q-8 0 -16 -1.5t-16 -1.5t-14 3q-12 5 -22 9t-19 11q-5 6 -14.5 12.5t-9.5 14.5q0 4 6 9q19 5 35.5 6.5t32.5 1.5
q20 0 39 -1.5t39 -1.5q32 0 66 7q12 -7 32 -9l9 12q20 28 39.5 53.5t39.5 49.5q-5 1 -14 1t-20 -1.5t-26 -3.5q-3 1 -14 1q-15 0 -36 -2.5t-37 -2.5q-12 0 -16 2q-27 8 -46 25.5t-21 24.5v2q0 5 19 10h4q13 0 34 1.5t40 1.5q16 0 27 -2t12 -7q7 -3 14 -3q13 0 25.5 5.5
t26.5 5.5q12 0 23 -8h40q12 18 27.5 39.5t30.5 40t27.5 32.5t17.5 18q16 8 25 12t16.5 6.5t15.5 3t21 1.5h6q4 -1 4 -8q0 -6 -6 -12q-12 -14 -27 -30t-30.5 -33t-30 -35t-25.5 -35h6q27 0 50.5 1t46.5 1q22 0 38.5 -1t32.5 -1h3q19 26 37.5 50t33.5 43t25 31.5t13 15.5
q14 8 29.5 12t28.5 4q21 0 25 -7q-5 -12 -15 -23.5t-21.5 -23t-22 -24t-16.5 -27.5q0 -8 -5.5 -17t-10.5 -14q-7 -1 -13 -5.5t-13 -11.5q36 3 70 3q37 0 49 -3q17 -7 27 -11.5t16 -9t11.5 -10t13.5 -14.5q0 -10 -19 -10h-3q-31 2 -56.5 4t-51.5 2q-16 0 -32.5 -1t-35.5 -4
h-23q-2 -8 -5 -15t-10 -12q-25 -17 -38 -38t-28 -44h7q48 0 81.5 -0.5t40.5 -1.5q24 -7 39.5 -22t15.5 -25q0 -3 -2 -5q-12 -3 -26 -3q-20 0 -40.5 3t-42.5 3q-17 0 -33 -3q-7 -3 -16.5 -4t-17.5 -1h-8q-5 5 -14 6.5t-21 2.5q-20 -26 -36 -45.5t-27 -49.5q-6 -8 -10 -18
t-14 -13q-12 -6 -21.5 -11t-21.5 -7q-6 -1 -14.5 -3t-16.5 -2q-13 0 -16 11q7 21 17.5 36.5t22.5 30t24.5 29t22.5 32.5h-5q-8 0 -12 1q-13 4 -25 5t-24 1q-23 0 -48 -2.5t-51 -2.5l-6 -14q-14 -12 -23.5 -19.5t-16 -15t-12.5 -17t-12 -25.5q-7 -4 -10.5 -9t-6.5 -10.5
t-6 -10.5t-9 -8q-19 -11 -42 -16t-37 -5q-7 0 -9 1zM651 403q-35 0 -68.5 -1.5t-62.5 -6.5q-22 -26 -44 -53.5t-41 -55.5q6 1 11.5 1h10.5q42 2 79.5 3t74.5 1h10q9 11 16.5 23.5t15.5 23.5q11 15 22.5 31t24.5 33q-13 1 -25 1h-24z" />
    <glyph glyph-name="dollar" unicode="$" horiz-adv-x="681" 
d="M28 -18q1 3 1 7q0 8 -4.5 14.5t-10.5 12.5t-10.5 12t-4.5 13q0 9 10 19q8 12 19 20t18 22q7 8 26.5 18t42.5 20t46 17t37 9q24 13 54 15t61 10h21q5 7 11.5 12t12.5 11t11 14t8 19q8 4 13.5 11t10 15.5t9.5 16t11 12.5q7 11 24.5 37t39.5 58l3 5q-14 5 -33.5 9t-37.5 7
q-5 3 -13 3.5t-16 1.5t-14.5 3.5t-6.5 8.5q1 4 2 7.5t1 7.5q0 8 -10 12q-2 0 -4 0.5t-4 0.5q-17 0 -27 -9.5t-17 -9.5q-1 0 -1.5 0.5t-1.5 0.5q-8 7 -22 7.5t-27 1.5t-23 6.5t-10 21.5q9 15 20.5 30.5t24 28.5t26.5 21t27 8v3q0 9 -6 14t-6 15v2q10 11 23 21.5t25.5 18.5
t22.5 12.5t15 4.5q10 -2 12 -2q7 0 10 2.5t4.5 5.5t3 5.5t5.5 2.5h3q17 10 36.5 15t39 9.5t37 9.5t31.5 15q7 3 16 3q8 0 15.5 -1t14.5 -1q8 0 14 2.5t11 11.5q20 1 40 3t41 4q6 11 12.5 21t11.5 18q6 10 12 18q4 5 9.5 13t10.5 16q6 10 13 20q0 8 10.5 13t20.5 6
q13 -2 14 -8.5t6 -14.5q3 -5 3 -9q0 -8 -5.5 -15.5t-11.5 -12.5q-10 -2 -13.5 -5.5t-4.5 -8.5t-2 -11t-6 -12q-10 -2 -20 -21h3q12 0 22.5 1t20.5 1q17 0 32 -1.5t28 -6.5q23 -8 36 -13t13 -22v-2q0 -2 -5 -2q-2 0 -3 0.5t-2 0.5q-22 5 -39 5q-29 0 -59 -6t-57 -9
q-8 -2 -12.5 -8t-15.5 -6h-9q-2 -14 -8 -21.5t-12.5 -13t-11.5 -10t-5 -13.5v-1q-2 -1 -9.5 -10t-15.5 -19.5t-15 -19t-7 -9.5q-9 -11 -13.5 -20t-7.5 -17t-6 -15t-9 -15q-7 -5 -16 -15t-19 -24q19 -11 31 -23q11 0 20 -4.5t17 -11t14.5 -13.5t13.5 -11q12 -7 23.5 -23
t20 -35t13.5 -39t5 -35q0 -6 -2 -14q-3 -6 -3 -12q0 -9 3 -18t3 -20q0 -10 -5 -21t-21 -24q-22 -30 -47.5 -50.5t-54.5 -36t-61.5 -28.5t-68.5 -28q-41 -14 -72.5 -23t-66.5 -10v-1q0 -7 -6 -9.5t-12 -2.5q-5 0 -7 1q-11 6 -20 6q-14 0 -28 -6.5t-27 -8.5l-19 -5
q-8 -17 -13 -26t-24 -17q-1 -4 -2 -10t-1 -11q0 -8 4 -11l-16 -26q-4 -5 -5 -11.5t-9 -8.5q-6 0 -12.5 4.5t-12 11.5t-9.5 15.5t-4 16.5v3l20 35l17 25q-8 -2 -14 -4h-10q-16 0 -33.5 1t-33.5 5t-28 12t-16 22zM498 158l-3 -5q-8 4 -15 5t-13 1q-19 0 -35 -8t-33 -8
q-10 0 -19 4q-4 0 -7 -0.5t-7 -0.5q-20 -29 -36 -51.5t-21 -30.5q-2 -4 -6.5 -11t-9.5 -14.5t-10 -14t-9 -8.5q-2 -3 -4.5 -5.5l-4.5 -4.5q11 1 38.5 5.5t60 13t64.5 19.5t53 25q17 5 33 14t27 17q13 10 24 21q14 4 26.5 14.5t24 23t22 25.5t19.5 23q8 14 19 28.5t13 37.5
q0 11 -7 23.5t-22 22.5q-16 11 -29 15.5t-22.5 6.5t-15 4t-5.5 8v3q0 10 -5 15.5t-12.5 7.5t-17 2.5t-19.5 1.5q-8 -12 -14.5 -19.5t-10.5 -8.5q-10 -2 -14.5 -10t-7 -17.5t-4.5 -17.5t-6 -11q-3 -5 -10.5 -15t-17.5 -24.5t-22.5 -31t-25.5 -34.5q29 -1 55 -8.5t42 -27.5z
M665 664h-6q-17 0 -45.5 -6.5t-59 -17t-56.5 -22.5t-38 -24q-5 -2 -10 -10t-14 -8q-4 0 -6 1t-7 1q-8 0 -17 -4.5t-18 -11t-16.5 -13.5t-11.5 -11q-3 -5 -3 -8q0 -8 11.5 -12.5t27.5 -4.5q5 0 9 0.5t9 1.5q29 -6 63 -14t65 -19q8 12 15.5 22t12.5 18q6 9 11 16
q21 27 45.5 60t45.5 62zM207 104q-11 -9 -21 -19.5t-25 -10.5h-6q-9 -5 -20 -12t-21 -16t-16.5 -19t-6.5 -20q0 -11 19 -14.5t42 -3.5q11 0 22.5 0.5t20.5 1.5q4 6 7 9q2 2 3 4q6 7 10.5 14.5t9.5 15t12 14t19 9.5q6 2 6 9q0 2 -0.5 3t-0.5 3q-1 2 -1 3q-1 2 -1 6
q0 6 4 11.5t9 10l10 9t8 9.5l10 13q-35 -8 -62 -17t-31 -13z" />
    <glyph glyph-name="percent" unicode="%" horiz-adv-x="713" 
d="M327 685q3 0 9 2t12 5t10.5 7t4.5 8v5q0 7 11 16q4 4 11 8q13 7 32.5 10.5t40.5 3.5q20 0 40 -3q12 -2 23 -11t21 -20t16.5 -22t9.5 -17q3 -11 3 -17q0 -8 -3 -13t-5 -9l-1 -1q-3 -6 -6 -15t-8 -20t-14 -23t-24 -24q-5 -11 -13.5 -22t-20.5 -14q-4 2 -5 2q-4 0 -6.5 -4
t-7.5 -4v-4q0 -18 -13.5 -30t-27.5 -19q-7 -5 -11 -12.5t-17 -9.5q-8 -2 -17.5 -8t-20.5 -12.5t-22 -11.5t-22 -5h-1q-12 1 -21 6t-16.5 11t-15.5 12.5t-18 11.5q-5 3 -6.5 11t-1.5 19q0 9 1 18.5t1 17.5q1 16 4 32t7.5 30.5t10.5 25t12 15.5q11 10 14.5 20.5t8.5 17.5
l10 10t12.5 12t12 10t7.5 4zM524 244q2 0 8 2t12 5t11 7t5 8v2q0 1 -0.5 1.5t-0.5 1.5q0 8 11 17q4 4 11 8q13 7 33 10.5t42 3.5q20 0 38 -3q12 -2 23 -11t21 -20t16.5 -22t9.5 -17q3 -11 3 -17q0 -9 -3 -14t-6 -9q-3 -6 -6 -15t-8 -20t-14 -23t-24 -24q-5 -11 -13.5 -22
t-20.5 -14q-4 2 -5 2q-4 0 -6.5 -4t-7.5 -4v-3q0 -17 -14 -31t-27 -20q-7 -5 -11 -12t-17 -10q-8 -2 -17.5 -7.5t-20.5 -12t-22 -11.5t-22 -5h-1q-12 1 -21 6t-16.5 11t-15.5 12.5t-18 11.5q-5 3 -6.5 11t-1.5 19q0 9 1 18.5t1 17.5q1 15 4 31.5t7.5 31t10.5 25t12 15.5
q11 10 14.5 20t8.5 17l10 10t12.5 12t12 10t8.5 4zM813 597q-7 -17 -16 -24t-17.5 -11.5t-15.5 -8.5t-10 -13q-3 0 -9.5 -4.5t-14 -9t-13.5 -9l-6 -4.5q-13 -9 -20.5 -16.5t-13 -14.5t-11 -13.5t-13.5 -12.5q-13 -4 -37 -22.5t-49 -39t-45.5 -37t-27.5 -16.5q-10 0 -17 -6.5
t-12.5 -15t-10 -16t-9.5 -9.5q-7 -5 -25.5 -19.5t-43 -33t-52 -39.5t-52.5 -40.5t-44 -34t-26 -21.5q-3 -3 -9.5 -9t-14 -12t-14.5 -11t-12 -7q-32 -20 -44 -31t-17 -17.5t-10 -9.5t-22 -6q-2 -6 -7 -14.5t-5 -13.5q0 -2 1 -3l-23 -22q-5 -4 -9 -10t-12 -6q-9 2 -17.5 16.5
t-8.5 29.5q0 8 3 14l32 30q5 4 15.5 13t21.5 17q13 10 28 21q8 5 15 11.5t14 12.5t16 10.5t22 4.5q6 1 7.5 5t1.5 7v4q1 8 6.5 13t12.5 9t14 7.5t12 8.5q14 9 21.5 16.5t22.5 14.5q8 16 18.5 23.5t22 13t23 12.5t20.5 21q17 5 31 21t29 23q7 6 20.5 17t31.5 25.5t39 31
t41 33.5q48 39 104 84q26 19 55 40.5t53 40.5q28 22 55 44q10 9 24.5 21.5t27 23.5t21 18.5l8.5 7.5q5 4 13.5 10t16.5 13q9 7 19 16q2 7 11.5 9.5t18.5 2.5h6q12 -5 13 -13t3 -17q1 -1 1 -4q0 -8 -9.5 -16t-17.5 -12h-2q-9 0 -13.5 -2.5t-7.5 -7t-6 -10t-9 -10.5
q-9 0 -19 -9t-21.5 -20t-24 -21t-26.5 -12zM512 32q6 7 12 6t13 2q30 14 56 34t44 41q14 14 15 21.5t10 12.5q11 8 11 13.5t8 6.5q6 2 6 6q0 2 -1 3t-1 3q0 1 3 6l5 8q4 2 5 6t1 9t1 9t5 6q4 1 4 13q0 7 -2 14.5t-7 10.5q-8 8 -21 8q-17 0 -37 -10t-34 -20
q-17 -11 -36.5 -29.5t-28.5 -38.5q-2 -6 -8 -6q-1 0 -7 2h-2q-6 0 -14 -10t-16 -21q-9 -14 -17 -31q-5 -16 -12.5 -31t-7.5 -32q0 -10 2 -15q1 -4 8 -5.5t15 -1.5q11 0 19.5 2t8.5 7v1zM316 472q6 7 12 6.5t13 2.5q30 14 56 33.5t43 41.5q7 6 10.5 11.5t5.5 9.5l3.5 7t6.5 6
q10 7 10.5 12.5t8.5 6.5q6 2 6 6q0 2 -1 3t-1 3q0 4 3 6l5 8q4 2 4.5 6.5l1 9t1 8.5t4.5 6q5 2 5 14q0 7 -2 14t-7 10q-8 8 -21 8q-17 0 -37.5 -10t-34.5 -20q-16 -11 -35.5 -29.5t-28.5 -38.5q-3 -6 -8 -6q-3 0 -7 2h-2q-6 0 -14 -10t-16 -21q-9 -14 -17 -31
q-5 -15 -12.5 -30.5t-7.5 -32.5q0 -10 2 -15q0 -4 6.5 -5.5t14.5 -1.5q11 0 20.5 2t9.5 7v1z" />
    <glyph glyph-name="ampersand" unicode="&#x26;" horiz-adv-x="573" 
d="M60 166q10 14 24.5 31.5t30 34t30 30t24.5 19.5q2 10 6 11.5t11 5.5q6 2 9 2t6 -0.5t7 -0.5q8 3 10 11t6 14q4 5 14.5 14t26 20.5t34 24.5t38.5 26q18 10 37.5 20t36.5 19t28.5 16t13.5 10q5 9 11 22t12 26.5t10 24t6 13.5q9 26 17 45t15 22q12 5 18 13.5t6 18.5
q0 7 -3 13q-2 2 -5 2q-1 1 -1 4q0 5 5 7.5t11.5 5t11.5 5.5t5 9q0 1 -0.5 1.5t-0.5 2.5q9 9 15 17.5t14 15t19 11t31 5.5q7 -4 17.5 -5t18.5 -6q5 -2 12.5 -4t14.5 -4.5t12.5 -6.5t5.5 -11q14 -7 30.5 -16t26.5 -23q4 -4 4 -10q0 -7 -3 -13t-4 -11q-4 -6 -9.5 -11.5
l-10.5 -10.5q-6 -5 -13 -10q-3 -2 -4 -6t-4.5 -8.5t-11.5 -10t-25 -9.5l-4 -3l-39 -24t-48 -31q-14 -5 -25.5 -13t-26.5 -16q-5 -6 -10.5 -18.5t-10.5 -23.5q-5 -20 -14.5 -34t-9.5 -34v-9q0 -4 -3.5 -7.5t-7.5 -6.5q-5 -4 -11 -6q-6 -4 -6.5 -11.5t-1 -16t-4.5 -17
t-16 -14.5q1 -4 1 -11q0 -17 -6 -32t-6 -34v-5q0 -1 -0.5 -1.5t-0.5 -1.5q0 -4 2 -8t2 -10q0 -5 -3 -11t-11 -14q-2 -7 -5 -18.5t-3 -22.5q0 -13 6 -16q32 11 50.5 21.5t26.5 10.5q3 0 4 -1q32 14 62 29.5t54 29.5l8 -1v-1q0 -10 -9.5 -21.5t-23 -23t-28.5 -22.5t-26 -20
q-3 -3 -8 -3t-10.5 -0.5t-10.5 -2t-8 -5.5q-4 -5 -7.5 -8.5t-12.5 -4.5q-3 1 -9 1q-20 0 -20 -17q-5 -5 -12 -7t-13 -4.5t-10.5 -6.5t-4.5 -13v-10q0 -21 3.5 -38.5t7.5 -25.5q8 -3 10.5 -8t3 -11.5t1.5 -13t6 -11.5q11 -10 26 -18.5t38 -8.5h6q3 0 5 0.5t4 0.5q10 0 10 -5
t-8 -11t-10 -7q-5 -6 -17 -6q-6 0 -12 1t-11 3q-7 2 -12 5t-13 6l-9 5q-11 6 -22.5 13.5t-21.5 18.5t-18 26t-13 38q-6 1 -8.5 6.5t-3 11.5t-1 11.5t-2.5 6.5q-19 -11 -37.5 -15.5t-41.5 -9.5q-10 -4 -19 -5.5t-17.5 -3t-17 -4t-16.5 -8.5q-5 -2 -8.5 -2h-6.5
q-8 0 -13.5 2.5t-10 5t-10 5t-12.5 2.5q-6 0 -9 -1h-2q-16 0 -28 6.5t-23 15.5t-21 19t-21 16q1 2 1 5q0 4 -3.5 6.5t-8 4.5t-8.5 4t-5 6q-1 5 -1.5 10t-0.5 10q0 19 5.5 40t18.5 36zM108 72q0 -5 1.5 -16.5t9.5 -15.5q14 -5 28 -6.5t28 -1.5q23 0 48 5q16 1 38.5 6.5
t43.5 13t38.5 15.5t24.5 15q2 8 2 15q0 5 -0.5 10t-0.5 10t2 15v2q0 9 2 25t5 33q3 18 7 40l27 118q1 2 1 5q0 6 -8 6q-6 0 -15 -3t-18.5 -6.5t-18 -8t-13.5 -7.5q-9 -3 -17.5 -10.5t-16.5 -15t-16.5 -14t-17.5 -8.5v-1q0 -6 -4 -7.5t-9 -2.5t-9 -2t-4 -6q0 -2 1 -4
q2 -2 2 -6q0 -6 -6 -11.5t-14 -11t-15.5 -11t-9.5 -10.5q-6 -5 -15.5 -14.5t-20 -21t-20 -24t-15.5 -23.5q-4 -6 -5.5 -18t-12.5 -19q-5 -3 -6 -12t-1 -14v-2zM588 553q1 -1 3 -1q4 0 11.5 5.5t16.5 13t18.5 14.5t17.5 10q6 8 15.5 13t14.5 15q3 3 8.5 9t10.5 12q6 7 12 15
v1q2 5 3.5 11.5t1.5 12.5q0 9 -6 15q-10 5 -21 5q-8 0 -14.5 -3.5t-12 -8l-11 -9t-11.5 -7.5q-7 -15 -17.5 -30.5t-15.5 -29.5q-7 -12 -10.5 -19.5t-9.5 -24.5z" />
    <glyph glyph-name="quotesingle" unicode="'" horiz-adv-x="180" 
d="M437 677q0 -3 -3.5 -8t-8 -10t-9 -8.5t-7.5 -3.5q-2 0 -6 -4.5t-10 -10.5l-12.5 -12.5t-12.5 -9.5q-1 -10 -5 -15t-10 -9t-14 -9t-15 -15q-6 -8 -13.5 -17.5t-22.5 -12.5q-6 -3 -9 -7t-6 -7.5t-8 -5.5t-14 -2q-3 0 -3 3t3.5 8.5t4.5 9.5q9 15 14 23t5 14v4q0 3 6 11
q3 3 7 6q3 5 6.5 9.5t5.5 9.5l5 10q0 2 2 5q2 4 9 7q4 2 6.5 6t4.5 9t3 12v1q0 3 4.5 10t10 15.5t11.5 17.5t9 16q1 2 3 3q4 2 7 3q3 0 13 -4t21 -10t19.5 -14.5t8.5 -17.5z" />
    <glyph glyph-name="parenleft" unicode="(" horiz-adv-x="238" 
d="M244 337q-5 -3 -9 -12t-9 -16t-13 -13l-10 -8q-5 -6 -5 -16q0 -5 2 -11q1 -3 2 -4q-2 -7 -5 -11t-6 -9q0 -1 -0.5 -1t-0.5 -1l-4 -7.5t-9.5 -18t-10 -22.5t-4.5 -20q-1 -9 -5 -15t-8.5 -12t-8.5 -12t-4 -15v-1q5 -6 8 -12t3 -14q0 -10 -5 -19q-1 0 -1 -1v-6q0 -3 -1 -7
t-4 -7q-6 -6 -13 -11t-7 -13v-1q2 -3 8.5 -8.5t6.5 -10.5q0 -1 -0.5 -1.5t-0.5 -1.5q-7 -17 -7 -28q0 -13 5 -22.5t5 -26.5v-3q3 -4 7 -14.5t9 -18.5l5 -10t3 -11q0 -4 -5 -4q-8 0 -14.5 1.5t-9.5 4.5q-23 22 -39.5 48.5t-16.5 58.5q0 14 -3 24.5t-3 23.5q0 2 0.5 4.5
t0.5 5.5q-3 15 -3 30q0 8 0.5 15.5t0.5 16.5q13 10 13 20q0 6 -5 10q0 18 4.5 34.5t12.5 36.5l3 7l5 12t11 27.5t12 29.5t9 17q7 7 15 21t16 29q9 17 18 37l15 25.5t11 13.5q17 5 23 12.5t6 15.5q0 5 -1 7q4 14 8 24t21 19l7.5 10t8.5 11q4 6 10 13q11 17 25.5 36t30.5 30
q9 12 16 20.5t14 16.5t14.5 16.5t17.5 19.5q44 39 97 81t110 74q8 4 18.5 9.5t21.5 9.5t21 7t17 3q8 0 11 -5q0 -8 -14 -16t-25 -16q-11 -6 -19 -13t-15.5 -14t-15.5 -13t-20 -10q-2 2 -4 2q-5 0 -11.5 -4t-11.5 -6l-10 -21q-14 -16 -35 -33.5t-35 -33.5
q-26 -24 -48.5 -45.5t-38.5 -50.5q-9 -9 -17 -19q-7 -8 -13 -17t-9 -17q-1 -5 -7.5 -13t-14 -16.5t-13 -16t-5.5 -11.5v-3q0 -5 -1.5 -14t-4.5 -17.5t-6.5 -15t-7.5 -6.5q-10 -1 -13 -3t-11 -7q-3 -8 -4.5 -16.5t-4 -16.5t-7.5 -14.5t-16 -9.5z" />
    <glyph glyph-name="parenright" unicode=")" horiz-adv-x="245" 
d="M242 368q5 3 9 12t9 16q4 6 13 13l10 8q5 6 5 15q0 4 -2 10q-1 3 -2 5q2 8 5 12t6 9q0 1 0.5 1t0.5 1l4 7t9.5 18t10 22.5t5.5 20.5q0 9 4 15t8.5 12t8.5 12t4 15v1q-5 5 -8 11.5t-3 14.5q0 10 5 19q1 0 1 1v6q0 9 5 14q6 6 13 11t7 12v1q-3 4 -9 9.5t-6 11.5v2
q7 17 7 28q0 12 -4.5 22t-4.5 27v3q-3 4 -7 14.5t-9 18.5q-2 4 -5 9.5t-3 10.5t5 5q8 0 14.5 -1.5t9.5 -4.5q23 -22 39.5 -48.5t16.5 -58.5q0 -14 3 -24.5t3 -23.5q0 -2 -0.5 -4.5t-0.5 -5.5q1 -5 1.5 -9t0.5 -9q0 -11 -1.5 -21.5t-1.5 -22.5q-5 -5 -9 -10t-4 -10
q0 -6 6 -10q0 -20 -6.5 -37.5t-14.5 -40.5q-8 -22 -15 -40q-6 -16 -11.5 -29.5t-8.5 -16.5q-7 -7 -15 -21.5t-16 -28.5q-9 -18 -17 -37l-15 -25.5t-11 -13.5q-17 -5 -23 -12.5t-6 -15.5q0 -5 1 -7q-4 -14 -8 -24t-21 -19q-4 -5 -8 -11.5t-8 -13.5q-4 -8 -9 -16
q-11 -17 -22 -36t-27 -30q-8 -12 -16.5 -19.5t-17 -14t-17.5 -14t-19 -18.5q-10 -17 -30 -37.5t-47.5 -41.5t-60.5 -41t-69 -36l-7 -3q-17 -8 -38 -16.5t-34 -8.5q-7 0 -10 5q0 8 14 15.5t25 15.5q11 6 18.5 13.5t15 14.5t15.5 13t20 10q1 -2 5 -2q5 0 11.5 4t11.5 6l10 21
q29 17 42.5 34t27.5 32q25 24 48 45.5t39 50.5q8 9 16 19q7 8 13 17.5t9 17.5q1 5 8 13t14.5 16.5t13 16t5.5 11.5v3q0 5 1.5 14t4.5 17.5t6.5 15t7.5 6.5q10 1 13 3t11 7q3 8 4.5 16.5t4 16.5t7.5 14.5t16 9.5z" />
    <glyph glyph-name="asterisk" unicode="*" horiz-adv-x="260" 
d="M562 774q3 -2 5.5 -7.5t2.5 -9.5v-1q-1 -5 -17.5 -11t-37.5 -17q-18 -11 -36.5 -20.5t-18.5 -19.5q3 -8 31 -8q20 0 46 2.5t46 2.5h6q19 -19 19 -37v-5q-3 -8 -11 -8q-6 0 -14 2.5t-15 2.5h-2q-8 -5 -14 -5q-8 0 -14.5 4t-14.5 4t-14 -5q-13 5 -28 5q-8 0 -14.5 -1
t-12.5 -3q-3 -9 -3 -16q0 -20 15 -36.5t26 -31.5q1 -1 1 -3q0 -4 -5 -4.5t-8 -2.5q-5 -1 -13 -2t-16 -1q-7 0 -13 1t-10 5q-6 5 -5.5 14t-4.5 16q-3 4 -5.5 12.5t-4.5 17t-6 15t-10 6.5q-5 0 -10 -4q-13 -11 -28.5 -26.5t-27.5 -30.5q-8 -5 -13.5 -14.5t-6.5 -8.5
q-8 -10 -11 -19.5t-9 -13.5q-12 0 -25 5q-7 2 -15 5q-4 3 -8.5 6.5t-4.5 8.5q0 2 1 4q4 7 8.5 12.5t12.5 10.5q14 12 31.5 24t30.5 26q7 2 12.5 6.5t10.5 9.5q0 5 -6.5 6.5t-16.5 1.5t-20.5 -1t-18.5 -2q-2 0 -3 -0.5t-3 -0.5q-5 -5 -14 -5q-6 0 -8 1q-17 17 -17 37
q0 7 1 11q15 3 35 3q14 0 29 -0.5t30 -0.5q11 0 21.5 0.5t19.5 2.5q7 1 7 4q0 2 -2.5 5.5t-2.5 6.5q-3 10 -10.5 19t-15 17t-14 14.5t-7.5 11.5q2 8 20.5 14.5t32.5 6.5q5 0 9 -2q2 -2 3.5 -9.5t4 -17t6.5 -20t10 -17.5q3 -3 8 -3q7 0 13 3q8 8 19.5 17t21.5 17q11 10 24 20
q7 5 16.5 14t20.5 9h3q8 -2 17 -5.5t9 -12.5v-1z" />
    <glyph glyph-name="plus" unicode="+" horiz-adv-x="731" 
d="M440 254q-6 -6 -11.5 -14.5t-10.5 -17.5t-8 -17t-3 -12q-8 -6 -12 -8.5t-7.5 -4.5t-6.5 -5l-9 -9v-2q0 -3 1 -6t1 -6t-3 -6q-3 -7 -7 -13t-4 -14q0 -6 4 -13q5 -11 16.5 -17t11.5 -11v-1q-2 -3 -15 -3q-10 0 -22 2.5t-18 9.5q-2 8 -2.5 14t-5.5 14q-9 8 -9 21q0 8 2 17
t2 17v3q4 6 6.5 14t5.5 16t7.5 15t12.5 12q6 3 7 8.5t1.5 11.5t2 11.5t6.5 9.5q4 3 9 11t10 18t10 20.5t8 16.5v1q0 4 -5 4q-12 2 -17 7t-12 5q-2 0 -8 -2q-5 -6 -13 -7.5t-17 -1.5h-21q-7 0 -13 -0.5t-11 -2.5q-9 -1 -21 -2.5t-24 -1.5q-11 0 -19.5 2t-13.5 9q-1 7 -6 13.5
t-10.5 12.5t-10 12t-4.5 12q0 4 3 7q2 2 7.5 2.5t13.5 0.5q12 0 28 -1t32 -1q12 0 23 1t20 4q4 1 9 1t10.5 -1.5t15 -3t26.5 -3t44 -1.5q4 3 12 3q5 0 11 -0.5t11 -0.5q12 0 17 5q10 6 16 18.5t6 13.5l4 3q8 3 9.5 11.5t2.5 17.5t5 15.5t17 6.5h3l12 19q3 13 11 27
t16.5 26.5t15.5 20.5t8 9q3 2 10 2q9 0 17.5 -3.5t17.5 -3.5q7 0 10 2h2q4 0 10 -4t12 -11t10 -16.5t4 -19.5q0 -2 -3.5 -3.5t-11 -5.5t-18 -13.5t-23.5 -27.5v-1q0 -4 -7.5 -8t-14.5 -7q-1 0 -1 -0.5t-1 -0.5q-14 -11 -20 -24t-17 -27q0 1 -3.5 -3t-3.5 -9t5 -6
q21 0 41 -0.5t40 -0.5q23 0 45.5 1t45.5 3q5 -1 10 -1h11h25q11 0 19.5 -1t12.5 -4q11 -8 14.5 -17.5t8.5 -18.5q2 -7 6 -10t4 -6q0 -2 -4 -5q-11 -4 -19 -4q-7 0 -12 2t-12 5t-17 5.5t-26 4.5q-13 1 -27 1.5t-29 0.5q-21 0 -40.5 -1t-36.5 -4q-5 3 -7 3q-3 0 -6 -1.5
t-8 -1.5h-3q-16 -3 -37 -2.5t-38 -5.5q-8 -3 -16 -12t-13 -17q-3 -2 -8 -2.5t-9.5 -1t-8 -2t-3.5 -5.5q0 -3 1 -5q0 -2 0.5 -2.5t0.5 -2.5q0 -7 -4.5 -12t-10.5 -10t-11 -10.5t-6 -11.5z" />
    <glyph glyph-name="comma" unicode="," horiz-adv-x="212" 
d="M151 62q0 -9 -8 -15t-11 -15q-11 -18 -22.5 -24.5t-17.5 -13.5q-2 -12 -15.5 -23t-21.5 -19h-1q-6 -2 -12.5 -5.5t-8.5 -11.5q-11 -4 -27 -14t-24 -10q-6 0 -10.5 2.5t-4.5 5.5q0 1 2 3q2 4 5 8l4 6t4 4q12 4 12 13.5t9 18.5q2 1 5 3q2 2 3.5 3t2.5 3l10 20t10 13
t7.5 8.5t1.5 6.5q0 2 -0.5 4t-0.5 4q0 3 2 5q4 6 6 10.5t3 8t3 6t7 4.5q10 19 12 28.5t13 9.5t22 -4.5t20 -11t15 -15t6 -16.5z" />
    <glyph glyph-name="hyphen" unicode="-" horiz-adv-x="482" 
d="M77 181v2q0 7 10 11h4q5 0 9.5 0.5t8.5 0.5q16 0 16 -11q4 -3 8 -3q7 0 13.5 5.5t13.5 5.5q8 0 13 -9h13q31 0 63.5 1.5t61.5 1.5q30 0 53 -3q15 3 32.5 5t33.5 2q18 0 26 -3q9 -8 14 -12.5t8.5 -9t6 -10.5t7.5 -16q0 -9 -9 -9h-3q-17 2 -30 4t-27 2q-16 0 -37 -6
q-19 1 -40 2.5t-42 1.5q-20 0 -38.5 -2.5t-35.5 -8.5q-13 4 -26 6.5t-27 2.5q-16 0 -34 -6q-2 2 -7 2q-4 0 -7 -1t-7 -1q-5 0 -9 3q-7 4 -13.5 11.5t-11.5 15.5t-8 15t-3 10z" />
    <glyph glyph-name="period" unicode="." horiz-adv-x="198" 
d="M108 95q11 -8 23.5 -14.5t12.5 -19.5q0 -11 -4 -16.5t-12 -13.5l-2 -3q-5 -7 -7.5 -9.5t-8.5 -6.5q-1 0 -1 -0.5t-1 -0.5l-3 -2q-7 -6 -7.5 -13t-9.5 -11q-2 -1 -6 -1q-6 0 -14 2.5t-15.5 7t-12.5 10t-5 12.5q0 14 6.5 19.5t6.5 13.5v4q0 7 7 16l8 8q3 8 10 14t13 10h3
q5 0 11 -1t8 -5z" />
    <glyph glyph-name="slash" unicode="/" horiz-adv-x="357" 
d="M606 724q-2 -18 -8.5 -27.5t-14 -16t-13.5 -12t-6 -15.5q-2 -1 -10 -10t-17 -20t-16.5 -20.5l-7.5 -9.5q-11 -12 -16 -21.5t-9 -17.5t-7 -15.5t-9 -15.5q-8 -5 -19 -17.5t-23.5 -29.5t-25 -35t-24 -33t-20 -25.5t-12.5 -11.5q-10 -3 -15 -11t-8 -17.5t-5.5 -18
t-6.5 -11.5q-5 -7 -19.5 -25.5t-33 -43t-40 -52t-40.5 -52.5t-33.5 -44.5t-19.5 -27.5q-3 -4 -7.5 -11t-10 -14.5t-11 -14.5t-9.5 -10q-26 -27 -37 -44.5t-17 -29t-12 -19t-22 -14.5q-2 -5 -3.5 -12.5t-1.5 -12.5q0 -6 2 -7l-17 -27q-5 -5 -6.5 -12.5t-9.5 -9.5h-1
q-11 0 -22 14.5t-11 30.5q0 2 0.5 3t0.5 3l23 37q4 5 14.5 19t21.5 29q13 18 28 38q7 7 12 15.5t10.5 16t13 14t19.5 9.5q7 3 7 11q0 2 -0.5 3t-0.5 2v2v4q0 7 4 12.5t9.5 11t11 10.5t8.5 11q11 12 16 21t18 20q3 18 11.5 28t18 18t18.5 17.5t15 25.5q7 4 13 12t11 16.5
t10.5 16.5t11.5 13q5 7 15.5 21.5t24 33.5t29.5 40.5t31 42.5q36 49 79 108q20 25 45 56.5t47 60.5q26 33 50 68q8 12 18.5 28t19.5 30t15.5 23.5l6.5 9.5q5 5 11 13.5t12 16.5q7 10 15 20q1 9 11 13.5t20 6.5q12 -1 12.5 -7.5t5.5 -14.5q2 -2 2 -8q0 -8 -6 -16.5t-13 -13.5
q-10 -2 -13.5 -6t-5.5 -9.5t-3.5 -11.5t-6.5 -12q-8 -2 -15.5 -13.5t-15.5 -25t-18 -26.5t-23 -18z" />
    <glyph glyph-name="zero" unicode="0" horiz-adv-x="588" 
d="M750 563q5 -8 5.5 -18t1.5 -21q0 -8 -3 -14q-2 -5 -6 -9t-11 -4q-2 0 -2.5 0.5t-2.5 0.5q-7 -4 -7 -13q0 -2 0.5 -4t0.5 -4v-1q4 -7 11 -10.5t7 -11.5q0 -4 -1 -6q-6 -16 -12 -30q-5 -12 -11 -24.5t-11 -19.5l-56 -85q0 -8 -6 -12.5t-12.5 -8.5t-12 -8t-5.5 -11
q0 -5 3 -11q-4 -6 -10 -8t-12.5 -3.5l-13 -3t-10.5 -6.5q1 -4 4 -10t3 -13t-6 -13q-17 -5 -24 -12.5t-24 -14.5q-9 -14 -29 -33t-38 -30q-15 -11 -28 -19.5t-26 -15t-27.5 -13t-32.5 -14.5q-2 -14 -11 -18t-22 -5h-13h-21.5t-16.5 -2q-2 -1 -8 -1q-11 0 -28 4.5t-34 12.5
t-32 18.5t-22 22.5h-1q-2 0 -4.5 1.5t-7.5 9.5q-6 9 -9 26t-4.5 35t-2 33t-0.5 21v3q0 8 1 15q1 6 2.5 12t3.5 10q2 5 2.5 11t0.5 12v3q0 11 1 20t9 14q5 6 8.5 11t3.5 12v3q-5 1 -5 8q0 3 1 5.5t2 1.5q3 5 6 11t5 12q3 7 5 15q2 20 11 32.5t14 27.5q14 21 30 40.5t29 41.5
q8 2 11.5 6t6 8.5t5.5 9t9 7.5q5 5 12 11t17 7q12 -2 18 -5.5t9.5 -8t5.5 -7.5t5 -3t25 19.5t56.5 43t77.5 43t89 19.5q26 0 53.5 -12.5t51 -29t40 -32t19.5 -21.5zM539 578q-28 0 -48.5 -8t-36.5 -19t-29.5 -22t-27.5 -17q-5 -4 -5 -6t1.5 -4t1.5 -7q0 -1 -0.5 -2t-0.5 -3
q0 -1 0.5 -1.5t0.5 -1.5q0 -8 -14 -14.5t-21 -12.5q-20 -11 -40.5 -30t-34.5 -37q-10 -8 -15 -18t-18 -16q-4 -9 -11.5 -20.5t-7.5 -25.5q0 -6 1 -9q1 -2 1 -5q0 -6 -5 -9.5t-11.5 -6t-11.5 -5.5t-5 -9v-1l-3 -4t-6.5 -9.5t-6.5 -11.5t-3 -10v-2q4 -5 5 -9t1 -7
q0 -6 -3.5 -10t-7.5 -8t-7.5 -9t-3.5 -11t3 -12q-1 -8 -2 -17q-1 -8 -1.5 -17t-0.5 -17q0 -17 3 -21q6 -6 6 -15v-12h5l4 -14q3 -8 14 -10.5t24 -2.5h10q38 8 74 29t61 35q18 12 39.5 31.5t40.5 37.5q22 21 43 44q17 20 30.5 36.5t33.5 42.5q20 25 32.5 48.5t28.5 46.5
q11 16 18.5 37t12.5 41q5 23 9 46q2 7 2.5 16.5t0.5 20.5q0 10 -1 19t-4 17q-8 12 -17 16.5t-19 4.5q-12 0 -24 -4.5t-22.5 -10.5t-19 -10.5t-12.5 -4.5z" />
    <glyph glyph-name="one" unicode="1" horiz-adv-x="266" 
d="M89 42l19 80q3 13 9.5 28t13.5 28q8 15 16 29q3 5 12.5 22.5t21.5 38t23.5 39t17.5 26.5q15 20 30 42.5t28 39.5q7 8 16 18.5t18 21.5t16.5 22t12.5 20q12 9 26.5 21.5t14.5 22.5q-2 2 -9 2q-9 0 -21.5 -3t-20.5 -6q-26 -8 -46.5 -21.5t-46.5 -21.5q-5 0 -6.5 -4
t-2.5 -8.5t-3 -9t-8 -5.5l-2 -5h-3q-8 0 -14 3t-11 3q-7 0 -11 -8q-15 -5 -25 -12t-17 -14l-11.5 -11.5t-8.5 -4.5q-7 0 -9 4t-2 9q0 6 1 8q0 2 1 3q8 21 31.5 42t47.5 38q10 7 24.5 17t31 21t34.5 22t36 19q5 11 21.5 15.5t29.5 12.5q2 0 3.5 0.5t3.5 0.5q10 0 16 -5.5
t10 -12t8 -12t11 -5.5q4 0 6 1q7 14 13 20.5t10 9.5t6 4t2 6v4.5t-1 5.5q11 11 24.5 25t35.5 14q6 0 9 -1q1 -10 8 -17t15.5 -13.5t15 -12t6.5 -12.5q0 -2 -2 -6q-18 -14 -38.5 -33.5t-37 -38t-27.5 -32.5t-10 -16v-4q0 -5 -5 -10q-2 -2 -4 -3v-2q0 -12 -8.5 -13.5
t-16.5 -8.5q-12 -7 -19.5 -17.5t-14.5 -20.5t-14.5 -18.5t-19.5 -12.5q-10 -3 -10 -14q0 -4 0.5 -8t0.5 -9t-1 -8q-15 -20 -25 -26t-17 -9t-11.5 -6.5t-7.5 -16.5q-5 -20 -13.5 -31t-11.5 -13q-2 -2 -9 -4l-6 -2q-2 -2 -8 -8.5t-12.5 -16t-11.5 -20t-6 -19.5
q-2 -6 -8.5 -9.5t-13.5 -7t-12.5 -7.5t-5.5 -10q0 -5 4 -12q-3 -17 -13 -32t-14 -32q0 -4 -1 -8q-1 -3 -3.5 -6.5t-6.5 -5.5q-2 -1 -2.5 -6.5t-0.5 -13.5q0 -11 2.5 -21.5t10.5 -14.5q9 -4 21 -5t12 -5q0 -5 -12 -9.5t-20 -4.5q-17 3 -26.5 12t-14.5 20t-6 22t-1 19z" />
    <glyph glyph-name="two" unicode="2" horiz-adv-x="614" 
d="M-26 -22q-4 5 -4 13q0 10 8.5 19t20.5 17t25 15.5t21 15.5q75 55 152 113t152 112q0 7 5 11t11.5 6.5t14 4t13.5 4.5q19 16 41 30.5t44.5 29t44.5 30t41 33.5q24 11 38 27.5t32 30.5q1 1 1 4q0 2 -0.5 3t-0.5 3q0 5 6 7q3 1 14.5 8.5t23.5 18t21.5 22.5t9.5 24v1
q0 1 0.5 1t0.5 2q0 4 -3 10l-1 1q-2 3 -4.5 5t-10.5 2q-2 0 -4.5 -0.5t-5.5 -0.5h-2q-8 0 -12.5 -3.5t-11.5 -3.5q-4 0 -7 1q-3 11 -14 13.5t-23 2.5q-44 -2 -78 -10.5t-60 -19.5q-5 -9 -14 -11.5t-19.5 -2.5t-21 -0.5t-16.5 -7.5q-26 -10 -42 -22.5t-30 -33.5h-1
q-3 0 -5 -2l-4 -4q3 -8 9 -10.5t14 -2.5t16.5 1.5t16.5 1.5q6 0 8 -1h7q17 0 34.5 4t34.5 8.5t34.5 8.5t34.5 4q6 3 17 8t15 5h1q2 0 2 -4q0 -2 -0.5 -2.5t-0.5 -1.5v-2q-17 -23 -41.5 -37t-59.5 -26h-4q-6 0 -13 -1.5t-13 -3.5q-6 -8 -16.5 -13t-23 -7.5t-24.5 -3.5t-21 -1
q-10 3 -14.5 11t-8 16.5t-9 15.5t-17.5 9l-3 4l-1 1q-6 9 -11 18.5t-5 20.5q0 5 1 10.5t4 10.5q9 10 27 22.5t39.5 24.5t43.5 23.5t39 20.5h12.5t14 1.5t12 4.5t5.5 9q3 7 10 9t14.5 3.5t14.5 3t12 7.5q33 7 62.5 14.5t62.5 7.5q22 0 41 -4q24 -7 34.5 -25t21.5 -34
q0 -2 0.5 -3t0.5 -3q0 -4 -0.5 -8t-0.5 -9q0 -7 2.5 -11.5t11.5 -5.5q5 -4 13 -18.5t8 -32.5q0 -12 -4 -21q-10 -11 -22.5 -21.5t-34.5 -10.5q-6 -4 -6 -12v-11q-18 -19 -38.5 -33t-43 -26t-46.5 -23t-49 -25q-3 -1 -7 -1q-3 0 -5.5 0.5t-5.5 0.5q-7 0 -12 -5q-1 -10 -5 -13
t-12 -6q-1 0 -1 -0.5t-1 -0.5q-5 5 -10 5q-6 0 -10.5 -5.5t-9.5 -8.5v-8q0 -10 -1.5 -18.5t-10.5 -13.5q-17 -2 -30.5 -8.5t-25.5 -14t-25 -16t-29 -15.5q-19 -16 -40 -31.5t-40 -31t-34.5 -32t-24.5 -34.5q0 -9 9 -9q10 0 24.5 5.5t27.5 5.5h4q14 0 32 1.5t37 2.5t37 2
t33 1q27 0 34 -4q8 -8 21 -9.5t27 -2t26.5 -1t20.5 -5.5q7 -5 17.5 -8l21 -6t18.5 -7.5t10 -12.5q12 -5 12 -24q0 -8 -1.5 -16t-1.5 -16q0 -2 0.5 -3.5t0.5 -3.5q-1 -4 -4 -7q-5 -7 -11 -7h-2q-4 1 -7 6t-6 11t-7 11t-9 7v3q0 8 -6.5 12.5t-8.5 4.5q-21 0 -36.5 9t-32.5 9
q-8 0 -15.5 -2.5t-17.5 -9.5q-5 -3 -9 -3q-2 0 -3 0.5t-3 0.5l-5 8q-12 1 -23 2t-22 1q-19 0 -33 -7h-3q-3 0 -6.5 0.5t-8.5 0.5t-10.5 -1t-10.5 -3q-11 -1 -24 -6.5t-25 -5.5q-10 0 -16 6q-3 0 -5.5 0.5t-5.5 0.5q-11 0 -19.5 -3t-13.5 -10q-6 -5 -17 -7.5t-23.5 -3.5
t-24.5 -2.5t-20 -4.5q-3 -2 -7.5 -3.5t-9.5 -1.5q-4 0 -6 1q-4 12 -13 12q-8 0 -16 -6t-13 -9q-19 -13 -28.5 -25t-17.5 -12q-7 0 -12 8z" />
    <glyph glyph-name="three" unicode="3" horiz-adv-x="550" 
d="M367 36q-15 -1 -19.5 -4.5t-8.5 -7.5t-11.5 -7t-27.5 -3h-10q-3 0 -4.5 -2.5t-9.5 -7.5t-26 -11.5t-53 -15.5q-17 -7 -31.5 -12.5t-34.5 -7.5q-5 1 -10 1h-11h-5q-17 0 -33.5 1t-27.5 9q-3 3 -6 7t-5 7q-3 4 -5 7q-7 19 -17 35t-10 36q0 14 5 27q7 7 12.5 15t11.5 16
t13.5 15t18.5 13h3q13 0 23 4.5t19 10.5t19 12t22 9q11 4 19.5 6.5t19.5 2.5h8q1 -1 2.5 -4t1.5 -5q0 -4 -7 -4q-24 -14 -43 -27t-34.5 -27.5t-28.5 -31t-24 -38.5q-9 -8 -9 -18q0 -1 0.5 -2t0.5 -2q13 -11 38 -11q28 0 65.5 10t77.5 23q13 6 29 9t19 12q2 5 7.5 6t11.5 1
q2 0 5 -0.5t5 -0.5h4q2 0 10.5 4t19 9t21 10.5t15.5 8.5q3 12 19 17t28 13q16 11 30.5 19.5t27.5 18t24.5 21.5t22.5 31q6 10 6 23q0 7 -2 15q-8 9 -19.5 13.5t-24.5 8t-25.5 7t-22.5 9.5q-13 1 -28 2.5t-30 1.5q-11 0 -21 -1.5t-18 -5.5h-3q-5 0 -9 5.5t-7 13t-6 16
t-6 15.5q-2 1 -6 1q-11 0 -19 -9t-16 -9q-6 0 -12 9q0 5 -2 7.5t-2 6.5q0 2 1 4q30 26 69.5 46.5t82.5 39t87 35.5t83 37q11 4 24 12t24 16t18.5 15.5t7.5 12.5q0 8 -8.5 15t-18.5 10q-2 1 -5 2q-2 1 -5.5 2t-7.5 1q-3 0 -11 -2q-2 0 -4 0.5t-4 0.5q-10 0 -17.5 -3t-18.5 -3
h-8q-13 0 -20.5 -2.5t-12.5 -6t-8.5 -6t-7.5 -2.5h-2q-3 2 -8 2h-10q-14 0 -30.5 -3t-29.5 -8h-2q-6 0 -13.5 -4t-12.5 -7q-3 -5 -9 -7t-12 -2q-7 0 -13 3q-26 -2 -45 -6.5t-43 -12.5l-7 6q6 11 17.5 19.5t25.5 15t28 12.5t26 12q28 11 61 22t65.5 19.5t61 14t48.5 5.5
q3 0 6 -0.5t6 -0.5q7 -1 13 -1t11 -5q7 -1 10.5 -4.5t6.5 -8t6.5 -8.5t10.5 -6q5 -2 5 -8.5t3 -11.5q9 -14 20.5 -26.5t11.5 -29.5q0 -3 -2 -11q-5 -5 -9.5 -10t-8.5 -13q-1 -7 -3 -11q-4 -11 -11 -11q-29 -3 -43 -18q-17 -11 -39 -18t-43 -13l-38.5 -11t-23.5 -11
q-1 -5 -5.5 -6.5t-9.5 -3.5q-2 -1 -4 -1q-4 0 -6 3t-5 3h-2q-21 -8 -40.5 -13.5t-36.5 -16.5q-1 -1 -1 -4q0 -5 5 -7q10 3 17 3q15 0 26 -7t28 -7h2q19 -4 33.5 -12.5t26 -19.5t20.5 -23t17 -22l2 -2q8 -11 17 -27.5t9 -28.5q0 -18 -7 -35.5t-16 -31.5t-19 -23.5t-16 -13.5
q-8 -5 -23 -16t-25 -21v-1h-4q-5 0 -9 0.5t-9 0.5q-14 0 -20 -10q1 -2 1 -7q0 -9 -7 -15t-16.5 -10.5t-21 -8.5t-20.5 -10z" />
    <glyph glyph-name="four" unicode="4" horiz-adv-x="620" 
d="M417 -62q-7 13 -13 20.5t-9 23.5q-7 9 -10 20t-4.5 22.5t-2 21.5t-3.5 16t-3 12q0 10 7 15q3 3 7 5q1 0 2.5 5.5t3.5 13t4.5 15.5t5.5 14q17 35 32 53t13 19q0 5 -17 5q-16 0 -37 -4.5t-29 -10.5q-8 0 -12 2.5t-7 5t-6.5 5t-9.5 2.5h-3q-17 -7 -29 -9t-23 -2.5
t-23.5 -1.5t-29.5 -5h-5q-9 0 -15.5 -4t-11.5 -8.5t-10 -8.5t-12 -4q-6 0 -13 3q-9 3 -18 3q-13 0 -23.5 -4t-20.5 -4q-5 0 -11 3q-4 1 -8.5 7t-8 14t-6 17.5t-2.5 16.5q0 8 3 11q4 3 4 11v2q0 5 1.5 8t9.5 4q5 -1 8.5 -1h5.5q9 0 12.5 2t21.5 4q26 24 61.5 48.5t64.5 44.5
q57 34 109 64t110 62q88 49 172 97.5t169 82.5q3 1 7 1q9 0 12 -7t11 -9q6 -3 8.5 -18.5t2.5 -30.5q0 -19 -3 -26q-1 -6 -9 -6q-6 0 -8 1q-2 0 -4 1q-5 1 -11 1.5t-12 0.5q-9 0 -17.5 -1.5t-16.5 -6.5q-2 -8 -12.5 -12.5t-21.5 -4.5q-6 0 -9 1q-3 2 -10 2t-13.5 -1.5
t-11.5 -3.5q-8 -2 -11 -7t-5.5 -10t-6.5 -9.5t-14 -4.5q-5 0 -12.5 -3t-14.5 -7t-12.5 -7.5t-8.5 -3.5h-15q-14 0 -19 -5q-6 -9 -17 -14.5t-22.5 -10.5t-22 -10.5t-16.5 -14.5q-59 -19 -101.5 -42.5t-86.5 -50.5q-2 -2 -4.5 -3.5t-5.5 -3.5q-10 -5 -21.5 -11t-22 -12.5
t-18.5 -14t-11 -16.5q2 -5 7 -6.5t11 -1.5t11.5 0.5t10.5 1.5q7 0 17 1t20 1h7q42 5 84 9.5t83 4.5h15t15 -1q8 0 17 7t17 16q10 10 19 23q18 33 43 56t51 54q4 7 15 7q8 0 16 -4q6 -8 17 -15t11 -21q3 0 3 -8q0 -4 -2 -8t-7 -5q-14 -2 -22 -8.5t-14 -13.5t-10 -13t-10 -7
q-20 -9 -33.5 -24.5t-21.5 -23.5q-4 -4 -4 -8t1 -5t2 -1q18 -3 38.5 -2.5t39 -1t32.5 -7.5t17 -21q0 -4 1 -7t1 -7q0 -2 -0.5 -3t-0.5 -2q-1 -4 -5 -4t-8 3t-9 4q-5 0 -10 1t-11 1.5t-11 0.5q-16 0 -20 -4q-7 -6 -16 -7t-19 -1t-19.5 -0.5t-17.5 -3.5q-8 -1 -16 -7t-15 -13
q-8 -8 -16 -18q-12 -24 -20 -34.5t-13.5 -14.5t-9.5 -5.5t-8 -7.5q-1 -1 -1 -3q0 -5 5.5 -9.5t5.5 -9.5v-2q-26 -14 -30.5 -37t-4.5 -55v-7q-2 -8 -2 -15v-13q0 -27 6 -43t6 -22q0 -3 -3 -3q-16 0 -24 5.5t-15 12.5z" />
    <glyph glyph-name="five" unicode="5" horiz-adv-x="538" 
d="M127 180q-5 -15 -13.5 -25t-11.5 -27l-6 -8q-5 -8 -5 -16v-1q4 -4 4 -9q0 -3 -0.5 -6.5t-0.5 -7.5q0 -8 5 -14q13 -12 27.5 -17t31.5 -5q28 0 57.5 9.5t55.5 16.5q1 0 2 -0.5t2 -0.5q7 0 15.5 4.5t13.5 8.5q1 14 17 14h4q9 0 13 2.5t7.5 6t7.5 7t13 5.5q57 30 90.5 64.5
t61.5 76.5q16 11 20 29.5t9 36.5v24q0 11 -2.5 20t-12.5 13q-14 9 -34 13t-42 4q-21 0 -41 -2.5t-34 -5.5q-16 -3 -34 -9t-34.5 -12.5t-28 -14t-14.5 -14.5q-2 -2 -9 -7t-16 -5q-6 0 -17 2t-25 8v2q0 7 -6 10.5t-13 6.5t-13 5.5t-6 8.5q0 4 2 7q33 19 68 37q0 1 -0.5 1
t-0.5 1q-7 12 -7 22q0 2 0.5 3t0.5 3q9 24 25 46t35 43t38.5 42t35.5 44q-2 4 -2 7q0 5 2 10.5t3 4.5q4 9 6.5 11.5t10.5 9.5q2 1 6 1q12 0 19 -9.5t18 -9.5q41 4 83 8.5t89 4.5q8 0 15 -0.5t15 -0.5l38 -2q2 1 5 1q7 0 10 -5.5t12 -5.5q4 0 6 1h2q5 0 11 -2.5t8 -4.5
q13 -2 20.5 -7.5t7.5 -8.5q0 -5 -11 -6.5t-26 -1.5h-31q-11 0 -18 -0.5t-7 -3.5q0 -5 -6.5 -5.5t-16.5 -0.5q-11 0 -23 -0.5t-23 -3.5q-14 -5 -24 -11t-19 -6h-2q-4 2 -11 2q-14 0 -24.5 -10t-22.5 -10q-5 0 -13 5q-23 0 -49 -7.5t-40 -15.5q-9 -6 -12.5 -13t-5 -12t-3 -8.5
t-5.5 -3.5q-16 0 -22.5 -6.5t-10.5 -15t-9.5 -17t-19.5 -13.5q-8 -8 -10 -16.5t-3 -12.5l6 -3q13 7 33.5 10t40.5 4.5t35 2.5t18 4q2 2 10 2q10 0 26 -2.5t33 -6t32 -8.5t23 -9q10 -7 23.5 -26t17.5 -39q8 -8 12 -20t4 -25q0 -14 -4 -25q-7 -2 -9 -5.5t-2 -8.5q0 -4 0.5 -8
t0.5 -9q0 -8 -3 -12q-12 -22 -23 -40q-10 -16 -20.5 -30.5t-18.5 -19.5q-2 -1 -7 -1q-4 0 -7 0.5t-6 0.5q-9 0 -11 -8q1 -3 2 -7t1 -8q0 -8 -8 -8q-14 0 -18 -4.5t-4 -12.5q0 -4 0.5 -8t0.5 -9q0 -13 -9 -18h-6q-11 0 -21 -3.5t-17 -8.5q-4 -2 -3.5 -4.5t-0.5 -8.5
q-2 -11 -13 -11t-21 -5q-18 -14 -43.5 -22t-43.5 -20q-17 -2 -35 -9t-37 -7q-8 0 -15.5 2t-15.5 7l-14 -4q-22 2 -41.5 6t-30.5 18q0 9 -8 13.5t-8 13.5v1q-8 8 -11.5 12.5t-8.5 10.5q-8 9 -9 24.5t-6 23.5q4 5 5 13.5t7 13.5l2 3q12 17 23.5 28.5t34.5 22.5q2 0 4 1
q4 2 8 2q5 0 5 -4q0 -1 -0.5 -1t-0.5 -1z" />
    <glyph glyph-name="six" unicode="6" horiz-adv-x="538" 
d="M102 263q8 7 8 12q0 2 -0.5 4t-0.5 4v2q1 3 3 6.5t4 6.5q8 10 12 20t17 20q4 12 13.5 25t20.5 26q31 37 69.5 75.5t83.5 74.5t96.5 68t108.5 56q13 7 29 7q17 0 33 -6t30 -13q4 -6 14 -5.5t13 -5.5q8 -5 11.5 -11.5t8.5 -12.5q1 -14 8.5 -22.5t7.5 -18.5q0 -6 -4 -11h-5
q-6 0 -10 3t-7 7t-6 7.5t-7 4.5q-11 8 -25 10.5t-30 2.5h-14q-6 -2 -10.5 -4.5t-11.5 -2.5q-5 0 -14 3q-8 0 -11 -3t-4.5 -6.5t-3 -6.5t-7.5 -3h-4q-5 0 -12.5 -3.5t-16 -8.5t-15.5 -10.5t-10 -9.5q-4 -3 -11 -3t-13.5 -0.5t-12.5 -3t-8 -8.5q0 -1 -0.5 -2t-0.5 -2
q0 -4 1 -7t1 -6q0 -8 -9 -9q-4 1 -11 1q-26 0 -42.5 -15t-33.5 -27q-29 -29 -56.5 -60.5t-46.5 -69.5q-1 -1 -1 -4q0 -6 3 -6q2 0 4 2q13 6 25.5 16.5t23.5 16.5q30 17 67 33.5t77 16.5q24 0 45 -7q14 -12 26.5 -23t17.5 -26q10 -9 21.5 -19t21.5 -21t17 -24t7 -28t-7 -29
q-1 -3 -3 -7q-2 -3 -3.5 -7.5t-2.5 -9.5q-2 -10 -8.5 -13t-6.5 -13v-4q-1 0 -1 -1v-1q-2 -5 -6 -11t-12 -6q-4 0 -6 1l-1 -1q-4 -3 -7 -6t-3 -8q0 -3 1 -4q4 0 4 -6q0 -10 -5 -13q-13 -2 -21 -14t-19 -21q-25 -19 -47.5 -35.5t-48.5 -30.5q-5 -3 -9 -3q-6 0 -13 2.5t-12 2.5
q-6 0 -10 -7q2 -4 2 -5q0 -5 -5.5 -8.5t-10.5 -5.5q-15 -4 -28.5 -9.5t-27.5 -10t-29.5 -8t-35.5 -3.5q-6 0 -10 1q-10 2 -10 7q0 1 8 4.5t18 8.5t18 11t8 12q-11 5 -22 6t-20 9q-19 9 -34.5 22.5t-26.5 26t-17 23t-6 13.5v5q0 14 -6 17.5t-6 12.5q0 2 2 10q-2 3 -4 15
t-2 28q0 20 3.5 39t14.5 28zM459 344q-14 3 -22 3q-16 0 -23 -6t-18 -6q-2 0 -3 0.5t-3 0.5t-3 0.5t-3 0.5q-10 0 -16.5 -5t-18.5 -10q-15 -11 -27.5 -22t-17.5 -20q-1 -1 -7 -1q-9 0 -13 5h-3q-10 0 -21 -9t-22 -19q-6 -5 -11.5 -13t-10 -15.5t-9 -13t-7.5 -5.5
q-11 0 -17 6.5t-15 9.5q-5 0 -9 -4.5t-7 -11t-5.5 -13.5t-3.5 -11q0 -1 -0.5 -1.5t-0.5 -1.5t-0.5 -1t-0.5 -1l-5 -41q0 -4 1 -8q0 -8 2 -8q11 -10 14.5 -25.5t18.5 -23.5q0 -6 4.5 -8t10.5 -2h12.5t9.5 -3q11 -3 18 -5.5t12 -2.5q3 0 7 2q2 2 8 6t14 4q4 0 7 -1q1 -1 4 -1
q5 0 15 3t20.5 7.5t21 10.5t17.5 13q7 8 17 8q6 0 11.5 -1t10.5 -1q7 0 10 5q1 1 1 6v16q3 2 5.5 6t10.5 4h2q5 -1 19.5 10.5t23.5 25.5q11 6 14.5 12.5t11.5 17.5q5 9 9 20t7 21q4 11 7 24q2 4 2 9q0 6 -2 12.5t-4 8.5q-2 18 -19 26.5t-31 16.5z" />
    <glyph glyph-name="seven" unicode="7" horiz-adv-x="272" 
d="M272 635h15q25 0 54 3t58 3h13t13 -1h27q42 0 83 -1.5t85 -3.5h1q13 0 32 7t34 7q12 0 17 -6q6 -7 8 -13t2.5 -12t1.5 -11.5t6 -11.5q1 -2 2.5 -10.5t1.5 -16.5q0 -13 -4 -18q-4 -6 -12 -9.5t-16.5 -6.5t-17 -6.5t-12.5 -9.5q-2 -8 -7 -12t-11 -8l-1 -1h-5q-10 0 -19 4
t-17 4q-9 0 -16 -8q-4 -9 -12.5 -15t-19 -11.5l-21 -11t-17.5 -13.5q-6 -4 -15 -6t-17.5 -4t-14 -6.5t-5.5 -13.5v-2q-5 -5 -13 -7t-20 -3q-17 -9 -36.5 -23t-37.5 -28t-31 -25t-16 -14q-7 -5 -7 -11t-8 -10q-4 -2 -10 -2.5t-12.5 -0.5t-12.5 -2t-9 -7q-6 -9 -4.5 -14
t-5.5 -10q-14 -14 -30.5 -26.5t-32.5 -26t-29.5 -28t-19.5 -33.5v-3q0 -10 -8.5 -17.5t-10.5 -12.5q-3 -4 -8 -6q-3 -1 -5 -1q-2 -1 -6.5 -7.5t-9.5 -16t-9 -21.5t-4 -23q0 -18 11 -28q14 -13 40.5 -19t49.5 -6q21 0 30 4q3 2 5.5 2h4.5q6 0 6 -5q0 -2 -0.5 -3.5t-0.5 -2.5
l-1 -2q-17 -14 -39 -18t-39 -15q-6 -4 -28 -4q-11 0 -21 1.5t-15 6.5q-11 11 -16.5 26.5t-8.5 30.5q-3 2 -5 6t-3 8q-2 4 -2 10q1 5 1 10v10v4q0 14 1.5 26.5t11.5 21.5q1 1 1 4t-1.5 5t-1.5 6q0 1 2 7q1 3 2.5 5t4 4.5t6.5 7t10 13.5q12 18 22.5 32.5t22 28t23.5 27
t26 29.5q9 12 31 34.5t50.5 49t61 54.5t63.5 51q10 7 23 14.5t25 14.5t19.5 12.5t7.5 10.5q-1 7 31.5 21t85.5 50q8 6 8 12q0 5 -6 5q-8 1 -21.5 1.5t-29.5 0.5q-24 0 -45 -2.5t-24 -10.5q-2 -3 -11 -5t-21.5 -3.5t-26.5 -2t-24 -0.5q-15 -5 -28.5 -15.5t-28.5 -10.5
q-11 0 -22 8l-16 -2q-8 -1 -12.5 -2t-8.5 -2.5t-9 -4.5t-15 -8q-9 1 -13 5t-6 9.5t-3 11.5t-3 12q-2 7 -6.5 14.5t-4.5 18.5q0 3 0.5 5.5t1.5 6.5q1 2 3 5q3 5 9 8q3 2 12 2h20h18.5t17.5 -1z" />
    <glyph glyph-name="eight" unicode="8" horiz-adv-x="652" 
d="M98 75q-9 19 -9 42t9 46.5t26 43.5q12 17 26.5 28.5t25.5 25.5q1 0 2 1q2 2 2 3q0 2 -2 3q-5 2 -10.5 2h-11.5q-23 0 -44.5 -5t-31.5 -5q-6 0 -6 3q0 8 9 16t23 16t30 15.5t31 14.5q36 14 75 20.5t77 12.5q13 2 13 9q0 2 -3 7q-14 10 -21 25.5t-7 34.5q0 26 11 51
q6 13 15.5 24t19 20t16.5 15.5t7 11.5q0 3 5 7.5t12.5 9t16.5 9t16 7.5q18 8 35 17t35 17t37 13.5t40 5.5h12q5 -1 6.5 -4.5t2 -7.5t2 -7.5t5.5 -4.5q39 8 78.5 19.5t81.5 11.5q32 0 63 -10q13 -5 18.5 -14t8.5 -18.5t7 -19t15 -16.5q5 -7 10.5 -14t5.5 -17q0 -7 -2 -11
q-12 -4 -14.5 -8t-9.5 -15q-11 -14 -26 -25t-30 -19t-26 -14t-14 -9q-5 -11 -19 -11q-5 0 -9.5 0.5t-9.5 0.5t-8.5 -2t-4.5 -10q-2 -9 -8 -10.5t-13.5 -1.5t-14.5 -1t-10 -8q-2 -3 -14 -6.5t-29 -6.5t-36.5 -6.5t-36.5 -7.5q-6 -2 -10.5 -1.5t-4.5 -4.5v-1q10 -5 22.5 -8
t25 -6.5t23.5 -8t18 -10.5q6 0 11 -4q11 -7 15 -24q11 -13 23.5 -31t12.5 -34v-4q-1 -8 -4.5 -17t-7.5 -17q-4 -9 -10 -17q-17 -27 -31 -39q-7 -7 -12 -10t-6.5 -7.5t-2.5 -8.5t-2.5 -7.5t-7.5 -4.5h-2q-17 0 -24.5 -6.5t-13.5 -15t-13.5 -15t-23.5 -6.5q-12 -6 -16 -11
t-6 -9t-6 -7t-17 -4q-22 0 -36 -5.5t-27 -12t-27.5 -12t-36.5 -5.5h-3q-2 2 -8 5t-13 3q-6 0 -9 -2q-6 -2 -11 -6.5t-9.5 -9.5t-9.5 -9t-12 -4q-8 0 -18 6q-4 0 -8 -0.5t-9 -0.5q-17 0 -34 2t-31 7q-32 14 -48 39.5t-30 49.5zM635 244q-2 13 -14 24t-23 15q-35 12 -75 19.5
t-79 7.5q-31 0 -59 -5.5t-51 -18.5q-8 -8 -19 -10.5t-23 -3t-22.5 -1.5t-16.5 -7q4 -7 4 -13q0 -7 -5 -11.5t-11.5 -8.5t-13.5 -8.5t-10 -11.5q-6 -1 -14 -6.5t-16 -13.5t-16 -17t-14 -18q-9 -12 -15 -23q-5 -10 -9.5 -21t-4.5 -22v-1q0 -7 2.5 -11.5t4.5 -8.5q3 -4 7 -8
q18 -8 48 -11t57 -3q22 0 37 2t17 6q2 5 9 5q2 0 4.5 -0.5t4.5 -0.5q3 0 7 2q6 0 9.5 6t10.5 9h5q7 0 9.5 -1.5t7.5 -1.5q4 0 12 3q19 1 51.5 14.5t65 31.5t59 35.5t33.5 26.5q1 7 7 11.5t13.5 9.5t15 13.5t10.5 25.5zM383 402q11 0 20.5 -0.5t19.5 -0.5q14 0 27.5 1.5
t30.5 6.5q21 3 33 7.5t21 8t16 6.5t18 3h5q8 5 16.5 7.5t17 4t16.5 4t16 7.5q44 14 77 32t62 41q8 11 19 18t17 15q1 3 2 6.5t1 6.5q0 4 -3 6q-7 7 -20.5 10t-29.5 3q-28 0 -47 -8q-5 2 -13 2t-10 7q-6 3 -19 3q-15 0 -33 -3t-32 -8v-1q0 -2 3 -6t3 -8q0 -3 -2 -5
q-4 -2 -8 -2q-2 0 -5 0.5t-6 0.5t-7 -2q-11 -3 -26.5 -11t-29.5 -8q-12 0 -19 9q-33 -1 -59.5 -19.5t-50.5 -35.5h-4q-13 0 -21 -12t-13 -18q-11 -8 -19 -20.5t-10 -29.5q6 -8 20.5 -11.5t25.5 -6.5z" />
    <glyph glyph-name="nine" unicode="9" horiz-adv-x="519" 
d="M680 510q-1 -1 -1 -4t3.5 -5.5t7.5 -5t7.5 -6t3.5 -7.5t-1 -7.5t-2 -6.5q-2 -4 -3 -8q-6 -15 -14 -26.5t-14 -26.5q-5 -5 -11 -15.5t-20 -12.5q-3 -8 -5.5 -14.5t-4.5 -15.5q-8 -3 -9 -10t-9 -11q-3 -5 -5 -9l-3.5 -7t-1.5 -5q-1 -5 -5.5 -7t-9.5 -2.5t-10 -2t-7 -4.5
q-4 -5 -4 -9q0 -2 0.5 -4t0.5 -4q0 -3 -1 -5q-5 -6 -9.5 -10.5t-4.5 -12.5v-2q-3 -5 -9.5 -10t-13 -9.5t-12 -9.5t-5.5 -10q0 -1 2 -5q3 -6 3 -8q0 -5 -6.5 -6.5t-14.5 -2.5t-14.5 -4.5t-6.5 -13.5q0 -4 -7.5 -12t-18 -17t-21 -17t-17.5 -12q-7 -2 -12 -7l-10.5 -10.5
t-12.5 -10.5t-18 -6q-8 -3 -9.5 -7.5t-2.5 -9t-4 -8t-13 -4.5q-12 -8 -26 -14t-26.5 -11.5t-21 -9t-9.5 -4.5q-3 -9 -9.5 -11.5t-14 -3l-15 -1t-10.5 -3.5h-3q-10 0 -25 -2t-31 -2q-15 0 -27 3q-9 3 -25.5 13t-33 22t-28.5 24t-12 20q0 4 3 6q2 2 2 3q0 5 -6.5 10.5
t-6.5 11.5q0 3 1 4q4 2 11 2q5 0 9 -0.5t9 -1.5q3 -2 10.5 -10t19 -16.5t27 -15.5t35.5 -7q24 0 50 6.5t50 15t42.5 18t27.5 15.5q11 3 15.5 8t7 10t6 8.5t12.5 3.5h6v-1q32 13 67 41.5t65 58.5q35 34 69 75q6 5 8 8.5t2 6.5q0 4 -1.5 7t-1.5 6q0 6 11 8q4 0 5 4.5t2 10.5
t3 11.5t7 7.5q10 8 14.5 23.5t9.5 26.5q1 4 3.5 11.5t2.5 13.5q0 8 -6 8q-2 0 -3 -0.5l-3 -1.5q-5 0 -25.5 -19.5t-46.5 -39.5q-9 -2 -15 -5.5t-9 -6.5q-4 -4 -5 -8q-3 -9 -13 -15.5t-21.5 -13t-20.5 -14t-9 -19.5q-3 -4 -8.5 -4.5t-11 -1.5t-10.5 -2.5t-6 -6.5
q-16 -1 -30.5 -6l-29 -10t-29 -9.5t-29.5 -4.5h-12q-12 0 -21.5 4.5t-18.5 10.5t-18.5 11.5t-20.5 7.5q-20 12 -26.5 23.5t-10.5 13.5q-7 3 -7 14q0 6 3 11q4 4 7 10q2 4 3 8q6 31 24.5 53t36.5 43q8 4 12 9t6.5 11t6 11.5t9.5 9.5q18 12 34 25.5t33 26t35.5 22t40.5 14.5
q3 0 7.5 -1t9.5 -1q11 0 11 7v2q-2 3 -2 7t4 6t9 3.5t9 3t5 4.5q23 8 48.5 15t56.5 7h10q6 -5 17 -6t16 -1h1q8 0 23 -6t31.5 -14t30.5 -17t20 -16q5 -5 7.5 -13.5t2.5 -17.5q0 -5 -0.5 -8.5t-1.5 -7.5l-1.5 -5t-5 -12.5t-8 -16t-10.5 -15.5zM197 356q-2 -2 -2 -8
q0 -13 8 -21q4 -2 11 -2q13 0 28.5 6.5t32.5 6.5h2q5 0 22 5t37 13.5t38.5 18.5t27.5 20q6 6 14 9.5t16.5 6.5t17.5 7.5t17 12.5q16 7 33 19t31 24t23.5 21l9.5 9v2q0 6 3.5 8.5t7.5 4t7.5 3t3.5 6.5q0 1 -0.5 2t-0.5 2t1 3q0 2 0.5 3t0.5 3q0 5 -3 10q2 5 12 5h7q7 0 9 2
q2 11 9.5 20.5t7.5 20.5q0 5 -5 13l-9 9q-5 2 -11 2h-11q-18 0 -34 -4t-31 -6q-17 -5 -36.5 -12.5t-37.5 -16t-32.5 -17.5t-22.5 -17q-5 -1 -12.5 -7.5t-8.5 -10.5q1 -2 1 -5q0 -10 -14 -10t-24 -5t-18 -11t-16 -12.5t-19 -10.5q-8 -3 -12 -9.5t-7.5 -13.5t-9.5 -12.5
t-16 -5.5q-4 -3 -4 -11v-6q0 -6 -2 -8q-1 -2 -4 -5q-6 -6 -12 -7q-11 -4 -14 -9.5t-3.5 -11.5t-0.5 -12t-6 -11z" />
    <glyph glyph-name="colon" unicode=":" horiz-adv-x="268" 
d="M279 364q5 -6 13.5 -10t16.5 -8t14 -7.5t7 -7.5v-1q0 -5 -3.5 -11.5t-8.5 -13t-9.5 -10.5t-6.5 -4q-6 -1 -8.5 -5t-3.5 -8.5t-2.5 -8.5t-5.5 -6l-2 -8q-2 -8 -6 -8q-2 0 -3.5 -0.5t-3.5 -0.5h-4q-9 1 -17.5 5.5t-16 10t-12 11t-5.5 7.5v1q0 11 10 30t29 31q2 3 8.5 13.5
t14.5 10.5q3 0 5 -2zM108 95q11 -8 23.5 -14.5t12.5 -19.5q0 -11 -4 -16.5t-12 -13.5l-2 -3q-5 -7 -7.5 -9.5t-8.5 -6.5q-1 0 -1 -0.5t-1 -0.5l-3 -2q-7 -6 -7.5 -13t-9.5 -11q-2 -1 -6 -1q-6 0 -14 2.5t-15.5 7t-12.5 10t-5 12.5q0 14 6.5 19.5t6.5 13.5v4q0 7 7 16l8 8
q3 8 10 14t13 10h3q5 0 11 -1t8 -5z" />
    <glyph glyph-name="semicolon" unicode=";" horiz-adv-x="268" 
d="M151 62q0 -9 -8 -15t-11 -15q-11 -18 -22.5 -24.5t-17.5 -13.5q-2 -12 -15.5 -23t-21.5 -19h-1q-6 -2 -12.5 -5.5t-8.5 -11.5q-11 -4 -27 -14t-24 -10q-6 0 -10.5 2.5t-4.5 5.5q0 1 2 3q2 4 5 8l4 6t4 4q12 4 12 13.5t9 18.5q2 1 5 3q2 2 3.5 3t2.5 3l10 20t10 13
t7.5 8.5t1.5 6.5q0 2 -0.5 4t-0.5 4q0 3 2 5q4 6 6 10.5t3 8t3 6t7 4.5q10 19 12 28.5t13 9.5t22 -4.5t20 -11t15 -15t6 -16.5zM279 364q5 -6 13.5 -10t16.5 -8t14 -7.5t7 -7.5v-1q0 -5 -3.5 -11.5t-8.5 -13t-9.5 -10.5t-6.5 -4q-6 -1 -8.5 -5t-3.5 -8.5t-2.5 -8.5t-5.5 -6
l-2 -8q-2 -8 -6 -8q-2 0 -3.5 -0.5t-3.5 -0.5h-4q-9 1 -17.5 5.5t-16 10t-12 11t-5.5 7.5v1q0 11 10 30t29 31q2 3 8.5 13.5t14.5 10.5q3 0 5 -2z" />
    <glyph glyph-name="less" unicode="&#x3c;" horiz-adv-x="763" 
d="M520 354q-15 -2 -29.5 -11.5t-33.5 -9.5q-3 0 -6 0.5t-7 1.5q-2 -8 -13.5 -12.5t-24.5 -9t-23 -9t-10 -10.5q0 -8 17 -18l13 -4q33 -10 69 -22t59 -29h14q18 -9 37.5 -18t38 -17.5t34 -17t25.5 -15.5q2 -2 2 -4q0 -5 -10 -7.5t-12 -6.5q-3 -1 -7 -1q-14 0 -23 8t-22 8h-3
q-8 5 -20.5 7.5t-21.5 6.5q-15 7 -30 9.5t-29 4.5t-27.5 5.5t-25.5 12.5q-17 0 -30.5 6t-27.5 6q-8 0 -15 -3q-9 1 -14.5 5.5t-10 9.5t-9.5 9t-12 4q-8 0 -18 -6q-21 6 -37 14t-41 10q-6 3 -13 3t-14 0.5t-12.5 2.5t-8.5 9q-11 7 -18 22t-7 21q0 8 9 11.5t20.5 5t22 1.5
h13.5q11 2 20 7q4 3 8 5q12 13 30.5 16t41.5 8q18 7 39.5 12.5t42 11t39 10.5t30.5 11q13 10 28 13t30 3.5t29.5 3t28.5 12.5q38 11 71 18.5t74 11.5q4 7 11 8.5t15 1.5h13q8 0 16 1.5t13 6.5q19 5 41.5 6.5t43.5 4.5q6 0 15.5 -2t9.5 -10v-2q-5 -5 -12.5 -7t-15 -4.5
t-14.5 -5.5t-11 -10q-20 -8 -41 -13t-42 -10.5t-40 -12.5t-34 -17q-11 5 -23 5t-21 -5t-17 -11.5t-17 -11.5t-20 -5h-10q-7 0 -17.5 -2t-22 -5t-22.5 -7t-18 -9zM921 489l-3 -4v-1q3 1 3 5z" />
    <glyph glyph-name="equal" unicode="=" horiz-adv-x="738" 
d="M301 310q8 -6 19 -8t24 -2q14 0 27.5 1t25.5 1q44 0 94 2t93 2q37 0 63 -0.5t31 -1.5q18 -7 29.5 -23.5t11.5 -26.5q0 -4 -1 -5q-9 -3 -19 -3q-15 0 -30.5 3.5t-32.5 3.5q-14 0 -26 -4q-5 -3 -13 -4t-14 -1h-6q-4 7 -14.5 8.5t-23.5 1.5h-33q-7 -5 -13.5 -8t-14.5 -3
q-6 0 -9 1q-10 4 -19 5t-19 1q-18 0 -36.5 -2.5t-38.5 -2.5h-22q-17 0 -32 1t-29 1q-13 0 -26 -1.5t-28 -6.5q-5 0 -11.5 -2t-12.5 -2q-7 0 -11 4q-9 5 -16.5 9t-14.5 12q-4 6 -11 13t-7 15q0 5 4 9q14 5 27 6.5t25 1.5q14 0 28 -1t29 -1q12 0 25 1t28 6zM286 472v2
q0 6 14 11h30q10 0 16.5 -1.5t7.5 -9.5q6 -3 11 -3q10 0 19.5 6t19.5 6q9 0 18 -9h19q39 0 75 1t69 1q20 0 38 -0.5t37 -2.5q21 4 47 6t48 2q27 0 36 -3q12 -7 19.5 -11.5t12 -9t8.5 -10t9 -13.5l3 -4q0 -10 -13 -10h-4q-23 2 -43 4.5t-40 2.5q-24 0 -52 -6q-26 1 -53.5 2
t-56.5 1q-30 0 -59 -2t-54 -9q-18 5 -29.5 7.5t-22.5 2.5q-8 0 -16 -1.5t-20 -4.5q-4 2 -11 2q-5 0 -11 -1t-11 -1q-7 0 -10 2q-11 4 -20 12t-15.5 16t-11 15t-4.5 10z" />
    <glyph glyph-name="greater" unicode="&#x3e;" horiz-adv-x="830" 
d="M450 297q2 0 3.5 0.5t3.5 0.5h5q17 2 35.5 4.5t30.5 9.5q0 4 5.5 7.5t12.5 6t13.5 4t8.5 1.5q14 4 29.5 8.5t32.5 4.5h9.5t9.5 -2q6 6 16.5 9.5t21 6.5t18.5 5.5t8 6.5q0 11 -13 16t-29.5 7.5t-30.5 6t-16 11.5q0 4 -25.5 9.5t-63 14.5t-81 21t-80.5 29h-4
q-11 0 -23.5 3.5t-12.5 8.5q0 10 9.5 12t17.5 2h7q36 -4 70 -9q29 -5 61.5 -11.5t57.5 -14.5h8q26 0 53 -5.5t45 -19.5q24 -1 52 -9.5t52.5 -18.5t42.5 -18.5t22 -9.5t7 -7t6 -14t6 -15t8 -9q2 -5 3.5 -10.5t1.5 -10.5q0 -13 -12 -13q-5 1 -11 1h-12q-28 0 -58 -5t-55 -14
q-3 2 -6.5 2.5t-6.5 0.5q-5 0 -9 -0.5t-6 -0.5q-7 -5 -9 -11.5t-14 -7.5q-5 2 -8.5 2h-8.5q-17 0 -33.5 -5t-31.5 -7q-14 -2 -27 -8t-26 -6q-8 0 -15 4q-8 -2 -14 -6t-11.5 -9t-12.5 -8.5t-16 -3.5q-2 0 -3.5 0.5t-3.5 0.5q-8 -5 -17.5 -7.5t-19 -3.5t-19.5 -2.5t-18 -5.5
q-18 -2 -34 -7.5t-32 -12.5t-32.5 -12t-35.5 -5q-12 -7 -26 -9.5t-28.5 -4.5t-28 -4.5t-24.5 -9.5q-15 -3 -32 -3q-8 0 -14 1t-8 3q0 9 13 14t28 14q15 1 22.5 3.5t12 5.5t8 6.5t10.5 5.5q25 7 55.5 17t57 19.5t45 16.5t19.5 9q7 6 20.5 12t28 10.5t27.5 7.5t18 4z" />
    <glyph glyph-name="question" unicode="?" horiz-adv-x="319" 
d="M195 182q-4 6 -9.5 20t-5.5 31q0 8 5 15t12.5 14t15.5 13.5t14 13.5v4q0 18 16 25.5t32 15.5q17 9 29 16.5t24 15.5t25.5 16.5t32.5 17.5q17 2 31.5 16t30.5 21q27 14 56 34.5t58 36.5q15 12 34.5 26t37.5 30t30 34.5t12 39.5q0 9 -3.5 21t-16.5 25q-16 11 -38 15.5
t-45 4.5q-17 0 -31.5 -2t-25.5 -4q-5 -7 -12 -9t-17 -2h-31q-9 -1 -18.5 -5t-19 -8.5t-18.5 -8t-16 -3.5q-3 1 -10 1q-8 0 -15 -2.5t-11 -7.5q-5 -8 -13.5 -11t-16.5 -5t-14 -5t-6 -12q0 -5 1 -9q-6 -7 -12 -7q-4 0 -7 1t-7 1q-2 0 -3 -0.5t-3 -0.5q-14 -8 -24 -17t-16 -17
q-7 -10 -11 -19q-3 -5 -3 -8t1 -4.5t1 -3.5q14 -8 25.5 -10.5t23.5 -2.5q17 0 35.5 3.5t38.5 3.5h8t9 -1q18 0 36 3t32.5 7t24.5 7t13 3q4 -5 4 -11q0 -8 -8.5 -12t-11.5 -9q-8 -11 -20.5 -14.5t-26 -5.5t-25.5 -4.5t-19 -12.5q-4 3 -9.5 6.5t-11.5 3.5q-5 0 -8 -3
q-5 -13 -18 -14.5t-30 -3.5h-2q-7 1 -17 2.5t-19.5 4t-17 6t-8.5 9.5q-2 10 -7 16.5t-11 11.5t-12 10.5t-9 15.5q-4 3 -4.5 5t-0.5 5v4q3 23 17 44.5t35 40t47 34.5t54 29q12 6 32 12t39.5 11.5t34 10.5t14.5 10q1 2 12.5 4.5t28.5 5t37.5 4t40.5 1.5q19 0 35 -1.5t26 -6.5
q16 -9 31 -23.5t28 -31.5t23.5 -35.5t17.5 -35.5q2 -6 2 -10q0 -6 -2 -12q-1 -3 -1 -5q-12 -32 -34 -57.5t-54 -47.5q-5 -3 -6.5 -7t-3 -7t-5 -5.5t-10.5 -3.5q-6 2 -8 2q-7 0 -12 -4.5t-10 -9.5q0 -1 0.5 -1.5t0.5 -1.5q0 -5 -6 -11t-13.5 -11t-15 -9t-10.5 -4h-2
q-6 3 -10 3q-7 0 -12 -5t-7 -9l-1 -1l2 -4l2 -4t1 -4q0 -7 -9 -10t-13 -9t-12 -8q-23 -18 -47.5 -33.5l-49 -31t-49 -32.5t-46.5 -39q-11 -11 -19.5 -22t-15.5 -20q-8 -11 -14 -21q-3 -5 -4.5 -13t-8.5 -8q-1 0 -7 2q-11 6 -15 15q-2 4 -2 9zM57 -29q-5 13 -16 21.5
t-11 18.5q0 6 5 11q4 6 11.5 16t17.5 19.5t21.5 16.5t24.5 7h5q9 0 16 -3.5t13 -9t12.5 -11t14.5 -8.5q4 -5 4 -9t-3.5 -5.5t-8 -3l-9 -3t-7.5 -4.5q-7 -6 -11.5 -13t-9.5 -13.5t-11.5 -11.5t-16.5 -5q-7 -1 -7 -6q0 -3 1.5 -7t1.5 -7q0 -6 -8 -6q-8 3 -18.5 4.5t-10.5 11.5
z" />
    <glyph glyph-name="at" unicode="@" horiz-adv-x="1029" 
d="M532 444q-17 -1 -28 -7.5t-21.5 -14t-21.5 -13.5t-26 -6q-6 0 -10 1q-9 -1 -11 -5t-2 -8.5t-1.5 -8.5t-8.5 -4q-21 -3 -35.5 -11t-27.5 -19t-26 -22.5t-29 -20.5q-8 -5 -16.5 -13.5l-16.5 -16.5q-9 -10 -17 -21q-2 -9 -9 -13.5t-14.5 -8.5t-13.5 -8.5t-6 -14.5v-2
q0 -3 -3 -5l-6 -4l-6 -4t-3 -6q0 -1 0.5 -1.5t0.5 -1.5q-8 -5 -12.5 -16.5t-10.5 -18.5q-7 -6 -14 -17q-6 -10 -14 -28t-17 -47q0 1 -4 -9q-2 -4 -3 -11l-4 -34q1 -2 2 -5q1 -2 2 -5t1 -6q0 -7 -5 -11q0 -5 3 -7.5t6 -4.5t6 -4.5t3 -6.5v-1q-4 -3 -4 -7.5t-2 -8.5
q-2 -8 -2 -10q0 -8 3.5 -13.5t8 -11t8.5 -11t4 -11.5q10 -8 22.5 -19t29.5 -18q16 -11 36 -22t45 -11q2 0 5 0.5t5 0.5q14 -3 27 -6q11 -2 24.5 -4t25.5 -2q3 0 6 0.5t6 0.5q32 0 68.5 3t70.5 8.5t62 13t43 18.5q9 7 17 10.5t22 3.5q30 9 47 16.5t27 13t14.5 8t8.5 2.5h3
q3 -2 3 -5q0 -6 -5.5 -16t-10.5 -15q-4 -11 -10 -14.5t-16 -12.5q-2 -9 -4 -13t-16 -4q-11 -4 -18.5 -8t-15.5 -9q-21 -14 -44.5 -23.5t-45 -15.5t-39.5 -8.5t-27 -2.5q-7 0 -8 1q-11 -4 -20.5 -9.5t-22.5 -5.5q-5 0 -10.5 1t-11.5 4q-9 4 -16 4q-8 0 -11.5 -3.5t-11.5 -3.5
q-7 0 -17 5q-2 2 -5 2t-6 -1l-6 -2q-4 -2 -7 -3t-7 -1q-16 0 -26.5 9t-27.5 10q-6 3 -15.5 5t-20 4.5t-21 6.5t-19.5 11q-29 12 -57 32t-46 45q-11 13 -23.5 30.5t-17.5 34.5q-3 6 -5 12.5t-4 11.5q-2 6 -4 13q-2 16 -4.5 35t-2.5 31q0 8 1 10q4 10 7 16q2 4 4 7l-3 30
q5 26 14 51q8 21 20.5 43.5t32.5 37.5q3 2 3 6t1 8.5t3.5 8.5t8.5 5q8 2 12 5t6 5l1 1q4 8 4.5 16t11.5 13v1q0 7 11.5 19.5t25.5 25.5q16 15 37 31q25 21 50 39q21 15 44 29t42 18q14 5 24.5 12t25.5 9v-1q1 -1 5 -1h9q21 14 47.5 24t56 16.5t59 11t56.5 8.5q2 0 3.5 0.5
t3.5 0.5q8 0 19.5 0.5t25.5 0.5q20 0 45 -1t51 -3q21 -2 43.5 -8.5t43.5 -15.5t40 -19.5t33 -19.5q17 -17 29 -26t26 -26q4 -8 10 -17t7 -17q1 -11 10 -24.5t11 -24.5q2 -9 2 -22v-25v-29q-5 -11 -5 -23q0 -5 0.5 -9t0.5 -8q0 -6 -4 -10q-2 -3 -5.5 -4t-7.5 -1.5t-7 -1.5
t-4 -4q-1 -1 -1 -2q0 -2 0.5 -5t0.5 -7q0 -8 -6 -12q0 -9 -8.5 -21t-19 -23.5t-20.5 -20.5t-12 -12q-2 -2 -3 -6.5l-2 -9t-3.5 -8t-8.5 -4.5q-2 1 -5 1q-8 0 -16 -6.5t-11 -10.5q-7 -15 -26.5 -27t-33.5 -23q-20 -10 -42 -22t-45 -17q-17 -12 -37 -12q-7 0 -10 1q-4 7 -9 7
q-6 0 -13 -5t-15 -5q-3 0 -5 1q-35 2 -56.5 15.5t-41.5 30.5l-8 7q-1 3 -5.5 8.5t-10 12.5t-9.5 13.5t-4 11.5v2q-5 3 -4.5 11t-1.5 19q1 6 2.5 12.5t3.5 11.5q2 6 4 11q2 4 2 7t-4 6q-5 0 -11.5 -7.5t-23.5 -22.5q-11 -15 -23 -26.5t-25.5 -22t-28.5 -21.5t-30 -25
q-11 -6 -21.5 -14t-22.5 -12q-3 -7 -9.5 -7.5t-12.5 -4.5q-11 1 -16.5 6.5t-9 12t-7.5 12t-13 7.5q-8 2 -10.5 10t-2.5 11v1q1 14 8 34t15 39.5t16.5 35t13.5 20.5q8 16 23 35t32 37q16 24 37.5 41t41.5 38q8 4 14.5 10t17.5 8q10 13 23 22t27.5 15.5t29 11t27.5 10.5
q4 8 11.5 11.5t16.5 5t18.5 2t18.5 3.5h3q11 0 19 -4t14.5 -10t12 -11.5t12.5 -8.5q4 -4 9.5 -11.5t5.5 -13.5q0 -5 -4 -6q-6 -2 -7 -2q-5 0 -8.5 2t-9.5 2h-4q-8 3 -15 3q-11 0 -22 -3.5t-24 -3.5h-6q-8 -5 -14 -11t-15 -6q-3 0 -9 2q-16 -2 -31.5 -8t-26.5 -13
q-9 -6 -16.5 -9t-15.5 -11q-11 -2 -18.5 -8t-14.5 -13t-14.5 -14t-16.5 -10q-8 -10 -17.5 -18.5t-14.5 -20.5q-7 -2 -14.5 -6t-12.5 -12q1 -3 1 -7q0 -11 -11 -17t-14 -17q-1 -8 -9 -16.5t-11 -17.5q-5 -5 -10 -20.5t-5 -26.5q0 -8 4 -8q8 -2 11 -2q13 0 18.5 7.5t16.5 11.5
h5q9 0 14 4t9 9.5t9 9.5t13 4h4q19 15 39 28t38 33q7 8 12.5 14t11.5 11.5t11.5 11.5t12.5 15l1 1q2 2 5 2t9 -3q9 1 11 9.5t2 11.5v1q0 4 6 12q3 4 5 7q13 12 23 24.5t21 26.5q4 6 11 6q6 0 9 -2q7 -5 7.5 -12t13.5 -11q2 -6 5 -11t3 -11q0 -2 -2 -8q-16 -13 -26.5 -27
t-18.5 -31v-4q0 -7 -4 -10t-9.5 -5t-10.5 -4.5t-7 -9.5v-3q0 -2 0.5 -2.5t0.5 -2.5q0 -5 -1 -8.5t-5 -4.5q-6 -2 -15 -16t-9 -26v-1q1 -4 1 -12q0 -14 -3.5 -23t-3.5 -19t7 -23q8 -10 24 -20.5t35 -11.5q12 2 30.5 5t27.5 10q6 4 13 6.5t14.5 4.5t14.5 4.5t12 7.5
q53 25 96.5 58.5t79.5 71.5q11 11 24 31t21 37q4 8 8 18.5t8 19.5l8 22h1q4 15 4 35q0 13 -1 25.5t-2 24.5q-3 6 -11 23.5t-20 34.5q-8 9 -20 19t-26 18.5t-30 15t-33 7.5q-2 -1 -4 -1q-5 0 -9 4t-7 6q-26 9 -55 9q-25 0 -49 -6q-24 -2 -51.5 -3.5t-41.5 -14.5h-10
q-29 0 -57.5 -11t-54.5 -22z" />
    <glyph glyph-name="A" unicode="A" horiz-adv-x="764" 
d="M933 661q-3 -6 -3 -8q0 -5 4.5 -6.5t4.5 -6.5q0 -4 -1 -6q4 -3 4 -11q0 -6 -1.5 -12t-3.5 -8q-16 -11 -26 -21t-19 -20t-18.5 -20.5t-23.5 -23.5q-2 -3 -7.5 -6t-11 -5.5t-9.5 -5.5t-4 -6q0 -2 5 -7q0 -4 1 -7t1 -6q0 -5 -6 -9q-6 -3 -13.5 -6t-12.5 -8v-7q0 -14 -6 -20
q-3 -4 -6 -4q-6 -4 -10 -15.5t-6 -13.5q4 -3 29 -3h41q17 0 32 -1t20 -6q1 -5 4.5 -9t7.5 -8t7 -7.5t3 -7.5q0 -2 -2 -6q-2 -2 -26.5 -1.5t-54.5 -1t-58 -6.5t-37 -17q-6 -8 -15 -28t-17.5 -42.5t-14.5 -43.5t-6 -31v-2q0 -6 -4 -10.5t-8.5 -8.5t-8 -7.5t-3.5 -7.5t6 -8
q2 -6 4.5 -10.5t2.5 -9.5q0 -6 -2 -10l-1 1q-4 -9 -4 -19v-16q-2 -5 -2 -15q0 -11 4 -20.5t8.5 -17.5t8.5 -14.5t4 -12.5v-3q0 -2 7 -9.5t19.5 -16t29 -15.5t35.5 -7h9.5t9.5 2q2 0 3.5 -0.5t0.5 -1.5q-9 -18 -29 -28.5t-40 -12.5q-14 0 -21.5 6t-13.5 14.5t-11.5 16.5
t-14.5 11q-9 16 -17.5 25.5t-8.5 25.5q-2 2 -5.5 8t-6.5 12.5t-5.5 11.5t-3.5 5q-3 2 -5 13t-2 26v7q-2 16 -3.5 30.5t-1.5 28.5q0 32 5.5 63.5t15.5 66.5q0 -1 1.5 5t4.5 14.5t6 18t5 15.5v1q0 1 -3 4q-1 1 -2 1h-11q-34 0 -65.5 -3.5t-62.5 -8l-62 -9t-64 -5.5
q-11 -7 -23 -19.5t-23 -25.5q-12 -15 -24 -32q-3 -16 -13 -25t-21.5 -17.5t-20.5 -18.5t-9 -29v-13l-1 -1q-3 -5 -11 -18t-26 -19v-4q0 -13 -4.5 -19.5t-10.5 -11.5t-11.5 -10t-7.5 -14q-5 -2 -6.5 -6t-1.5 -9v-11q0 -10 -7 -10q-14 0 -21.5 16.5t-7.5 37.5v8q-1 1 -1 6
q0 9 3 17q1 4 3 9q13 26 30 48t36 42.5l38 41t35 43.5q14 8 24 18t19 21q0 7 -10 7q-7 0 -17 -2t-20 -2t-17 4q-15 -5 -33 -7t-36 -2q-17 0 -33 2.5t-30 8.5q-19 10 -30.5 27t-19.5 34q-9 4 -11.5 10t-4.5 13v3q5 4 11 4q8 0 15.5 -5t16.5 -5q31 -2 59 -5t57 -3q25 0 54 3
q8 -4 17 -4t15.5 3t11.5 3h2q19 -3 45 -3q20 0 37 1.5t23 3.5q3 0 19 13t37 31.5t43 39.5t39 37q4 4 10.5 6.5t13 5.5t12.5 9t9 18q3 4 8.5 7t12.5 7t13.5 9.5t10.5 15.5q2 5 15.5 16.5t33.5 27t42.5 35t42.5 40.5q4 2 5 2q8 0 15.5 -7t13.5 -9v-1q0 -7 5 -10.5t10 -3.5
q9 3 14.5 10t8.5 15t5 14.5t4 7.5q3 1 9 1q13 0 22.5 -5.5t17 -14t14 -18.5t12.5 -19zM759 581q-5 -2 -5.5 -7.5t-6.5 -5.5q-3 0 -5 1q-20 -11 -30 -20t-15.5 -15.5t-7.5 -10t-6 -3.5q-25 -2 -45 -15.5t-40 -27.5q-8 -5 -12 -10t-7 -9.5t-6 -8.5t-8 -8q-14 -4 -27 -11.5
t-23 -16.5t-16 -17.5t-6 -14.5q0 -4 13.5 -4.5t22.5 -0.5h7q14 8 32 10t37 2q14 0 27.5 -0.5t24.5 -0.5q12 0 16 1l9 15l6.5 8t14 19.5t14 22.5t7.5 16q0 9 8 20.5t20 25.5t27.5 31.5t30.5 39.5q-1 10 -9 10q-9 0 -21.5 -7.5t-20.5 -7.5z" />
    <glyph glyph-name="B" unicode="B" horiz-adv-x="654" 
d="M622 675q29 -5 49 -17t28 -33q20 -14 33.5 -30t13.5 -39q0 -6 -1 -13t-4 -15l-4 -6q-9 -14 -21 -27.5t-29 -13.5h-1q-8 -11 -23.5 -25.5t-53.5 -27.5q-8 -7 -21.5 -10.5t-26.5 -6.5t-22.5 -7t-9.5 -11q29 -16 54 -39t43.5 -47.5t31 -47t17.5 -37.5q3 -14 3 -26
q0 -50 -39 -87q-4 -11 -11 -14.5t-15 -11.5q-8 0 -17 -2t-9 -10v-1q3 -2 3 -6t-3 -8q-9 -3 -15.5 -7t-12 -8.5t-11 -7.5t-13.5 -3q-6 0 -10 1q-1 -1 -6 -0.5t-10.5 -0.5t-10 -4.5t-4.5 -10.5q-1 0 -0.5 -4t-1 -8.5t-6 -8.5t-14.5 -4q-20 -17 -45.5 -27t-51.5 -24
q-24 -9 -46 -18t-44 -17t-45.5 -15t-51.5 -12q-4 -4 -8.5 -5t-9.5 -1t-9.5 0.5t-9.5 0.5q-7 0 -13.5 -2t-13.5 -10q-10 -9 -26 -9q-9 0 -19.5 1.5t-23.5 1.5q-5 0 -11 -0.5t-12 -1.5q-7 0 -10 5t-3 10q0 10 6 10q23 1 53 7.5t58 14.5t48.5 15.5t24.5 11.5q12 13 27.5 15.5
t26.5 7.5q14 3 21.5 6.5t12 7.5t8 7t9.5 5q35 14 65.5 31.5t70.5 40.5q15 8 34 21.5t37 27t31.5 24.5t16.5 16q4 11 10.5 17t13 11t12.5 11.5t11 20.5q4 11 4 24q0 20 -9.5 38.5t-23.5 35.5q-17 16 -45.5 24.5t-59.5 8.5h-12t-12 -1q-9 2 -13 5.5t-6.5 8.5t-4 11.5
t-4.5 13.5q2 3 2 7q0 5 -5 9t-10.5 7t-10.5 6t-5 6q0 4 9 6t25.5 5t39.5 9.5t52 20.5q36 18 61 37t40 36q18 19 28 38l2 4q4 9 6.5 17t2.5 17q0 6 -1 9q-14 14 -37 14q-12 0 -22 -3q-24 -4 -49 -21t-42 -30l-3 -2q0 -2 -0.5 -6t-3 -8.5t-8.5 -8.5t-17 -5q-17 -5 -40 -20.5
t-45.5 -35t-42.5 -38t-30 -28.5q-5 -5 -14.5 -7t-13.5 -5q-3 -2 -6 -5q-6 -6 -6 -12q0 -1 0.5 -2t0.5 -2q-4 -8 -15.5 -13.5t-19.5 -13.5q-2 -4 -2 -5q0 -3 1 -6t1 -7q0 -5 -4 -9q-18 -5 -29.5 -15.5t-21 -22t-19 -22.5t-24.5 -18q-3 -7 -11 -18t-16.5 -23t-16.5 -24.5
t-12 -23.5q-2 -5 -5.5 -16t-3.5 -24t6 -23q22 10 46 10q17 0 31 -6q5 -5 15.5 -11t15.5 -15v-1q0 -5 -5 -7q-33 -13 -64 -31t-47 -45q-4 -4 -12 -4q-10 0 -21.5 6t-17.5 12q-9 10 -14 20t-15 17q1 9 8 14.5t15 11t14 10.5t6 13q-1 4 -3 13t-2 17q0 11 5 15q7 8 8 17.5
t5 17.5q2 8 6 18q4 8 10.5 19.5t17.5 24.5l33 55q5 10 22 31t39 46.5t46.5 51t44.5 44.5q-1 2 -1 6q0 7 6.5 13.5t15 12.5t16.5 12t11 12q26 23 51.5 50t53.5 44q2 4 2 5q0 5 -8 5h-3q-6 0 -16.5 -1t-22 -3t-22 -6t-16.5 -10q-10 2 -14 2q-11 0 -19.5 -4t-15.5 -8.5
t-14 -8.5t-16 -4q-7 0 -14 3q-6 2 -8 2q-10 0 -16 -7t-15 -7h-2q-18 0 -35.5 -7t-34.5 -7q-15 0 -28 10q-6 5 -8.5 9l-5 8t-5.5 7.5t-9 6.5q0 6 11 11.5t27 11t34 12t32 14.5q31 6 58 12t54 11.5t55 9.5t62 7q5 2 11.5 2h13.5h19q16 0 29.5 3t19.5 14q3 8 14 8
q7 0 13.5 -2.5t11.5 -4.5q4 -9 9 -13t12.5 -5t18.5 -1.5t28 -3.5z" />
    <glyph glyph-name="C" unicode="C" horiz-adv-x="705" 
d="M164 -19q-26 8 -43.5 26t-33.5 28q-4 8 -12 31t-8 46q0 5 0.5 8.5t1.5 7.5l4 48t14 43v1q0 9 9.5 34.5t23.5 54.5t29.5 55t28.5 36q6 13 17.5 24.5t17.5 24.5q42 51 82.5 93.5t93.5 71.5q6 1 7.5 5.5t2.5 9.5t3.5 9.5t10.5 5.5q2 0 3.5 0.5t3.5 0.5q6 0 12 -1t11 -1
q11 0 16 8q0 1 -0.5 2t-0.5 2q0 8 7.5 10.5t12.5 5.5q25 10 49.5 19.5t50.5 9.5q12 0 23.5 -2.5t23.5 -9.5q6 -2 14 -6.5t15 -9.5t12.5 -10t8.5 -9q12 -6 27.5 -11t30 -10t24 -11t9.5 -14q0 -3 -1 -5q-20 -14 -39.5 -34.5t-29.5 -37.5l-14 -23q1 -2 1 -5q0 -4 -3.5 -5.5
t-8 -2.5t-9.5 -3.5t-8 -9.5q5 -7 5 -12q0 -7 -6 -12.5t-13 -11t-13 -11.5t-6 -13q0 -5 3 -9q-1 -3 -1 -10v-10q0 -8 -2.5 -13t-13.5 -5q-10 1 -18.5 8.5t-16.5 10.5q-3 7 -12.5 20t-9.5 40q0 8 1 16.5t4 19.5q5 3 3.5 12t10.5 16q8 4 9.5 9t1.5 8v4q0 5 6 11q3 3 6 4
q3 9 11.5 19t17 19t15 16t6.5 10q0 10 -12 10q-8 0 -19.5 -3.5t-25 -9t-27 -12t-24.5 -12.5q-54 -27 -108 -71t-95 -91q-13 -6 -21 -13.5t-15 -15.5t-13.5 -16t-16.5 -15q0 -11 -10 -15t-15 -12q3 -6 3 -10q0 -7 -6 -11t-13.5 -7.5t-13.5 -8t-6 -12.5q0 -4 1 -6
q0 -2 0.5 -2.5t0.5 -2.5q0 -8 -4.5 -14.5t-10.5 -12t-11.5 -10t-7.5 -8.5q-3 -4 -4.5 -11l-3 -14t-4.5 -13.5t-8 -9.5q-7 -8 -12.5 -22t-9.5 -29.5t-6 -31t-2 -26.5q0 -14 2 -17q6 0 8.5 -4t3.5 -10t2 -11.5t5 -8.5q17 -14 36.5 -22.5t47.5 -8.5h8q81 3 147 32t115 76
q9 1 21 8t16 15q2 9 12 14.5t21 5.5q31 18 55 34.5t45.5 34t42 36.5t43.5 41l12 5q6 -5 6 -21q0 -11 -2.5 -23.5t-7 -24.5t-11 -22t-14.5 -14q-11 -6 -15.5 -12.5t-7 -13t-6 -12.5t-13.5 -10q-11 -5 -15 -9.5t-7.5 -9t-9.5 -9t-22 -8.5q-6 -3 -9.5 -8t-9.5 -10.5
t-16.5 -12.5t-29.5 -15q-14 -10 -18.5 -17.5t-8 -12.5t-10 -9t-24.5 -7q-26 -18 -56.5 -30t-62 -19.5t-61.5 -11t-55 -3.5q-31 0 -63.5 4.5t-51.5 22.5z" />
    <glyph glyph-name="D" unicode="D" horiz-adv-x="797" 
d="M691 629q9 -4 17.5 -11t20.5 -8q6 -3 17.5 -11.5t23.5 -20t23 -24.5t18 -25q10 -12 19 -24q8 -11 14.5 -23t9.5 -22q0 -1 0.5 -1t0.5 -1q8 -11 13.5 -23t7.5 -28q2 -8 5 -16q2 -7 4 -15t2 -14q0 -9 -4 -12q-8 -4 -12 -15q-2 -5 -3 -11q2 -6 2 -9q0 -8 -4.5 -15.5
t-10.5 -15.5l-12 -16t-10 -16q-9 -3 -15 -7q-5 -4 -9.5 -9t-4.5 -11v-6q0 -13 -7 -20.5t-19.5 -15t-29.5 -17t-37 -25.5q-18 -11 -37 -25t-39.5 -27t-42.5 -23.5t-46 -14.5q-9 -7 -20 -21.5t-22 -19.5h-3q-7 0 -9.5 4t-9.5 4h-3q-30 -5 -52.5 -14.5t-42.5 -19t-42 -17
t-51 -9.5q-8 7 -19 7q-9 0 -19 -5q-8 -9 -19.5 -12t-24.5 -3.5t-27 -1t-27 -4.5q-16 2 -29 3t-25 1q-22 0 -39 -1.5t-34 -1.5q-11 0 -22.5 1t-24.5 5q0 1 -5 1q-6 0 -17.5 -1.5t-20.5 -1.5q-10 0 -12 2q-11 9 -22 10.5t-20 6.5h-5q-9 0 -15.5 3.5t-12.5 8t-12.5 8.5t-15.5 6
q-2 8 -10.5 12.5t-8.5 10.5q0 1 2 5q3 2 10 2q9 0 18 -4.5t16 -4.5q26 0 50.5 -6t50.5 -6h11q14 -2 26.5 -3t23.5 -1q32 0 52 5.5t41 5.5q5 0 9.5 -0.5t9.5 -1.5q26 2 53.5 8.5t56.5 7.5q27 8 58 16t60 15.5t54 16t39 18.5q6 4 14 6t16.5 4t15.5 5t12 9q10 6 22 10t23.5 8
t21 8.5t15.5 11.5q20 6 41.5 20.5t38.5 24.5q30 25 61.5 46t58.5 58v3q0 6 4 9.5t8.5 7t8.5 7t4 9.5q0 3 -1 5q7 8 12 27t5 41q0 19 -4 32q-9 34 -25.5 59t-50.5 50q-16 11 -31 17t-41 8q-6 -9 -17 -10.5t-22.5 -3t-22 -6t-14.5 -18.5q-2 -7 -8.5 -10.5t-14.5 -6.5t-16 -8
t-13 -16q-12 -3 -16.5 -12.5t-7 -19.5t-6.5 -18t-14 -9q-17 -5 -20.5 -11t-14.5 -15q-3 -12 -10 -21t-15 -17.5t-15 -17.5t-11 -19q-2 -4 -8 -9.5t-15 -15t-20 -24t-21 -35.5v-1q0 -7 -10 -17t-17 -27q-2 -5 -2.5 -9.5t-0.5 -8.5q0 -7 1 -12t1 -8q0 -5 -5 -5q-9 0 -23.5 8
t-16.5 22l3 33q2 11 6.5 21.5t9.5 18.5q5 10 12 19q2 6 8 18t13.5 24.5t15 23.5t12.5 15q5 3 14.5 19.5t27.5 45t46.5 69t72.5 91.5q0 8 -5 10t-13 2q-7 0 -13.5 -1t-11.5 -1q-74 -11 -138 -32.5t-115 -56.5q-9 -8 -14.5 -13t-18.5 -8q-13 14 -26 24.5t-30 22.5l-6 4
q-5 8 -9 14.5t-4 13.5q0 5 4 10t15 10q41 17 88.5 29t98 19.5t103.5 11t104 3.5h32q8 7 12 14t6.5 13.5t5 11t7.5 5.5t6.5 5.5t3 10t4 10t8.5 4.5q32 -14 54.5 -34.5t22.5 -53.5v-7z" />
    <glyph glyph-name="E" unicode="E" horiz-adv-x="690" 
d="M713 103q-2 -4 -9.5 -10t-16.5 -12t-18 -11t-14 -6q-9 -11 -15.5 -14.5t-12.5 -3.5q-5 0 -10.5 1.5t-11.5 1.5t-13 -2.5t-16 -10.5q-9 -7 -14.5 -8.5t-10.5 -1.5h-1q-8 0 -18 -2t-30 -16q-5 0 -8 0.5t-7 0.5q-15 0 -25.5 -2t-21 -5t-22 -5.5t-28.5 -3.5q-3 1 -5.5 1.5
t-5.5 0.5q-16 0 -28 -9t-25 -9q-4 0 -6 1q-22 -1 -50 -6t-54 -5q-20 0 -36.5 5.5t-26.5 20.5q-1 1 -2 7.5t-2.5 14.5t-3 16.5t-3.5 14.5q-2 0 -4 4t-4 9t-4 13v14q0 7 0.5 13.5t2.5 8.5q7 3 7 13q0 5 -1 7q-2 2 -2 7q0 9 5 19q3 5 6 11q2 8 8 20t12 23q7 12 15 26
q5 17 14.5 30.5t17.5 27.5q0 2 -2 4q-4 4 -14 4h-3q-14 -2 -25 -5t-21 -3q-13 0 -25 11q-2 11 -9.5 23.5t-11.5 27.5q-1 3 -2.5 6.5t-1.5 7.5q0 5 2 7h6q20 0 33.5 3t32.5 5q4 1 9.5 1h10.5q13 0 16 -1q5 2 10 2h10h24q10 0 19.5 1t16.5 6q5 11 18.5 25.5t21.5 29.5
q6 11 26.5 28t37.5 43l47 51q2 4 2 5t-3 4q-1 1 -2 1q-18 -5 -37 -8t-36.5 -6t-32.5 -8.5t-24 -14.5q-3 -2 -9 -2t-10.5 4t-7.5 9.5t-5.5 10t-3.5 5.5q-4 2 -5 11.5t-1 20.5q0 8 0.5 15t0.5 9q6 12 18.5 17.5t27.5 7.5t31.5 3t30.5 4q19 4 43 4q11 0 23 -0.5t23 -0.5
q13 0 25 1t23 5q13 4 24 12.5t23 17.5q5 4 12 4q9 0 15.5 -8.5t12.5 -13.5q14 0 29.5 0.5t31.5 0.5h86h51t45 2q26 2 44 3t32 1q15 0 28 -0.5t28.5 -1.5t35 -2t47.5 -1q2 0 3.5 0.5t3.5 0.5q6 0 10.5 -2t4.5 -4l-7 -11q-24 -15 -40 -19.5t-31 -6t-32 -4t-42 -12.5
q-3 -1 -8 -1q-7 0 -12.5 3t-11 7t-11 7t-12.5 3q-5 0 -11 -3q-3 -11 -13.5 -14.5t-24 -4t-27.5 -0.5t-24 -4q-27 -14 -60.5 -19t-58.5 -13q-10 -4 -15.5 -11t-15.5 -9q-29 -2 -47.5 -14t-34.5 -26.5t-34.5 -27t-46.5 -15.5q-2 -8 -13.5 -18t-25.5 -20.5t-25 -21t-11 -18.5
q0 -3 4 -7q46 2 83 6.5t81 4.5q7 0 13.5 -0.5t13.5 -0.5q6 -1 13 -2q6 -1 13 -1h15q17 0 31 3q4 -3 12 -3h3q5 0 9 -0.5t4 -3.5q0 -4 -8 -12q-23 -11 -48 -17t-51.5 -9.5t-54.5 -6t-58 -6.5q-15 -7 -33.5 -11.5t-38.5 -8t-39.5 -8t-35.5 -10.5q-12 -5 -20 -15.5t-21 -24.5
q-6 -7 -10 -15.5t-7.5 -17t-9.5 -14.5t-16 -8q-6 -11 -13.5 -23t-18.5 -23l-9 -18q-2 -15 -7 -28.5t-5 -24.5q0 -12 10 -21q30 -6 59 -6q35 0 70.5 4t71.5 5q20 3 44.5 6t46.5 5q26 3 52 4q47 1 89 4.5t89 12.5h1q5 0 5 -6v-2z" />
    <glyph glyph-name="F" unicode="F" horiz-adv-x="443" 
d="M626 684l84 4q20 1 44.5 1.5t51.5 0.5q39 0 79.5 -1t74.5 -2.5t58 -3t30 -3.5q4 -4 4 -8t-1 -6q-9 -6 -20.5 -8.5t-23 -4.5t-21 -4.5t-15.5 -9.5q-3 -2 -23 -4.5t-48 -5t-59 -5t-55 -3.5q-17 -7 -41.5 -6.5t-43.5 -4.5h-10q-15 0 -31 -1.5t-30.5 -4.5t-26.5 -6t-18 -6
q-14 -7 -33.5 -24.5t-36.5 -34.5q-15 -16 -30.5 -30.5t-29.5 -28.5q-3 -7 -7.5 -10.5t-7.5 -9.5h7q26 2 55 3.5t55 1.5h16.5t15.5 -1q4 4 11 4q5 0 10.5 -1.5t10.5 -1.5q2 0 3 0.5t2 0.5q12 -2 23 -2h21h37q21 0 41.5 -3t46.5 -16l2 -7q-19 -8 -43.5 -9t-48.5 -5l-11 4
q-8 -3 -10 -4.5t-2.5 -2.5t-1 -3.5t-5.5 -7.5q-3 -4 -12 -4h-14q-1 2 -7.5 4.5t-14.5 2.5q-6 0 -12 -3q-17 0 -37 -3.5t-28 -14.5h-5q-10 0 -19.5 1t-20.5 1t-21.5 -2t-21.5 -8q-8 2 -16 3.5t-16 1.5q-15 0 -25 -9h-3q-7 0 -9 -5t-10 -6q-3 1 -5 1.5t-4 0.5q-6 0 -9 -3
t-6 -7.5l-6 -9t-7 -7.5q-1 -6 -5 -10t-8.5 -7.5t-8 -8t-3.5 -10.5q0 -5 1 -8q-1 -5 -10.5 -9t-21.5 -18v-6q0 -12 -7 -17.5t-15 -9t-15 -7.5t-7 -13q0 -5 1 -8q-5 -8 -14 -15t-11 -18q0 1 -1 -2.5t-4 -8.5t-7 -11.5t-9 -11.5q-4 -4 -4 -8q0 -5 3 -10t3 -13q0 -10 -10 -26
q-2 -4 -4.5 -5t-5.5 -2.5t-5 -4.5t-2 -11v-2q-33 -45 -75.5 -83t-96.5 -66q-8 -3 -13 -3q-14 0 -24 8.5t-21 8.5h-2q-6 0 -12.5 8.5t-6.5 16.5v1q0 4 9 10t21.5 13t26 16t23.5 19h7q18 16 37.5 33.5t40 35.5t40 35.5t36.5 34.5q10 13 16 31t11 22q6 5 13 14t13 18
q7 11 14 23q1 5 4.5 10t7.5 10t10 10q7 10 11.5 17t8 13t7.5 13.5t10 18.5q0 5 -7 5q-8 0 -21 -3.5t-26 -3.5q-10 0 -17.5 3.5t-10.5 13.5q-2 4 -3.5 13.5t-1.5 19.5q0 11 3 17q7 7 25.5 11.5t40.5 7.5t45.5 5.5t41.5 6.5q9 0 11 3.5t5 6.5q8 7 12 13.5t6 11.5t4 9.5t6 7.5
q13 6 20.5 22t17.5 30q6 5 10 9t7 8t4 8q1 8 7 12.5t6 12.5q0 7 -11 7q-11 -1 -16.5 -3.5t-10.5 -2.5q-2 0 -6 2q-6 2 -9 2q-9 0 -14.5 -5t-14.5 -5q-4 0 -6 1q-3 4 -9 7.5t-11.5 8.5t-9.5 11.5t-4 17.5q-4 0 -4 13q0 8 2.5 17t9.5 11q4 1 12 1t15.5 -1t15.5 -1t19 3
q6 1 13.5 1.5t15.5 0.5h30q14 0 27 1t24 4q5 9 15.5 19t15.5 10q8 0 26.5 -9t33.5 -22z" />
    <glyph glyph-name="G" unicode="G" horiz-adv-x="740" 
d="M388 -217q-9 15 -15 32.5t-6 37.5q0 22 7 44v2q0 6 2.5 13.5t5.5 14t5.5 11l2.5 4.5q1 12 6.5 21t12 17t11.5 16.5t5 20.5v7t-2 8q-2 1 -7 1q-7 0 -11.5 -4t-8.5 -8.5t-9 -8.5t-12 -4q-6 0 -13 3q-45 -20 -93 -20q-32 0 -61.5 10t-49.5 30q-2 18 -13.5 30t-25 22.5
t-24 22.5t-10.5 30v5q1 2 1 6q0 6 -2.5 10t-2.5 11v4q-4 5 -4 16q0 16 5 29q2 7 5 14q2 2 4 7.5l4 11t3.5 9.5t2.5 3q9 25 23 48t30.5 43.5t33 38t28.5 31.5q7 2 16.5 12.5t16.5 11.5q10 7 17.5 15.5t15.5 16t18 14t24 11.5q64 46 139 87.5t160 70.5q19 9 42.5 17t48 13.5
t46.5 8.5t38 3q13 0 17 -1q15 -9 23 -35t8 -55q0 -8 -0.5 -15t-1.5 -14l8 -6q2 -4 2 -9q0 -8 -5 -15t-16 -7q-20 18 -54 31.5t-71 13.5q-30 0 -54 -10q-8 -8 -13 -15t-11 -7q-3 0 -4 1q-6 2 -14 5t-16 3t-15 -3q-3 -8 -10 -12t-14 -7.5t-12.5 -9.5t-6.5 -16q-3 -2 -8 -2
q-6 0 -11 2.5t-10 2.5q-4 0 -7 -4q-36 -5 -62 -19t-52 -33q-11 -11 -28 -21.5t-22 -25.5q-4 -2 -11 -2t-14 -1t-13 -4.5t-7 -12.5q-9 -9 -20.5 -12.5t-22.5 -7t-18.5 -10.5t-7.5 -24v-9q-15 -13 -31 -29t-30.5 -34t-24.5 -38t-12 -41q-1 -4 -1 -7.5v-6.5q0 -22 7 -34
q4 -6 8 -9q29 -29 70.5 -40t85.5 -11q52 0 97 10.5t66 20.5q4 10 14.5 12.5t22 4.5t21.5 6t12 18q18 8 31 22.5t24.5 31.5t22.5 34.5t24 31.5q2 6 6.5 12t4.5 13q0 3 -1 5q-2 6 -11 6q-4 0 -8.5 -1t-8.5 -1t-5 1q-2 0 -4 -0.5t-4 -0.5q-27 -3 -65.5 -9.5t-69.5 -21.5h-3
q-9 0 -11 10t-3.5 23t-4.5 25.5t-14 17.5l5 10q88 28 179.5 32.5t183.5 5.5h34q3 1 9 1q17 0 31.5 -12t22.5 -28q2 -5 2 -12q0 -10 -14 -10q-8 0 -18 1.5t-24 1.5q-4 0 -7 -0.5t-7 -0.5q-5 -3 -12 -4t-14.5 -3t-12.5 -6t-5 -14v-5q4 -8 11.5 -9t7.5 -7q0 -3 -5 -11
q-10 -12 -24 -19t-28.5 -14t-28 -16t-21.5 -25q-3 -5 -8.5 -10.5t-11.5 -11t-10.5 -11t-4.5 -10.5t6 -9q6 2 16 3t16 1q1 0 1.5 -0.5t1.5 -0.5h1q2 -2 2 -6q0 -3 -2 -5q-1 -1 -1 -2q-27 -18 -56 -35t-57 -35t-53.5 -38t-46.5 -44q-1 -2 -1 -5q0 -5 4 -6t4 -4t-4 -8
q-16 -1 -22 -11t-9.5 -22t-7.5 -23.5t-15 -16.5q-6 -4 -7.5 -8.5t-2 -10t-2.5 -11.5t-9 -14v-10q0 -12 -1.5 -22.5t-1.5 -20.5t3 -17.5t11 -13.5q-6 -7 -12 -7t-12 5t-14 8z" />
    <glyph glyph-name="H" unicode="H" horiz-adv-x="683" 
d="M545 -159q-14 6 -33.5 19.5t-25.5 32.5q-8 0 -14 8.5t-10.5 20t-6.5 23.5t-3 19q3 6 3 12q0 7 -1.5 13.5t-1.5 11.5q0 9 8 12q0 2 -0.5 4.5t-0.5 4.5q0 8 2 16.5t4 15.5q3 8 6 15q17 42 32.5 83.5t46.5 76.5q1 13 7 23.5t12.5 20.5t13 20.5t8.5 23.5q0 2 -5.5 4t-11.5 2
q-9 0 -13 -4q-8 2 -14.5 2h-13.5q-19 0 -37.5 -2.5t-39.5 -4.5q-20 -1 -41 -2t-41 -3t-36.5 -5.5t-27.5 -9.5t-23 -16.5t-23.5 -23.5t-22 -27.5t-16.5 -27.5q-3 -4 -8.5 -5.5t-10 -3.5t-8 -4.5t-3.5 -8.5q0 -2 2 -8q3 0 3 -5t-3 -11.5t-9 -12.5q-7 -7 -13.5 -13t-13.5 -14
q-1 -5 -2 -9q-2 -10 -6 -11q-10 -3 -12 -8t-2 -8v-2q-3 -13 -10 -25l-8 -12q0 -11 -6.5 -17t-6.5 -18q0 -2 0.5 -3.5t0.5 -3.5q0 -1 0.5 -1t0.5 -1q2 -9 6 -25.5t4 -24.5q0 -3 -1 -3h-3q-10 0 -21 14t-19 28q-2 3 -3 9.5t-1 14.5v10.5t1 10.5q0 5 1 9q0 9 3 20t7 21
q4 11 10 23q21 53 49 98.5t55 88.5q3 6 3 8q0 4 -5.5 3t-9.5 1h-9q-20 0 -40.5 -4t-36.5 -4q-7 0 -15 2q-6 2 -10 2q-9 0 -18.5 -2.5t-14.5 -2.5q-4 0 -4 2q1 11 8.5 17t17 10.5t19.5 7.5t16 8q38 11 77.5 15.5t77.5 10.5q18 25 42.5 61.5t47 69.5t40 56.5t22.5 23.5
q11 5 17 4.5t6 8.5v7q0 13 10.5 22t21.5 15q4 2 9 2q8 0 17 -2.5t16 -4.5q1 0 1 -0.5t1 -0.5q20 -6 30.5 -24t10.5 -27q0 -3 -2 -5q-8 -4 -13 -9.5t-9.5 -11t-10 -10t-14.5 -6.5q-5 -5 -7.5 -14.5t-7.5 -9.5h-2q-2 1 -6 1q-8 0 -17 -7q0 -20 -10.5 -30.5t-25.5 -18.5
q-14 -20 -30 -38t-23 -43l10 -3q38 3 73 6.5t69.5 7t69.5 7t74 5.5q9 4 15.5 14.5t12.5 21.5t11 19.5t10 8.5q16 3 18.5 12t3.5 12q19 22 33 41t28.5 36.5t30.5 35.5t39 39l6 8q17 20 35 41.5t38 33.5l8 4t8 3t9 1h4q31 0 52 -14.5t32 -30.5q2 -4 5 -9t3 -10t-3 -6
q-32 -10 -53 -30t-41 -43q-10 -13 -26 -24t-23 -28q-8 -7 -16.5 -9t-16.5 -3.5t-14 -3.5t-8 -8q0 -2 0.5 -3t0.5 -3q0 -11 -7 -20t-16 -17t-18 -15.5t-13 -15.5q-15 -2 -27 -14t-12 -19q0 -2 1 -3q4 -2 21.5 -2.5t36 -1t33.5 -2t15 -7.5q0 -2 -1 -3q-18 -2 -33 -6.5
t-29.5 -9.5t-29 -9t-31.5 -4h-5q-14 -2 -18.5 -7.5t-9.5 -11.5q-9 -8 -15 -16.5t-11.5 -17.5t-12 -18.5t-15.5 -18.5q-5 -5 -5 -9q0 -3 1.5 -5.5t1.5 -5.5q0 -2 -2 -6q0 -2 -5 -3.5t-11.5 -3.5t-12.5 -4t-9 -5q5 -4 5 -8q0 -5 -4.5 -10t-5.5 -12q-11 -5 -20 -14.5t-15 -19.5
q1 -2 2 -5q1 -2 2 -5.5t1 -5.5q0 -8 -6 -9q-9 -3 -15.5 -10.5t-6.5 -15.5v-6q0 -8 -9 -16.5t-9 -24.5v-2q-9 -2 -12 -7t-3.5 -10.5t-1.5 -11.5t-6 -9q-3 -2 -5.5 -10.5t-4.5 -19.5q-3 -12 -4 -27q-3 -8 -3 -16q0 -15 6.5 -28l11.5 -23q8 -5 14.5 -10t16.5 -5q5 0 7 1
q5 -2 14.5 -5.5t17.5 -3.5q5 0 10 3q4 2 9 2t14 -1t21 -1q15 0 36 3q17 2 31 9t30 7h4v-2q0 -11 -11 -17t-15 -13q-11 -9 -30.5 -17t-37.5 -8q-8 0 -12 1q-2 0 -4 0.5t-4 0.5q-13 0 -21.5 -5.5t-20.5 -6.5q-10 9 -23 10.5t-25 5.5z" />
    <glyph glyph-name="I" unicode="I" horiz-adv-x="379" 
d="M11 -33v1q0 8 -5 14.5t-5 13.5t12 14q15 7 33.5 10t34 7.5t26 13.5t10.5 27v6q3 2 6 7t5.5 10t4 8.5l1.5 3.5q1 6 5.5 15t9.5 17q5 10 12 20q17 36 39.5 75t40.5 68q3 1 15.5 21.5t32 50.5t43.5 66t50 69q13 14 28 35.5t25 36.5q2 3 5 6t3 7v1q-13 6 -29 6.5t-30.5 1
t-26 4t-15.5 15.5q-3 10 -6.5 23t-3.5 23t4 11q7 -1 14 -1h15q41 0 77 9q34 -3 66 -3q45 0 87 3t86 3q19 0 37.5 -1t38.5 -3q11 -3 17.5 -12.5t6.5 -16.5v-2q-3 -2 -18.5 -4.5t-33.5 -5.5t-34 -6t-20 -6q-2 -4 -2.5 -7.5t-5.5 -6.5q-12 -3 -25 -3q-8 0 -15 0.5t-14 0.5
q-11 0 -21 -3t-16 -12q-10 -9 -17 -18q-6 -8 -11 -16.5t-5 -14.5v-4q0 -6 -2.5 -10t-5.5 -7q-4 -4 -8 -5q-6 0 -15.5 -5.5t-19 -13.5t-17 -16.5t-8.5 -13.5q-1 1 0 -3t1 -9v-3q-4 -3 -10 -5.5t-11 -2.5q-2 0 -3 0.5t-2 0.5q-9 -8 -10 -19t-2 -21.5t-6.5 -18t-23.5 -9.5
q-17 -11 -24.5 -27t-18.5 -30h-1q-7 0 -8.5 -8.5t-5.5 -14.5q-23 -16 -38 -37t-26 -40.5t-19 -34.5t-16 -19q-16 -5 -26.5 -15.5t-15.5 -20.5q1 -3 1 -8q0 -8 -3.5 -14.5t-8.5 -11.5q-5 -6 -11 -11l-8 -10q-3 -5 -5.5 -11t-2.5 -13v-6q0 -5 4.5 -8.5t9.5 -3.5q4 0 5 2
q4 5 11 5q5 0 11 -2t11 -2q7 0 11 4q27 2 49 3t45 1q19 0 38.5 -1.5t42.5 -6.5q4 -2 7.5 -6t3.5 -9q0 -3 -5 -8q-29 -3 -55.5 -10.5t-55.5 -12.5q-9 -2 -21.5 -9t-28.5 -7q-3 0 -6 0.5t-7 1.5q-10 0 -17 -3.5t-13.5 -8t-13.5 -8.5t-17 -5q-5 -2 -8 -5l-5 -5q-3 -3 -4 -6
q-5 -5 -8 -9t-10 -4q-2 0 -3 0.5t-3 0.5q-5 7 -11.5 9t-13.5 2q-14 0 -29.5 -6t-28.5 -6q-16 0 -22 13z" />
    <glyph glyph-name="J" unicode="J" horiz-adv-x="329" 
d="M-506 -339q-4 -1 -12 -1q-20 0 -33 8.5t-30 11.5q-8 9 -19.5 17.5l-23 17t-21 18t-12.5 20.5q9 8 16 8q5 0 9 -4t7.5 -8.5t8 -9t11.5 -4.5q18 -11 31.5 -12t27.5 -3q8 3 15 4t14 1q11 0 22.5 -1.5t23.5 -1.5q16 0 29 4q45 7 89.5 19t88.5 30q37 15 72 35t64.5 40t53.5 38
t39 29l9 8q50 45 97.5 91.5t78.5 98.5q3 6 8 11.5t11 11.5t10.5 13.5t5.5 16.5q13 12 35 43t43 63q25 38 52 83q2 8 6 15t9 13q4 7 10 13q7 19 16.5 35.5l19 33t17.5 34.5t11 39q5 6 15 11t11 13q-11 7 -34 7q-20 0 -42 -3t-39 -5q-2 0 -3.5 -0.5t-3.5 -0.5q-12 0 -16.5 9
t-7.5 20v2q0 2 -0.5 2.5t-0.5 2.5v4q0 7 -2 14.5t-2 13.5q0 11 11 14q72 11 142 22.5t146 11.5h7q23 1 45 3q19 1 40.5 2t40.5 1q29 0 37 -3q8 -5 18.5 -9t10.5 -10q0 -3 -3 -6q-17 -2 -32.5 -3t-31 -2.5t-31 -6t-32.5 -13.5q-3 -2 -18.5 -3t-33.5 -2.5t-34.5 -5.5
t-22.5 -12q0 -1 -0.5 -1t-0.5 -1q0 -6 11 -13q5 -4 12 -7q5 0 5 -5q0 -9 -15 -21q-3 -2 -7.5 -8.5t-9.5 -13.5q-5 -8 -12 -17q-5 -17 -16 -25.5t-13 -16.5q-3 -12 -10 -20.5l-14 -17t-12 -17t-5 -18.5v-3q-2 -6 -8 -9.5t-13 -7t-13 -8t-8 -10.5q-2 -3 -9 -11t-15 -16
l-21 -21q-5 -8 -12.5 -18.5t-15.5 -19.5l-18 -22q-10 -9 -21.5 -27t-16.5 -30q-8 -8 -16.5 -12t-14.5 -12t-6 -16.5t-6 -15.5l-15 -15t-30.5 -31.5t-35 -40t-27.5 -42.5q-14 -20 -25.5 -32.5t-11.5 -18.5v-5q0 -11 -9 -19t-20 -15t-20 -15t-9 -20q0 -8 4 -16q-2 -10 -8 -14
t-13.5 -7t-16 -6t-15.5 -10q-6 -6 -12.5 -14.5l-13 -17t-13.5 -15.5t-13 -8q-17 -2 -28.5 -8t-22 -14.5t-21 -17.5t-24.5 -15q-18 -5 -32.5 -11t-28 -12t-27.5 -11t-31 -7q-11 -3 -27 -7q-14 -3 -34.5 -7t-49.5 -8q-8 -12 -24 -12q-8 0 -15.5 2.5t-12.5 6.5z" />
    <glyph glyph-name="K" unicode="K" horiz-adv-x="734" 
d="M576 646q0 -6 -10 -19t-12 -26q-11 -8 -16.5 -23.5t-16.5 -25.5q-1 -17 -7.5 -24.5t-13.5 -12t-13 -9.5t-6 -16v-3q-7 -7 -16.5 -19t-9.5 -22q0 -4 1 -6q11 0 21.5 6.5t18.5 12.5l1 1q36 26 81.5 56t92.5 58.5t93 52.5t82 39q8 3 16.5 12t16.5 9q9 0 22.5 -4.5t26 -12
t21 -17.5t8.5 -22q0 -3 -1 -5q-2 -5 -5 -5h-1q-5 2 -9 2h-8q-11 0 -19.5 -4t-16 -8.5t-14 -8t-14.5 -3.5t-15 4q-5 -5 -11 -6.5t-11.5 -2t-10 -2.5t-5.5 -8q-16 -6 -34.5 -11t-36 -10.5t-32 -11.5t-22.5 -14t-13.5 -9.5t-13.5 -3.5t-21 -8t-35 -24q-2 -4 -2 -5
q0 -6 7.5 -9.5t13.5 -8.5q11 -1 22 -4t13 -6q1 -2 1 -8q0 -11 -5.5 -25t-5.5 -27q0 -7 2 -11q3 -9 3 -13t-1.5 -6.5t-4 -5.5t-4 -9t-1.5 -17v-11q0 -3 -0.5 -6.5t-0.5 -6.5q0 -23 4 -46t4 -43q0 -17 -4 -28q5 -5 8.5 -11t14.5 -6q2 -3 2 -7q0 -8 -6 -13.5t-6 -10.5
q0 -3 3 -6q6 -6 6 -14q0 -6 -1.5 -12t-1.5 -12v-5q4 -9 6.5 -26t6.5 -30q3 -10 11 -27t21 -33t32 -27.5t44 -11.5q17 0 29 2.5t18 2.5q3 0 4 -1q4 -3 4 -5q0 -7 -14.5 -15t-34.5 -11q-18 -3 -36 -3q-27 0 -51.5 6t-44.5 16t-35 22.5t-22 25.5q-2 3 -2 11v4q0 5 -1.5 9.5
t-8.5 4.5q-2 0 -3 -0.5t-3 -0.5q-6 5 -6 16q0 5 0.5 9.5t0.5 9.5q0 10 -6 12q-4 19 -7.5 36t-6.5 34t-5 34.5t-3 37.5q-6 20 -7.5 41.5t-5.5 42.5q-2 23 -5 46q-3 20 -7 40.5t-9 36.5q-1 9 -12 9q-9 0 -21.5 -5t-20.5 -6l-83 -66q-15 -24 -35 -48t-33 -48q-14 -8 -21.5 -20
t-15 -23.5t-18 -20.5t-29.5 -10q-5 -4 -5.5 -11t-1.5 -13.5t-4 -11.5t-13 -5q-15 -13 -33.5 -29.5t-36.5 -32.5t-32 -30t-19 -21q-6 -8 -12 -12t-11 -7t-10 -7t-8 -14q-6 -11 -12.5 -15t-16 -7.5t-24 -9t-36.5 -17.5q-38 -22 -81 -38t-99 -16h-16q-10 2 -14 9t-6 14q1 3 1 9
v7q0 5 1.5 10t8.5 8q7 0 18 -8t37 -8h9.5t9.5 1q45 7 82.5 29.5t75.5 49.5l5 3q18 10 44 32.5t51.5 47.5t46 46.5t27.5 29.5l28 33q2 7 8 14t12 13.5t10.5 13.5t4.5 14q0 10 -11 18q-4 4 -4 15t4 12q33 10 57 31t52 38q1 12 6.5 22t13 19t15 18.5t12.5 20.5q4 6 10.5 17
t13 21.5t12 19.5t7.5 12q11 20 17.5 38.5t11.5 26.5q2 10 7 17.5t5 14.5q0 5 -2 7q-3 5 -12.5 7.5t-22.5 2.5q-11 0 -22.5 -1t-22.5 -3q-9 -2 -20.5 -6t-22.5 -8.5t-22 -8t-19 -3.5q-16 0 -17 14v3q0 9 -7 17t-7 13q0 2 2 4q3 2 23 7t49 10t62 8.5t62 3.5h16q7 2 9.5 6.5
t4 10t3 10.5t5.5 8h4q9 0 22.5 -6t26.5 -15t22.5 -19t11.5 -18z" />
    <glyph glyph-name="L" unicode="L" horiz-adv-x="525" 
d="M727 669q5 -14 21 -27t25 -24q9 -10 11.5 -19.5t2.5 -17.5q0 -3 -0.5 -5.5t-0.5 -4.5v-3q-2 -8 -5.5 -17t-7.5 -17q-4 -10 -9 -18q-5 -5 -9 -11.5t-8.5 -12.5t-10 -10.5t-13.5 -5.5q0 -12 -5.5 -20.5t-13 -15.5t-16.5 -13.5t-15 -13.5q-4 -2 -6 -2q-5 0 -9 2t-9 2
q-7 0 -12 -5v-3q0 -12 -7 -21.5t-17 -17.5t-21 -16t-18 -17q-25 -17 -49 -28t-44 -30q-8 -3 -17 -4t-18 -2.5t-16.5 -4t-13.5 -8.5q-4 -1 -7.5 -1h-6.5q-20 0 -30 9.5t-21 17.5l-2 9h10q33 0 58 10.5t46 25.5t40 32.5t41 32.5q21 11 36 31.5t36 35.5q2 5 10.5 10.5t17.5 13
t16.5 17.5t8.5 24q0 4 4.5 12t9.5 17.5t9 19t4 15.5v3q-2 8 -5 16.5t-9 8.5h-2q-27 0 -47.5 -9.5t-37.5 -22.5t-33 -28t-33 -25q-5 -6 -19.5 -19.5t-29.5 -28.5t-28 -29t-15 -20t-8.5 -13t-13 -13.5t-11 -11.5t-4.5 -7q1 -3 1 -7q0 -11 -8.5 -16t-18.5 -8t-18.5 -7.5
t-8.5 -14.5q0 -2 2 -10q-7 -2 -10 -7.5t-5.5 -11.5t-5.5 -11.5t-10 -8.5q-2 -8 -7.5 -14.5t-12.5 -13.5t-13 -14.5t-9 -17.5q-13 -13 -20.5 -30t-22.5 -31q2 -4 2 -6q0 -5 -5 -9.5t-10 -7.5q-8 -3 -13 -9q-3 -4 -4 -7h-1q-1 0 -1 -1q0 -2 1 -6t1 -9q0 -9 -7 -11
q-8 -8 -12.5 -10t-8.5 -14q-2 -7 -8.5 -17.5t-13.5 -21.5q-8 -12 -18 -26q-1 -11 -6.5 -18.5t-5.5 -16.5q0 -2 3 -3t6 -1h2q4 1 12 1q5 0 10.5 -0.5t10.5 -0.5q6 0 11.5 1t7.5 6h3q15 0 41.5 5t45.5 7q13 1 22.5 2l19 2t20 2t25.5 3q4 2 8 2q6 0 13.5 -2t15.5 -2q5 0 10.5 2
t9.5 7q5 0 17 2t27.5 4t33 4t33.5 3q14 1 30 3q14 1 31.5 2t37.5 1h20q14 0 28.5 -3t19.5 -7q1 -5 7.5 -8.5t11.5 -4.5q9 -6 14.5 -15.5t5.5 -16.5q0 -5 -3 -6q-1 -1 -4 -1q-8 0 -16 5l-10 6q-15 4 -27 4q-14 0 -25 -3.5t-30 -4.5q-4 -2 -6 -2t-4.5 0.5t-4.5 0.5h-3
q-4 1 -15 1q-13 0 -27.5 -1.5t-27.5 -3.5l-30 -4q-9 -7 -18.5 -8t-18.5 -1.5t-17.5 -2.5t-15.5 -11q-6 -4 -23 -5.5t-38 -3t-43 -5t-39 -11.5h-3q-8 0 -17.5 3.5t-25.5 3.5h-6.5t-7.5 -1q-10 0 -15.5 -8.5t-14.5 -8.5q-26 0 -40.5 -3t-23.5 -7t-17 -7t-22 -3q-5 -6 -7 -13
t-2 -15t1 -15.5t2 -14.5q6 -9 19.5 -11.5t27.5 -2.5h25q4 4 9 4h3q3 -5 3 -8q0 -8 -9.5 -14.5t-14.5 -14.5q-7 -8 -26 -8q-15 0 -28 5q-32 16 -41 35t-14 49q-3 4 -6 4q-4 0 -7 -2.5t-8 -2.5q-3 0 -7 2q-3 0 -17 -3t-32 -8t-35 -12.5t-26 -17.5q-5 -3 -11 -7.5t-12 -4.5
q-5 0 -11 6q-19 11 -29 33t-19 39v2q0 7 5.5 11t13.5 6.5t17 4.5t15 7q2 -1 4 -1q6 0 13 5t19 5q6 0 9 -1q8 -2 12 -2q17 0 28 10t20 10h1q24 5 39 7.5t37 4.5q9 6 12 11.5t4.5 12t3.5 14t8 18.5q2 5 5 9.5t5 9.5q3 5 4 11q7 16 23 45t33 58.5t31.5 54t17.5 33.5
q14 17 28.5 40t31.5 41q22 45 56.5 85.5t59.5 76.5q13 20 27.5 36.5t28 29.5t24 23.5t15.5 18.5t20.5 24t32.5 33t32 31.5t19 19.5q1 3 5 4t8.5 2t9 3t7.5 7q-1 2 -1 6q0 14 19 18q17 0 31.5 -7.5t26.5 -17.5t22 -20.5t18 -17.5z" />
    <glyph glyph-name="M" unicode="M" horiz-adv-x="1050" 
d="M960 -168q-12 5 -18.5 18t-14.5 21q-7 11 -13 26q-5 13 -10.5 30.5t-8.5 40.5q-1 9 -2 20q-1 10 -1 22.5v27.5q0 24 2 51.5t8 51.5q3 13 6 21q2 4 4 7q1 8 5.5 22t9.5 28q6 16 14 32q1 6 4 13.5t6 14.5l8 16q20 46 45.5 94.5t63.5 101.5q2 5 5 9l4 8t2 8q0 6 -5 7
q-20 -11 -28.5 -20t-19.5 -23q-26 -20 -47.5 -48t-44.5 -53q-23 -14 -33.5 -28t-26.5 -31v-2q0 -4 -3.5 -6t-7 -3.5t-7 -3.5t-3.5 -6q0 -3 1 -5q-6 -9 -13.5 -15.5t-16 -12t-16.5 -10.5t-15 -12q-5 -6 -6 -17.5t-9 -15.5q-11 -3 -17 -9t-10.5 -12.5t-9 -12t-11.5 -8.5
q-12 -3 -16.5 -7.5t-6.5 -9t-3 -8t-5 -5.5q-15 -11 -32.5 -24t-33.5 -25.5t-30.5 -22t-23.5 -12.5q-2 0 -3.5 -0.5t-3.5 -0.5q-17 0 -34.5 10t-34.5 11q-11 4 -21 6t-15 12q-2 9 -3 20.5t-1 22.5q0 19 5 24q1 4 2 13.5t3.5 20.5t6 20.5t9.5 13.5q2 2 2 5q0 4 -2 7.5t-2 5.5
q0 3 4 4q8 11 8 21q0 5 -1 10t-1 11t3 15q3 3 7 8q7 11 10 27v1q0 2 -0.5 4t-0.5 5v7q0 7 6 14t6 15q3 6 6.5 19t5.5 26q3 15 6 32q5 11 7.5 23.5t13.5 17.5q4 8 5 14t1 11q0 4 -0.5 6.5t-0.5 5.5q0 5 2 9.5t8 12.5q0 1 -0.5 2t-0.5 2q0 5 4.5 5.5t10.5 2.5q2 1 2 4v5
q-8 8 -13 13.5t-5 13.5q0 4 3 12q7 10 9.5 19t3.5 16.5t3 12t9 5.5q20 -2 39.5 -6t35.5 -11.5t27.5 -18.5t16.5 -26q1 -2 1 -5q0 -6 -5 -12.5t-11 -13.5t-12 -14.5t-8 -16.5q-10 -7 -18.5 -19t-14.5 -24q-8 -14 -14 -30q-13 -17 -20.5 -33t-14.5 -38q-3 -2 -5 -5.5t-4 -6.5
q-2 -4 -3 -8q3 -9 3 -14q0 -7 -3.5 -9.5t-8.5 -5.5t-10 -8t-8 -16q-5 -14 -9 -25q-4 -9 -7 -17t-4 -7q-5 -21 -11 -38t-11.5 -33t-9.5 -33t-4 -39q0 -4 0.5 -8t0.5 -9q4 -13 14 -13q9 0 19 7t15 10q15 7 38.5 23.5t47.5 35.5t44.5 37.5t29.5 28.5q37 30 74.5 61.5t60.5 62.5
q24 11 45.5 35t44.5 45q2 8 12.5 12.5t11.5 10.5q11 11 22.5 25.5t33.5 34.5q11 10 20.5 21.5t17.5 21.5t14.5 17t12.5 9q9 3 14 11t9 16.5t8 16t9 10.5q7 7 13 15t13.5 15t17 11.5t23.5 4.5q2 0 4.5 -0.5t4.5 -0.5q6 -1 11 -1t9 -0.5t7 -0.5q14 -1 31.5 -7t32.5 -13.5
t25.5 -16.5t10.5 -16q0 -1 -0.5 -1.5t-0.5 -1.5q-1 -3 -6.5 -3.5t-14.5 -4.5t-20 -12t-23 -26l-6 -15v-2q0 -7 -4.5 -9t-10.5 -3l-12 -2t-8 -7v-1q0 -7 -4 -12.5t-9 -10.5q-6 -5 -13 -11q-6 -5 -15 -17.5t-18.5 -26.5t-17.5 -26.5t-12 -18.5q-2 -7 -8.5 -14t-13 -15
t-11.5 -16t-5 -17v-4q2 -4 2 -7q0 -5 -3.5 -9.5t-7.5 -8.5h-2q-17 0 -19.5 -8.5t-4.5 -19.5l-19 -36l-1 2v-3q0 -8 -4.5 -12.5t-9.5 -8t-9.5 -8t-4.5 -10.5q0 -3 2 -9v-1q0 -8 -8.5 -16t-8.5 -13v-3q0 -7 -5.5 -22t-15.5 -33q-11 -21 -18.5 -40t-12.5 -33q-5 -17 -9 -30
q-3 -17 -4 -32.5t-1 -32.5v-22.5t1 -23.5q0 -3 0.5 -6t0.5 -6q11 -3 15 -10.5t6.5 -16t6.5 -16.5t16 -13q16 -7 28.5 -9t21.5 -2q6 0 10.5 0.5t7.5 0.5q7 0 8 -5v-1q0 -8 -17.5 -17.5t-46.5 -14.5q-8 0 -15 1q-6 1 -12.5 2.5t-10.5 4.5zM0 -21q0 1 7 2.5t17 4.5t21.5 7
t19.5 10v1q0 5 4 8.5t8 4.5q31 8 61 29.5t53 38.5q54 40 100.5 88t88.5 93l8 9q13 16 27 31q12 13 25.5 26t25.5 21q7 9 13 9q5 0 5 -5q0 -4 -3 -8q-1 -9 -6 -20t-11 -20t-11 -14.5l-5 -5.5q-4 -3 -8 -9.5t-8.5 -13.5t-8.5 -13t-8 -7q-9 -2 -11 -7t-2.5 -11t-3 -11.5
t-11.5 -8.5q-6 -2 -14.5 -13t-19 -25t-22.5 -27.5t-24 -20.5q-15 -14 -20 -25t-7 -18.5t-4 -12t-10 -4.5q-6 0 -19 3q-11 -2 -14 -10t-5 -17t-6.5 -16.5t-16.5 -7.5h-4q-3 -1 -7 -4q-3 -2 -8 -5.5t-10 -9.5q-9 -10 -25.5 -20.5t-33 -19t-29.5 -13.5t-15 -5h-5q-13 0 -25 4.5
t-21.5 11.5t-15.5 14t-6 12z" />
    <glyph glyph-name="N" unicode="N" horiz-adv-x="722" 
d="M392 71q-1 6 -1.5 13t-0.5 14q0 11 0.5 22t1.5 19q1 10 3 19q2 6 3.5 14t1.5 16q0 10 -4 14q4 7 6 17t2 18q0 11 -3 14q-2 2 -2 4q0 3 3 8q1 3 3 5l18 87q6 21 7 44.5t12 40.5q1 5 3 9q1 4 2 8.5t1 9.5t-2 9q-5 4 -8.5 5.5t-6.5 2t-7 1t-10 3.5l-2 25q1 6 5 10.5t8.5 9.5
t9 12t6.5 16q2 7 5 13q2 5 5.5 9.5t8.5 6.5t6 5.5t1 7.5q0 2 -0.5 4.5t-0.5 4.5q-1 2 -1 4q1 4 3.5 7.5t4.5 7.5l6 8q4 7 5.5 16t4 17.5t8.5 14.5t18 8q19 -7 43.5 -15.5t36.5 -16.5q17 -9 23 -16.5t6 -13.5t-4 -10l-3 -3q-9 -10 -19 -23.5t-18 -27.5q-10 -16 -18 -33
q0 -11 -4.5 -20t-10.5 -16.5t-11.5 -15t-8.5 -16.5q-4 -14 -8 -23t-8 -16t-6.5 -13t-3.5 -14q-2 -16 -5 -26q-2 -6 -5 -10q-5 -9 -9 -18q-9 -17 -10 -32q2 -2 4 -5q4 -6 4 -12v-3q0 -8 -4 -13.5t-9.5 -10.5t-9.5 -9.5t-4 -9.5q0 -4 5.5 -7.5t5.5 -8.5v-2q-14 -23 -19 -52
t-5 -58q0 -14 0.5 -26.5t1.5 -24.5q3 -6 6.5 -12.5t10.5 -6.5q4 0 12 5q18 8 29 24t21 27q18 29 34.5 57t33.5 57q46 55 86 126q7 8 25.5 32t37.5 51t34 49.5t17 28.5l12 11q7 6 12.5 16t12 20.5t15 20.5t21.5 15q13 11 15.5 21t7.5 16q15 7 29 21.5t29 32t32 35t38 31.5
q21 13 40 28t37.5 27t38 20t40.5 8q0 -8 -3.5 -12t-8.5 -6t-9.5 -5t-5.5 -10q-14 -4 -22 -15.5t-28 -20.5q-8 -7 -16.5 -17.5t-19.5 -14.5q-4 -9 -12.5 -17.5t-17.5 -17t-16 -16.5t-9 -16t-7 -13.5t-11 -10t-12 -8.5t-10 -9t-6 -11t-4 -11q-2 -6 -3 -12q-3 -9 -10.5 -15
t-15.5 -11.5t-14 -12t-6 -16.5v-5l-10 -21q-10 -14 -22.5 -31t-19.5 -35q-11 -9 -15.5 -22.5t-10 -27t-14.5 -25.5t-28 -17q-5 -6 -5 -14q0 -7 2.5 -13.5t2.5 -12.5q0 -10 -12 -17q-11 -5 -20.5 -12t-11.5 -22q-11 -11 -10 -22t-5 -19q1 1 -2.5 -2.5t-8 -9.5t-9.5 -13.5
t-8 -13.5q-4 0 -7 -6t-5.5 -13.5t-5.5 -15t-8 -10.5q-6 -3 -7.5 -8t-2.5 -10.5t-3 -10t-9 -5.5q-9 -12 -17 -23l-14 -18t-9 -14q-7 -7 -13 -14.5t-13 -14.5t-16 -12.5t-23 -7.5q-2 0 -4 0.5t-4 0.5q-20 3 -43 8t-44 12.5t-36 20t-19 30.5zM-126 -169q6 12 15.5 20.5
t20.5 16.5t22 17t19 22q28 21 55 49t53.5 57t51 55.5t47.5 43.5v4q0 13 7.5 21.5t17.5 14.5q24 27 52.5 58.5t45.5 66.5l5 10q5 10 12 17q15 14 21 27t21 24q4 7 9 16t10.5 17t11.5 14t12 6q5 -1 5 -9q0 -2 -0.5 -2.5t-0.5 -1.5v-2q-3 -8 -5.5 -17t-5.5 -9h-1q-2 -10 -6 -21
t-8.5 -20t-8.5 -15.5t-5 -6.5t-1.5 0.5t-1.5 0.5q-4 0 -6 -3.5t-4 -5.5q2 -6 2 -12q0 -3 -1 -6t-4 -5t-6.5 -11.5t-8 -21t-11.5 -20.5t-16 -10q-3 -2 -3.5 -6t-2.5 -11.5t-7 -18t-15 -25.5q-14 -5 -23 -20t-17 -24q-7 -6 -12 -13q-5 -6 -8.5 -13t-3.5 -14q0 -2 0.5 -3
t0.5 -2q-2 -10 -6 -13.5t-10 -6.5t-13.5 -7.5t-14.5 -14.5q1 -4 1 -10q0 -14 -9 -23t-20 -16.5t-20 -15.5t-9 -18v-3q-8 -8 -15 -16t-13 -13q-8 -18 -24.5 -32.5t-36 -24.5t-38.5 -15.5t-30 -6.5q-7 -1 -16 -1.5t-17 -0.5q-12 0 -21.5 2t-11.5 7z" />
    <glyph glyph-name="O" unicode="O" horiz-adv-x="645" 
d="M754 398q-4 -2 -6.5 -9t-6 -14.5t-9 -14t-14.5 -6.5q-5 -5 -5 -13q0 -7 2.5 -14t2.5 -13q0 -5 -4 -10t-15 -9q-5 -6 -9 -15t-9 -18t-12 -16t-19 -9q-4 -7 -4.5 -18t-11.5 -16q-9 -20 -25 -37.5t-33.5 -34t-35.5 -33t-32 -33.5q-14 0 -18.5 -6t-8 -13.5t-9 -14t-21.5 -8.5
q-12 -13 -24.5 -21t-30.5 -19q-7 -5 -17.5 -10l-21 -10t-19.5 -8t-14 -3q-42 0 -72.5 3t-57.5 22q-13 2 -25 10t-23.5 17.5t-22.5 20t-21 18.5l-2 15h-4l-2 10q-5 25 -8.5 52.5t-3.5 56.5q0 21 3 41.5t11 39.5q5 3 7 9t2.5 12t2.5 11t7 7l6 10q5 9 12 22.5t14 26.5
q8 15 16 31q4 10 13.5 25t19.5 29t17.5 24t7.5 9v1q0 5 5 12t11 13q7 7 16 15q7 12 19 25t25 26l25.5 25.5t19.5 24.5q4 4 11 4q6 0 13 -2t14 -2q10 -4 18 -12.5t15 -17t13.5 -15t14.5 -6.5q25 21 49 42.5t50.5 40.5t57 34.5t66.5 26.5q5 1 8.5 1.5t8.5 0.5q14 0 24 -3.5
t12 -6.5q7 -15 22.5 -25t31 -20.5t28.5 -24t16 -34.5q0 -2 0.5 -4.5t0.5 -4.5q0 -17 -4 -33t-5 -15q0 -12 -2 -21.5t-5 -18.5t-7.5 -19t-9.5 -23q-1 -6 -7.5 -9.5t-6.5 -11.5v-6q0 -8 -4 -19t-11 -14zM138 149l5 -78q3 -23 15.5 -43t32.5 -20q21 0 39 2t38 11t40.5 19
t38.5 21.5t32 24.5t21 28q4 7 8.5 9.5t9 3t9 0.5t8.5 3q4 4 7 4.5t4.5 1.5t2 3t0.5 9q2 9 19.5 17t39.5 32q22 25 43 51q11 13 22 27q17 26 37.5 50.5t34.5 55.5q6 12 11 23q5 9 9 17.5t6 12.5q6 12 11.5 25.5t7.5 18.5q2 3 5 5q2 1 3 1q14 2 19 6.5t5 10.5q0 7 -3.5 14.5
t-3.5 15.5q0 6 3 11q3 2 6 6q5 6 9 19q2 5 2 9.5v8.5q0 8 -1 12.5t0 3.5q1 3 1 6.5v6.5q0 14 -4.5 24t-8.5 12q-10 2 -15 2q-15 0 -30.5 -6t-28.5 -13.5t-21.5 -13.5t-11.5 -7q-2 -1 -7 -1q-7 0 -9 1q-2 0 -4 1q-9 -2 -15.5 -6.5t-11.5 -9.5q-5 -6 -9 -13q-9 -4 -19.5 -11
t-20.5 -15.5t-17.5 -16.5t-10.5 -14q-12 -8 -12 -18q0 -6 3 -9.5t1 -2.5q-1 -2 -1 -6q0 -3 0.5 -6t0.5 -6q0 -9 -8 -13q-27 -2 -49 -17t-38 -32q-18 -20 -34 -45q-2 -9 -6.5 -14.5t-9 -10t-8 -9.5t-3.5 -13q0 -4 2 -12q-11 -7 -17 -16.5t-9.5 -19t-6 -16.5t-6.5 -8
q-1 0 -1.5 -0.5t-1.5 -0.5q-5 0 -9 4q-2 2 -3 5q-6 16 -6 35q0 20 6 40t16 36q7 6 12 14q5 7 9 16t5 20q1 3 3 7l2 6t1 6q0 4 -3 4q-7 0 -14.5 -4t-14.5 -9.5t-12.5 -11.5t-8.5 -10q-8 -14 -22 -29.5t-17 -32.5q-6 -11 -12 -20q-5 -8 -10.5 -14.5t-9.5 -8.5q-13 -9 -13 -18
q0 -6 4 -10q2 -3 4 -4v-2q0 -10 -9.5 -12.5t-16.5 -8.5q0 -2 0.5 -3t0.5 -3q0 -8 -3.5 -16.5t-7.5 -16.5q-4 -9 -10 -17z" />
    <glyph glyph-name="P" unicode="P" horiz-adv-x="490" 
d="M686 648q13 -10 24 -19q9 -8 16.5 -16t7.5 -13v-1q4 -10 11.5 -21t14 -22t11.5 -23t5 -24v-3q0 -2 1 -5q2 -6 2 -13q0 -8 -2 -17.5t-8 -22.5q-4 -2 -5 -6t-1 -8t-0.5 -8.5t-3.5 -7.5q-5 -3 -14 -2.5t-13 -5.5q-10 -11 -20.5 -18.5t-24.5 -19.5q-3 -2 -7.5 -2.5t-8.5 -0.5
q-6 0 -10.5 -1.5t-5.5 -9.5q0 -19 -14 -25q-5 2 -15 2q-17 0 -30 -9.5t-30 -14.5q-31 -15 -70 -28.5t-74 -20.5q-8 -7 -19.5 -10.5t-24 -5.5t-24.5 -4.5t-21 -6.5v-2q0 -7 -8.5 -9t-13.5 -6q-3 1 -6.5 1h-6.5q-10 0 -18.5 -2.5t-13.5 -8.5q-1 -7 -4 -11.5t-8 -8.5t-10.5 -8
t-11.5 -10q-6 -8 -18.5 -26.5t-20.5 -29.5q-5 -5 -12 -19t-15 -28q-9 -17 -19 -37q2 -6 2 -9q0 -14 -10.5 -25.5t-10.5 -22.5q0 -7 7 -14q4 -8 4 -18t-4 -19.5t-9 -18t-9.5 -17t-5.5 -16.5q-4 -2 -9 -2q-8 0 -13 5.5t-12 10.5q-3 8 -12 19t-11 24q-5 13 -5 30q0 12 3 24
t10 21q1 12 7.5 21.5t14 18t14.5 16t8 16.5q0 2 4.5 8.5t9.5 13.5q6 8 13 17q10 16 20 31t10 34q0 8 -1 12q-13 2 -23.5 5t-12.5 8q-2 4 -3.5 8t-1.5 9q0 3 3 8q-20 8 -30 19.5t-12 28.5q1 2 4.5 4t7.5 2q5 0 8 -5q7 -2 13.5 -2h14.5q22 0 45 4.5t42 9.5t32 10t15 6
q5 10 19.5 31t19.5 41q2 0 4.5 2.5l4.5 4.5q2 3 4 7q3 14 9.5 25t12.5 12q3 1 8.5 9t10.5 17l14 24q3 20 12 31q4 5 9 8q9 6 14 15.5t8.5 19t6.5 16t9 6.5q23 -5 35 -10.5t28 -20.5q10 -10 21 -24t11 -24q0 -5 -4 -8q-20 -6 -34.5 -16t-26.5 -22t-21.5 -25.5t-19.5 -25.5
q-1 -12 -7.5 -19.5t-15 -13.5t-17 -12.5t-12.5 -16.5v-2q0 -6 8 -8q3 1 10 1h14q5 0 10 0.5t8 3.5q25 5 41 12t28.5 13.5t26 11.5t34.5 5q31 19 60.5 31t54.5 25.5t42.5 32t24.5 48.5v2q0 1 0.5 2.5t0.5 3.5q0 6 -1.5 16t-7 21.5t-16 22.5t-28.5 20q-29 14 -64.5 19t-74.5 5
q-26 0 -51.5 -1t-51.5 -2h-2q-15 0 -30.5 -6t-30.5 -6q-14 0 -25 8q-10 0 -18 -4t-16 -9.5t-17 -9.5t-20 -4q-8 0 -18 3q-10 0 -20.5 -5t-19.5 -11.5t-16 -13t-10 -9.5l-1 -1h-3q-13 0 -28.5 13t-28.5 25q-5 11 -11 20t-6 17t5 13q60 29 145.5 41.5t177.5 12.5q37 0 73 -2
t71 -5q26 -4 52 -13t48 -25z" />
    <glyph glyph-name="Q" unicode="Q" horiz-adv-x="658" 
d="M705 708q2 0 6.5 -1t9.5 -3t10 -3q9 -8 22.5 -14.5t27.5 -14t25.5 -16t16.5 -20.5q4 -10 7 -23t4 -25t1.5 -21.5t0.5 -13.5v-2q1 -2 2 -3q1 -2 2 -2.5t1 -2.5q0 -5 -8 -9q-12 -3 -15.5 -8.5t-3.5 -11.5q0 -4 0.5 -8t0.5 -8q0 -7 -4 -11.5t-19 -6.5q-1 -2 -1 -7
q0 -10 5.5 -16t5.5 -14q0 -6 -5 -14q0 2 -6.5 -7t-14.5 -28q-4 -11 -13.5 -29.5t-23 -41.5t-30 -48.5t-34.5 -49.5q-22 -16 -32 -36q-8 0 -9.5 -3t-2.5 -6.5t-2 -6.5t-7 -4q-11 -1 -21.5 -1t-12.5 -9v-4q0 -9 8 -15t8 -14q0 -6 -6 -11q-14 -2 -21.5 -8.5t-13.5 -14.5
t-12 -16.5t-16 -13.5q-21 -25 -56.5 -46t-70.5 -39l-10 -5q0 -5 1.5 -6.5t4 -2.5t4 -3t1.5 -7q30 -31 83 -54.5t118 -24.5q1 -1 1 -4q0 -10 -20 -14t-44 -4q-32 0 -50 5q-8 4 -19.5 4.5t-22.5 2.5q-18 2 -33 8.5t-26 13.5t-18 12.5t-11 5.5h-1q-5 -1 -8 -1.5t-6 -0.5
q-11 0 -13 5t-2.5 11.5t-3.5 12.5t-15 7q-3 10 -12 13t-20 3q-8 0 -17.5 -1t-17.5 -1q-11 0 -20 3q-31 7 -59 18.5t-49.5 26.5t-35 32.5t-14.5 38.5q-16 37 -16 73q0 15 3 30l12 19q2 19 9.5 35t9.5 38q1 7 7 20t14 26.5t17 26.5t17 22q12 18 29 37.5t35 35.5t34.5 28
t27.5 15h7q18 0 38.5 -8t36.5 -18q12 1 15.5 6t3.5 10q0 1 -0.5 2t-0.5 2v1q1 9 8 19t16 20.5t19 21.5t17 22q12 11 27.5 21.5t26.5 27.5q22 16 46.5 34.5t51.5 34t57 25.5t64 10zM715 648q-25 0 -40 -8.5t-35 -15.5q-11 -8 -23 -7t-23 -3q-3 -4 -3.5 -10t-2 -12t-6 -10
t-16.5 -4h-6q-7 0 -23.5 -12.5t-36 -30.5t-38 -38.5t-30.5 -36.5q-1 -3 -5.5 -8t-9 -10.5t-8.5 -11.5t-4 -11v-2q17 -11 33.5 -26t20.5 -30q0 -10 -19 -10q-8 0 -17 1t-17 1q-3 0 -5.5 -0.5t-4.5 -0.5q-3 0 -5.5 0.5t-4.5 0.5q-15 0 -21.5 -7t-9.5 -15.5t-5.5 -17
t-11.5 -11.5q-2 -7 -5 -13q-2 -5 -4.5 -10.5t-4.5 -9.5q-5 -23 -10 -53t-5 -62q0 -28 5.5 -54.5t20.5 -46.5q4 -1 6.5 -1.5t5.5 -0.5q14 0 21.5 8t21.5 10q21 16 51 43t57.5 54t47 49.5t19.5 29.5v1l20 17q3 9 8 14t10 9.5t9 9.5t4 15v6q0 7 15 18t26 36q5 13 12.5 29
t15.5 21q3 2 8 12t10.5 21.5t10 22t6.5 13.5q8 18 10 28.5t2 17.5q0 6 -1 9.5t-1 5.5t5 6q3 1 6 4q2 2 4.5 5t2.5 6t-3 6t-3 7q0 3 4 7q2 2 4 3q2 2 2 6q0 5 -4 15q-2 4 -3 8q-5 4 -6.5 8.5t-3.5 8t-6.5 5.5t-13.5 2zM287 352q-14 -3 -25 -13.5t-17 -13.5q-8 -4 -18 -15.5
t-19 -25.5q-11 -16 -22 -35l-10 -21q-5 -6 -8.5 -13.5t-6.5 -15t-6.5 -13.5t-9.5 -8q-10 -5 -10 -17q0 -5 1 -9.5t1 -8.5q0 -5 -3 -8q-1 -15 -2 -28.5t-1 -24.5q0 -9 1 -17t4 -14q0 -1 0.5 -1.5t0.5 -1.5q10 -20 22.5 -34t44.5 -19q18 0 39.5 5t25.5 17q-7 5 -12.5 16.5
t-5.5 20.5q-2 20 -7.5 33.5t-5.5 29.5q0 8 3 20q1 4 4 8l4 8t4 7q3 2 6 13t6 23q4 14 7 31q0 8 2 22.5t5 29.5q4 18 8 37v3q0 5 3 13t3 13t-6 7z" />
    <glyph glyph-name="R" unicode="R" horiz-adv-x="671" 
d="M780 679q25 -5 50 -12t46.5 -16.5t36 -22.5t18.5 -29q11 -14 24.5 -36t13.5 -41q0 -6 -2 -12q-9 -12 -23 -18t-29.5 -10.5t-30 -9.5t-25.5 -15q-16 -8 -33 -11.5t-32.5 -6t-28 -5.5t-18.5 -8q-2 -8 -11.5 -15.5t-16.5 -7.5q-5 1 -8.5 1h-8.5q-31 0 -60 -11t-60 -11
q-9 -2 -12 -10.5t-3 -18.5q0 -6 0.5 -12t1.5 -11q0 -2 0.5 -2.5t0.5 -2.5q5 -8 13.5 -10t8.5 -10q0 -4 -1 -6q-3 -5 -13.5 -11.5t-15.5 -12.5q-2 -6 -2 -7q0 -4 3.5 -4.5t8 -0.5t8.5 -1t6 -5q4 -5 8 -13t4 -13v-2q-5 -2 -11 -7.5t-6 -13.5v-4q2 -5 5.5 -6t8 -2.5t8.5 -5.5
t7 -15q-4 -13 -4 -26q0 -20 7 -35t7 -36q0 -2 -0.5 -4.5t-0.5 -5.5v-1q0 -9 7 -28.5t9 -37.5q3 -15 8 -29q5 -12 11.5 -25t17.5 -22q15 -14 24.5 -20t15 -8t7 -3.5t1.5 -5.5q0 -5 -15.5 -9.5t-34.5 -4.5q-9 0 -17.5 1t-14.5 4q-13 4 -22 17t-17 30t-16 36t-18 36
q-6 15 -12 33t-12 35v1q0 3 -3 5t-6.5 3.5t-6.5 4t-3 6.5q1 2 2 5q2 6 2 13q0 10 -6 18q-3 4 -8 13t-9.5 19l-9 20t-7.5 15q-10 16 -16.5 33t-14.5 34t-19.5 33.5t-30.5 30.5q-11 0 -24 -2.5t-25 -7t-21.5 -11t-13.5 -13.5q-7 -11 -8 -16t-9 -12q-2 0 -3 0.5t-3 0.5
q-10 0 -15.5 -7t-5.5 -13q6 0 6 -10q0 -5 -3 -8q-9 -3 -13.5 -9.5t-11.5 -11.5q-17 -12 -30.5 -26.5t-25.5 -30t-23 -31.5t-24 -29q-2 -9 -3.5 -18t-13.5 -12q-11 0 -13.5 -6t-3 -14t-2 -16t-9.5 -12q0 -3 -3 -11t-3 -15q0 -5 2 -6q8 -7 17 -7q11 0 21.5 6t21.5 6
q2 0 3 -0.5t3 -0.5q2 -4 2 -7q0 -8 -7 -12.5t-8 -13.5q-8 -4 -16.5 -13t-17 -18.5t-17 -16.5t-15.5 -7q-5 0 -7 2q-11 10 -23.5 12t-17.5 10q3 6 3 10q0 5 -3 8.5t-7 6.5t-7 6.5t-3 8.5q0 4 1 6l23 42q3 5 4 11.5t9 8.5q2 2 10.5 14.5t18.5 26.5q11 17 24 37q3 7 8 15t11 16
t11.5 14.5t8.5 11.5q6 6 14 17.5t17 24t16.5 23t11.5 14.5q2 6 2 8q0 13 -17 14q-5 0 -8.5 -0.5t-7.5 -0.5q-17 0 -31 1.5t-30 3.5q-7 9 -17.5 21t-10.5 26q0 5 1 7q7 3 15 3t15.5 -1.5t15.5 -1.5q2 0 4.5 0.5t4.5 0.5q6 -9 16 -9q12 0 24.5 10.5t26.5 10.5h1q33 6 58.5 12
t38.5 33q15 16 28 36t24 38t19.5 30.5t14.5 13.5q4 1 12 14.5t16 28.5q10 18 20 40q1 4 4 8t3 8t-6 6h-5q-10 0 -18 -3t-15 -6.5t-14.5 -6.5t-16.5 -3h-7t-8 2q-7 -9 -20.5 -12.5t-28.5 -5.5t-30 -5.5t-24 -12.5q-1 -1 -2 -1h-4q-4 0 -8.5 1t-9.5 5q-17 10 -26 19t-15 25
q2 10 4 18.5t18 10.5q48 8 99.5 20.5t96.5 20.5q29 5 63 10t67 9t63.5 6.5t53.5 2.5q10 0 18 -0.5t14 -1.5q15 -3 27.5 -3.5t23.5 -0.5h12q18 0 23 -5zM716 623q-38 -3 -67 -5.5t-63 -10.5q-15 -10 -26.5 -17.5t-13.5 -25.5q4 -8 6.5 -14.5t2.5 -14.5q0 -15 -14 -35h-3
q-10 0 -13.5 -4t-5.5 -9.5t-3.5 -12t-7.5 -11.5q-3 -2 -6 -5q-6 -6 -6 -12q0 -10 6.5 -15.5t15.5 -8.5t18.5 -3.5t15.5 -0.5q13 0 34.5 2.5t45 7.5t45.5 11.5t36 14.5q0 7 11 11t16 9q53 8 95.5 30t78.5 49q3 6 3 10q0 12 -13 19t-20 13q-4 0 -14.5 3.5t-24 7t-28 6.5
t-25.5 3h-7q-13 -13 -20 -13q-5 0 -9 3.5t-9 7t-12 7t-17 3.5h-2z" />
    <glyph glyph-name="S" unicode="S" horiz-adv-x="656" 
d="M676 181q-2 -9 -9 -13t-14.5 -6.5t-13.5 -6t-6 -11.5q-18 -12 -26 -24t-25 -23q-10 -1 -15 -2.5t-8 -3.5q-4 -3 -4 -5q0 -15 -9 -19.5t-20 -5.5t-20.5 -2.5t-12.5 -10.5q-14 -9 -27.5 -19t-28.5 -19t-32 -15t-38 -6q-5 -2 -6.5 -4t-3 -4.5t-4 -5.5t-10.5 -6
q-34 -5 -65.5 -17.5t-64.5 -20.5q-3 0 -6.5 -0.5t-6.5 -0.5q-18 -2 -37 -4t-37 -2q-30 0 -52 7q-22 13 -35 29t-31 40l-3 4q-4 7 -4 20q0 15 3 30q12 12 25.5 27t28 30t30.5 29t33 24q18 8 33.5 17.5t30.5 19t32 18t39 14.5h4q11 0 19.5 5t16 11t16 11t20.5 5q8 0 17 -3
q29 12 61.5 19t65.5 7q56 0 101 -21q23 -11 31.5 -23t16.5 -12q3 0 5 1q14 17 25 41.5t11 50.5v10t-2 10q-9 16 -25.5 27.5t-37.5 19t-45 12.5t-47 7q-8 3 -14 3q-14 0 -26 -7t-23 -7q-9 0 -17 8q-4 -2 -11 -2t-14.5 -0.5l-15 -1t-12.5 -3.5q-8 0 -19 6.5t-21.5 14.5
t-17.5 16.5t-7 11.5q-2 3 -5 8t-6.5 10.5t-5.5 9.5t-2 5q5 7 14.5 14.5t20.5 14.5t22 11.5t18 4.5q7 4 7 9t-2.5 9.5t-2.5 9.5q0 6 5 10q10 2 15.5 7.5t10.5 11.5t12 11t20 6q15 12 35 19t35 16q26 10 58.5 21.5t62.5 22.5q48 14 97 28.5t103 14.5q17 0 34 -1.5t34 -6.5
q4 -2 3.5 -5t1.5 -5q-48 -5 -89 -18.5t-86 -23.5q-1 -8 -8 -12t-13 -9q-5 1 -14 1q-15 0 -27 -4.5t-23.5 -10.5t-23 -11.5t-23.5 -7.5q-8 -5 -20.5 -15.5t-16.5 -21.5q7 -7 7 -14t-8 -8q-17 -2 -32 -8.5t-28 -15.5t-24 -19t-20 -17q-1 -2 -1 -5q0 -5 5.5 -7.5t11.5 -4.5
q5 1 10 1h10q29 0 53.5 -7t45.5 -18t38.5 -24.5t33.5 -26.5q14 -17 34.5 -33t31.5 -36q8 -8 12.5 -19t4.5 -23t-5 -25q-4 -11 -11 -24q-6 -11 -17 -26t-28 -32zM612 213q-33 19 -74 19q-13 0 -25.5 -2t-25.5 -5q-3 -6 -11 -8t-17 -2.5l-18 -1t-15 -4.5q-5 -7 -12.5 -10
t-11.5 -9h-13q-10 0 -12 4h-4q-15 0 -19 -6q-13 -14 -36 -23t-47 -11l-15 -8q-34 -19 -63.5 -37.5t-54.5 -44.5l-7 -7q-19 -20 -34.5 -40t-15.5 -46v-2q4 -11 16 -14t29 -3q49 7 92.5 20t83.5 30t77.5 37t74.5 41q12 5 17 15t16 10h4q9 3 29 17.5t40.5 32t36 34t15.5 23.5v1
z" />
    <glyph glyph-name="T" unicode="T" horiz-adv-x="259" 
d="M134 -132q-10 11 -21.5 18.5t-22 16.5t-19 21.5t-12.5 33.5q-3 16 -3 35q0 45 14.5 93t37.5 80q5 2 9 11q2 4 4 9q10 11 14 21t5.5 18t2.5 14.5t5 10.5q18 6 23.5 14.5t7.5 17t4 16t13 11.5q20 31 42.5 60.5t42 53t32.5 38.5t14 18v3q0 5 3 12t15 10q8 2 13 7.5
t10.5 12.5t13 14.5t20.5 13.5q2 2 5 4q5 5 5 7q0 3 -4 4q-2 1 -11 1q-12 0 -30 -1.5t-37 -1.5h-24q-25 0 -44.5 -6.5t-41.5 -10.5h-3q-15 0 -31.5 -2t-32.5 -2t-28 4t-17 15l4 18q1 3 5.5 5.5t4.5 7.5q0 1 -2 5q-3 6 -3 10t1 6.5t2 5.5q0 1 1 3q2 4 5 4q81 0 156.5 9
t150.5 20h2q6 0 10.5 -3.5t9.5 -3.5q6 0 11 5q45 4 86.5 10.5t82 13t82.5 11t89 4.5q8 0 14.5 -0.5t14.5 -0.5q4 -1 14 -1q16 0 35 2.5t37 2.5q17 0 31.5 -4t22.5 -17q1 -2 1 -6q0 -5 -3.5 -6t-8.5 -1h-8q-8 0 -10 -2h-10q-22 0 -35.5 -2.5t-22 -5t-14 -5t-12.5 -2.5
q-6 0 -10 1t-11 1q-14 0 -23 -5t-23 -5q-8 0 -12 1q-8 -2 -11.5 -5.5t-6.5 -7t-7 -6t-13 -2.5q-2 5 -10.5 4.5t-13.5 4.5q-38 -1 -75 -14.5t-66 -23.5q-34 -4 -65 -17q-2 -4 -2 -10q0 -8 3.5 -12.5t7.5 -6.5q5 -3 8.5 -10.5t3.5 -15.5q0 -11 -7 -12q-18 -3 -27 -11.5
t-16 -18t-15.5 -17.5t-25.5 -10q-6 -3 -14 -7.5t-15 -10t-12 -11.5t-5 -10q0 -3 -5.5 -5t-12.5 -4t-13.5 -5t-9.5 -8q-7 -15 -19 -28t-23 -22q-21 -21 -32.5 -36t-18.5 -25.5t-10.5 -15.5t-8.5 -5h-1q-5 0 -15 -10t-21.5 -24t-22 -31t-16.5 -32q-1 -3 -7.5 -10t-13.5 -16
t-13 -19t-6 -20q5 -5 5 -11q0 -5 -4.5 -8.5t-9.5 -7t-9.5 -7t-5.5 -8.5q-1 -2 -1 -5q0 -8 5.5 -13.5t5.5 -12.5q0 -5 -4 -9q-1 -2 -1 -5q0 -4 3 -6.5t6.5 -5t6.5 -6t3 -7.5q0 -5 -3 -9q-2 -4 -2 -8q0 -9 6.5 -19.5t16.5 -17.5q2 0 4 0.5t4 0.5q4 0 5.5 -1t3.5 -3t6 -4.5
t12 -5.5q9 -3 21.5 -3.5t24.5 -0.5h25q12 0 14 -1q2 -2 2 -4q0 -6 -9.5 -13.5t-23 -15t-27.5 -13.5t-23 -8h-3q-5 0 -17 2t-23 11z" />
    <glyph glyph-name="U" unicode="U" horiz-adv-x="639" 
d="M737 540q10 19 23 35.5t26.5 33t26.5 33t23 35.5q1 3 5 5.5l8 5t7 6t3 8.5q0 4 -1 7q-1 2 -1 6q0 10 8.5 19.5t13.5 16.5q4 6 13 15.5t23 10.5l7 -2q19 -6 36.5 -14.5t22.5 -26.5l20.5 -20.5t11.5 -26.5q0 -4 -2 -10q-5 -6 -12 -11t-14 -11t-12 -13.5t-5 -17.5
q0 -6 1 -10q-5 -8 -13 -8q-4 0 -7.5 1t-8.5 1t-11 -3q-18 -16 -32 -32t-26 -31.5t-23.5 -31.5t-24.5 -33q-4 -7 -10 -7q-5 0 -9 2t-9 2q-6 0 -12 -7q0 -10 -3.5 -14.5t-10.5 -9.5q-2 -3 -2 -8q0 -7 4.5 -12t4.5 -11q0 -3 -2 -7q-2 -3 -7.5 -4.5l-11 -3t-10.5 -4.5t-7 -9
q2 -6 2 -7q0 -8 -7.5 -12.5t-7.5 -12.5v-3q-12 -11 -26 -30t-26 -38t-21.5 -33.5t-12.5 -16.5q-3 -3 -3 -7t1 -8t1 -8q0 -5 -3 -8t-13 -4l-3 -3q-8 -9 -12.5 -18t-4.5 -24v-7q0 -3 -1.5 -7t-8.5 -7q-4 -2 -10.5 -13t-12.5 -24.5t-10 -27.5t-4 -23q-11 -14 -16 -35t-5 -35
q0 -7 1 -9t1 -6q0 -8 -4.5 -12t-4.5 -11q0 -4 2.5 -6t5 -3.5t5 -4t2.5 -7.5q0 -4 -1 -6q-6 0 -6.5 -5t-5.5 -6q0 -1 -0.5 -1.5t-0.5 -2.5q0 -6 3.5 -15.5t8 -19t8 -17.5t3.5 -11q0 -2 -1 -2q-8 -2 -10 -2q-14 0 -25 8t-20 10q-2 10 -7.5 17.5t-12 13.5t-11.5 12t-5 14v3
q2 3 2 7q0 5 -9 10q-5 5 -5 21v10t1 10l2 10q2 14 7.5 31.5t10.5 33.5q6 18 13 36q3 9 8 22t10 25q5 14 12 29q6 14 15 30.5t17 30.5q10 17 20 33q4 7 7 13.5t6 11.5l6 12q4 3 4 7q0 2 -0.5 4t-0.5 4q-3 1 -8 1q-12 0 -17.5 -10t-13.5 -16q-10 -17 -25.5 -31.5t-35.5 -27.5
q-3 -3 -7 -9l-4 -6v-3q0 -16 -11 -27t-16 -20q-8 -5 -12 -14.5t-8 -17.5q-8 -3 -13 -8t-10.5 -10t-11.5 -9t-16 -4q-3 -6 -4 -12t-4 -11.5t-8 -9t-15 -4.5q-8 2 -12 2q-10 0 -15.5 -6.5t-5.5 -14.5v-4q-1 -6 -2 -11q-2 -11 -7 -13q-4 -8 -13 -14t-18.5 -12.5t-18 -14.5
t-11.5 -19q-10 -4 -25.5 -11t-32.5 -7q-10 0 -19 3q-38 11 -64.5 34t-37.5 52q0 12 -0.5 25t-0.5 27q0 20 2 37.5t10 30.5q2 9 7 23l10 28q5 16 12 33q5 11 11.5 24.5t13.5 26.5q8 15 16 31q4 11 10.5 24.5t13.5 25.5q8 14 16 29l50 81q5 11 13 24t16 24q10 13 20 27
q5 9 13 21t16 23q10 13 21 27q3 13 9.5 20.5t15 13t17.5 11.5t18 15q10 3 20 3q26 0 44.5 -17.5t35.5 -32.5q5 -3 5 -7q0 -6 -8 -13.5t-15 -18.5q-4 -10 -10.5 -16.5t-13 -12.5t-11.5 -13t-5 -17v-1q-8 -10 -20 -10.5t-23 -7.5q-6 -2 -6 -8q0 -3 1 -6t1 -6q0 -7 -10 -11h-4
q-12 0 -19.5 -4.5t-13.5 -10.5t-10.5 -13t-9.5 -13q-21 -25 -40.5 -55.5t-33.5 -59.5q-6 -11 -11 -16t-10 -9t-9.5 -8t-10.5 -12q-5 -5 -5 -13q0 -6 2 -11t2 -10t-5 -9q-13 -4 -18.5 -12.5t-9.5 -17.5t-8.5 -17.5t-15.5 -13.5q-16 -16 -19 -45q3 -8 3 -13q0 -6 -2.5 -11.5
t-5.5 -12t-5.5 -15t-2.5 -20.5v-8q0 -3 -0.5 -5.5t-0.5 -5.5q0 -9 3.5 -16.5t11.5 -10.5q29 0 46.5 8.5t36.5 22.5l8 6q14 12 33.5 27t37.5 28.5t31 24t13 14.5q0 5 5.5 9.5t13.5 9t16 11t13 16.5q1 5 14 16.5t30.5 26t36 31t29.5 30.5q9 5 17 13t15 16.5t14 16.5t14 12
q9 15 18 26q8 10 16.5 18.5t16.5 10.5q6 1 11 9.5t11 18.5t14.5 18t22.5 8q7 0 11 -1q6 2 8.5 6.5t4.5 9t3.5 8t5.5 4.5q5 6 10.5 16l11 20t10 18.5t8.5 12.5z" />
    <glyph glyph-name="V" unicode="V" horiz-adv-x="468" 
d="M294 472v-9q0 -5 -2 -7.5l-6 -7.5t-8.5 -14.5t-10.5 -28.5q0 -8 -4.5 -12.5t-10.5 -9t-11.5 -8.5t-8.5 -10q0 -16 -6 -27.5t-13.5 -22t-14.5 -21t-10 -25.5q-5 -9 -8 -19.5t-3 -20.5q0 -17 11 -27v-2q0 -5 -3.5 -9t-8 -7t-9.5 -6.5t-7 -8.5q-1 -17 -4 -35t-3 -36
q0 -14 3 -25.5t11 -20.5q5 -4 11 -4q9 0 13.5 9t9.5 13q9 16 20.5 27.5t23.5 21.5t24.5 21t23.5 26q6 18 14.5 29t17 17.5t16.5 11.5t13 13q21 29 45 54t49 49t50.5 49t50.5 54q6 5 14.5 8.5t16.5 7.5t13.5 9.5t6.5 14.5v4q0 10 7.5 17.5t18 15l21 15t15.5 18.5
q24 22 50 42.5t53 46.5q73 56 153.5 109t172.5 86q9 2 15 3t17 3q3 -6 3 -10q0 -7 -5.5 -11t-13 -7.5t-15 -6.5t-12.5 -7q-14 -10 -30 -18.5t-24 -19.5q-11 -1 -15.5 -7.5t-8.5 -13.5t-9.5 -12.5t-17.5 -5.5q-6 0 -10 1q-8 -2 -11 -7t-5 -10.5t-4.5 -10t-10.5 -4.5h-1
q-10 -9 -22.5 -18t-20.5 -20q-17 -3 -27 -11.5t-17.5 -19t-16 -20.5t-22.5 -16q-4 -7 -5 -13q-1 -4 -1 -7q-8 -12 -22 -23t-28 -21t-26 -20t-16 -21q-8 -22 -27 -35t-39 -24q-6 -6 -7.5 -11.5t-1.5 -10.5v-6q0 -4 -0.5 -7t-3.5 -6q-5 -4 -13 -12.5t-18 -17.5t-20.5 -15.5
t-19.5 -6.5h-1q-11 -2 -13.5 -8.5t-2.5 -10.5v-3q0 -12 -7.5 -20t-17.5 -14t-20 -12.5t-15 -15.5q-20 -17 -36 -37t-26 -43q-1 -3 -5.5 -4t-10 -3t-11.5 -5.5t-10 -9.5q-2 -3 -2 -7q0 -5 4 -6.5t4 -3.5l-1 -1q-1 -3 -1 -7t-2.5 -8t-9.5 -7.5t-22 -6.5q-9 -2 -24 -23
t-32.5 -46t-35 -46.5t-29.5 -24.5q-4 -1 -9 -1h-10q-13 0 -26 2t-19 8q-9 11 -19.5 16t-18.5 10t-13.5 12t-5.5 22v4q-3 0 -6 2q-2 2 -4.5 3.5t-4.5 5.5q-1 1 -1 10q0 12 1.5 31.5t3 38t3.5 32t3 12.5q8 40 15 72l11 49.5t6 22.5l20 55q1 9 5.5 20t9.5 21.5t9 20t4 15.5
q0 3 -2 4.5t-2 3.5q0 3 7 13.5t15 31.5q4 12 10 27.5t11 29.5t8.5 23.5l3.5 9.5q3 13 11 24t14 38q1 4 5 7q8 6 19 7q10 -3 20.5 -3t21 -1.5t21 -4.5t20.5 -12q1 -5 4.5 -7t8 -3.5t8 -4t4.5 -8.5q9 -6 9 -12q0 -5 -5.5 -9t-12 -8t-12 -8.5t-6.5 -10.5q-5 -6 -12.5 -14
t-14.5 -16.5t-12.5 -16t-5.5 -12.5q1 -3 1 -7q0 -6 -4.5 -8.5t-10 -5t-10 -6t-4.5 -11.5z" />
    <glyph glyph-name="W" unicode="W" horiz-adv-x="879" 
d="M1021 412q-4 -10 -8.5 -16.5t-17.5 -11.5t-21.5 -15.5t-16 -22t-15.5 -22.5t-20 -16q-3 0 -6 -3q-6 -6 -6 -16q2 -4 2 -12q0 -9 -5.5 -16t-12 -13l-13 -12t-8.5 -14q-9 -2 -11.5 -7.5t-3.5 -12t-3 -13.5t-9 -10q-3 -3 -13.5 -15t-22 -26.5t-20 -27t-8.5 -15.5q1 -2 1 -6
q0 -7 -3.5 -12t-8.5 -9t-11 -8q-11 -16 -16 -26.5t-7 -17t-4.5 -11t-9.5 -8.5q-7 -2 -9.5 -8.5t-3.5 -13.5t-3.5 -13.5t-9.5 -8.5t-9.5 -5.5t-5.5 -7.5t-8 -6.5t-17 -2.5q-19 0 -43.5 15.5t-45.5 30.5q-4 7 -8.5 13t-6.5 18v2q-2 12 -4.5 28t-2.5 28q0 11 3 16q2 3 4.5 11.5
t5 18.5t4 20t1.5 16v6q0 7 5.5 27t12.5 41q8 25 18 54q0 2 -0.5 3t-0.5 3q0 6 2 10.5t4 8.5q3 4 7 8q15 33 23.5 66.5t26.5 62.5l17 42q0 5 3.5 11.5t3.5 11.5q0 6 -9 9q-13 -2 -22 -8t-17 -12.5t-15.5 -12.5t-16.5 -9q-9 -9 -23.5 -22t-28.5 -27t-25.5 -26t-15.5 -18
q-15 -16 -29 -34t-18 -37q-2 -3 -6 -4t-8.5 -1t-8 -0.5t-4.5 -4.5q-6 -9 -14 -15.5t-15 -13t-11.5 -14t-4.5 -17.5q0 -7 1 -11q-6 -6 -13.5 -10t-14.5 -7.5t-12.5 -9t-6.5 -15.5q-7 -12 -16 -17.5t-11 -19.5q-24 -23 -41 -47t-31 -52q-19 -16 -29.5 -34t-16.5 -40
q-3 -7 -13 -7q-9 0 -22.5 5t-26.5 11.5t-23.5 12.5t-14.5 8q-16 12 -23.5 23.5t-7.5 17.5v3q0 4 -3.5 13t-3.5 20q0 5 1 10.5t5 10.5l10 60q2 11 6.5 25t8.5 27q4 15 9 30q8 23 14 42.5t27 37.5l3 3q1 2 2 3.5t1 4.5v3q-6 8 -6 16q0 5 2 8q19 31 31.5 63.5t34.5 62.5
q2 4 4.5 12t7 16.5t10 15t13.5 8.5q9 13 16 25q6 11 11 21t5 16v2q-1 -1 7.5 10.5t19 26.5l21 30t13.5 22q12 5 19 5q15 0 27 -10t29 -17q1 -5 5 -9l8 -8t7.5 -8t3.5 -8t-5 -9q-14 -15 -29.5 -37t-29.5 -43t-25 -36.5t-15 -16.5q-11 0 -19.5 -4t-10.5 -10q-1 -4 -5 -12
q-2 -4 -3 -7q-5 -14 -16 -19t-15 -13q-4 -7 -11 -15t-7 -27q0 -2 0.5 -5t0.5 -6q-3 -7 -7.5 -10.5t-10.5 -7t-13.5 -10.5t-17.5 -21l-3 -29q-5 -2 -11.5 -11t-11.5 -20q-6 -12 -12 -27q-6 -6 -6 -16v-8q0 -5 -2 -9t-10 -7q-7 -5 -12 -19t-10 -30q-5 -18 -10 -41
q-1 -7 -3 -14.5t-2 -14.5q0 -13 11 -18q13 5 25 14t20.5 18t13 16.5t4.5 10.5q0 4 7.5 12.5t18 19t22.5 22t22 21.5q85 86 171 167t177 153q10 8 26.5 21.5t35.5 28.5t38.5 30.5t36.5 27.5q8 1 14.5 6t12.5 10.5t12.5 9.5t15.5 4q8 0 12 -2q19 -14 25.5 -33.5t6.5 -39.5
q0 -8 -1 -16.5t-2 -16.5q-2 -8 -7.5 -16.5t-11.5 -16.5q-7 -9 -15 -18q-7 -9 -8.5 -16t-1.5 -13v-9q0 -5 -1.5 -11t-6.5 -13q-15 -3 -26 -13t-19.5 -22.5t-14 -26t-9.5 -24.5q0 -1 -0.5 -1.5t-0.5 -1.5q-15 -23 -26 -42q-10 -17 -18 -32.5t-8 -20.5v-1q1 -2 1 -6
q0 -7 -4 -13t-8.5 -11.5t-8.5 -9.5t-5 -7q-5 -11 -8 -18t-5 -13.5t-3.5 -14.5t-2.5 -21q-2 -11 -6.5 -28.5t-4.5 -29.5q0 -13 8 -13q12 0 23 10t21.5 23.5t20.5 27t21 20.5q5 4 13.5 12t17 17t15 18.5t6.5 16.5v2q0 3 6 12.5t16.5 22.5t24.5 28.5t28 31.5q33 37 76 81
q20 9 30 22.5t17 27.5t14.5 26t23.5 17q23 22 43 42t39.5 39t40 38.5t44.5 42.5q42 40 96 79t103 71q9 3 20.5 9.5t24 13t25 11.5t23.5 5q15 0 25 -10q0 -5 -8.5 -8.5t-20.5 -9.5t-26 -14.5t-25 -22.5t-18 -21.5t-12.5 -12t-10 -7t-9.5 -4.5q-17 -9 -26.5 -15.5t-20.5 -14.5
q-10 -11 -19.5 -23t-19 -23t-18.5 -19t-18 -9q-12 -2 -17.5 -5t-8.5 -7q-2 -5 -1 -10t-4 -13t-14 -16.5t-16 -17.5v-3q0 -5 -3.5 -7.5t-8.5 -5.5l-1 -1h-2q-14 0 -25 -9.5t-13 -15.5q-2 -12 -7 -19.5t-10 -10.5q-12 -2 -22 -9t-16 -13l-3 -2q-7 -6 -12 -13q-5 -6 -9 -13.5
t-5 -14.5z" />
    <glyph glyph-name="X" unicode="X" horiz-adv-x="709" 
d="M649 701q-7 -4 -7 -11q0 -5 2.5 -9t3.5 -6q-10 -10 -8.5 -28.5t-1.5 -31.5q-5 -6 -8 -12t-3 -10q0 -5 5 -5q2 0 4 1h1q4 0 5 -6v-1q0 -4 -1.5 -10.5t-3.5 -13.5q-3 -8 -5 -16q1 1 -3.5 -2.5t-5.5 -2.5q-1 -5 -4.5 -10t-3.5 -10q0 -4 4 -8h1q9 0 9 -10q0 -6 -1 -8
q-2 -7 -4 -13q-2 -5 -2.5 -11.5t-0.5 -11.5t2 -7q3 -2 10 -2q8 0 18 3.5t19 7.5t15.5 7.5t9.5 3.5h1q2 -6 2 -8q0 -7 -4.5 -12.5t-11 -10.5t-12.5 -10t-9 -11q-18 -13 -34 -32t-16 -43q0 -9 3 -18q2 -6 2 -9q0 -4 -2 -8q-1 -2 -1 -3q-8 -1 -8 -8q0 -2 0.5 -5t0.5 -6
q9 -2 12 -7.5t3 -13.5q0 -7 -1 -13.5t-1 -14.5q0 -10 3 -17q0 -2 -0.5 -2.5t-0.5 -2.5q0 -11 5.5 -27t5.5 -33q0 -2 -0.5 -5t-0.5 -5q6 -5 8.5 -12t3.5 -14t2 -13.5t5 -10.5q-4 -8 -4 -15t3.5 -12t8 -9.5t8 -9.5t3.5 -12t-2 -11q3 -3 5 -8t5.5 -10t8.5 -8.5t13 -3.5l36 -2
q1 -1 1 -4q0 -8 -10 -10.5l-18 -4.5q-41 0 -65.5 13.5t-31.5 24.5q-1 7 -2 11t-2.5 7t-3 7t-2.5 11q-8 11 -16 28.5t-14.5 35t-11 31.5t-6.5 19q-1 2 -1 4q0 5 6 11q3 3 7 4v4q0 6 -3.5 9t-7 5t-7 4.5t-3.5 8.5t2 10q-5 26 -10 46.5t-10 46.5q-6 7 -13 7q-8 0 -16.5 -6
t-18 -14t-19 -15.5t-18.5 -11.5q-7 -4 -10.5 -8.5t-7 -8t-7.5 -6.5t-12 -5q-14 -16 -34 -28.5t-34 -26.5q-10 -10 -23.5 -20.5t-26.5 -22.5t-22.5 -26.5t-10.5 -30.5q-2 -3 -8 -3.5t-13 -0.5t-12 -1.5t-6 -7.5q-3 -11 -8 -17.5t-11 -12.5l-12 -12t-12 -15q-5 -5 -11 -14.5
t-20 -9.5q-2 0 -3 0.5t-3 0.5q-11 0 -12 -6t-7 -11q5 -1 6.5 -4.5t1.5 -6.5q0 -5 -3 -6q-6 -3 -8.5 -6.5t-4.5 -6.5q-2 -4 -1 -7q-2 -2 -2.5 -4.5t-1.5 -4.5q-1 -3 -1 -5v-7q0 -4 -1.5 -7t-8.5 -5h-4q-11 0 -18.5 6t-14.5 8q-14 2 -26 14t-23 18q-4 9 -4 17q0 10 6 17t15 15
l3 3q19 0 24 15q1 11 10 17t14 15q2 3 16 15.5t30 26t30.5 25.5t18.5 14q26 23 57 46.5t62.5 46.5t62.5 45t58 42q4 7 14 7q5 0 9.5 -1t9.5 -1q11 0 12 11q8 17 26.5 26t35.5 23q3 1 4 7t1 11v3q-3 9 -3 19q0 15 4.5 29.5t4.5 28.5q0 20 -19 31v2q0 5 3.5 8.5t7 6t7 5.5
t3.5 7t-4 9q-3 1 -9 5t-11 7q-2 1 -3.5 10t-3 20.5t-2.5 24.5t-1 22q0 12 1 14q7 5 7 9q0 2 -2 4.5t-2 7.5q0 3 2 9l7 7q9 9 25 16t34.5 11.5t36.5 7t31 2.5q16 0 18 -3q1 -1 1 -5q0 -5 -2 -11zM1218 728q1 -2 2 -5q1 -2 2 -4.5t1 -4.5t-1 -3q-3 -4 -16 -4h-19q-11 0 -24 -2
t-27 -11q-12 -8 -27 -11t-28.5 -6.5t-23.5 -10.5t-12 -23q-8 -5 -17 -6.5t-18.5 -2.5t-17.5 -4t-14 -11q-12 -4 -27 -10.5t-30 -14.5q-11 -6 -21 -13t-21 -13.5t-23 -11t-27 -4.5h-2q-7 -2 -11 -10.5t-5 -11.5q-20 -14 -48 -25.5t-53 -22.5q-2 6 -2 8q0 5 3 7.5t7 5t8.5 5.5
t6.5 8l4 3q11 10 26.5 23t30.5 25q56 42 102 75l38 28t34.5 24.5t26 17.5t13.5 7q11 1 16 4.5t7.5 7t3.5 6t5 2.5t7 -1q9 8 21 14t23.5 10.5t20.5 6.5t12 2q7 0 20 -2.5t27 -8t27 -13.5t20 -19z" />
    <glyph glyph-name="Y" unicode="Y" horiz-adv-x="373" 
d="M340 232q-3 -6 -3 -12q0 -8 3 -15.5t3 -15.5q0 -7 -4 -14q-10 -9 -20.5 -13.5t-20.5 -8t-19 -9t-16 -15.5q-10 -14 -20.5 -30t-19.5 -29.5t-15.5 -22.5t-9.5 -9h-4q-8 0 -11 -2.5t-6 -7.5q-2 -4 -2 -6q0 -4 3.5 -7t3.5 -11v-4q-1 -6 -6 -10t-12 -8t-13 -8t-8 -11
q-8 -8 -15 -20.5t-15 -23.5q-5 -3 -7 -7.5l-4 -9t-6 -7.5t-13 -3q-5 -4 -15.5 -4.5t-18.5 -2.5h-9q-5 0 -10 -0.5t-10 -0.5q-12 0 -12 5v1q1 1 2 6t3.5 10t5.5 9t9 5q3 1 8 7.5t9.5 13.5t7.5 13t3 7q-1 2 -1 4q0 5 6.5 5.5t7.5 7.5q-3 6 -3 11q0 9 8.5 13.5t10.5 15.5
q4 0 12.5 12.5t17.5 27.5t16.5 28t8.5 16l10 24q4 4 8 9q3 5 6 10.5t3 12.5q-1 -1 2.5 2t4.5 2q4 10 6.5 21t5.5 21.5t8 19t16 13.5q4 7 4 13q0 7 -3 12t-3 10q0 7 5 12q11 13 13 31t2 23v1q1 5 1 8.5v8.5q0 23 -4.5 42t-4.5 42v5q-3 6 -5.5 20t-5.5 19q1 5 1 10v10
q0 14 -1.5 27.5t-3.5 24.5q-2 13 -4 25q-4 26 -10 47t-17 38l-16 8t-12 10q-1 2 -1 5q0 7 8.5 7t13.5 2q25 3 53 3q27 0 53 -4.5t47 -15.5q6 -4 6 -13q0 -7 -2 -14t-3 -12v-4v-26t-1 -35.5t-2 -35t-4 -24.5q-1 -4 -5.5 -10t-4.5 -13v-1l8 -4q3 -2 6 -3.5t3 -3.5
q0 -3 -9 -11.5t-9 -18.5q0 -5 3 -9q5 -7 9 -10.5t4 -9.5q0 -4 -3 -10q-2 -2 -3 -17.5t-1 -35.5q0 -14 0.5 -27t2.5 -24q-2 -8 -2 -11q0 -11 9 -11q7 0 18 11q9 11 27 30t35 37q20 21 43 44q20 24 41 44.5t42.5 39.5t44 39.5t45.5 44.5q20 18 47.5 40.5t55 43t51.5 36
t38 18.5q3 1 8 1q12 0 25.5 -5.5t25.5 -14t22 -18t16 -17.5q4 -4 4 -8q0 -8 -14 -9h-3q-14 0 -26.5 -2t-19.5 -13q-8 -14 -17.5 -19t-15.5 -5q-10 2 -14 2q-9 0 -14.5 -3.5t-10.5 -8t-10.5 -8t-14.5 -3.5h-4q-4 -1 -13.5 -7t-22 -15t-27.5 -20l-30 -22q-35 -27 -77 -60
q-3 -1 -4 -4t-2.5 -6t-4.5 -5t-9 -2q-2 0 -3.5 0.5t-3.5 0.5q-6 -1 -13 -6.5t-13 -13.5q-7 -9 -14 -20q-6 -6 -18 -11.5t-12 -16.5q0 -2 2 -8q-5 -8 -12 -10q-14 -1 -19.5 -8t-18.5 -12q-11 -10 -25.5 -25t-28 -30.5t-24 -29.5t-14.5 -21z" />
    <glyph glyph-name="Z" unicode="Z" horiz-adv-x="696" 
d="M1 -48q5 19 6.5 36t3.5 33.5t7 32.5t19 34q4 3 11 9t17 6h4q52 53 105 105.5t108.5 100.5t116 89.5t128.5 74.5q31 27 66 41t71 32q17 9 36 15.5t35.5 13t27 14t10.5 16.5q0 6 -10.5 8t-26.5 2q-17 0 -36.5 -1.5t-33.5 -1.5q-16 0 -16 3q0 1 1 2q0 1 0.5 1t0.5 1
q0 3 -12 3q-10 0 -25.5 -2t-31.5 -4t-31 -4t-23 -3q-14 -3 -19 -3q-9 0 -11.5 3t-9.5 3q-2 0 -4.5 -0.5t-6.5 -1.5q-6 -8 -13.5 -11t-16 -4t-16.5 -2.5t-16 -6.5q-5 0 -5 3q0 4 4 10t4 9q0 9 5.5 14.5t13.5 10t17.5 9t17.5 9.5q72 23 138 32.5t135 9.5q70 0 148 -9
q10 -2 13 -8t3 -14q0 -6 -1 -12.5t-1 -12.5q0 -8 3.5 -13t14.5 -5q3 0 7 0.5t9 1.5q5 0 5 -6q0 -5 -3.5 -13.5t-8 -16t-10 -13t-8.5 -5.5q-6 0 -13 -9.5t-16 -21t-22 -21t-32 -9.5q-4 0 -7 0.5t-7 1.5h-4q-18 0 -34.5 -6t-33 -14.5t-34.5 -17t-37 -13.5q-11 -11 -24 -14
t-26.5 -5.5t-25 -8.5t-19.5 -24q-11 -6 -25 -6q-6 0 -8 1q-18 -8 -32.5 -16.5t-28 -17t-27.5 -16t-32 -12.5q-20 -5 -32 -16t-29 -17l-74 -65h-4q-18 0 -28 -10t-18.5 -22.5t-18.5 -23.5t-29 -12q-7 -10 -17 -20.5t-20 -20.5q-11 -11 -23 -22q-2 -5 -3 -9t-2 -7q-1 -4 -1 -7
q10 -2 21 -2q16 0 36.5 2t41 5t39 5t29.5 2t13 -3q3 -3 26 -3t62 1.5t88 1.5q63 0 133 -5t135 -20q9 -2 16 -5q6 -2 11.5 -5t6.5 -5q1 -1 1 -3q0 -3 -3 -6l-2 -2q-1 -3 -11 -5.5t-23 -4t-26.5 -2t-21.5 -0.5h-8q-16 -2 -35 -8t-38 -6q-10 0 -19.5 3t-17.5 11
q-12 -1 -20.5 -4.5t-15 -7.5t-12.5 -7.5t-13 -3.5q-9 0 -20 7h-3q-6 0 -19.5 1t-29.5 1h-15.5t-14.5 -2q-8 -2 -20 -4t-23 -5q-13 -4 -27 -7h-3q-11 0 -21 -10t-18 -10q-1 0 -5 2q-3 8 -9 15t-15 7q-7 0 -14 -4q-18 -2 -30.5 -10t-29.5 -8q-7 0 -11 1q-9 3 -18 3
q-16 0 -29 -6.5t-30 -6.5h-6q-10 0 -29.5 -7t-30.5 -21q-10 -7 -11 -11.5t-6 -8.5q-4 -2 -7 -2q-10 0 -18.5 9t-8.5 19v1z" />
    <glyph glyph-name="bracketleft" unicode="[" horiz-adv-x="282" 
d="M110 29q-7 -7 -7 -12q0 -6 5.5 -10.5t5.5 -11.5q0 -4 -5 -11q-9 -2 -11.5 -12.5t-5.5 -17.5q8 -3 10 -8t2 -10q0 -4 -0.5 -8t-0.5 -8q0 -8 3 -11q3 -12 8.5 -22.5t16.5 -18.5v-1q0 -5 -7 -8t-9 -7q-12 1 -21 5t-17 9t-15.5 9.5t-17.5 6.5q-12 3 -21 10.5t-17 15.5
t-16.5 15t-19.5 10q-1 0 -2 2q-2 4 -2 9q0 6 5 14t6 7q7 6 14 16.5t13 21l10 17.5l4 7q8 10 17 23.5t19 27.5t20 26.5t21 20.5q4 6 4.5 15.5t2.5 14.5q6 5 12 11.5t11 12.5l12 14q10 16 19.5 29t21 28.5t26.5 36t38 50.5q7 8 16 20t17 23q10 12 19 26q3 8 13.5 23t22.5 30
q13 18 30 38q6 6 13 16t13.5 21t13.5 21t13 16q2 5 10.5 7.5t11.5 13.5q-1 0 -2 1q-2 2 -2 4q0 5 6 12q7 8 13 16q5 7 10 13.5t8 11.5q7 10 14 19q6 8 11.5 15t9.5 12q1 3 3 6q2 2 3.5 4.5t3.5 4.5q4 10 7.5 21.5t11.5 16.5l10.5 10.5t13.5 10.5q0 7 -5 12t-5 11q0 5 5 9
q14 7 31.5 11.5t36.5 8t37 6t33 5.5q14 5 32 10t32 5q13 0 18 -4q6 -3 11 -6t8.5 -6t3.5 -7t-5 -5.5t-12 -3t-16 -5t-16 -10.5q-16 -10 -37 -21.5t-46 -21.5q-20 -11 -25.5 -21.5t-6.5 -9.5q-1 -2 -1 -5v-5q0 -3 -1.5 -5.5t-7.5 -5.5q-11 -5 -12.5 -12.5t-2.5 -6.5
q-5 -8 -13 -13t-16.5 -9.5t-17 -10t-13.5 -13.5q-2 -7 -8.5 -12.5t-14 -11t-14 -11.5t-7.5 -14q-5 -4 -13.5 -14.5t-17.5 -21.5q-11 -13 -22 -28q-5 -8 -11 -16.5t-12 -15.5q-7 -8 -15 -16q-5 -13 -15.5 -22.5t-10.5 -23.5v-5l-19 -9.5t-13 -12.5l-9 -42q-3 -5 -8 -6t-10 -1
t-8.5 -1.5t-4.5 -8.5q-5 -11 -8.5 -22.5t-22.5 -26.5l-29 -41q-8 -11 -17.5 -25t-18 -27t-14.5 -21.5t-6 -7.5q-4 -9 -9 -18.5t-10 -17.5q-6 -9 -13 -17q-4 -5 -9 -14l-10 -18q-6 -11 -13 -23q-7 -9 -11 -20.5t-11 -19.5z" />
    <glyph glyph-name="backslash" unicode="\" horiz-adv-x="205" 
d="M73 548q1 5 3 9q4 10 4 17q0 9 -5 10q-2 0 -3.5 9.5t-1.5 20.5q0 10 1 14l-2 28q-2 19 -2 31t-5 27q-2 12 -2 23.5t-6 19.5v2q0 2 0.5 4t0.5 4q0 7 -5 8q3 12 13.5 17t21.5 8h1q2 0 4.5 0.5t4.5 0.5q16 0 30 -5t15 -12q-4 -19 -4 -35q0 -7 0.5 -14.5t0.5 -16.5v-10
t-1 -11q-1 -2 -1 -13q0 -17 2 -45.5t2 -53.5q0 -9 -0.5 -17t-1.5 -13q2 -6 2.5 -12.5t0.5 -11.5v-10q-6 -7 -7 -15.5t-1 -16.5q8 -1 10.5 -5t2.5 -10q0 -4 -0.5 -8t-0.5 -8q0 -10 4 -15l2 -6q2 -8 2 -13q0 -10 -5 -17q-4 -7 -4 -13q0 -9 6 -18t8 -29q-7 -8 -7 -21t6 -19
q0 -10 1.5 -25.5t4 -33t4 -35t1.5 -31.5v-9t-1 -8q8 -7 8 -20q0 -7 -1 -14.5t-1 -15.5t2 -14.5t10 -10.5q5 -8 5 -14q0 -5 -1.5 -8.5t-1.5 -9.5q0 -7 2 -12q-2 -8 -2 -9q0 -5 2 -8t2 -9v-5q4 -10 4.5 -21t1 -22.5t2 -22.5t7.5 -20v-1q0 -6 -6.5 -7t-11.5 -2h-12
q-16 0 -30 3.5t-19 12.5v1q0 4 1.5 10.5t1.5 11.5q0 8 -5 8v4q0 5 1.5 10.5t1.5 10.5q0 4 -1 5q4 8 4 21t-5 30q0 4 -2.5 25.5t-5.5 48.5t-6 53t-5 39q-4 13 -4 30q0 7 0.5 13.5t0.5 14.5q2 6 2 10q0 9 -4.5 16t-10.5 12q-1 6 -1 23.5t-0.5 38.5t-1.5 42.5t-4 36.5v7
q0 18 -3.5 30.5t-3.5 28.5v7.5t1 8.5q-4 1 -4 6v10z" />
    <glyph glyph-name="bracketright" unicode="]" horiz-adv-x="274" 
d="M510 669q7 7 7 12q0 6 -5.5 11t-5.5 12q0 5 4 10q10 2 12.5 13t4.5 17q-8 3 -10 7.5t-2 9.5t0.5 9t0.5 8q0 8 -3 11q-5 26 -24 41v1q0 5 6.5 8t9.5 7q12 -1 20.5 -5t16.5 -9t16 -9.5t18 -6.5q12 -3 20.5 -10t16.5 -15.5t16.5 -15.5t19.5 -10q1 -1 2 -3t2 -3.5t1 -4.5
q0 -6 -5.5 -14t-5.5 -7q-7 -6 -14.5 -16.5t-13.5 -21t-9.5 -17.5l-3.5 -7q-8 -10 -17.5 -23.5t-19 -27.5t-20 -26.5t-20.5 -19.5q-4 -7 -5 -16.5t-3 -14.5q-12 -11 -23 -23l-12 -14q-10 -16 -18.5 -28.5t-17 -24t-18 -23.5t-20.5 -26q-4 -6 -9 -13l-10 -14q-5 -8 -11 -15
q-8 -9 -17 -21t-17 -23q-10 -13 -18 -26q-3 -8 -14 -23l-22 -30q-14 -18 -30 -38q-6 -6 -13 -16t-14 -21t-13.5 -21t-12.5 -16q-2 -5 -10.5 -7.5t-11.5 -12.5q1 0 2 -1q2 -2 2 -4q0 -4 -6 -13q-7 -8 -13 -16q-5 -7 -10.5 -13.5t-7.5 -11.5q-7 -10 -14 -19q-6 -8 -12 -15.5
t-10 -11.5q-1 -3 -3 -6q-4 -6 -7 -9q-3 -10 -7 -21.5t-12 -16.5q-5 -5 -10 -10.5t-13 -10.5v-1q0 -6 5 -11t5 -11q0 -5 -5 -9q-14 -7 -32 -11.5t-36.5 -7.5t-36.5 -5.5t-33 -5.5q-15 -5 -33.5 -10.5t-32.5 -5.5q-12 0 -17 4q-7 2 -11 6q-11 5 -11 13q0 4 5 5.5t12 3t15.5 5
t15.5 10.5l4 2q16 10 36 21t43 20q20 11 25.5 22t6.5 10q3 5 1.5 10t9.5 10q10 5 13 15.5t12 15.5q12 9 26.5 15t22.5 19q1 7 8 12.5t15 11t14.5 11.5t7.5 14q5 4 13 14.5t17 21.5q10 13 22 28q4 8 10.5 16.5t12.5 15.5q7 8 15 16q5 14 16 23.5t11 23.5v4l19 9.5t13 13.5
l9 42q3 5 8 5.5t9.5 0.5t8.5 2t5 9q5 11 8 22t23 26l29 41q8 11 17.5 25t18 27t14.5 21.5t6 7.5q3 9 8.5 18.5t10.5 17.5q6 9 12 17q4 4 9.5 13.5t10.5 18.5q6 11 13 23q7 10 10.5 21t11.5 19z" />
    <glyph glyph-name="underscore" unicode="_" horiz-adv-x="658" 
d="M29 -15v2q0 6 15 11h5q6 0 13 0.5t13 0.5q9 0 15.5 -2t7.5 -9q6 -3 11 -3q10 0 19.5 5.5t19.5 5.5t18 -9h19q44 0 90 1.5t88 1.5q43 0 76 -3q21 3 46.5 5t47.5 2q28 0 37 -3q13 -8 20.5 -12.5t12.5 -9t9 -10.5t10 -16q0 -9 -13 -9h-4q-23 2 -42.5 4t-39.5 2q-23 0 -53 -6
q-26 1 -56 2.5t-60 1.5q-29 0 -56 -2.5t-51 -8.5q-18 4 -37 6.5t-38 2.5q-24 0 -48 -6q-4 2 -11 2q-5 0 -10 -1t-10 -1q-6 0 -12 3q-11 4 -20 11.5t-16 15.5t-11.5 15t-4.5 10z" />
    <glyph glyph-name="grave" unicode="`" horiz-adv-x="383" 
d="M268 514q-2 1 -2 4q0 5 7 12t15.5 13.5t16.5 12t11 6.5q4 0 4.5 -1.5t3.5 -3.5q2 -5 6 -9q6 -9 22 -20q2 -4 5 -8q2 -4 4.5 -7.5t6.5 -5.5q9 -10 17 -19q7 -8 12 -14.5t7 -7.5q7 -9 7.5 -14t9.5 -13q2 -3 5.5 -6.5t3.5 -6.5v-1q0 -2 -3 -2q-6 0 -15.5 5t-16.5 9
q-11 0 -18 6.5t-13 11.5q-11 7 -25.5 12.5t-18.5 19.5q-5 6 -15 7t-9 5q-1 5 -13 8.5t-15 6.5z" />
    <glyph glyph-name="a" unicode="a" horiz-adv-x="383" 
d="M267 92q1 4 7 14t12.5 21t11.5 21t5 15q0 4 -2 4q-7 0 -20.5 -10t-20.5 -21q-14 -19 -32.5 -34t-25.5 -29q-1 -5 -3 -6.5t-6.5 -3.5t-11.5 -6.5t-17 -16.5q-3 -10 -11.5 -14t-16.5 -11q-3 -2 -3.5 -7t-5.5 -8q-17 -4 -32 -15t-29 -13q-3 -1 -9 -1q-12 0 -28 6
q-5 6 -16.5 11t-11.5 13q0 5 4 9q3 21 8 36.5t16 32.5q5 3 8.5 9.5t5.5 13.5q3 8 5 16v1q0 2 -1.5 4t-1.5 6t2 7q2 2 9 5t7 8q0 2 -1 3q3 2 7.5 7t9 11t8 10.5t6.5 6.5q15 25 39 51t48 48t43.5 36t25.5 15q7 0 11 2.5t6.5 6.5t5.5 7t8 5q19 8 43.5 19t42.5 11q2 0 9 -2.5
t15 -7.5t15 -11.5t9 -15.5q9 0 12 -3.5t4 -7.5l2 -8t7 -6q-1 -4 -3 -7q-4 -6 -8 -6q-1 0 -5 2q-18 6 -38 6q-27 0 -53.5 -9t-46.5 -22q-15 -1 -21 -5.5t-10 -9.5t-9 -10t-17 -8q-3 -8 -6 -11.5t-6.5 -5t-7 -2.5t-7.5 -4l-5 -4q-20 -17 -35 -30t-29 -32q-3 -2 -7 -2t-4 -8v-4
q-2 -7 -9 -13.5t-15 -17.5q-13 -16 -15.5 -26.5t-7.5 -21.5q0 1 -1.5 -6t-1.5 -14q0 -5 1 -7q1 -5 8 -5q10 0 25 10t25 18q15 13 25.5 20l22.5 15t27.5 22t40.5 42q6 4 12 10.5l12 13t13 11.5t14 5h2q4 0 12.5 8t18.5 19.5t20.5 24t18.5 21.5q3 1 9 1q9 0 17 -4.5t11 -9.5
q5 -9 12.5 -13t7.5 -12q0 -2 -3.5 -5.5t-7.5 -6.5q-5 -4 -11 -8q-1 -1 -5 -4.5t-9 -9t-9 -12.5t-4 -13v-1q-4 -8 -9 -13t-10 -9.5t-8.5 -10.5t-3.5 -17v-2q-1 -5 -10.5 -12t-17.5 -30q-6 -3 -9.5 -17.5t-5.5 -25.5v-7q0 -5 -0.5 -9t-0.5 -9q0 -10 3.5 -17t17.5 -9q1 -1 3 -2
q3 -3 3 -4q0 -3 -6 -9q-17 -5 -27.5 -12.5t-27.5 -10.5q-8 -3 -15 -3q-17 0 -17 13v1q-1 5 -1 14q0 26 10 55.5t22 52.5z" />
    <glyph glyph-name="b" unicode="b" horiz-adv-x="443" 
d="M44 116q5 5 10 12t9 14q4 8 9 16q10 22 23 43q7 11 14 23q13 23 24 41t25 38q4 3 4.5 8t1 10.5t3 10.5t11.5 8q8 9 13 17q5 7 8.5 13.5t4.5 8.5q1 5 4 9q2 4 5.5 8t9.5 8q7 16 21.5 36.5t32.5 41.5q3 2 6.5 11t9.5 10q2 7 9.5 19.5t16.5 24.5q11 14 23 29q6 10 11.5 16
t10.5 12t10 12.5t10 17.5q7 8 12.5 13.5t9.5 10.5t7 9q14 17 28.5 41.5t31.5 41.5q3 7 10.5 14t15 13.5t13 14t6.5 16.5q13 19 30 33.5t24 36.5q14 3 20 13.5t14 18.5q5 5 9.5 9t14.5 9q13 0 19.5 -7t11.5 -15.5t10.5 -16t17.5 -9.5q3 -8 3 -12q0 -10 -7.5 -17.5t-17 -14
t-18.5 -14t-11 -16.5l-27 -25q-8 -5 -12.5 -14.5t-16.5 -9.5q-7 0 -11 2q-11 -5 -10.5 -11.5t-3.5 -14.5q-2 -2 -5 -6.5t-12 -9.5q-26 -11 -41 -31.5t-32 -37.5q-13 -4 -19 -13v-2q0 -3 -2 -9.5t-10 -8.5q-25 -23 -45 -49t-43 -51q-1 -12 -7 -19t-13.5 -12t-15 -11
t-11.5 -18l-5 -17q-2 -6 -7 -9.5t-10.5 -6.5t-10 -6t-4.5 -9q0 -2 2 -8q-8 -6 -13.5 -14t-11.5 -16q0 -1 0.5 -2t0.5 -2q0 -9 -8.5 -14t-10.5 -13q-4 -11 -8 -15q-3 -4 -5 -5q-5 -12 -13 -20t-13 -19q-17 -39 -30 -59.5t-13 -26.5q0 -2 3 -2q11 0 14.5 8.5t13.5 16.5
q2 6 8.5 11.5t13.5 11.5t13 12t7 12q17 10 31 26t30 29q5 1 11 5.5t13 9.5t14 9.5t15 6.5q17 10 38.5 25t50.5 15q8 0 13 -1q7 -2 13 -7.5t12.5 -11.5t13.5 -11t16 -8q4 -8 13 -15.5t11 -15.5q1 -2 1 -7q0 -7 -2 -15l-2 -8q-5 -4 -6 -10t-4 -11q-3 -13 -11 -22.5t-8 -22.5
v-4q-5 -4 -14.5 -5t-9.5 -9q2 -6 2 -7q0 -8 -7 -11t-7 -14q-3 -6 -9 -10l-12 -8t-10.5 -9t-4.5 -13v-1q0 -6 -4 -8t-9 -4t-9 -4t-4 -8q0 -1 0.5 -1.5t0.5 -2.5q-9 -14 -17 -25q-7 -10 -14 -18t-10 -8q-11 -3 -13 -9.5t-9 -14.5q-8 -7 -17 -12.5t-18 -12t-17.5 -13.5
t-13.5 -17q-13 -5 -24 -5q-13 0 -25 4.5t-23 10.5q-3 8 -9 13.5t-12.5 10t-12.5 9t-9 11.5q-4 2 -6 9.5t-3 16t-3 15t-6 6.5q-3 0 -10 -8q-5 -5 -10 -16.5t-10 -22.5l-10 -22q-13 -19 -12 -29t-3 -12q-2 -1 -7 -1q-10 0 -22 5.5t-22.5 12.5t-18 14t-7.5 11v2q0 7 2.5 16
t4.5 12h1q8 0 8 6.5t4 11.5q7 5 11 13t7.5 16.5t8 17t11.5 14.5zM225 14q23 8 46 25t40 45q9 5 14 14.5t9.5 19.5t9 18t13.5 11q10 3 13 7.5t3 8.5q0 2 -0.5 2.5t-0.5 1.5q-1 1 -1 2v1q0 3 3.5 8t8 12l9 14t5.5 15q1 5 6 10t9 10q20 30 25 48t5 26v5q4 8 4 17q0 10 -5 10
q-2 3 -7 3q-11 0 -24 -13q-25 -6 -41.5 -21t-36.5 -32q-5 -2 -13 -11t-9 -14q-5 -11 -17 -13t-20 -9q-3 -3 -7 -11q-2 -4 -3 -8q0 -4 -6 -9t-13 -10.5t-13 -12t-6 -12.5v-2q2 -2 2 -9v-7l-14 -25q-4 -3 -8 -7q-7 -9 -7 -19v-2q-6 -20 -6 -40q0 -11 1.5 -21t6.5 -18
q2 -2 6.5 -5.5t12.5 -3.5q4 0 6 1z" />
    <glyph glyph-name="c" unicode="c" horiz-adv-x="368" 
d="M95 -24q-16 4 -27.5 12t-22.5 16q-6 5 -13 13.5t-12 16.5q-5 12 -5 27q0 14 4 28t10 23l2 15q3 7 5 17t6 17q5 15 14 27.5t15 30.5q11 11 20 26.5t27 30.5q-1 1 -1 2q-1 1 -1 5q0 5 4 6q3 1 8 4.5t10 8l10 9t7 8.5q10 8 14.5 16t15.5 10q20 16 42 30t46 22q2 1 7 1
q8 0 12 -4v-1q0 -4 5 -10t8 -9h5q7 8 24 11.5t27 3.5q7 0 7 -1q2 -7 7.5 -12t12.5 -10t12.5 -10t7.5 -12q4 -3 4 -5q0 -5 -7.5 -10.5t-10.5 -10.5h-2q-8 0 -12 -5t-4 -7v-1q0 -3 -4.5 -7.5l-9.5 -9.5q-6 -5 -14 -11q-9 -7 -7.5 -11.5t-4.5 -6.5q-15 -5 -19 -12t-14 -18
q-3 -2 -8 -2h-5q-3 0 -6 -0.5t-6 -3.5v-2q0 -5 3 -7.5t3 -5.5t-2 -5h-2q-4 0 -6 -5.5t-5 -7.5v-1q0 -1 0.5 -1.5t0.5 -1.5q0 -3 -1 -7t-4 -4q-9 0 -14.5 14t-5.5 21v8q0 18 8.5 33.5t20.5 29t25.5 26t24.5 24.5q4 4 4 7q0 4 -9 4q-6 0 -8 -1q-14 -4 -31.5 -13.5t-33 -19.5
t-26 -18.5t-11.5 -10.5v-2q0 -5 -5 -7.5t-7 -2.5q-5 -8 -14.5 -16t-20.5 -10q-8 -3 -10 -9q-1 -3 -1 -5q-9 -14 -22 -24.5t-22 -23.5q-5 -4 -5 -11q0 -4 1 -8t1 -7q0 -4 -2.5 -6t-10.5 -3q-14 -24 -27.5 -48t-13.5 -48q0 -12 4 -23q5 -6 15.5 -12.5t22.5 -6.5h4q6 -2 11 -2
q8 0 18 2.5t21 4.5q12 8 24 10.5t23.5 4.5t21.5 6t19 15q2 5 8.5 7.5t15.5 6.5q22 9 39.5 20.5t31 22t22.5 18t14 7.5q7 0 7 -9q0 -4 -2 -10q-1 -3 -1 -4q-3 -13 -14.5 -32t-28.5 -27q-10 0 -16 -4.5t-8 -9.5v-4q0 -8 -3.5 -12t-7.5 -7l-2 -1h-1q-19 -13 -43 -21t-33 -15
q-12 -2 -29.5 -5.5t-37.5 -3.5q-13 0 -26 2.5t-24 9.5z" />
    <glyph glyph-name="d" unicode="d" horiz-adv-x="413" 
d="M313 8q3 -6 6.5 -11.5t15.5 -5.5q7 0 7 -7q0 -4 -3.5 -8.5t-13.5 -9.5q-13 -8 -27.5 -11t-25.5 -3q-3 0 -5.5 0.5t-4.5 0.5q-8 2 -10 6.5t-2 11.5q0 6 1 13t1 12t-1 7q0 1 -0.5 1.5t-0.5 2.5q0 8 6 26t14.5 38t18 38t16.5 26q0 8 6 13t6 13v1q1 1 2 3t2 2.5t1 2.5
q0 3 -6 3l-19.5 -13t-13.5 -9.5t-11.5 -10.5t-13.5 -17q-4 -2 -5.5 -4.5l-3 -5t-4.5 -4.5t-12 -3q-6 -3 -10.5 -9t-7.5 -11t-5 -8.5t-3 -3.5q-3 -5 -4.5 -8t-8.5 -3h-3q-7 0 -9.5 -2t-4 -4.5t-3.5 -5.5t-8 -6q-1 -9 -12.5 -15t-17.5 -12q-12 -3 -20.5 -9.5l-17 -13
t-17.5 -11.5t-21 -5q-16 0 -37 11q-9 0 -15 5t-6 13v4q-1 4 -1 11q0 8 1 11q0 3 1 4q3 16 13 33q4 8 11 16q12 21 15.5 33t11.5 18q9 8 20 26.5t18 28.5q13 14 26 34t21 31q3 4 9 7l12 6t10 7t4 11q0 4 -1 6q2 5 7.5 9t10.5 9q25 29 54.5 52t73.5 33q21 0 35.5 -6
t24.5 -15.5t17.5 -21t15.5 -22.5q2 -1 5 -1t4.5 2t5.5 6q18 15 30.5 30.5t23 32t21 33.5t24.5 36q-1 -1 3 2t5 2q11 22 26 41.5t31 40.5q1 8 8 14t8 15q12 7 16 18t17 19q0 1 -0.5 1.5t-0.5 1.5q0 3 3.5 2t3.5 5q-2 4 -2 6q0 5 3.5 8t8 6t8 6.5t3.5 8.5v3q1 5 13 21
t27.5 35.5t30.5 38.5t23 30q13 8 18 15t7.5 13t4 12t9.5 11q8 8 17 21t21 13q6 0 9 -2q13 -8 24 -15t19 -23q4 -6 4 -10q0 -6 -5 -12.5t-12.5 -13t-15 -13.5t-12.5 -14q-11 -5 -15 -15.5t-15 -17.5q-6 -9 -22 -24.5t-32.5 -32.5t-29.5 -35t-13 -32q-2 -5 -13.5 -9t-16.5 -8
q-26 -36 -56.5 -69.5t-53.5 -68.5q-4 -5 -11 -14l-14 -18q-8 -11 -17 -22q-6 -6 -7.5 -12.5t-4 -12.5t-7 -10.5t-15.5 -7.5q-5 -2 -6 -5t-1 -7v-6t-2 -5q-11 -13 -21 -33.5t-27 -36.5q1 -2 1 -4q0 -8 -8 -11.5t-9 -12.5q-8 -8 -13.5 -16.5t-9.5 -16.5l-7 -14t-5 -7
q-14 -14 -24.5 -32.5t-18.5 -36t-14 -29.5t-11 -12q-3 -2 -6 -10t-6 -18.5t-4.5 -22t-1.5 -18.5q0 -6 1 -8zM281 309q-2 -9 -9.5 -13t-16.5 -7.5t-17.5 -7t-13.5 -10.5q-12 -17 -27.5 -26t-26.5 -29v-1q0 -3 -3 -11.5t-19 -10.5q-3 0 -11.5 -8.5t-19 -21t-21.5 -28
t-17 -29.5q-4 -19 -15.5 -34.5t-11.5 -26.5q0 -3 2 -7q14 1 22.5 8.5t17.5 12.5q0 2 5 3.5t12 4t14.5 6.5t10.5 12q15 10 36.5 25.5t45 33.5t47 36.5t43 36t32 32t14.5 24.5q1 7 6.5 11.5t11.5 7.5l11 5.5t5 6.5q1 2 1 5q0 2 -2.5 5.5t-4.5 5.5q-4 3 -7 5q-18 9 -38 9
q-16 0 -31 -6t-25 -19z" />
    <glyph glyph-name="e" unicode="e" horiz-adv-x="365" 
d="M360 366q6 0 15 -9.5t9 -20.5q0 -2 -0.5 -2.5t-0.5 -2.5t6.5 -6.5t14.5 -11t14.5 -14.5t6.5 -15q0 -4 -4.5 -10t-10.5 -12t-12.5 -10t-10.5 -5q-2 0 -3 0.5t-3 0.5q-12 0 -20 -11q1 -2 1 -5q0 -6 -5 -8.5t-12 -4.5t-13 -3.5t-8 -5.5q-3 -7 -14 -12.5t-25.5 -11t-30 -10.5
t-28.5 -11q-11 -1 -25 -9.5t-23 -8.5h-4q-5 0 -17 -6t-38 -13l-26 -3q-17 -19 -30.5 -36t-13.5 -43v-2q-4 -3 -4 -7t3 -8.5t4 -9.5q13 -11 34.5 -12.5t39.5 -1.5h7q0 8 7.5 7t12.5 4h2q16 0 32.5 8.5t30.5 8.5q4 1 21 8t39 18t44.5 24.5t38.5 28.5q2 1 4 1q6 0 6 -8
q0 -9 -4 -17q-9 -6 -13 -11.5t-6.5 -10t-4.5 -8t-7 -4.5q-3 -10 -12 -14.5t-18.5 -8t-19 -8.5t-13.5 -16h-3q-8 0 -11.5 -9t-13.5 -9q-4 0 -7 1h-2q-10 0 -19.5 -3.5t-19 -7.5t-20.5 -7.5t-24 -3.5q-2 0 -4.5 0.5t-5.5 0.5l-1 1q-3 2 -8 3.5t-10 1.5q-2 0 -2.5 -0.5
t-2.5 -0.5q-8 -5 -14 -5q-9 0 -18.5 5t-20.5 8q-21 8 -37 25t-16 43v10q0 11 2 26.5t7 24.5q0 1 0.5 1t0.5 1q0 3 -3 7t-3 6q2 6 11 8t14 9q1 4 1 8q0 7 1 7q4 11 9.5 17t10.5 11.5l10 11t9 15.5q7 7 14 15.5t13 16t10.5 12.5t6.5 5t3 -0.5t3 -0.5q7 0 10 2.5t4.5 5.5t2.5 6
t3 4q1 11 4.5 14.5t11.5 8.5l3 2q24 21 54 40.5t62 28.5q7 6 19 6.5t22 2.5q6 -1 8.5 -3.5t4.5 -5t5.5 -5t12.5 -2.5zM329 321q-20 -3 -43 -14t-44 -25t-38.5 -28t-26.5 -24q-1 -4 -3 -7q-3 -7 -7 -9q-27 -10 -40.5 -27.5t-17.5 -24.5q-1 -2 -1 -4q0 -3 3 -3h2q1 0 1 1
q22 6 52 19t57 27t45.5 25.5t17.5 13.5v1q0 3 8 8t19.5 11.5t23 15t17.5 19.5q1 3 2 7q2 8 2 11v1q-2 7 -15 7q-3 0 -6.5 -0.5t-5.5 -0.5h-2z" />
    <glyph glyph-name="f" unicode="f" horiz-adv-x="353" 
d="M208 -41q-1 -1 -1 -6v-1q0 -8 -3 -18.5t-23 -19.5q-2 -2 -9.5 -12t-16.5 -21.5t-17.5 -21.5t-11.5 -11q-8 -4 -10.5 -9t-3.5 -9.5t-2.5 -8t-8.5 -4.5q-7 -8 -7.5 -13.5t-1.5 -10.5t-5.5 -11t-17.5 -14q-20 -12 -31 -32.5t-25 -37.5q-8 -2 -13 -10t-5 -13
q0 -11 -3.5 -21.5t-11.5 -18.5q-3 -5 -8 -7t-10 -5t-10 -8t-6 -14l-1 -1q-4 -3 -9.5 -8.5t-5.5 -13.5v-1q-4 -4 -7.5 -11t-5.5 -15q-1 -9 -12 -9q-4 0 -12 2q-15 5 -34 23t-39 38q-2 2 -3 5q-3 4 -3 12q0 4 1 8t6 9q3 3 3 10q0 2 -0.5 4t-0.5 4q-1 2 -1 4q1 3 2.5 6t2.5 6
l2 6q2 14 6.5 25t9 20.5t8 18.5t3.5 18v5q0 18 8 30.5t12 11.5q2 -1 5 5.5t6 14.5q4 9 8 21l9 19q11 30 26 55t27 54q21 31 37 58t36 56q6 7 7.5 10t2.5 5.5t2 6t7 11.5v2q0 9 8 20t18 21.5t18.5 19t8.5 11.5q3 5 12 17t18.5 25.5t17.5 26t10 18.5q9 5 15 14.5t11.5 20
t10.5 21t12 16.5q0 7 -8.5 11.5t-18 9t-18 9.5t-8.5 12q0 4 2 7q8 2 18.5 3t22.5 1h48q15 7 21.5 13.5t10.5 13.5t8 15.5t13 19.5q14 20 39.5 51.5t69.5 88.5q26 29 57 65t58 69l22.5 22.5t25.5 24.5v2q0 7 4.5 13.5t11 12.5t13.5 12t12 12q9 10 14.5 18t10.5 16t11 16.5
t16 17.5q7 6 13 11q5 5 10.5 9.5t8.5 9.5q5 7 13 8.5t17 1.5h19q7 0 13.5 0.5t12.5 3.5q13 0 21.5 -3t15.5 -7.5t12.5 -10.5t11.5 -11q2 -6 2 -7q0 -4 -2.5 -5t-6 -2t-7 -3t-4.5 -7q-14 -8 -24.5 -14.5t-20 -13t-20.5 -15.5t-26 -21l-17 -22q-8 -6 -21.5 -11.5t-28.5 -12.5
t-27.5 -16t-17.5 -24q-7 -10 -18 -18t-22 -15.5t-22 -16t-18 -20.5q-5 -3 -5.5 -7.5t-1 -9.5t-3.5 -8.5t-12 -3.5h-3q-9 -6 -12 -14t-4 -7q-6 -4 -7 -9t-2.5 -10t-5 -9t-13.5 -6q-10 -3 -17 -10.5t-13 -16t-12.5 -17t-15.5 -13.5q-7 -11 -11 -15l-7 -7t-6.5 -7t-9.5 -14
q-5 -9 -12.5 -19l-15 -20t-13 -19.5t-5.5 -16.5q0 -4 1 -6q4 -3 9 -3q9 0 17.5 7t20.5 7h4q46 8 92 17t91 9q20 0 41 -3v-1q0 -4 4.5 -5.5t4.5 -4.5q0 -2 -3 -5q-36 -5 -68.5 -16t-62.5 -23.5t-59 -26t-58 -24.5q0 -2 -0.5 -3t-0.5 -2q0 -10 7 -16.5t7 -17.5q0 -4 -1 -6
q5 -3 5 -16q0 -8 -1.5 -18.5t-3.5 -19.5q-3 -11 -5 -21v-2q0 -11 -8 -28t-17.5 -32.5t-17.5 -27.5l-8 -12q-2 -5 -4 -13t-5 -16t-8 -14t-12 -6q-1 -2 -4 -6q-2 -4 -6.5 -11t-11.5 -20q-13 -21 -24.5 -41.5t-31.5 -35.5zM241 322q-6 -2 -12 -10t-12 -18.5t-12 -20.5t-11 -16
q-6 -8 -19 -26.5t-26.5 -39.5t-25.5 -39.5t-17 -24.5q-8 -8 -9.5 -19.5t-4.5 -22.5v-1q0 -1 0.5 -2t0.5 -2q0 -5 -4.5 -11t-19.5 -12l-16 -24q-6 -11 -10 -16.5t-8 -10t-8 -11t-9 -19.5q-1 1 -11 -5t-10 -15q0 -5 2 -7q3 -6 3 -9q0 -5 -4 -6.5t-6 -8.5q-7 -8 -12 -17
q-5 -8 -9.5 -16t-6.5 -15q1 -1 2 -3q2 -4 2 -8q0 -6 -6 -10q-6 -5 -9 -9q-2 -3 -4 -5q-2 -3 -7.5 -16t-11.5 -29.5t-11.5 -32t-7.5 -23.5l-4 -10q-2 -5 -3 -9t-1 -8q0 -2 0.5 -2.5t0.5 -1.5q0 -5 5 -9.5t11 -4.5h3q11 9 23 21t22 23q11 12 21 25q11 4 17.5 11t13.5 17.5
t16 24.5t26 31q9 9 25 24t34.5 34.5t36.5 42t31 45.5q5 15 18 31.5t20 29.5q5 8 10.5 19t13.5 15q14 4 14 12q0 3 -1 6t-1 7q0 6 6 12q10 19 18 36q7 14 12.5 29t5.5 25v1q0 3 0.5 6t0.5 6q0 17 -5.5 33t-14.5 29t-21 21t-24 9z" />
    <glyph glyph-name="g" unicode="g" horiz-adv-x="409" 
d="M348 -477q-6 -8 -16 -14t-20.5 -10.5t-20 -7.5t-12.5 -5q-8 -4 -12 -4q-5 0 -5 5v2q1 4 5.5 8t9.5 8q6 4 14 9q6 7 21.5 21t31 30t28 30t14.5 20q2 8 4.5 12.5t5.5 8.5l7 7q17 21 28.5 43.5t18.5 41.5q8 22 12 43v3q0 5 -2.5 9.5t-2.5 14.5v11q0 23 -14.5 36.5
t-31.5 20.5q-20 8 -46 10q-59 0 -94.5 -9.5t-58.5 -17.5q-12 -5 -23.5 -14.5t-21.5 -20.5t-16.5 -21t-9.5 -15q-6 -10 -12 -13l-6 -3q-22 -40 -53 -74.5t-53 -71.5v-2q0 -3 1 -6.5t1 -6.5q0 -6 -6 -8q-8 -2 -20.5 -7.5t-15.5 -13.5q1 -2 2 -5q2 -6 2 -10q0 -9 -8 -13
q-6 -3 -17.5 -15.5t-25.5 -29t-30.5 -35t-31.5 -33.5v-2q0 -9 -10 -26q-17 -8 -25.5 -18t-19.5 -22q-8 -8 -15 -20.5t-21 -12.5h-2q-2 1 -7 -6l-12.5 -17.5t-17.5 -22t-20 -19.5q-9 -8 -27.5 -22.5t-37 -28t-34 -23t-18.5 -9.5q-6 0 -12 -0.5t-11 -3.5q0 -1 0.5 -2t0.5 -2
q0 -9 -9 -13q-20 -4 -36.5 -13t-35.5 -9q-14 0 -30 9q-6 7 -12 10.5t-10 6t-6.5 5.5t-2.5 9q0 3 0.5 6t1.5 8v2q0 5 -1 13t-6 10q-3 1 -3 13q0 13 2.5 31t4.5 30q2 23 10 42.5t11 24.5q8 12 13 27t22 22q2 2 2 6q0 5 -2.5 9t-2.5 9q0 3 3 6q9 5 15 8.5t10 8.5q1 18 8 26
t14 11.5t13 6t6 9.5q0 3 -3 11q1 5 9 12t18 15t19.5 16.5t13.5 16.5q11 10 27 23t30 25q17 14 35 28q21 17 47.5 35t54 35.5t54.5 33.5t50 28q10 5 22.5 12.5t25 14t24 11t20.5 4.5h5q10 0 14.5 3.5t7.5 7.5t7.5 8t14.5 6q23 11 52 21t55 20q14 20 26.5 35t22.5 36
q10 5 12 11t7 14q5 7 12.5 19t15.5 24q9 14 19 30q2 3 2 7.5t1 8.5t3 7.5t7 4.5q4 1 7 11t3 16v2q-1 4 -5 4q-2 0 -2.5 -0.5t-1.5 -0.5l-1 -1q-5 -3 -14.5 -9t-19 -13t-16.5 -12.5t-6 -7.5q-1 -9 -4.5 -11t-8.5 -2h-7q-19 -5 -35.5 -18t-39.5 -21q-2 -2 -16.5 -9.5
t-26.5 -7.5q-5 0 -7.5 -3t-4.5 -7t-4.5 -8t-8.5 -6h-3q-12 0 -18.5 -6.5t-17.5 -6.5h-5q-12 2 -23.5 18t-18.5 30v3q0 4 2 9t8 10q5 3 6.5 9.5t6.5 11.5v2q0 3 3.5 5t3.5 8q0 4 -1 6v1q0 5 10.5 19t26.5 32t36.5 38t39.5 37t35.5 29t25.5 15q7 1 12 7.5l10 13t11 12t15 5.5
q7 0 11 2.5t7 6t6.5 7t8.5 5.5q9 7 23 16t29 18t29 15.5t22 7.5q1 0 2 -0.5t2 -0.5q5 0 9.5 3t10.5 3q4 0 6 -1q14 -11 27 -22.5t26 -29.5q8 -6 9 -16.5t1 -12.5q0 -11 -10 -11q-5 0 -8 3l-11 8q-10 4 -23 6.5t-27 2.5q-18 0 -36.5 -5t-31.5 -16q-19 -8 -39.5 -17t-35.5 -20
q-8 -12 -21 -19.5t-25 -14t-22 -14.5t-12 -23q-3 -5 -12 -5h-13q-6 0 -10.5 -1.5t-5.5 -9.5v-3q0 -8 -5.5 -14.5t-12.5 -13t-14.5 -12.5t-11.5 -12q0 -6 -4 -11t-8.5 -10.5t-8.5 -11t-4 -12.5q0 -4 1 -6q3 -1 7 -1q11 0 20 6.5t20 8.5q19 11 42.5 23.5t44.5 24t35 20.5
t14 13v2q0 4 10 9.5t23.5 13t26.5 16t19 19.5q10 12 16.5 18.5t16.5 19.5q6 5 12 5q1 0 9 -2q2 -7 7.5 -10.5t11.5 -6.5t11.5 -6.5t7.5 -10.5q-2 -6 -5 -16.5t-14 -27.5q-5 -14 -12 -26.5t-13 -22.5q-8 -11 -15 -22q2 2 2 -8q0 -8 -6 -12q-7 -5 -12.5 -5t-7.5 -9q2 -6 2 -8
q0 -11 -11.5 -18t-15.5 -17q-2 -8 -10.5 -19t-18 -22.5t-17.5 -22.5t-10 -18q-4 -5 -7 -9l-4 -8t-2 -6q0 -3 3 -3q1 0 1.5 0.5t2.5 0.5q6 2 17 5q8 2 21 4t30 2t37.5 -2.5t44.5 -8.5q22 -6 44 -21t40 -35.5t29 -43.5t11 -44v-5q-1 -6 -5 -10t-4 -12t5 -17v-1q0 -4 -6 -24.5
t-34 -55.5q-6 -7 -7 -13t-1 -11t-0.5 -9.5t-5.5 -8.5q-6 -5 -11 -9q-11 -9 -17 -12q-7 -3 -9 -6.5t-3 -6.5t-3.5 -6t-9.5 -7q-38 -21 -52 -37zM80 -204h-2q-5 0 -15 -3.5t-22.5 -9t-25.5 -11.5t-23 -11q-12 -5 -20.5 -16.5t-16.5 -20.5q-3 0 -6.5 -2t-5.5 -2q-3 0 -4 4
q-8 6 -12 6q-5 0 -9 -4.5t-8 -9.5t-8.5 -10.5t-10.5 -6.5q-17 -11 -38.5 -24.5t-43 -28t-42 -29.5t-34.5 -27q-11 -12 -24 -17.5t-18 -20.5q-1 -4 -5.5 -6t-9 -3t-8 -3t-3.5 -6v-1q-5 -1 -6 -6.5t-2.5 -11.5t-4 -12t-10.5 -8q-2 0 -3.5 0.5t-3.5 0.5q-11 0 -18 -6
t-12.5 -13.5t-10 -14t-10.5 -8.5q-17 -21 -29.5 -41t-26.5 -44q-14 -18 -20.5 -40t-11.5 -46q-5 -2 -7 -7.5t-2 -11.5q0 -4 2 -10v-2q0 -5 -2 -9l-4 -8q-2 -5 -2 -9v-8q0 -13 3 -22q1 -5 3 -10q7 -9 18 -9q8 0 15 4q28 8 50.5 21t42.5 28.5t38.5 33.5t39.5 36q7 8 16.5 15.5
t17 15.5t13 17t5.5 20v3q3 5 8 7.5t10.5 3.5t9 1.5t3.5 1.5q6 4 17.5 17.5t25 31t27.5 36.5t26 35t20.5 26t11.5 9l2 -1q4 0 10.5 7.5t13.5 17.5t14.5 21t14.5 18q3 5 15.5 22.5t26.5 37.5t26 36.5t14 20.5q5 5 10.5 17t13.5 14q4 3 13 16t9 22q0 5 -5 7z" />
    <glyph glyph-name="h" unicode="h" horiz-adv-x="473" 
d="M340 502q-9 -6 -14 -12.5t-9 -12.5t-7 -11t-7 -6q-4 -2 -6.5 -8t-5.5 -13t-8 -13.5t-15 -10.5q-5 -2 -9 -8.5t-4 -11.5v-1q0 -2 2.5 -5.5t2.5 -7.5q0 -3 -3.5 -6.5t-14.5 -7.5q-12 -17 -24 -35t-14 -23t-1 -10t-3 -10q-3 -5 -9.5 -8t-9.5 -7q-3 -3 -11.5 -16.5t-17.5 -29
t-16 -28.5t-7 -15q0 -5 -11 -20t-11 -35v-2q0 -7 5 -7h3q1 0 1 1q23 19 41.5 32t32 22.5t21 16t8.5 14.5q4 5 18 14.5t32.5 21.5t40 24.5t40 23.5t32.5 19.5t18 10.5q3 9 10 13t15 6t15 5t12 10h1q9 0 13.5 5.5t13.5 5.5h4l16 -2q16 -2 30 -8q2 -3 6.5 -6.5t9.5 -7.5t9 -8.5
t4 -8.5q0 -6 -9 -10q-8 -4 -9.5 -9.5t-2.5 -4.5q-2 -9 -6.5 -11.5t-10 -4t-11 -4t-7.5 -10.5q-1 -8 -8.5 -10.5t-7.5 -7.5q-2 -4 -2 -9.5t-6 -9.5q-9 -5 -19.5 -16.5t-17.5 -20.5q-5 -4 -8.5 -11t-6.5 -13.5t-5 -11.5t-5 -5h-1q-5 -2 -6.5 -9.5t-3 -16t-3.5 -17t-8 -12.5
q-9 -4 -12 -14t-5 -21.5t-5.5 -21t-14.5 -12.5q-2 -2 -5.5 -4.5t-3.5 -9.5q0 -2 0.5 -3t0.5 -3q4 -1 5 -4t1 -6v-5q-4 -3 -5.5 -8t-2.5 -9.5t-2.5 -9t-5.5 -7.5q-1 -2 -1 -6q0 -5 4.5 -6.5t4.5 -4.5q0 -1 -0.5 -1t-0.5 -1q-1 -3 -1.5 -5t-0.5 -4q0 -8 5 -13.5t5 -16.5
q0 -4 -1 -7q0 -1 -0.5 -2t-0.5 -2q0 -7 7 -11.5t7 -12.5v-2q8 -8 27 -16.5t42 -8.5h10t10 2q27 0 42.5 2.5t24.5 6.5t14.5 7.5t14.5 5.5q17 3 21 7.5t9 4.5q5 1 17.5 7t25.5 16q4 2 6 2q3 0 3 -2t-3 -6q-1 -8 -6 -13q-3 -3 -6 -5q-7 -5 -9 -9.5t-4 -7.5t-6 -5.5t-14 -4.5
q-2 -4 -6.5 -4.5t-4.5 -4.5v-2q0 -6 -4.5 -8.5t-10.5 -5.5h-5q-7 0 -13 -3t-12.5 -6.5t-13.5 -6.5t-16 -3q-6 0 -10 1q-8 -3 -15 -3q-14 0 -28 5.5t-31 6.5q-34 8 -57.5 26.5t-32.5 36.5q-6 2 -8.5 5t-4.5 8q-8 20 -11 36t-3 31q0 19 3.5 37.5t5.5 38.5v2q0 4 1.5 10.5
t9.5 10.5q1 2 1 6q0 2 -1 4t-1 6v3q0 3 2 11.5t5 19.5t6.5 21.5t8.5 17.5q4 7 5 12t1.5 8.5t2 6t6.5 4.5q4 1 7.5 8t7 15.5t6.5 15t6 8.5q11 5 13 12t12 13l11 19v3q0 7 -7 7q-9 0 -23 -8t-22 -12q-15 -13 -37 -30.5t-35 -37.5q-4 0 -10.5 -1.5t-8.5 -6.5q-3 -3 -3 -5.5
t-0.5 -5.5t-3 -6t-9.5 -7q-6 -1 -9.5 -4.5t-6 -7.5t-5 -7t-7.5 -3q-2 0 -8 2q-7 -4 -10 -9.5t-4.5 -10.5t-3 -9.5t-7.5 -6.5q-2 -1 -6.5 -4t-8.5 -7t-7 -7.5t-3 -4.5v-2q0 -4 -2.5 -7.5t-9.5 -3.5q-8 -1 -15 -1.5t-11 -4.5q-4 -3 -2 -9.5t-9 -11.5q-2 -2 -5 -5.5t-6 -6.5
l-7 -7q-12 -9 -15 -23.5t-12 -22.5q0 -5 -8 -5q-5 0 -11.5 2.5t-11.5 6.5q-3 6 -10.5 12t-15.5 12.5t-14 13t-6 11.5v1q-2 6 -2 10q0 7 2.5 13t3.5 9q6 11 15.5 21t11.5 24q0 3 6 13t13.5 22t15 22t11.5 13q2 7 7 16.5t10.5 18t9.5 15t4 7.5v3q0 6 3 9l6 6l6 6t3 8v1
q10 2 10 10q0 2 -0.5 2.5t-0.5 2.5q0 3 3 6q2 2 5.5 8.5t7.5 13t7 11.5l3 5q3 4 13 20.5t22.5 36.5t24.5 39t19 28q2 5 7 10.5t10 11.5t9 12t4 12q2 10 13 19.5t18 23.5q18 20 37 46.5t40 52.5q32 39 55 65t24 28q8 10 9.5 17t10.5 18q13 15 28 35t28.5 37.5t24.5 30
t16 12.5q7 3 10 9t5 12t4 11t8 5q4 2 5 6.5t9 4.5q5 0 8 -1q7 -3 18.5 -9.5t22.5 -15.5t18.5 -20t7.5 -23q0 -6 -6.5 -10t-15 -9t-17 -13t-12.5 -23q-2 -6 -7 -7.5t-12.5 -4t-16.5 -9t-19 -23.5q-4 -7 -9.5 -9.5t-11.5 -4t-11.5 -3.5t-10.5 -7q-5 -7 -23 -21.5t-34 -31.5
q-12 -5 -17.5 -13t-16.5 -18q-4 -5 -5 -11t-3.5 -12t-9 -12t-20.5 -10q-8 0 -11 -3t-4 -7.5t-3 -10t-9 -10.5l-17 -23q-18 -16 -22 -38l-2 -6q-2 -5 -6 -8z" />
    <glyph glyph-name="i" unicode="i" horiz-adv-x="259" 
d="M151 289l-1 1q3 6 11 16.5t17 21t16.5 19.5t8.5 12q1 0 1 2q0 4 1 8q2 6 10 6q5 0 10 -3q6 -3 15 -7t18 -9t16 -10t7 -10v-1q0 -7 4 -9t4 -5q0 -2 -4 -6q-10 -8 -23 -14t-16 -14q-1 -4 -6 -7.5t-9 -3.5q-6 -1 -19 -12.5t-26.5 -25t-24 -25.5t-10.5 -15q-2 -12 -5.5 -17
t-7.5 -7.5t-7 -4t-3 -6.5q-6 -5 -10.5 -12.5t-8.5 -14.5t-8.5 -12t-8.5 -5h-1q-4 0 -7.5 -7t-6.5 -17.5t-5 -22t-2 -20.5v-3q1 -10 11 -10q6 0 10 2q11 1 27.5 8.5t32.5 16t28 15.5t15 7h2q9 0 13 3t6.5 6t5.5 6t10 3q6 2 13 6.5t14.5 9.5t14 9t9.5 4h1q3 -2 3 -5
q0 -2 -1 -5t-2 -5q-1 -3 -2 -5q-11 -6 -14 -13.5t-11 -16.5q-9 -5 -12 -8.5t-5.5 -6.5t-6.5 -7t-14 -10v-1q0 -5 -8 -10q-8 -3 -13.5 -2.5t-10.5 -7.5q-5 -16 -14 -22.5t-20 -14.5q-7 -3 -13 -7t-10 -9q-3 1 -8 1q-12 0 -20 -8q0 -2 0.5 -2.5t0.5 -1.5q0 -6 -4.5 -8.5
t-10.5 -5.5q-1 0 -1 -0.5t-1 -0.5q-2 -1 -6 -1q-10 0 -24.5 6t-20.5 8h-1q-9 8 -19 17.5t-10 19.5v1q7 8 18.5 9t14.5 8q-3 10 -3 16q0 5 1.5 8t2.5 9l-1 12q-8 3 -8 9q0 4 4 8q2 3 3.5 8t3.5 10q1 5 2 11q8 22 18.5 39.5t20.5 36.5l21 32q0 4 4.5 12t12 17.5t16 19.5
t16.5 20zM262 459q8 18 19.5 29.5t25.5 26.5q2 8 12 7.5t19 0.5q7 -4 15.5 -9.5t16.5 -12t13.5 -12.5t5.5 -11q0 -4 -2 -5q-5 -3 -9.5 -8t-8.5 -10t-8.5 -8.5t-10.5 -3.5q-2 0 -8 2q-8 -7 -15.5 -10.5t-13.5 -6.5t-10 -7t-7 -12q-2 -2 -4 -2q-5 0 -9.5 5.5t-4.5 10.5v3
q0 5 -6.5 5t-6.5 5q0 3 1 5q-6 6 -6 12q0 4 2 6z" />
    <glyph glyph-name="j" unicode="j" horiz-adv-x="315" 
d="M-310 -554q-3 -6 -3.5 -12.5t-11.5 -11.5q-17 -8 -23.5 -19.5t-17.5 -23.5q-8 -8 -14 -19.5t-20 -11.5h-3q-11 -13 -20.5 -29t-28.5 -27q-17 -18 -39.5 -36.5t-45.5 -36.5q-3 -4 -8.5 -10t-12 -12t-13.5 -10t-12 -4h-1q-6 0 -14 -2t-13 -6q-3 -3 -3 -5v-2q0 -3 -1 -6
q-11 -11 -21 -15t-20 -4q-12 0 -25 5.5t-30 15.5q-16 9 -27 24.5t-11 27.5q0 6 5 11q3 1 3 7q0 5 -4 15q-2 4 -3 8q-2 4 -2 9q0 8 2.5 18.5t4.5 23.5q1 10 4 20.5t6.5 20t6 16.5t4.5 10q8 12 10.5 23.5t19.5 18.5q6 5 6 11q0 5 -2.5 8.5t-2.5 8.5t4 9q8 0 14.5 6t10.5 11
q1 10 13.5 27.5t27 35t26.5 30.5t14 14q1 3 13.5 16.5t28 29t32 30t26.5 18.5h6q44 34 96.5 68t100.5 59q11 7 21 9.5l18 4.5t15 4.5t12 8.5q4 5 13 11t20 11t23 10t23 8q23 11 52.5 18t55.5 17q13 20 33 40t30 41q5 7 9 14q4 6 8.5 12t9.5 9q4 3 8.5 10.5t8.5 16t7 16
t4 10.5q2 5 21.5 32t40.5 62q10 18 15.5 29t9 18.5t6 11t7.5 6.5q4 2 9.5 9t10.5 16.5t8.5 19.5t3.5 17q0 10 -7 11q-5 0 -11 1q-5 1 -12.5 1.5t-15.5 0.5q-28 0 -59 -7q-12 -3 -16 -3t-4 3t3 8t4 11q-1 0 -1 1v2q0 2 2.5 5.5t12.5 8.5q8 4 28 10.5t43 13t43.5 12t28.5 7.5
q5 2 8.5 2h7.5q8 0 14 -1t11 -1q4 0 6 1q6 2 28 8t45 6q10 0 15 -1h3q4 0 7.5 -1t3.5 -6t-2 -8q-1 -2 -2 -3q-2 -3 -4 -3q-1 0 -1.5 0.5t-1.5 0.5h-3q-4 0 -10 -1.5t-12 -4t-11 -5.5t-6 -5q-2 -3 -3 -5t-1 -4q0 -4 7 -7q5 -3 5 -8q0 -3 -4 -11q0 -1 -0.5 -1t-0.5 -1
q-4 -7 -14 -9.5t-14 -9.5q-2 -3 -7 -9t-10.5 -12t-10.5 -12t-8 -10q-6 -9 -18.5 -16.5t-14.5 -20.5q-2 -10 -9.5 -18.5t-16 -15.5t-16 -13t-9.5 -11q-3 -8 -3 -10t0.5 -3t0.5 -3v-2q-3 -8 -7 -11.5t-10 -6.5q-7 -3 -14.5 -9.5t-9.5 -20.5v-3q0 -6 1 -10.5t1 -7.5
q0 -5 -3.5 -7t-16.5 -3h-2q1 -1 1 -2q0 -2 -3.5 -7.5t-16.5 -18.5q-15 -15 -27 -30t-20 -28q-10 -15 -17 -29q-5 -9 -5 -15q0 -5 5 -5q3 0 4 1q1 0 2 1q23 5 38.5 7.5t31.5 2.5q9 0 18.5 -1t22.5 -4q20 0 34 -7.5t24.5 -18t18.5 -22.5t17 -21q1 -5 2.5 -6.5t1.5 -6.5
q0 -1 -0.5 -2t-0.5 -3q-2 -1 -3 -5l-2 -8t-2 -7.5t-3 -3.5q-10 -9 -12.5 -16.5t-5.5 -14.5t-10 -14.5t-26 -16.5q-12 -13 -30 -25t-32 -14l-21 2v3q0 7 8.5 7.5t12.5 7.5q11 9 16 15.5t7.5 12t5 9t9.5 6.5q5 2 11.5 9.5t12.5 16.5t10.5 18t5.5 15q2 7 3.5 13.5t1.5 11.5
q0 9 -7 13q-9 5 -23 7.5t-28 2.5q-22 0 -40 -3t-21 -5q0 -2 -3 -5q-6 -6 -18 -9q-4 -1 -10 -1h-3q-7 0 -18 -2t-33 -13q-5 -3 -13 -4.5t-15.5 -4t-14 -6.5t-9.5 -11q-8 -4 -18 -18t-17 -23q-22 -40 -49.5 -74t-48.5 -65q-4 -8 -5.5 -20.5t-11.5 -20.5q-8 -2 -18 -5.5
t-13 -11.5q0 -9 -2 -17q-2 -7 -4 -13t-7 -9t-15.5 -14.5t-24 -27t-29 -33t-31.5 -32.5zM-102 -197q0 1 -3 1q-5 0 -15 -3.5t-23 -8.5t-26.5 -11.5t-24.5 -13.5t-20 -16.5t-17 -20.5q-3 0 -9 -3t-10 -3q-3 0 -4 3q-7 5 -12 5q-7 0 -14 -5.5t-13.5 -13t-13 -14t-13.5 -7.5
q-11 -3 -26.5 -12.5t-33 -21.5t-35 -26t-31.5 -26q-11 -12 -24 -17.5t-18 -20.5q-1 -4 -5.5 -6t-9 -3t-8 -3t-3.5 -6v-1q-5 -1 -6 -6.5t-2.5 -11.5t-4 -12t-10.5 -8q-2 0 -3.5 0.5t-3.5 0.5q-11 0 -18 -6t-12.5 -13.5t-10 -14t-10.5 -8.5q-17 -21 -29.5 -41t-26.5 -44
q-14 -18 -20.5 -40t-11.5 -46q-5 -2 -7 -7.5t-2 -11.5q0 -4 2 -10v-3q0 -9 -8 -14l-2 -20v-4q0 -8 4 -18q2 -4 4 -9q6 -7 18 -7q4 0 14 2q17 4 39 16.5t45 29t46 36t42 37.5q17 15 34.5 31t17.5 37v3q3 6 9 9t11.5 5t10.5 3.5t7 3.5q4 2 14 14t21 25l28 34q14 19 30 37
t28 38q20 15 30 31t25 32q5 11 15.5 23.5t17.5 25.5q15 20 27 35.5t15 23.5q3 11 9 19.5t15 10.5q23 33 23 41q0 3 -2 5zM371 461l-9 6t-11.5 9.5t-10 11.5t-4.5 12q0 4 3 9q5 6 10.5 13.5t13 14.5t16.5 12.5t20 6.5q3 1 9 1q12 0 20.5 -6t20.5 -8q7 -2 15.5 -8.5t8.5 -11.5
q0 -4 -3 -5q-4 -2 -7 -1.5t-3 -2.5v-1h-1q-6 0 -12.5 -4t-11.5 -4q-9 -14 -20 -23t-25 -19l-6 -4z" />
    <glyph glyph-name="k" unicode="k" horiz-adv-x="425" 
d="M655 858q5 -1 9.5 -6.5t4.5 -11.5q0 -3 -1 -5q-2 -4 -8.5 -13.5t-12.5 -14.5q-2 -8 -7.5 -10.5t-11.5 -3.5t-12.5 -3t-10.5 -8q-2 -3 -4.5 -7.5t-8.5 -6.5h-1q-8 0 -13 -7t-12 -11v-3q0 -7 -4.5 -10t-12.5 -11q-4 -1 -5.5 -4t-4 -6t-8 -6t-15.5 -4q-2 -1 -9 -7.5
t-15.5 -16t-17.5 -20t-16 -19.5q-6 -4 -6 -9v-5q0 -4 -3 -8t-16 -11q-9 -3 -22 -20t-27 -37.5t-27 -39.5t-23 -25q-2 -2 -4.5 -5t-4.5 -7q-3 -4 -6 -9q-6 -10 -15.5 -24t-14.5 -28q-5 -10 -15 -12.5t-13 -11.5q0 -1 0.5 -2t0.5 -2q0 -9 -8 -16t-8 -14q0 -8 -5 -12.5
t-11.5 -8.5t-11.5 -10t-5 -16v-7q0 -7 -9 -15.5t-11 -14.5q-5 -11 -8 -14t-5.5 -5t-4.5 -5.5t-4 -14.5l-2 -13q-2 -5 -5.5 -12t-3.5 -12q0 -4 4 -4h3q18 15 32.5 25t28.5 18.5t28.5 17t31.5 20.5q0 4 1.5 7t1.5 7q0 -1 0 2.5t1.5 8.5t4 10t5.5 7q6 2 11 2q7 0 17 -2
q4 -1 8 -1q19 16 41 30.5t41 26t33 18.5t16 9q4 6 16.5 13t27.5 13t29 10t20 4q5 0 5 -1v-3q-5 -7 -9.5 -10t-8.5 -6t-8.5 -7.5t-9.5 -14.5q-3 -6 -11.5 -7.5t-14.5 -5.5q-21 -15 -36.5 -30t-38.5 -25q-2 -2 -2.5 -5.5t-1.5 -1.5q-4 -5 -3 -11.5t-7 -8.5h-1q-5 0 -8 3t-8 3
q-4 0 -8 -4q-6 -8 -8 -17.5t-2 -20.5q0 -7 0.5 -12.5t0.5 -10.5t-2 -11q-9 -10 -9 -17q0 -5 3 -8.5t3 -8.5v-2q-1 -2 -4 -6.5t-3 -9.5q0 -4 4 -8q1 -1 1 -10q0 -8 -0.5 -21.5t-0.5 -29.5q0 -18 1 -37.5t5 -36.5q2 -9 5.5 -19t3.5 -16v-2q0 -5 2.5 -7t6 -3.5t6 -3.5t2.5 -7
q0 -2 -2 -10q1 -5 4.5 -10.5t8 -11t8 -10.5t3.5 -8t-3 -4h-1q-3 0 -9.5 1t-14 3.5t-14.5 6t-11 8.5v2q0 6 -3.5 9.5t-8.5 6.5h-2q-14 0 -18 9q0 2 0.5 3.5t0.5 3.5q0 12 -6 17t-6 16q0 2 0.5 3t0.5 3q-3 5 -5 7.5t-4 5.5q1 5 6.5 8.5t5.5 10.5v2q-3 8 -8.5 11t-5.5 11
q0 1 0.5 2t0.5 3l-4 30q-1 9 -3 16q-2 6 -3 11.5t-3 6.5q-6 1 -5.5 7.5t-1.5 11.5t-2.5 14.5t-1 18.5t-1.5 16t-4 7q-11 0 -25.5 -12.5t-31.5 -30.5t-35.5 -37t-36.5 -32q-8 -5 -9 -12t-10 -7q-1 0 -9 2q-10 -2 -18 -12t-14 -19q-3 -5 -7 -11q-3 -5 -6.5 -11.5t-6.5 -12.5
q-3 -9 -11 -16t-8 -21q0 -5 -9 -5q-7 0 -14 2t-8 3q-8 11 -21 19t-13 24v3q0 6 5.5 16.5t11.5 21.5q7 12 16 26q11 26 28.5 51.5t29.5 53.5q3 2 6 6t6 9q4 4 7 10q0 2 3.5 9t8.5 14q5 8 11 17q5 7 13 20t16 26.5t15 25t9 16.5q12 12 20 23.5t15 23.5t15 24.5t19 25.5
q0 3 6.5 12t13.5 18t12 16t4 6q3 9 5.5 15t13.5 9q9 6 11.5 10.5t3 8.5t0.5 7t5 5q8 13 15 22.5t15 20.5q5 7 10 13t10 11t10 11q9 17 20.5 28.5t20.5 25.5q12 18 29.5 42.5t34.5 46.5q19 26 39 52q7 9 15.5 18.5t17.5 17.5t16.5 13.5t12.5 5.5q20 0 35 -9.5t23 -17.5z" />
    <glyph glyph-name="l" unicode="l" horiz-adv-x="254" 
d="M288 413q-3 -3 -13 -16t-22 -29.5t-23.5 -32.5t-16.5 -24q-1 -11 -5 -18.5t-9 -13t-9.5 -9.5t-6.5 -7q-4 -5 -13.5 -24t-19.5 -38l-28 -65q0 -2 2 -7t2 -10t-4 -9q-8 -2 -9 -10t-2 -7q-2 -7 -3.5 -16.5t-1.5 -17.5t3 -13t11 -5q28 2 42 20q3 3 10.5 3t15.5 1t15 3t9 10
q1 2 4 3.5l5 2.5q10 2 24 8.5t27 13t23.5 12t12.5 5.5h2q5 0 5 -7q0 -4 -1 -5l-8 -14q-8 -7 -12 -9t-6 -3.5t-4 -5t-7 -13.5q-11 -12 -23.5 -19.5t-27.5 -18.5q-1 -6 -3 -10q-4 -9 -12 -9q-12 0 -19 -3t-13 -7t-12.5 -7t-16.5 -4q-1 0 -1 -0.5t-1 -0.5q-8 -4 -10 -6t-6 -9
q0 -1 -8.5 -5.5t-20 -9t-24.5 -8t-22 -3.5h-5q-8 0 -13.5 17t-5.5 31q0 12 4 16q5 5 10.5 9t5.5 9t-11 11q-3 1 -3 6q0 6 2.5 15.5t6.5 18.5q4 11 10 22q3 21 10.5 34.5t14.5 31.5l1 -1q1 5 4 11t6 11q4 6 8 13q7 14 15.5 23t8.5 26q2 4 7.5 13.5t10.5 19.5q6 11 14 24
q4 9 10.5 20t13 21t12.5 18t9 11q5 6 11 15q5 8 13 18.5t19 26.5q1 7 5.5 11.5t9.5 8t8.5 8t3.5 12.5v3q0 3 8 15.5t21 29.5t27.5 36t26.5 35q14 19 22.5 33.5t22.5 31.5q10 11 17.5 21t15.5 22q4 7 9 12q4 5 9.5 9.5t10.5 6.5q7 6 10 13.5t6 14.5t7.5 13.5t15.5 11.5
q11 14 21 29.5t28 26.5l7 15q6 7 12 12q5 5 12 9.5t15 7.5q1 1 5 1q8 0 19.5 -6.5t22 -14.5t18 -16t9.5 -12q-1 -5 -4.5 -10.5t-8.5 -11t-10 -10t-8 -5.5q-15 -6 -20 -10.5t-7.5 -10.5t-7.5 -15t-21 -25q-3 -8 -10 -13t-14.5 -8.5t-14.5 -7t-11 -7.5q-5 -6 -12 -13.5
t-13 -14.5q-7 -8 -15 -16q-13 -17 -18.5 -26.5t-7.5 -15t-2.5 -8t-3.5 -4.5q-2 -4 -6.5 -5t-10.5 -2t-11 -2.5t-7 -5.5q3 -5 3 -9q0 -10 -9.5 -17.5t-11.5 -14.5q-11 -2 -14 -8t-4.5 -12.5t-5 -11.5t-15.5 -5q-9 -8 -15.5 -16t-12 -15.5t-11.5 -15t-15 -14.5q0 -8 -1.5 -13
t-4 -8.5t-7.5 -7t-12 -7.5q-1 0 -3 -2z" />
    <glyph glyph-name="m" unicode="m" horiz-adv-x="778" 
d="M840 297q-10 -10 -20.5 -15t-10.5 -19v-6q0 -2 -3.5 -11t-17.5 -10q-1 1 -4 1q-9 0 -13 -6q-2 -8 -6.5 -14t-10.5 -12t-12 -12.5t-10 -15.5q-8 -8 -13 -15q-5 -6 -9 -12.5t-6 -10.5q-2 -8 -8.5 -20.5t-18.5 -14.5q-2 -2 -7.5 -6.5t-5.5 -9.5v-2q-3 -3 -3 -9q0 -3 1 -5.5
t1 -5.5q0 -1 -0.5 -2t-0.5 -3q-2 -8 -7.5 -12.5t-10.5 -8t-9 -8.5t-4 -14q-8 -9 -13 -25.5t-8 -20.5q-3 -3 -9.5 -22t-6.5 -41q0 -9 1.5 -18t6.5 -16q6 -5 18.5 -7.5t26.5 -3.5q23 0 37 6.5t16 6.5q2 -6 2 -8q0 -7 -6 -12t-13 -8.5t-14 -6.5t-8 -6q-2 -3 -14 -3
q-14 0 -34 4.5t-31 14.5t-17.5 21.5t-6.5 16.5v1q0 2 0.5 3t0.5 3q0 7 -3.5 11.5t-6.5 7.5q-4 4 -4 16q0 20 5 42q3 11 6 24q2 4 3 9t3 10t3 11q9 28 21.5 51t21.5 49q9 17 20 34.5t20.5 32.5t17 25t10.5 12q8 4 10.5 8.5t3.5 8.5t1.5 7.5t5.5 5.5t10.5 7.5l10.5 10.5
q5 6 9 14q6 4 6 10q0 7 -10 7h-3q-28 -7 -46 -19t-41 -27q-13 -7 -27.5 -18t-27 -21.5t-21.5 -18t-10 -8.5q-2 -1 -4 -7q-1 -3 -2 -5q-2 -6 -13.5 -10.5t-18.5 -14.5q-12 -10 -26 -22.5t-14 -18.5q-8 -7 -15.5 -14t-21.5 -12q-4 -1 -6 -4l-4 -6q-2 -4 -3 -9v-1
q0 -9 -6.5 -14.5t-14 -11t-14 -12.5t-6.5 -18v-1q-5 -3 -7 -7t-3 -7.5t-2.5 -6t-5.5 -2.5t-11 3q-19 7 -35.5 15t-17.5 18l14 58q-2 3 -2 10q0 8 6 14q3 3 6 5q5 9 7 19q1 5 1 10q7 17 10.5 28.5t11.5 23.5q3 5 8 14.5t9 13.5q2 6 2 7q0 3 -3 3q-4 0 -12.5 -4t-17.5 -9
t-17 -10t-12 -6q-3 -5 -10.5 -8.5t-16 -7t-14.5 -8t-6 -11.5v-2q-5 -3 -14 -9.5t-19.5 -13.5t-20.5 -14t-16 -11v-1q0 -12 -10 -16.5t-17 -15.5q-11 -2 -25.5 -12.5t-29 -23.5t-27 -23t-19.5 -10q-1 -1 -4 -1q-8 0 -21 7.5t-17 18.5q-3 2 -8 6.5t-5 8.5q0 1 0.5 1t0.5 1
q2 4 8.5 6.5t13 5.5t12 7t5.5 9q0 4 -4 9q2 14 9 24.5t10 27.5q20 34 43 73t43 70q17 31 46.5 67.5t55.5 68.5q1 3 7 3q5 0 11.5 -1.5t8.5 -1.5q11 -2 16 -9.5t12 -12.5q5 -6 7 -11t3 -14q2 -2 2 -5q0 -6 -8.5 -11t-15.5 -10q-23 -8 -36 -22.5t-31 -31.5q-2 -9 -6.5 -13
t-11 -7.5t-15 -9.5t-17.5 -19v-2q0 -6 -4.5 -12t-14 -16.5t-24.5 -29t-35 -50.5l-4 -8q-2 -3 -3.5 -7t-1.5 -7q-1 -1 -1 -3q-1 -2 -1 -6q0 -5 6 -5q12 1 44.5 24t72 52.5t78.5 57.5t65 40q10 4 21 10l22 12t21 10.5t19 4.5q4 0 10 -2q12 -6 26 -14t14 -22v-1q-9 -5 -16 -14
t-12 -18q-6 -11 -10 -22q-8 -9 -16.5 -26.5t-8.5 -28.5q0 -9 6 -9t19 11t21 18l1 1q26 16 59.5 39.5t66 46.5t59.5 40t40 19h1q4 0 10.5 4.5t10.5 9.5q4 3 8 7q4 3 10 5.5t14 3.5q23 11 38.5 21.5t35.5 10.5q7 0 14.5 -7t14.5 -15.5t14 -16.5t12 -11q2 -2 2 -5q0 -6 -6 -14
t-14 -16q-9 -9 -20 -18z" />
    <glyph glyph-name="n" unicode="n" horiz-adv-x="485" 
d="M348 -104q-5 7 -9.5 18.5t-10.5 19.5q-6 9 -6.5 25t-2.5 30q-6 2 -6 8q0 3 2 7q1 2 3 4q3 1 4.5 9t3 18.5t3 21.5t3.5 18q2 8 5 15q2 6 4 12.5t3 9.5q2 10 6.5 15t4.5 11v2q1 12 5.5 17.5t9 9.5t8 9t3.5 17q5 16 17 30.5t12 19.5q0 2 -3 2q-15 0 -37 -9t-46 -23t-46 -30
t-35 -31q-5 -5 -12 -8t-14.5 -7t-12.5 -9.5t-5 -14.5v-3l-13 -4q-15 -10 -26 -19q-10 -8 -18 -16t-10 -12q-2 -7 -10 -7q-4 0 -8.5 1t-8.5 1q-9 0 -9 -10q1 -4 2.5 -7.5t1.5 -7.5q0 -2 -2 -6q-7 -5 -11 -11.5t-8 -13.5t-9.5 -11.5t-14.5 -4.5t-18 4q-3 8 -10 14.5t-13.5 12
t-11.5 11.5t-5 13q0 8 9 19q5 11 12 23.5t12 24.5q8 14 17 28q8 11 15.5 24t14.5 22q9 16 18.5 30.5t10.5 21.5q0 6 3 9t7 5.5t7.5 5.5t5.5 8q6 12 12 21t12.5 17.5t13.5 17.5t15 21l28 26t23 32q6 6 16 6q9 0 19 -3t21 -3h5l22 -8t15 -13q-2 -7 -6 -11t-9.5 -8t-10 -8
t-6.5 -10q-6 -3 -11.5 -9.5t-9.5 -6.5h-1q-3 4 -7 4t-8 -3t-8 -7q0 -11 -8.5 -17t-19 -12t-21 -12.5t-14.5 -18.5q-23 -16 -40 -38.5t-35 -42.5q-6 -7 -11 -14.5l-9 -13.5q-4 -8 -8 -15q0 -5 -3 -8.5t-3 -7.5q0 -1 2 -5q3 -1 7 -1q6 0 8.5 3t5 6.5l5 7t7.5 5.5q8 4 28.5 19
t48.5 33q19 9 41 21.5t42 24.5t36.5 21.5t24.5 12.5q16 6 31.5 17t35.5 13h1q4 0 10.5 2.5t14 5.5t14.5 6t11 5q5 4 11 4q9 0 16.5 -7.5t16.5 -7.5h2q11 -11 20 -16.5t9 -16.5q0 -2 -2 -10q-18 -14 -34.5 -34t-29.5 -38q-15 -21 -28 -44q-3 -5 -3.5 -11t-1.5 -11.5t-4.5 -10
t-11.5 -6.5q-5 -2 -9.5 -9t-4.5 -16v-5q0 -6 -2 -8q-1 -1 -2 -1q-5 -2 -6.5 -6.5t-2.5 -9t-3 -9t-6 -7.5l-6 -12q-2 -12 -3.5 -17.5t-3.5 -8t-3.5 -4t-2.5 -7.5q-1 -5 -1 -15q0 -8 0.5 -14.5t0.5 -10.5q0 -3 -1 -3q-2 -6 -2 -8q0 -6 4.5 -7t4.5 -12q5 -8 10.5 -11t10 -4
t7 -2t2.5 -5v-1q-8 -7 -19 -7q-18 0 -30 15z" />
    <glyph glyph-name="o" unicode="o" horiz-adv-x="417" 
d="M68 14q-5 3 -7 12t-2 20q0 13 2 26.5t4 24.5q3 16 7 35.5t10 37t12.5 31.5t13.5 19q7 6 9 10.5t2.5 8t1 7.5t3.5 8q1 2 6.5 4.5t7.5 4.5q5 4 5 7q0 4 -8 6t-20 2q-17 0 -33 -3q-11 3 -20 3q-20 0 -34.5 -6t-22.5 -6q-3 0 -4 1v3q0 11 8 18t19.5 12t24 9t21.5 9
q15 4 32.5 10.5t35 12t32 9.5t23.5 4q5 0 7 -1q2 -2 6 -2q7 0 21 3.5t32.5 7.5t40 7.5t43.5 3.5q7 0 13.5 -0.5t13.5 -1.5h2q13 -3 26.5 -13.5t25 -23.5t19.5 -26t11 -20q4 -11 4 -19t-3 -14t-6 -11l-2 -2q-4 -7 -7 -17.5t-9 -23.5t-16.5 -27t-28.5 -28q-5 -13 -15.5 -26
t-24.5 -16q-2 2 -5 2q-5 0 -8.5 -5t-8.5 -5v-3q0 -20 -12.5 -31.5t-28.5 -22.5l-7 -5q-8 -5 -13 -14t-20 -12q-9 -2 -20 -8.5t-23.5 -14t-25.5 -13.5t-25 -6h-2q-14 2 -24.5 7.5t-19.5 12.5t-18 14.5t-21 13.5zM160 43q8 8 15 7.5t15 2.5q37 17 68.5 41.5t52.5 50.5
q9 8 13 14.5t6.5 11.5t4.5 8.5t8 6.5q6 5 8.5 9t4 7.5t3 5.5t6.5 2q7 3 7 7q0 2 -1 3.5t-1 3.5q0 4 4 8l6 10q4 2 5.5 7.5t1.5 11t1 10.5t6 7q3 1 4.5 6t1.5 11q0 8 -3 16.5t-8 12.5q-10 5 -23 5q-21 0 -46.5 -9t-43.5 -22q-20 -14 -43.5 -36.5t-34.5 -46.5q-4 -7 -10 -7
q-3 0 -9 2q-1 0 -1.5 0.5t-1.5 0.5q-8 0 -17 -12.5t-18 -26.5q-11 -17 -21 -38q-6 -19 -15.5 -37.5t-9.5 -38.5q0 -9 3 -18q0 -5 8 -7t19 -2q13 0 24 2.5t11 8.5v1z" />
    <glyph glyph-name="p" unicode="p" horiz-adv-x="447" 
d="M-437 -669q0 -8 -5.5 -13t-12 -9t-12.5 -8t-7 -10q1 -3 1 -8q0 -8 -4 -14.5t-9.5 -12.5l-11 -12t-7.5 -13q0 -9 -4 -13.5t-8.5 -7.5l-9 -6t-7.5 -9q-3 -2 -6.5 -8t-6.5 -12t-5.5 -10.5l-2.5 -4.5q-2 -3 -4 -9t-4 -13t-5.5 -12t-8.5 -5q-4 0 -7.5 6t-6 15t-4 19t-1.5 18
q0 12 2 14q3 5 6.5 16.5t5.5 17.5q1 9 3 16q2 6 2.5 11t1.5 5q4 4 10 18t12 30.5t11.5 32t10.5 22.5q4 12 16.5 32.5t26 42.5t26 41.5t18.5 29.5q6 11 20.5 31.5t31 43t33 43.5t28.5 32q9 10 26.5 30.5t39.5 45t46.5 51t46 49.5t38.5 39.5t25 20.5q4 4 14 15.5t21 26t22 28
t18 21.5q3 4 8.5 10.5t10.5 14.5q6 8 13 18q12 17 23 35t19 34v1q0 5 5.5 11.5t11.5 13.5t11.5 13.5t5.5 10.5v1q10 5 14 19t13 23q2 7 6.5 12.5t9.5 11t9.5 11.5t5.5 14t5 14t9 11t9.5 10.5t7.5 13.5l43 70q0 1 0.5 1t0.5 1q7 11 12 21t10 22q4 6 8.5 15.5t8.5 19t7.5 16.5
t5.5 8q5 0 6.5 4t2.5 9t2.5 9.5t7.5 6.5q7 2 7 10q0 2 -0.5 2.5t-0.5 2.5q-1 1 -1 3q4 7 6.5 14t12.5 7q2 0 10 -2l4 -2q13 -8 21 -15.5t13 -21.5q5 -3 7 -9t2 -13v-6.5t-1 -6.5q-8 -5 -12 -11.5t-8.5 -12.5t-11 -12t-17.5 -9q-6 -5 -6 -11v-4q0 -2 -0.5 -4.5t-3.5 -5.5
q0 -3 -10.5 -15t-26 -30.5t-33 -40.5t-32.5 -44q-3 -6 -8.5 -15t-11 -17.5t-9.5 -16.5t-4 -12q0 -5 5 -5q7 3 16.5 12.5t13.5 17.5q17 13 24 22t14.5 18.5t20 22t41.5 33.5q21 19 42 33t39 28q7 2 17.5 6.5t21.5 4.5q9 0 18 -6q8 -2 13 -5.5t8.5 -6.5t7.5 -5.5t10 -2.5
q7 0 12 2q1 0 2 0.5t2 0.5q11 0 22 -10t11 -14v-6q0 -7 -1 -11.5t-2 -8.5q-2 -4 -3 -8q-5 -3 -5 -7t2.5 -7.5t2.5 -7.5q0 -6 -11 -10q-8 -3 -10 -7.5t-2 -9.5v-6q0 -7 -3 -10q-5 -5 -8 -14t-7 -16q-5 -8 -9.5 -10.5t-8.5 -4t-7 -3t-4 -5.5v-2q0 -12 -6 -21t-13.5 -17
t-15 -15.5t-9.5 -14.5q-2 -8 -5.5 -11t-7.5 -5.5t-9.5 -6.5t-12.5 -12q-6 -10 -26 -30t-45 -40t-50.5 -35t-42.5 -15q-11 0 -22.5 5.5t-21 13t-15.5 16t-6 14.5v2q0 15 4 31t9.5 30.5t9.5 25t4 14.5q0 2 -1 2h-3q-7 0 -14 -6.5t-15 -15.5t-17.5 -18t-21.5 -14
q-6 -11 -13 -15.5t-15 -13.5q-2 -2 -5.5 -6t-7.5 -8l-9 -9q-13 -14 -20 -26.5t-17 -21.5q-7 -8 -27 -33t-42 -53.5t-41 -54t-25 -34.5q-6 0 -9.5 -6t-6.5 -13t-7 -13.5t-10 -7.5q-15 -16 -33.5 -40.5t-35.5 -49t-29.5 -43.5t-16.5 -24q-9 -12 -13 -22t-6.5 -19t-5.5 -16.5
t-9 -14.5l-20 -18q-7 -3 -19.5 -22t-25 -41.5t-23.5 -41.5t-15 -22q-10 -8 -17.5 -18.5t-8.5 -23.5zM445 336q-16 0 -31.5 -11.5t-31.5 -22.5q-3 -9 -10 -9q-4 0 -7.5 1.5t-6.5 1.5q-1 0 -1.5 -0.5t-1.5 -0.5q-10 -6 -8.5 -13.5t-3.5 -8.5q-10 -2 -27 -14.5t-34 -28.5
t-29.5 -31t-12.5 -22q0 -4 4 -6.5t9 -4.5t9 -4.5t4 -6.5v-1q-5 -8 -11 -16t-11 -22q-5 -2 -9 -7.5t-7 -11.5q-4 -7 -7 -15q-5 -6 -5 -14q0 -4 1 -6q0 -2 1 -3v-3q0 -7 -6 -10t-6 -11v-6q0 -4 -0.5 -8t-0.5 -9q0 -12 8 -12q4 0 6 1q5 0 16 6t23 14.5t23 18t16 16.5
q17 18 22.5 29.5t7.5 19t5 12.5t15 8q4 3 7.5 10t7.5 15.5t9 16.5t12 12q10 4 12 12.5t2 10.5v1q4 4 9.5 12t10 16.5t8 15.5t4.5 10q7 12 14 33.5t7 35.5q0 10 -5 10z" />
    <glyph glyph-name="q" unicode="q" horiz-adv-x="453" 
d="M419 -25q-8 -1 -12 -5t-7.5 -9t-7.5 -10t-10 -7h-4q-10 0 -15 -4.5t-8.5 -9.5t-7 -9.5t-10.5 -4.5q-5 0 -12 3q-11 -6 -13.5 -16t-13.5 -18q-11 -3 -18 -10.5t-13.5 -15.5t-15.5 -15.5t-25 -10.5q-4 -5 -6.5 -11.5t-6.5 -12.5t-9.5 -10t-15.5 -4h-2q-19 -17 -35 -38.5
t-29 -34.5q-9 0 -15.5 -4.5t-7.5 -7.5q2 -4 2 -9q0 -6 -3.5 -9.5t-8 -6.5t-9 -7t-5.5 -10q-10 -14 -25.5 -34t-25.5 -40q-5 -5 -9 -12t-7.5 -13.5t-8.5 -11.5t-12 -5q-5 0 -8 1q-3 2 -6 5q-2 2 -5 3.5t-5 1.5q-5 0 -8 -5t-6 -7q0 -5 -12 -23t-27 -39t-28.5 -39t-15.5 -23
q-6 -7 -9 -14t-4.5 -13t-3.5 -9.5t-6 -4.5q-5 -1 -7 -3l-4 -4q-2 -3 -2 -5q1 -3 1 -8q0 -6 -4 -12t-14 -26l-23 -47q-6 -6 -7 -14t-2.5 -15.5t-5.5 -13.5t-16 -10q-6 -3 -6 -10q0 -8 8 -8q3 -2 3 -4q0 -1 -0.5 -1.5t-0.5 -1.5q-1 -1 -1 -2q-4 -4 -4 -11q0 -3 0.5 -6t0.5 -6
q0 -5 -2.5 -8.5t-10.5 -5.5q-17 -8 -39.5 -15.5t-45.5 -7.5q-5 0 -9.5 0.5t-9.5 1.5q-3 1 -3 4q0 4 4.5 10t4.5 12v2q3 8 5.5 14.5t7.5 18.5q3 6 8.5 15t11 17t10 13.5l4.5 5.5v1q0 4 4 10q2 3 4 4q10 14 19.5 30.5t20.5 27.5q4 17 18.5 29.5t19.5 30.5q3 5 7 11q3 5 7 11.5
t9 14.5q5 14 10 21.5t10 11.5q4 4 9 4q8 8 12 17t11 18q0 6 9 15q4 4 9 10q5 9 22 33.5t34 50.5l44 66q9 13 20 28t22 29q12 16 25 31q7 11 17 25.5t19 26.5l22 28q2 5 15 23t28 38q18 24 40 52q2 9 4.5 14t5.5 8t6.5 5.5t6.5 6.5l36 47q6 10 15 23.5t18 25.5q10 14 21 28
q8 12 18 24t11 11q0 5 6.5 12.5t6.5 11.5q0 2 -4 2q-5 0 -8 -1q-14 -10 -30 -21t-30 -20.5t-24 -17t-13 -10.5q-2 -2 -3.5 -5.5t-5 -7.5t-12 -8t-24.5 -7l-4 -4l-4 -4q-3 -3 -4 -6q-5 -7 -13.5 -14t-18 -13l-19 -12t-15.5 -11q-11 -2 -20 -10.5t-20 -8.5q-7 0 -14 6
q-13 3 -21.5 9t-16.5 11l-2 6q-2 6 -2 12q0 7 3 12q4 4 6 11t4 12v2q0 11 8.5 21t8.5 21v4q0 9 6 15t13 10q8 5 13 19t16 27q6 8 11 13.5t9.5 10l9.5 9.5t12 14q3 6 11.5 15.5t16.5 19.5q10 11 22 23q3 4 8.5 6t11.5 3t11.5 2t8.5 5v2q0 10 8 17t19 12t22.5 10t19.5 12
q19 11 45 11h5q7 0 19.5 -7.5t25 -16t24 -16t16.5 -7.5q4 1 11 9.5t16 19t19 21t19 16.5q17 10 31 10q13 0 23 -5t24 -5h3q2 -4 9 -6t7 -8v-2q-6 -3 -15 -8t-17.5 -10.5t-15.5 -10.5t-10 -8q0 -2 0.5 -3t0.5 -3q0 -8 -5 -12t-11.5 -6.5t-12.5 -5t-8 -7.5q-9 -11 -20 -24.5
t-14 -25.5q-9 -7 -16 -15t-13.5 -16t-13.5 -14.5t-17 -9.5q-8 -4 -10 -9.5t-2 -12.5v-8q0 -8 -3 -15t-17 -10q-3 -3 -9 -11l-6 -8q-8 -10 -14 -21t-11 -15l-12 -11q-5 -1 -5 -5q0 -2 1.5 -4.5t1.5 -6.5q0 -5 -4.5 -10.5t-18.5 -13.5q-5 -2 -14 -14t-17 -26q-7 -9 -13 -17
q-5 -7 -11 -14t-10 -12q0 -2 0.5 -3.5t0.5 -3.5q0 -8 -3 -12.5t-7 -7t-8.5 -5t-6.5 -5.5q-4 -6 -9.5 -14t-10.5 -16t-8.5 -15t-3.5 -10q4 -3 7 -3q8 0 15.5 10t15.5 12q6 1 24.5 15.5t48.5 35t71 43t93 39.5q5 2 9 4.5t11 4.5h11q13 0 24.5 -2t16.5 -9q-5 -4 -16 -6t-18 -4
q-15 -5 -31 -11.5t-30 -15.5zM283 292q-3 -4 -10.5 -7t-22 -10.5t-36 -22.5t-51.5 -43q-5 -3 -13.5 -4.5t-8.5 -8.5q0 -2 2 -6q2 -3 2 -6q0 -5 -7 -5t-9 -2q-17 -17 -30.5 -36.5t-25.5 -36.5q-3 -7 -5 -14q-2 -6 -3 -12t-1 -11v-3q4 -4 10 -4t12.5 3.5t13 8t12.5 8t11 3.5h2
q2 -1 15.5 8t33 24.5t44 35t49.5 40t49 41t42 36.5q11 14 24 21.5t13 13.5q0 2 -8 7q-11 3 -24 3q-25 0 -50 -7t-30 -14z" />
    <glyph glyph-name="r" unicode="r" horiz-adv-x="427" 
d="M226 354q8 -1 16.5 -5.5t15.5 -9.5t11.5 -10t4.5 -6q0 -5 -11.5 -11t-17.5 -14q-11 -1 -14.5 -6t-6 -10.5t-6.5 -10.5t-14 -6q-5 -4 -8.5 -8.5t-6.5 -10t-7 -10t-11 -8.5q-12 -13 -17 -21t-7.5 -13l-4 -8t-6.5 -5q-11 -4 -14.5 -16t-9.5 -15q-6 -2 -9 -6t-5 -8.5t-4.5 -9
t-6.5 -7.5l-11 -31v-4q0 -4 3 -4t7 3t6 6q9 9 15.5 17t17.5 18l7 3q3 1 7 6t9.5 10.5t11 9.5t11.5 4h3q3 2 6 6.5t3 9.5q0 2 8.5 11.5t21 21.5t27 25t25.5 22q14 11 37.5 29.5t47 36.5t42 31t21.5 13q10 2 14 4.5t6 5.5l4 6t7 5q11 4 20 12t22 8q8 0 16 -4q8 -2 18.5 -4
t12.5 -10q20 0 34 -13.5t23 -21.5q0 -5 -4.5 -9t-10 -7.5l-11 -7t-8.5 -7.5q-4 -5 -10 -5t-8 -3q-4 -2 -4 -9v-3q0 -6 -5 -7q-12 -9 -18.5 -17t-10 -14t-6.5 -10t-8 -6q-8 -2 -12 -7.5t-7 -11.5t-5 -11t-5 -6q-8 -3 -12 -11t-6.5 -16.5t-5 -15t-8.5 -6.5t-12.5 18t-6.5 35
q0 16 6 22v1q0 5 3 7.5t3 7.5q0 1 -2 7q6 12 11.5 18t10 9.5t7.5 6.5t3 10q0 2 -0.5 3t-0.5 3q-1 5 10.5 11.5t18.5 16.5l12 14q2 4 2 5q0 2 -4 2q-5 0 -11 -2q-9 -2 -20 -9.5t-22 -14.5q-5 -5 -9.5 -6t-8.5 -1h-7.5t-8.5 -1q-3 -2 -3 -3t0.5 -2t0.5 -3q0 -3 -3.5 -8
t-17.5 -11q-17 -8 -31.5 -20.5t-26.5 -25.5t-21.5 -24t-14.5 -15q-3 -3 -5.5 -3.5t-5 -0.5t-5.5 -1.5t-8 -6.5l-2 -11v-1q0 -4 -5 -7.5t-11 -8.5q-13 -8 -24.5 -22t-22.5 -28q-4 -2 -10.5 -3t-7.5 -6q2 -2 4 -5q4 -6 4 -10q0 -1 -0.5 -1t-0.5 -1q-1 -2 -5.5 -3t-9 -2.5
t-8.5 -3t-4 -5.5v-2q4 -1 4 -5t-2 -5q-22 -17 -33.5 -34.5t-29.5 -36.5q-1 -2 -1 -6v-1q0 -4 -1.5 -6.5t-9.5 -2.5q-24 3 -36 12.5t-30 20.5q-7 6 -7 19q0 4 0.5 7t1.5 7q2 6 5.5 10.5t7.5 9.5q6 11 11.5 21t10.5 21q8 14 17.5 27.5t9.5 18.5v2q0 3 4 11t9.5 16.5t10 15
t5.5 6.5q7 2 7.5 11t6.5 11q6 3 7.5 8t6.5 10q4 4 8 10t7 11q4 6 7 12q4 7 11 16.5t9 7.5q2 1 6 6.5t8.5 13t9 14.5t7.5 12l2 2q1 1 1.5 1t1.5 1z" />
    <glyph glyph-name="s" unicode="s" horiz-adv-x="326" 
d="M536 435v-1q0 -9 -13.5 -11t-24.5 -7q-24 -7 -33.5 -17.5t-17.5 -11.5q-7 4 -12 4q-3 0 -6.5 -1t-6.5 -2q-2 -3 -12.5 -8.5t-31.5 -5.5q-4 0 -10.5 -3.5t-13.5 -8t-13 -7.5t-9 -3q-2 1 -6 1q-11 0 -21.5 -7.5t-16.5 -11.5q-7 -1 -11 -4.5t-12 -5.5q-11 -8 -22.5 -14.5
t-21 -14t-16 -17t-6.5 -22.5q0 -4 0.5 -7t1.5 -8v-2q0 -5 4.5 -8.5t4.5 -7.5q0 -2 -1 -3q-10 -6 -10 -13q0 -9 10.5 -16.5t10.5 -15.5v-1l10 -18t7 -19q12 -11 22 -31.5t10 -33.5v-4q-5 -4 -5 -8v-6v-4.5t-2 -4.5q-3 -1 -4.5 -5t-3.5 -7q-7 -9 -11.5 -12t-7.5 -3.5t-5.5 -1
t-5.5 -4.5q-3 -14 -11.5 -20t-25.5 -10q-3 -4 -9 -6t-12.5 -4.5t-11.5 -5t-5 -8.5q-2 -3 -17 -7t-34 -8t-36 -6.5t-22 -2.5h-2q-8 7 -16 7q-10 0 -17 -7.5t-19 -7.5q-7 0 -14 3q-3 -2 -8 -2t-8.5 2t-8.5 3q-3 6 -3 9q0 6 5.5 8t12.5 2.5t14.5 1.5t12.5 5q23 6 40 10t32 9
t29.5 12t33.5 19q13 4 21.5 10.5t14 13t9 11.5t8.5 6q8 2 17.5 19.5t9.5 36.5q0 9 -3 17q0 9 -4.5 17t-9.5 15.5t-10 15.5t-5 16q-8 13 -18.5 28t-20 29t-16.5 27t-7 23q0 8 1.5 12t3.5 12q16 18 35 27.5t39 15.5t39.5 12t36.5 16q7 4 21.5 8.5t29.5 8.5t27.5 7.5t17.5 5.5
q6 2 12 5.5t14 3.5q6 0 10 -2h1q7 0 33.5 7t61.5 7q11 0 21.5 -1t21.5 -3z" />
    <glyph glyph-name="t" unicode="t" horiz-adv-x="223" 
d="M288 354q0 -6 -4 -13.5t-9 -14.5t-9 -12.5t-5 -5.5q-5 -3 -12 -4t-9 -9q1 -3 1 -7q0 -8 -4.5 -14t-10.5 -11.5l-12 -11t-8 -12.5q-11 -11 -21 -27.5t-21 -28.5v-3q0 -4 2 -7t2 -6t-3 -6q-10 -1 -13.5 -3t-8.5 -10q-3 -3 -5 -9.5t-5 -13.5t-6.5 -12.5t-7.5 -6.5
q-2 -1 -4.5 -4.5t-5.5 -8.5q-4 -5 -7 -12l-15 -48v-3q0 -3 1 -6t1 -5t-1 -3q-2 -4 -6.5 -6t-6.5 -5q-2 -2 -2.5 -7t-2.5 -10q-2 -6 -3 -14q-3 -9 -3 -14q0 -7 2 -11.5t2 -8.5q0 -3 -4 -6q-2 -1 -2 -13q0 -13 3.5 -31t8.5 -29q6 -11 16 -23t26 -18q48 -18 79 -23.5t49 -5.5
q13 0 19.5 1t8.5 1q13 8 28 8q11 0 21 -2t21 -2q12 0 24 4t26.5 6l29 4t27 5.5t19.5 10.5q1 0 2 1q2 2 5 2t6 -3q1 -1 1 -4t-4 -7q-2 -2 -3 -4q-8 -11 -24 -23t-34 -21.5t-36 -17t-30 -9.5q-11 2 -17 3.5t-10 1.5q-5 0 -10 -2t-19 -4h-3q-17 0 -24 -8t-12 -8q-3 0 -7 4.5
t-10 17.5q-11 -3 -24 -3q-11 0 -23 2.5t-23 7.5q-20 4 -38.5 13t-34.5 20.5t-29.5 24t-22.5 24.5q-5 3 -9.5 11.5t-8 18t-6 18.5t-3.5 14q-5 14 -6.5 32t-1.5 29v9q1 8 2.5 18.5t3.5 19.5q2 11 4 21q4 13 12.5 32t14.5 31q5 10 11 24t13 28q7 16 16 33q6 10 15 23t17.5 26.5
t15.5 25t10 17.5q11 13 19.5 31.5t21.5 30.5q1 8 3 14q2 5 5 9.5t8 4.5q5 3 9.5 9.5t9.5 13.5q5 8 10 17q8 11 19.5 27t24 32t23.5 30.5t19 23.5q4 5 4 9q0 5 -8 7h-11q-14 0 -29.5 3t-23.5 3q-4 0 -6 -2q-7 -7 -13 -7q-7 0 -12.5 4t-13.5 4t-17 -5q-15 -2 -31 -3.5
t-31 -1.5q-13 0 -24 2t-19 8q-9 10 -16 26.5t-7 27.5q0 5 3 8q2 1 8 1q11 0 34.5 -2t61.5 -2q25 0 56 1.5t69 6.5q7 0 10.5 -5.5t10.5 -5.5q3 0 5 1q7 9 18 11t22 2q10 0 17.5 0.5t12.5 5.5q7 9 11.5 13.5l8.5 8.5l9 9l13 13v1q0 7 3 13t7 11t11 11q5 8 11 13.5t9 16.5
q4 6 8 8.5t7.5 3t5.5 1.5t3 5t4 8.5t7 8.5l9 9q8 6 13.5 15t15.5 21q8 6 16 19t16 13h1q12 -3 24.5 -11t22.5 -17.5t16 -18.5t6 -15v-1q0 -3 -6 -8t-12.5 -11t-12 -12.5t-5.5 -12.5q0 -4 1 -5q0 -7 -6 -7h-3q-3 0 -6 1t-6 1q-5 0 -7 -2q-5 -3 -4.5 -10.5t-4.5 -9.5
q-7 -3 -16 -11t-17.5 -17t-15 -16t-9.5 -8q-14 -5 -24.5 -15t-11.5 -18v-2q0 -3 2 -3q1 -1 12 -1t28 0.5t37 0.5q18 0 37 -1t37 -4q8 -5 21.5 -6t23.5 -2h12q19 0 39 -1t37.5 -3t29.5 -4.5t15 -5.5q0 -1 0.5 -1.5t0.5 -1.5q0 -6 -8.5 -11.5t-18.5 -5.5q-20 -3 -43 -3.5
t-43.5 -1t-36.5 -2.5t-20 -7q-4 0 -7.5 0.5t-7.5 0.5q-17 1 -31 1.5t-26 0.5q-29 0 -41 -4q-10 -6 -17 -6q-5 0 -9.5 2t-12.5 2q-9 0 -23 -2.5t-24 -10.5q-34 -30 -55 -55t-34 -43t-19 -28t-10 -10h-1q-14 -7 -24 -11t-10 -21z" />
    <glyph glyph-name="u" unicode="u" horiz-adv-x="481" 
d="M367 43q0 -9 5.5 -14t11.5 -8.5t11.5 -6.5t5.5 -9q0 -3 -8.5 -8t-19.5 -9t-23.5 -7t-19.5 -3h-4q-12 2 -16.5 10.5t-4.5 19.5t3 23.5t6.5 24t6.5 20.5t3 13v3q0 5 3 10.5t7 11.5l10 14v1q0 5 4 12t9 14t9 13.5t4 11.5q0 6 -9 6l-8.5 -8.5l-18.5 -18.5l-24 -24t-24 -25
t-20 -20t-11 -9q-2 -11 -10 -17t-14 -7q-2 1 -7 1q-8 0 -13.5 -4.5t-7.5 -9.5q-1 -13 -9.5 -22t-20 -16t-23.5 -13t-21 -13h-2q-7 0 -14 -4t-15 -4q-5 0 -12 3q-23 12 -31 33t-8 46q0 13 2 26t4 27q2 17 8.5 30t8.5 30q4 5 7 11t6 11q0 6 2.5 9t4.5 6t4 7t2 10q13 11 22 19
t11 25q0 3 5.5 11.5t12.5 18.5t14.5 19.5t12.5 14.5q13 15 24 30t26 15q8 0 19.5 -10t17.5 -20v-4q0 -6 2.5 -8t2.5 -7q0 -4 -1 -7q-4 -4 -10.5 -8t-13 -10t-12 -13t-7.5 -17q-3 -5 -12.5 -11.5t-20.5 -15.5t-19.5 -19t-9.5 -20q0 -6 -3.5 -9t-8.5 -6t-11 -8.5t-10 -17.5
q-2 -5 -7.5 -12.5t-14.5 -11.5v-3q0 -11 -6.5 -20.5t-8.5 -21.5v-5q0 -7 -1.5 -16t-1.5 -17q0 -11 5 -17q3 -2 8 -2q11 0 23 9.5t24 10.5t38.5 22t58.5 51t64.5 63t56.5 58q11 11 20.5 24t15.5 21q3 4 7.5 5t10 2.5t9.5 4t5 9.5q15 30 32.5 54t31.5 24q4 0 15 -5.5
t21.5 -14.5t19 -20t8.5 -21v-4q-9 -12 -17 -22.5t-22 -13.5q-5 -4 -13 -13.5t-16 -21t-14.5 -22.5t-8.5 -17v-2q0 -5 -0.5 -10.5t-3 -10.5t-8.5 -8.5t-17 -3.5q-8 -5 -9.5 -10t-1.5 -9t-0.5 -8t-5.5 -7q-9 -6 -10.5 -11.5t-2 -11.5t-4 -12.5t-16.5 -13.5q-2 -2 -6 -8t-8 -14
t-7 -18t-3 -19z" />
    <glyph glyph-name="v" unicode="v" horiz-adv-x="413" 
d="M536 371q1 2 17 9.5t40 16t51.5 16t51.5 8.5l11 -5v-2q0 -5 -15 -13t-34.5 -16.5t-37 -17t-22.5 -15.5q-7 -11 -18.5 -18t-25.5 -7q-6 -2 -14.5 -7.5t-18.5 -13.5t-19 -16.5t-16 -15.5q-4 -2 -5 -2q-3 0 -6.5 1t-6.5 1q-6 0 -9 -7l-6 -8q-5 -7 -5 -10v-2q0 -9 -6.5 -11.5
t-14.5 -4.5t-14.5 -5.5t-6.5 -13.5v-1q0 -2 -10 -7.5t-24.5 -14t-29.5 -20t-26 -25.5q-6 -3 -13 -9t-13.5 -13t-10.5 -13t-4 -10v-1q0 -5 -4 -6.5t-10 -2t-12 -0.5t-10 -2q-4 -3 -4 -7q0 -2 0.5 -3.5t0.5 -3.5q0 -5 -5 -9q-12 -9 -26 -20t-27.5 -23.5t-24.5 -27t-16 -30.5
q0 -7 -9 -7h-7q-17 0 -29.5 7t-22.5 16h-1q-5 0 -8 3.5t-9 5.5q-4 3 -4 9t2 13t2 13q2 17 10 34q4 9 9 17q3 9 5.5 21.5t5 23.5t4 18.5t2.5 7.5q4 23 10 45t12 43.5t10 44t4 46.5v12t-1 13v6q0 11 -2.5 16.5t-2.5 10.5q0 3 3 8q15 0 22.5 -4t14 -8.5t14 -8.5t21.5 -5
q3 -1 8 -5t10 -10t9 -12.5t4 -12.5v-3l-3.5 -7t-8.5 -7t-16.5 -19t-18 -33t-14.5 -34.5t-6 -23.5v-2q-1 -6 -3.5 -9t-6 -5l-7 -4t-5.5 -6q-2 -2 -5.5 -15t-6.5 -21l-12 -41q-3 -5 -3 -16q0 -8 2 -8h3q6 0 11 4.5t10 10t9.5 10.5t8.5 5q6 0 20.5 14.5l34 34t42 40t42.5 34.5
q1 4 6.5 6t11.5 4t11 4t5 7v2q2 7 11 9t18.5 2.5t17 3t7.5 11.5q0 4 -1 7q0 3 16 14.5t37 24.5t40.5 23.5t26.5 11.5q10 0 18 2q7 2 13 5.5t8 10.5z" />
    <glyph glyph-name="w" unicode="w" horiz-adv-x="711" 
d="M190 240q-5 -11 -14 -22.5t-13 -11.5h-1q-3 0 -9.5 -3.5t-6.5 -8.5v-2l-5 -12q0 -1 0.5 -1.5t0.5 -1.5q0 -5 -5.5 -8.5t-13.5 -9.5l-3.5 -7t-7.5 -16t-7.5 -18t-3.5 -12v-1q1 -5 4.5 -10t9.5 -5q3 0 5 1q25 16 54 36.5t54.5 38.5t43.5 30.5t23 12.5h2q15 0 29.5 12.5
t28.5 20.5q34 18 68 36.5t76 35.5q5 2 13.5 3.5t17.5 2t16.5 1t10.5 0.5q8 -2 10 -6.5t2 -7.5v-3q-2 -4 -9 -6.5t-15 -5t-15.5 -5t-9.5 -7.5q2 -6 2 -10q0 -6 -2 -12q-1 -3 -1 -5q-5 -16 -7 -27.5t-2 -22.5q0 -10 1 -18.5t1 -17.5q0 -8 -1 -16t-4 -17q4 -1 4 -11v-8
q0 -7 2 -12t10 -5h1q3 0 12.5 11.5t21 27t21.5 31t15 24.5q8 9 22.5 20.5t18.5 23.5q20 22 35.5 41.5t39.5 41.5q6 8 14 14t16 14q19 18 49.5 32.5t62 24.5t60 15.5t43.5 5.5q7 0 11 -2q4 -4 4 -6q0 -5 -12 -7.5t-20 -12.5q-8 -3 -13.5 -12t-17.5 -9q-2 0 -10 2
q-6 -2 -7.5 -5t-3.5 -6t-6 -7t-14 -7q-37 -14 -68 -36t-47 -35l-5 -4q-3 -11 -17 -23t-24 -15q-13 -3 -18 -12.5t-15 -15.5q-6 -5 -14.5 -15t-19.5 -18q-9 -8 -12 -18t-14 -19q-5 -5 -8 -6.5l-7 -3.5q-4 -8 -7.5 -10t-3.5 -10v-4q2 -4 2 -6q0 -7 -5 -10q-9 -4 -13.5 -11.5
t-9 -16t-10 -15.5t-15.5 -10q-3 -3 -5 -11.5t-4.5 -18.5t-5 -18.5t-5.5 -9.5q-2 -1 -7 -1q-10 0 -18.5 6t-16.5 13.5t-14.5 15t-11.5 10.5q-7 5 -10.5 22t-3.5 31q0 16 4 17q3 1 5 14.5t3 30.5q1 19 1 43q0 -1 1 5t2.5 14t2.5 17.5t1 16.5q0 9 -2 10q-1 0 -2 0.5t-2 0.5
q-7 0 -16 -7t-17 -15t-15.5 -14.5t-11.5 -6.5q-2 0 -3 0.5t-3 0.5q-9 0 -13.5 -4.5t-8 -10t-8 -10t-12.5 -4.5q-4 0 -7 1q-7 -2 -11 -7.5t-7.5 -11t-8.5 -11t-14 -7.5q-13 -9 -26 -16.5t-18 -22.5q-3 -4 -10.5 -5.5t-15 -2.5t-13 -3.5t-5.5 -8.5q0 -1 0.5 -1.5t0.5 -2.5
q-2 -7 -12 -15t-22 -15.5t-23 -15t-14 -12.5v-6q0 -16 -15 -20q-9 -2 -15 -6.5t-11.5 -10.5t-10.5 -11t-11 -8q-6 -2 -17 -5t-20 -3q-11 0 -13 5q-2 10 -2 26q0 12 1 23t4 14q5 5 10 9t5 11q0 3 -1 5q-3 1 -3 5q0 5 3.5 11t4.5 11q5 19 15.5 32.5t15.5 31.5q8 34 22 57.5
t28 49.5q4 7 8 14.5t7 12.5q4 6 7 12q0 6 2.5 11t5.5 8l7 7l11 32q2 9 4.5 14.5t5.5 10t6.5 9.5t6.5 13q4 4 9 4t9 -2.5t9 -4.5q13 -8 23 -20.5t21 -22.5q-1 -11 -11.5 -19t-10.5 -17v-2q0 -5 -4.5 -7t-9.5 -7q-9 0 -15 -6.5t-10.5 -14t-7.5 -15t-6 -10.5z" />
    <glyph glyph-name="x" unicode="x" horiz-adv-x="453" 
d="M638 405q7 0 11 -3l8 -6q0 -1 0.5 -1t0.5 -1q5 -8 11 -17.5t7 -17.5q-3 -3 -7 -3q-3 0 -6.5 0.5t-7.5 0.5q-8 0 -12 -3q-9 -9 -17 -9q-5 0 -9 1.5t-9 1.5q-2 0 -10 -2q-21 -5 -38 -7.5t-26 -7.5q-14 -8 -19.5 -11t-9 -5t-7.5 -3.5t-15 -5.5q-23 0 -37.5 -11.5
t-33.5 -21.5q-21 -9 -46.5 -25.5t-47.5 -34.5t-37 -33t-15 -21q-9 -14 -9 -38q0 -14 2 -27t4 -24q8 -13 16 -18.5t22 -5.5h10t11 2q32 4 51.5 14.5t25.5 10.5q3 0 3 -3v-1q0 -7 -3 -11t-7.5 -8t-8.5 -8t-6 -11q-17 -9 -35.5 -22.5t-43.5 -13.5q-7 0 -11 1q-17 3 -27.5 12
t-18 20t-13.5 22.5t-13 19.5q-3 7 -5.5 17t-5 19.5t-4 16.5t-2.5 9q-1 7 -8 7q-6 0 -16 -5t-21 -12t-21 -13.5t-17 -10.5q-11 -11 -18.5 -23.5t-25.5 -12.5h-3q-6 -1 -7.5 -4.5t-1.5 -7t-0.5 -7t-4.5 -4.5q-9 -3 -18.5 -13.5t-16.5 -17.5q-13 -7 -18.5 -13.5t-8 -12
t-3.5 -8.5t-5 -4q-10 -4 -18.5 -4t-13.5 -9q1 -2 1 -6q0 -9 -8.5 -14.5t-8.5 -17.5q-3 -12 -22 -12q-8 0 -16.5 2t-17.5 5q-16 5 -30 16t-14 20q0 3 1 4q4 7 12 13q4 3 6 4q13 7 21.5 13t16 11.5t16.5 11t23 12.5q9 3 14.5 9.5t10.5 13t11 11.5t17 5h5q3 0 11.5 5.5t19 13.5
t21.5 16t19 13q13 7 29 18.5t33 23.5t33.5 22.5t29.5 17.5q-3 37 -3 69q0 9 0.5 17t0.5 15q1 4 3 11t2 13q0 8 -4 9q-2 2 -2 15v12t1 12q0 6 1 12q0 5 1 9q2 10 5 13t10 3q9 0 22.5 -5t26 -11.5t21.5 -13t9 -10.5q-1 -10 -2 -19t-16 -14v-2q0 -7 7 -9t7 -7v-1q-9 -6 -9 -16
q0 -5 1 -9t1 -8q0 -6 -4 -9v-11q0 -7 1.5 -13t7.5 -10h2q6 0 10 4t7.5 9t8 9.5t11.5 5.5h1q4 0 18 8t32.5 19t39 22.5t37.5 17.5q11 5 20.5 11.5t25.5 7.5q14 11 31.5 18.5t36.5 15.5q20 6 39 16t44 11z" />
    <glyph glyph-name="y" unicode="y" horiz-adv-x="465" 
d="M-185 -668q1 -1 1 -4q0 -6 -5.5 -11.5t-11.5 -9.5q-8 -5 -17 -9q-6 -1 -7 -5t-1 -9t-1.5 -9t-8.5 -5q-14 -17 -28.5 -34t-26.5 -31q-14 -16 -28 -31q-10 -9 -23.5 -22.5t-28.5 -28t-30.5 -27.5t-30.5 -22q-13 -8 -22 -14.5t-17 -11.5t-17.5 -8t-22.5 -3q-3 0 -6 0.5
t-6 0.5q-13 3 -21 6.5t-13 8t-8.5 10t-8.5 12.5q-10 14 -10 32q0 21 8.5 45.5t13.5 48.5q1 13 5 24q2 10 6.5 19.5t9.5 15.5q7 3 13 14q3 5 5 12q4 6 5.5 13.5t6.5 13.5q-1 6 0 11q0 8 4 18q3 7 9.5 13.5t18.5 11.5q6 2 14 14t17 27.5t18.5 30.5t18.5 23q12 11 16.5 21
t7.5 18.5t8.5 14.5t20.5 9q17 8 23 15t9 14t6.5 13t14.5 12q0 5 6.5 13t15.5 16t18 15.5t15 11.5l2 2q9 3 14 9t9.5 12.5t9.5 12t15 8.5q12 17 22 26.5t20 15.5t20.5 12t21.5 15q36 30 75 60t80 56t82.5 46.5t82.5 31.5q5 3 17 17.5t24 30.5q14 18 31 41q3 2 8 10t10 17
l12 22q2 8 6.5 16t9.5 15q5 8 11 15l8 27q1 2 1 5q0 4 -3 4q-5 0 -15 -6t-21 -13.5t-22.5 -14t-18.5 -7.5q-5 -2 -20.5 -11.5t-26.5 -29.5q-5 -10 -17 -10q-4 0 -7.5 0.5t-6.5 0.5q-6 0 -7 -3q-5 -5 -11 -12.5t-25 -12.5q-11 -8 -18.5 -16.5t-20.5 -9.5q-16 -3 -31 -14.5
t-32 -11.5q-6 0 -9 1q-10 9 -18.5 15t-8.5 17q0 10 6 20q2 2 4 4.5t4 4.5q3 3 5 6q2 11 8.5 23.5t11.5 23.5q5 15 18 28.5t17 31.5q6 9 15 19.5t17 20.5q10 11 20 23q1 9 6 13.5t11 8.5t10.5 8.5t4.5 13.5v5q0 5 3.5 9t8.5 8t12 9q1 2 3.5 5.5t4.5 6.5q3 4 6 6q6 10 15 21.5
t18 20.5t15.5 15t7.5 6l3 4q7 9 13.5 14.5t12.5 11.5l4 3v1q0 4 3 5t7 3h2q11 0 19.5 -7t12.5 -14q0 -2 -1.5 -6.5t-1.5 -6.5t2 -2h2q9 -8 9 -21q0 -5 -1 -7q-8 -6 -12.5 -9t-15.5 -8h-3q-11 0 -13 -4.5t-3.5 -10.5t-6.5 -12t-21 -9q-19 -9 -32 -26t-27 -25
q0 -11 -3.5 -15.5t-9.5 -9t-14.5 -12t-19.5 -24.5v-2q0 -4 -3.5 -6t-7.5 -3.5t-8 -3.5t-5 -5q-10 -7 -18.5 -17.5t-15 -21t-11.5 -20t-9 -13.5q-5 -6 -7.5 -17.5t-4.5 -15.5q1 -8 8 -8q5 0 11 3.5t9 6.5q10 4 26 12t32.5 18t31.5 19.5t24 15.5q42 26 70 48.5t46 38.5
t27.5 25t13.5 9q1 0 1 -0.5t1 -0.5q1 -1 3 -1q4 0 11 5.5t15 14.5t16.5 19.5t17.5 20.5q3 5 8 11.5t10.5 12.5t10.5 10.5t8 5.5h2q13 0 24.5 -8t13.5 -19q12 -12 12 -29q0 -8 -4 -15q-7 -14 -22 -25.5t-23 -21.5q3 -6 3 -12q0 -9 -6.5 -15t-15 -11t-15 -9.5t-6.5 -10.5
t4 -11q-1 -7 -6 -12t-10 -9t-9.5 -7.5t-4.5 -8.5v-3q0 -5 -6 -12t-14 -15t-16 -17t-13 -17q-17 -19 -31 -36q-12 -15 -23 -30t-13 -24q-17 -9 -23 -28q8 -5 16.5 -6t17.5 -2t19 -3.5t21 -9.5q24 -16 37 -37.5t13 -41.5q0 -24 -16 -40q-6 -4 -14 -21t-25 -27q-11 -11 -19 -16
t-23 -14v-3q0 -9 -8 -11.5t-12 -7.5q-17 0 -27 -10q-2 -6 -7 -9.5t-11 -5.5t-13 -3.5t-11 -4.5q-2 0 -3 1q-2 2 -2 3q0 2 3 5q16 14 34 29.5t32 32.5q1 0 6.5 6t11.5 13l16 18q5 7 9.5 14t8.5 14t9 15q5 11 9 23t4 23q0 7 -2 13t-8 10q-5 2 -10 2h-11q-20 0 -44 -5.5
t-38 -14.5t-19.5 -19.5t-18.5 -21.5l-36 -52q-8 -7 -8.5 -18t-6.5 -19q-21 -5 -25.5 -14.5t-6 -21.5t-7 -23.5t-28.5 -20.5q-6 -4 -5 -4q-1 -1 -2 0q-1 0 0 -0.5t-6 -8.5q-8 -8 -13.5 -20t-14.5 -23q-2 -3 -10.5 -15.5t-21 -30.5t-27.5 -39t-29.5 -40.5t-28.5 -35t-23 -22.5
q-5 -3 -6 -8.5t-2.5 -12t-5 -12t-12.5 -8.5l-18 -8q-11 -16 -18 -26.5t-18 -25.5zM-352 -544q-13 -10 -20 -23t-17 -21q2 -10 2 -12q0 -8 -4 -11.5t-9.5 -6t-12 -6.5t-12.5 -11q-11 -14 -14 -22t-3 -15q0 -6 1 -9q-4 -4 -10 -8.5t-15 -8.5q-5 -3 -7 -7.5t-4 -9.5t-2 -11
l-6 -23q-7 -8 -12 -19t-9 -21.5t-6.5 -19t-3.5 -11.5q2 -10 2 -12q0 -11 -5 -19.5t-5 -22.5q0 -7 1 -11q2 -13 8 -26t20 -13q6 0 9 1q14 7 27 15t27 22q5 5 18 16.5t29.5 27t35 34.5t35.5 38q1 1 5.5 6.5t10.5 12.5t13 15.5t13 16.5q16 17 30 35q12 15 25 31.5t21 30.5
q9 14 17.5 25.5t21.5 22.5l8 23q1 8 7.5 12.5t13.5 8t12.5 8t5.5 11.5q0 3 -2 9q7 6 18 20.5t22.5 30t19.5 28.5t9 16q0 3 5.5 9t13.5 14t17 19t16 25q8 14 14 21t18 19q13 18 23 31l22 30q11 20 26.5 37t17.5 21q1 2 1 6q0 6 -8 6h-5q-16 -8 -37.5 -18.5t-36.5 -30.5
q-49 -17 -77 -55l-1 -1q-5 -5 -11 -9t-14 -4h-2q-20 -7 -35.5 -19.5t-20.5 -32.5l-2 1q-1 -9 -9 -12.5t-17.5 -6t-17 -6t-8.5 -13.5q-10 -6 -27 -20.5t-34.5 -30t-32.5 -29.5t-21 -19l-2 -8q-18 -11 -33.5 -27t-30.5 -34z" />
    <glyph glyph-name="z" unicode="z" horiz-adv-x="389" 
d="M-455 -709q3 5 8.5 15.5t13 22.5t16 24t15.5 20q8 15 23.5 33t29.5 34q17 18 35 37q12 16 25 28t26.5 23t28 22.5t28.5 25.5q83 60 168.5 108t187.5 83q20 7 44 11.5t47 8.5q7 1 11 11q2 4 2 10q5 11 10 23q3 7 4 15q4 22 9.5 46.5t5.5 47.5q0 11 -2 21.5t-7 18.5
q-5 9 -9 13.5t-8.5 6.5t-10.5 2.5t-14 2.5q-3 0 -5.5 0.5t-5.5 0.5q-15 0 -27.5 -4t-24.5 -9.5t-24 -9.5t-25 -4q-2 0 -4.5 0.5t-4.5 0.5q-6 -2 -9 -6t-5.5 -8t-6 -7t-9.5 -3q-2 0 -2.5 0.5t-2.5 0.5q-3 0 -10.5 -4t-16 -9.5t-16 -11.5t-11.5 -12q-4 -5 -15.5 -5.5
t-15.5 -3.5q-5 -4 -3 -10.5t-5 -9.5t-11.5 -7.5l-10 -10t-14 -12t-23.5 -13.5q-2 -1 -5.5 -1h-6.5q-10 0 -22 2.5t-22 6t-16.5 7t-6.5 5.5q2 6 9 11l8 6q5 9 9 11.5t7 4t5 6t3 16.5v1q-1 4 -1 10q0 9 10 13q51 23 76.5 42.5t34.5 20.5q15 2 24 5.5t14 8.5t8 12
q15 10 24.5 19t16.5 16.5t12 12.5t12 8q19 6 26 14.5t8 11.5q4 6 27 24.5t54 44.5q30 26 56.5 52.5t44.5 46.5q9 10 9 16q0 10 -17 10q-2 0 -4.5 -0.5t-4.5 -0.5q-17 1 -33.5 3t-33.5 2q-10 0 -20 -1t-20 -6h-3q-40 0 -63.5 -10t-34.5 -10q-5 0 -6 3l5 18q6 14 20.5 24
t34 17t41 11t40.5 7q1 0 2 -0.5t2 -0.5q9 -3 18 -3q11 0 16 7q5 12 17 12.5t23 3.5q19 -1 35 -1q14 -1 26.5 -1h17.5v-2q0 -4 8 -4h9q15 5 27 5q17 0 32.5 -5t28.5 -12q6 -8 7.5 -14t1.5 -8v-1q0 -9 -1.5 -15.5t-3.5 -10.5t-4 -7q-1 -1 -4 -1q-5 0 -9 2.5t-10 2.5
q-5 0 -7 -1q-4 -5 -5.5 -15.5t-9.5 -13.5q-12 -4 -25.5 -12.5t-26.5 -17.5t-23 -15.5t-16 -6.5q-1 0 -1.5 0.5t-1.5 0.5q-1 2 -29 -16.5t-71 -55.5q-4 -3 -14 -5t-15 -8q-2 0 -2 -3q0 -2 0.5 -4t0.5 -4q0 -3 -2 -3q-16 -12 -29 -23q-11 -9 -22 -17.5t-13 -13.5q-4 -3 -8 -11
q1 -5 14 -5q6 0 13.5 0.5t15.5 0.5q13 0 28 -3q6 -13 17 -20.5t23.5 -14t24.5 -15t19 -24.5q8 -17 14 -35t6 -36q0 -16 -6 -29q-2 -6 -2 -7q0 -7 6 -11t6 -10q0 -8 -14 -19q-1 -1 -3.5 -5.5t-5 -11t-4.5 -13t-2 -10.5t2 -5h6q19 -1 38.5 -2t37 -5t31.5 -12t21 -22l2 -2
q5 -5 8 -11.5t3 -14.5q0 -5 -1 -8q0 -8 -3.5 -13t-9 -9t-11 -7t-9.5 -7l-9 3q5 5 8.5 15t3.5 21q0 9 -2 13q-13 10 -34 14t-43 4q-26 0 -47.5 -4.5t-27.5 -11.5q-1 -3 -5 -11.5t-9 -18t-9 -16.5l-4 -7q-6 -8 -8 -14.5t-2 -11.5v-9q0 -6 -6 -7l-20 -8q-6 -12 -10.5 -19
t-9.5 -12t-10.5 -11t-12.5 -18q-13 -15 -21.5 -27t-13.5 -17q-7 -8 -12.5 -9t-16.5 -10q-2 -2 -2 -6q0 -3 1 -6t1 -5q0 -4 -3 -5q-28 -21 -50 -44.5t-45 -49.5l-17 -19q-15 -3 -21.5 -11t-10.5 -17.5t-9.5 -18.5t-19.5 -14q-14 -13 -26 -24.5t-25 -23t-27 -24t-32 -26.5
q-8 -4 -12.5 -11t-8.5 -14.5t-9.5 -13t-17.5 -5.5q-7 0 -11 1q-10 -14 -23 -25.5t-26 -22.5q-16 -9 -31 -18.5t-31 -18t-34.5 -14.5t-40.5 -6q-17 7 -25.5 18.5t-23.5 22.5q-11 11 -14.5 22.5t-4.5 22.5v5q0 22 4 37.5t5 14.5q7 25 13.5 39.5t15.5 37.5zM46 -502
q24 29 46.5 55.5t43.5 54t40.5 56.5t36.5 62q-2 2 -5 2q-7 0 -20.5 -4.5t-28 -10.5t-26 -12.5t-15.5 -10.5l-4 -4q-7 -8 -14 -14t-18 -6q-8 0 -17 4h-2q-7 -2 -12.5 -4.5t-5.5 -8.5q0 -1 2 -7v-3q0 -6 -4.5 -7.5t-10.5 -2t-11.5 -1t-6.5 -5.5q-18 -5 -38 -16t-38 -22.5
t-31 -21t-18 -11.5l-3 -3q-10 -10 -19.5 -16.5t-29.5 -8.5q-7 -3 -10.5 -6t-5.5 -6t-3.5 -7.5t-4.5 -10.5q-33 -17 -52.5 -35.5t-41.5 -46.5q-2 0 -2.5 0.5t-2.5 0.5q-5 0 -10 -2.5t-7 -7.5q4 -5 4 -11t-5.5 -8.5t-12 -4t-12 -4t-5.5 -7.5q0 -4 1 -6q-8 -1 -12 -4.5t-7 -8
t-5.5 -9.5t-7.5 -8q-17 -19 -27.5 -37t-20.5 -40q-8 -14 -13 -31q-5 -14 -9 -34t-4 -43q0 -7 0.5 -13.5t1.5 -13.5v-2q6 -4 5.5 -9.5t7.5 -5.5q2 0 4.5 0.5t6.5 1.5q31 8 52.5 22.5t51.5 31.5q23 16 58.5 45t67.5 58q38 33 78 71q6 16 11.5 23t11 10t10 4.5t8.5 6.5
q3 1 17.5 15t33 33t35.5 37.5t24 27.5z" />
    <glyph glyph-name="braceleft" unicode="{" horiz-adv-x="273" 
d="M645 746q-3 -6 -10 -10t-14 -7t-12.5 -6.5t-5.5 -8.5q0 -3 3 -7q-8 -9 -21.5 -20t-18.5 -20q-6 -12 -16 -23.5l-20 -23t-18 -23t-11 -22.5q-4 -5 -7.5 -6.5t-7 -2.5t-8 -4t-10.5 -12v-1q0 -15 -11.5 -24.5t-20.5 -22.5q-10 -6 -15.5 -15t-9.5 -19.5t-7 -22.5t-7 -22
q-3 -5 -10.5 -7t-15.5 -4t-15.5 -5t-9.5 -11q-3 -5 -12 -6.5l-21 -3.5t-26.5 -5.5t-29.5 -10.5q-6 -4 -13.5 -6.5t-7.5 -9.5q0 -1 0.5 -2t0.5 -2q1 -2 12.5 -10.5t24 -20.5t23 -26.5t10.5 -28.5q0 -8 -12 -14t-17 -17q-3 -5 -9.5 -9t-12.5 -8.5t-11 -10t-6 -12.5v-8
q-3 -4 -9 -8t-12.5 -8t-12 -8t-8.5 -8q-5 -8 -10 -12t-10.5 -8t-9.5 -9.5t-7 -15.5q-7 -4 -10.5 -9.5t-6.5 -12l-6 -13t-9 -10.5l-7 -10q-3 -6 -8 -13t-9 -13t-6.5 -10l-2.5 -4q-8 -14 -13.5 -28.5t-5.5 -26.5t6 -18l2 -9q4 -20 9.5 -39t20.5 -31q5 -1 5 -4q0 -4 -6 -7
t-13 -3h-2q-9 3 -20.5 5.5t-22 6t-18 8.5t-9.5 14q0 8 -8 13.5t-17.5 10.5t-17.5 11t-8 14q0 9 11 20q-1 -1 3.5 5.5t8.5 11.5q28 40 51 74q20 29 38 56t25 37q9 9 17 20q4 6 9 12l11 16q23 23 36 49.5t27 53.5q1 4 1 11q0 14 -5.5 25t-11.5 16q-5 2 -18 2h-3q-9 0 -16.5 1
t-7.5 8v1q-1 5 -3 9.5t-2 10.5q0 3 2 9q7 5 20 9t28 8.5t31.5 11t32.5 16.5q24 10 40 20.5t26.5 19.5t16 16.5t10.5 12.5t18 20.5t28 33.5l38 46q8 14 15.5 22.5t16.5 20.5l20 26q4 5 7.5 9.5t6.5 8.5q4 4 7 8q5 8 13.5 20t16.5 23q9 12 18 26q3 5 7 11t8 11q4 6 9 12
q9 8 11 14t3 10.5t3.5 9t13.5 9.5q7 8 23 12t27 5h1q8 0 12 -3.5t9 -3.5q3 0 9 3q24 8 50 14.5t53 7.5q5 -5 9.5 -7t4.5 -8q0 -2 -2 -8q-15 -2 -30 -10.5t-31 -18t-32.5 -19t-34.5 -14.5q-8 -2 -11.5 -8t-6.5 -12.5t-7 -11.5t-13 -5z" />
    <glyph glyph-name="bar" unicode="|" horiz-adv-x="290" 
d="M-33 -40q0 8 7.5 16.5t9.5 13.5l53 72q6 6 9 11.5t6.5 10t8.5 8.5t15 7q4 3 6 11l2 8v1q0 6 11.5 18t16.5 22q8 10 11.5 16t14.5 15q2 13 8.5 21t14.5 15t15 14.5t11 20.5q6 3 19 20t27.5 38t28 41t21.5 31q6 10 13 20.5t12 19.5q6 11 12 20q5 8 11 16.5t11 16.5l10 18
q11 20 32.5 49t42.5 56q25 31 51 64q6 10 15.5 23.5t18.5 25.5t15 20.5l6 8.5q3 6 8.5 13t10.5 13l12 14q0 6 6 10t14 6q41 -2 55 -28q2 -2 2 -4q0 -5 -7 -12t-9 -14q-17 -5 -22.5 -14.5t-13.5 -20.5q-3 0 -10.5 -11t-16.5 -24.5t-20 -26.5t-21 -18q-7 -2 -6.5 -4.5
t-1.5 -6.5q2 -6 2 -8q0 -6 -5.5 -10t-12 -7t-12 -7t-5.5 -11q-2 -1 -7 -8.5l-11 -16.5q-7 -11 -15 -23q-5 -11 -9.5 -13t-8.5 -14v-3q0 -2 0.5 -2.5t0.5 -2.5q0 -3 -1 -7t-5 -7q-13 -6 -21.5 -15.5t-15.5 -20t-14 -21.5t-17 -20q-10 -11 -20 -28t-21 -28q-8 -2 -11.5 -7
t-5 -11t-2.5 -13t-5 -13q-1 -4 -6 -9.5t-11.5 -11.5t-12.5 -12t-10 -11q-8 -11 -18.5 -25t-20.5 -31q-26 -35 -46 -64q-9 -12 -17.5 -24.5t-15 -22t-11.5 -16t-6 -7.5l-6 -7q-14 -17 -25.5 -34t-11.5 -31v-1q-1 -4 -3.5 -4.5t-6.5 -1t-8 -2t-7 -7.5q-3 -3 -3 -10q0 -6 1 -8
q0 -2 1 -3q-1 -3 -3.5 -7.5t-4.5 -9.5q-4 -5 -7 -11q0 -5 -3 -10t-10 -7q-17 6 -34.5 17.5t-17.5 26.5z" />
    <glyph glyph-name="braceright" unicode="}" horiz-adv-x="382" 
d="M19 -31q3 6 10 9.5t13.5 7t12 7t5.5 8.5q0 3 -3 8q8 9 21.5 19.5t19.5 20.5q6 11 16 22.5l20 23t18 23t11 22.5q4 6 7.5 7t7 2.5t8 4t10.5 11.5v2q0 16 11.5 24.5t20.5 21.5q9 6 15 15.5t10 20t7 22t7 22.5q3 5 10 7t15.5 3.5t15.5 4.5t10 11q3 4 12 6t21 4.5t26.5 5.5
t29.5 11q5 4 12.5 6.5t7.5 9.5v3q-2 2 -13 10.5t-23.5 20.5t-23 27t-10.5 29q0 7 12 13t17 17q3 5 9.5 9.5t12.5 9t11 10t6 12.5v7q7 8 21.5 16.5t20.5 16.5q4 7 9.5 11.5t11 8.5t9.5 9.5t7 15.5q13 7 17 21t15 23l7 10q3 6 7.5 13t8.5 13q4 7 10 15q8 14 13.5 28.5
t5.5 26.5q0 11 -6 17q-5 23 -10 44.5t-22 34.5q-6 1 -6 4q0 4 6.5 7t13.5 3h2q9 -3 20.5 -5.5t22 -6t18 -8.5t9.5 -14q0 -8 8 -13.5t17.5 -10.5t17.5 -11t8 -14q0 -9 -11 -20q1 2 -4 -5t-8 -12q-28 -41 -51 -74q-20 -29 -38.5 -56t-24.5 -37q-9 -8 -18 -20l-8 -12l-12 -16
q-9 -10 -20 -26t-20.5 -33t-16.5 -32t-7 -24q0 -13 5.5 -24t12.5 -16q8 -2 14 -2h11q8 0 13.5 -1.5t5.5 -7.5v-1q1 -6 3 -10.5t2 -10.5q0 -5 -1 -8q-8 -5 -20.5 -9t-27.5 -8.5t-32 -11t-32 -16.5q-25 -10 -41 -20.5t-26 -19.5t-16 -16.5t-10 -11.5q-5 -5 -19 -21t-28 -34
q-18 -21 -37 -46q-8 -14 -15.5 -22t-16.5 -21q-12 -15 -21 -26q-8 -10 -14.5 -18.5t-6.5 -7.5q-5 -8 -13 -19.5t-16 -22.5l-18 -27q-3 -5 -7 -11t-8 -11q-4 -6 -9 -12q-9 -8 -11 -13.5t-3 -10.5t-4 -9t-13 -9q-8 -8 -24 -12t-27 -6h-1q-7 0 -11 3.5t-9 3.5q-3 0 -9 -3
q-24 -8 -50 -14.5t-53 -7.5q-5 5 -10 7.5t-5 8.5q0 1 2 7q15 2 30.5 10.5t31.5 18.5t32.5 19.5t34.5 14.5q7 2 10.5 8t6.5 12t7 11t13 5h1z" />
    <glyph glyph-name="uni00A0" unicode="&#xa0;" horiz-adv-x="250" 
 />
    <glyph glyph-name="exclamdown" unicode="&#xa1;" horiz-adv-x="268" 
d="M238 199v-4q0 -5 -10 -14t-24 -32q-4 -8 -13.5 -17t-11.5 -21l-4 -8q-4 -8 -7 -11q-8 -7 -12.5 -10t-6.5 -9q-2 -12 -8.5 -26t-14.5 -20q-5 -4 -15 -5.5t-14 -8.5q2 -3 4.5 -7t2.5 -9q0 -6 -6 -10q-8 -3 -9.5 -13t-9.5 -11q-2 -2 -9 -10.5t-15 -20t-15.5 -23.5t-11.5 -20
q-2 -5 -10 -8t-13 -7q-4 -7 -4 -12q0 -2 2 -6v-3q0 -6 -4.5 -10t-10 -7t-10 -6.5t-4.5 -10.5q0 -2 0.5 -2.5t0.5 -2.5q-5 -3 -8.5 -8.5t-6 -10.5t-5.5 -8.5t-8 -3.5q-2 0 -8 2q-7 4 -16 9.5t-17.5 12.5t-14.5 15.5t-6 17.5q0 8 4 15q11 17 23 32.5t24 32.5q6 0 9 2.5t8 6.5
v1q0 6 4 14.5t9 16t10 13t7 5.5q14 5 19.5 10t6.5 11v1q0 4 -1 7.5t-1 6.5q0 8 7 10q7 3 14.5 10t13.5 14.5t10 13l4 5.5q9 11 19.5 25.5t20.5 27.5t17.5 22.5t9.5 11.5q6 5 13.5 7t13.5 4t10 5t4 9t-2 10q-3 3 -3 5q0 3 4 6t7 7q10 10 17.5 19.5t15.5 18.5q5 4 9 9l4 6
q4 8 7.5 14t12.5 14q5 4 11 13l13 19.5t14.5 20t15.5 14.5h2q7 0 15 -12t8 -18v-1l-7 -18q-3 -2 -7 -8.5t-7.5 -14.5t-7 -15t-5.5 -10q-3 -4 -7 -8.5t-8 -9.5t-10 -11q-5 -9 -11.5 -16t-6.5 -15zM359 504q3 0 3 6v7l15 21q2 4 12 14.5t10 21.5q1 8 7.5 10.5t14.5 2.5h6
q7 -4 15 -7t10 -8q0 -2 4.5 -5t9.5 -7t9 -8.5t4 -10.5t-7 -13q-3 -9 -10 -14l-14 -10t-12.5 -11t-5.5 -18q-10 -4 -12 -10t-12 -8q-3 0 -10.5 3.5t-15.5 9.5t-14.5 14t-6.5 17v3z" />
    <glyph glyph-name="cent" unicode="&#xa2;" horiz-adv-x="400" 
d="M225 131q5 -1 9.5 -1.5t8.5 -0.5q5 0 9 2q13 8 25 11.5t22 6.5t19.5 8t18.5 16q2 5 7.5 7.5t13.5 5.5q1 0 1.5 0.5t1.5 0.5q21 9 38 20.5t29.5 22t21 18t13.5 7.5q7 0 7 -7q0 -3 -2 -9q-1 -3 -2 -5q-2 -6 -5.5 -15t-8.5 -18t-11.5 -17t-15.5 -12q-10 0 -15.5 -4.5
t-8.5 -9.5v-3q0 -9 -6 -12.5t-11 -6.5q-19 -12 -43 -20.5t-33 -14.5q-13 -2 -32.5 -6t-39.5 -4q-22 0 -39 7q-7 -10 -10.5 -17.5t-6.5 -12.5t-7 -9t-12 -7q-2 -8 -2 -16q0 -6 2 -7l-10 -18q-3 -4 -4 -8.5t-7 -5.5q-8 0 -17 11t-9 22v2l14 25q2 4 8.5 12.5t13.5 18.5
q8 11 17 24q-8 3 -13 8.5t-11 9.5q-6 5 -13 13.5t-12 16.5q-4 8 -5.5 19.5t-1.5 23.5t2 23t7 18l-2 4q-1 2 -1 8q0 8 8 12q6 2 7.5 4t2 4.5t0.5 5t2 6.5q3 7 9.5 23t15.5 33t20 32t23 21l2 8q2 7 7 10q5 2 17 11.5t17 17.5q10 8 15 16t15 10q20 16 42 30t46 22q2 1 7 1
q8 0 12 -4q-1 -3 7 -9.5t10 -9.5h6q8 7 18.5 9.5t21.5 3.5q9 10 20 19t15 13q2 2 6 2q5 0 9.5 -3.5t4.5 -9.5q0 -8 -9 -17q-2 -3 -8 -10t-6 -9q8 -6 16 -13t10 -15q4 -3 4 -5q0 -5 -7.5 -10.5t-10.5 -10.5h-2q-8 0 -12 -5t-4 -7q0 -1 0.5 -1t0.5 -1q0 -2 -6 -6q-3 -2 -5 -3
q-9 -7 -7.5 -11.5t-4.5 -6.5q-7 -3 -9 -4.5t-2.5 -3.5t-1.5 -5t-6 -8q-5 -3 -9 -3h-6q-7 0 -10 -4v-2q0 -4 3 -6.5t3 -5.5q0 -2 -3 -5h-2q-5 0 -6.5 -6t-3.5 -8v-1q0 -1 0.5 -1.5t0.5 -1.5q0 -3 -1 -6.5t-5 -3.5q-8 0 -13.5 12.5t-5.5 20.5v2q-1 5 -1 8.5v7.5q0 15 3.5 24.5
t10 18t15.5 16.5t19 19q4 4 4 7q0 4 -9 4q-6 0 -8 -1q-17 -2 -35 -11t-33 -19.5t-25 -19t-10 -10.5v-2q0 -4 -5 -7t-7 -3q-5 -8 -15 -16t-21 -10q-8 -3 -10 -9q-1 -3 -1 -5q-9 -14 -21.5 -25.5t-21.5 -24.5q-5 -4 -5 -10q0 -5 1 -9t1 -8t-2 -6t-10 -2q-14 -23 -27 -47
t-13 -48q0 -12 4 -23q2 -5 11.5 -11t19.5 -8q5 2 8.5 9.5t12.5 9.5q4 1 4 6q0 2 -0.5 3t-0.5 2q-1 1 -1 2v3q0 9 8.5 15t13.5 14q6 8 9.5 14t12.5 14q1 12 6 18.5t11.5 12t12.5 12t9 17.5q11 5 18 18.5t12 19.5q3 3 7 3q6 0 11.5 -4t5.5 -11q0 -8 -6 -14q-4 -7 -18 -26.5
t-29.5 -42t-29.5 -43t-19 -28.5q-2 -3 -9.5 -11.5t-7.5 -13.5v-1z" />
    <glyph glyph-name="sterling" unicode="&#xa3;" horiz-adv-x="717" 
d="M709 402q-11 0 -19.5 -0.5t-18.5 -0.5t-23.5 -1t-35.5 -3q-1 0 -15 -0.5t-36.5 -1t-51 -1t-58.5 -1.5q-7 -8 -14 -17.5t-14 -20.5q-14 -16 -25 -29q-9 -11 -17 -22t-7 -15q-1 -8 -6 -16t-11 -16q-7 -9 -15 -17q-9 -11 -12.5 -19.5t-4.5 -15t-1.5 -11.5t-2.5 -8
q-4 -11 -12.5 -21.5t-12.5 -21.5l-3 -26q-5 -8 -7.5 -18t-2.5 -20q0 -13 4.5 -22t13.5 -11l94 9q8 1 18.5 6t20.5 5q9 0 15 -7q38 2 70 4t61 2q40 0 82 -4t102 -12q15 -7 22.5 -19.5t22.5 -23.5l-1 -9q-4 -1 -6.5 -1.5t-5.5 -0.5q-8 0 -14.5 3t-12.5 6t-12.5 6t-15.5 3
q-8 0 -18 -3q-26 3 -43 3q-15 0 -23.5 -1.5t-13.5 -2.5h-2q-8 -5 -15 -7t-13 -2q-9 0 -16.5 2t-15.5 2q-14 0 -27 -9q-7 -4 -12 -5t-10 -1q-8 0 -14.5 2t-13.5 2t-14 -3t-17 -13h-3q-12 0 -17 5.5t-16 5.5q-6 0 -10 -1q-3 -1 -8.5 -4t-13.5 -3t-16 4q-32 -6 -64.5 -7
t-65.5 -9q-7 -6 -16.5 -8t-20.5 -2q-9 0 -18.5 0.5t-18.5 0.5q-6 -2 -8.5 -4.5t-4 -4.5t-4.5 -3.5t-9 -1.5q-4 0 -8.5 0.5t-11.5 1.5q-5 0 -20 -1t-33.5 -2.5t-36.5 -5t-28 -9.5q-12 -3 -13 -3h-2q-1 0 -2.5 -0.5l-7.5 -2.5q-17 5 -25 13.5t-13 17.5q-5 7 -10.5 12.5
t-5.5 14.5q0 2 2 10q8 8 15 12t17 6t25.5 3t40.5 4q5 4 15 4q4 0 8 -0.5t8 -0.5q9 0 13 5q4 4 14 4q5 0 10.5 -0.5t10.5 -0.5q9 0 18 3q0 10 7.5 17t16.5 13.5t16 13t7 16.5q0 3 -2 9q8 8 17 20.5t16 24.5q8 14 16 29q6 14 17.5 32t23 34.5t20 29t9.5 15.5q7 10 13 21
q5 9 11.5 19.5t11.5 18.5t11 15q5 6 12.5 12.5t16.5 11.5l6 9q-10 0 -20 -0.5t-19 -0.5q-34 -2 -60 -3.5t-59 -4.5q-20 5 -33.5 18t-15.5 22q0 10 14 10h2q23 -2 38.5 -3.5t31.5 -1.5q11 0 22.5 1t27.5 5q21 0 44 -0.5t46 -0.5h4q4 6 17 21.5t28 32t28 31t17 18.5
q38 48 75 88.5t79 83.5q24 21 45 38q18 14 36.5 26t28.5 13q24 0 49 -5.5t34 -22.5q5 -5 15 -5q8 0 15 1.5t15 1.5q10 0 18 -4q18 -14 32.5 -22.5t14.5 -27.5q0 -7 -1 -12l-2.5 -8t-7.5 -17.5t-12 -18.5t-15 -10t-15.5 -7t-19.5 -14t-31.5 -16t-51.5 -14h-4q-13 0 -13 6
t7 11l8 6q1 3 13 14t26 25t25.5 28.5t11.5 25.5q0 6 -6 11q-8 4 -20 4q-15 0 -30 -6t-28 -12l-15 -9q-26 -16 -46.5 -30.5t-37.5 -34.5q-14 -1 -22.5 -4.5t-15 -9.5t-12.5 -12.5t-13 -13.5q-14 -14 -26 -24.5t-22.5 -21t-21 -22t-22.5 -27.5q-17 -2 -28 -18.5t-21 -33.5
q29 3 51 10q17 -4 30.5 -6t27.5 -2q22 0 46 7q6 -2 10 -2q7 0 14 1.5t14 1.5t10 -2l4 -2q13 -5 15.5 -5.5t7.5 -7.5l9 -10v-4q0 -6 -3 -9t-13 -3z" />
    <glyph glyph-name="currency" unicode="&#xa4;" horiz-adv-x="506" 
d="M253 222q57 0 88 40.5t31 102.5q0 30 -8 56.5t-23 46t-37.5 30.5t-50.5 11q-29 0 -51 -11t-37.5 -30.5t-23.5 -46t-8 -56.5q0 -31 8 -57t23.5 -45t37.5 -30t51 -11zM19 168l69 71q-38 55 -38 126t38 124l-69 71l45 43l67 -69q24 18 54.5 29t67.5 11q36 0 67 -11t55 -29
l67 69l45 -43l-69 -71q37 -54 37 -124q0 -35 -10 -67t-28 -58l70 -72l-45 -43l-68 69q-49 -37 -121 -37t-121 37l-68 -69z" />
    <glyph glyph-name="yen" unicode="&#xa5;" horiz-adv-x="630" 
d="M100 316q0 3 14.5 4t36 1.5t46.5 0.5t47 2q2 1 30 1.5t70 1.5q6 15 11 31t8 31q-32 -2 -61 -3.5t-59 -3.5q-20 5 -33 18t-16 22q0 4 4.5 7t10.5 3h2q23 -2 41 -3.5t36 -1.5q12 0 25 1t28 5h29q1 7 1.5 13.5t0.5 12.5v12q-4 7 -4 22q0 5 0.5 10t1.5 10q0 4 -2.5 6t-2.5 6
q0 1 2 5q4 5 15 9t11 13q0 2 -2 6q-11 5 -14.5 14t-3.5 20q0 7 0.5 15t1.5 16v8q0 11 -1 18.5t-1 15.5v3q-4 3 -4 11q0 5 1 11t1 11q0 7 -3 12t-12 7q-5 0 -8.5 5t-7.5 11q-4 7 -8 15v1q0 10 16 10h5q39 -3 76.5 -5.5t64.5 -21.5q1 -1 1 -10q0 -8 -0.5 -20.5t-0.5 -26.5
q0 -17 1.5 -32t7.5 -25v-1q0 -1 0.5 -2t0.5 -2q0 -8 -7 -14q-7 -7 -5 -20t-3 -27q3 -2 3.5 -6.5t0.5 -10t1.5 -10.5t7.5 -8v-2q0 -6 -4 -10t-8.5 -7t-8.5 -5.5t-4 -6.5t7 -10v-10q0 -11 1.5 -18t2.5 -18q11 1 20.5 1.5t19.5 2.5q16 10 47 32t68 49t77 56t75 53.5t61.5 41
t36.5 17.5q14 2 25 8.5t19.5 14t16.5 13t16 5.5q21 0 33 11t30 24.5t49.5 25t90.5 11.5q22 0 46.5 -7t39.5 -18l4 -13q-28 -2 -55.5 -6.5t-44.5 -18.5q-6 -10 -18 -13t-25.5 -6t-25.5 -9.5t-16 -22.5q-1 -2 -5 -3.5t-9 -1.5q-6 0 -10 3l-76 -36v-1q0 -8 -5.5 -12t-12.5 -5.5
t-14.5 -1.5h-10.5q-20 -9 -37 -17.5t-32.5 -17t-32.5 -18t-37 -22.5q-2 -2 -7.5 -4t-11.5 -4t-11 -5t-8 -7q-37 -20 -75.5 -45.5t-71.5 -49.5h22q14 0 27.5 1.5t26.5 5.5q4 -2 12 -2q5 0 10.5 1t10.5 1q6 0 12 -3l13 -5q8 0 14.5 -6.5l11.5 -11.5l6 -4q4 -5 6 -9
q-3 -3 -17.5 -4t-35.5 -1.5t-45 -0.5t-46 -2q-2 -1 -25.5 -1t-59.5 -1q-4 -3 -9 -8q-2 -2 -4 -3q-10 -6 -14.5 -11.5t-6.5 -10t-3.5 -8t-5.5 -6.5q-6 -4 -11 -8.5t-10 -9.5q5 0 9.5 0.5t9.5 0.5q35 2 66.5 3.5t64.5 4.5q20 -5 33 -18t16 -21q0 -10 -13 -10h-4
q-23 1 -40.5 2.5t-35.5 1.5q-12 0 -25 -1t-29 -5q-20 0 -41.5 0.5t-43.5 1.5q-6 -6 -8 -7q-17 -12 -26.5 -26t-25.5 -25q-19 -26 -28 -42t-13 -18q-9 -4 -14.5 -10t-9.5 -11q-4 -6 -7 -13q2 -4 2 -9t-2 -7q-2 -6 -12 -7t-13 -5v-2q0 -5 2.5 -9t2.5 -9q0 -4 -2 -6t-7.5 -3.5
t-11 -4t-10 -5.5t-4.5 -8v-1q-8 -13 -14 -25q-5 -11 -9 -23t-4 -23q0 -6 1 -8q1 -8 5.5 -13t4.5 -8v-1q-3 -6 -10 -6q-6 0 -14 3t-13 3q-2 0 -4 -2q-2 -3 -5 -3q-6 0 -15 6t-17 14t-14 15t-6 10q0 5 7 15t8 9q5 5 9 13q2 4 4 7q5 9 14.5 22.5t9.5 29.5q6 3 9 7.5t5 9.5
t5.5 9.5t9.5 7.5q5 8 12 21.5t14 26.5t12 23.5t7 12.5q3 2 4.5 6.5t3 10t4 10.5t7.5 8l18 26q-37 8 -72 8q-13 0 -25.5 -1t-25.5 -5q-2 1 -8 1q-10 0 -21 -3t-20 -3q-7 0 -10 2q-4 2 -10 7t-12 10.5t-10.5 12t-4.5 11.5z" />
    <glyph glyph-name="section" unicode="&#xa7;" horiz-adv-x="728" 
d="M914 703l-1 -6q-24 -5 -48 -7.5t-46 -10.5q-5 0 -9 0.5t-8 0.5q-8 0 -14.5 -0.5t-13.5 -0.5q-8 -2 -19 -9t-23 -7q-5 0 -7 1q-6 -3 -10 -7.5l-8 -9t-8.5 -7.5t-11.5 -3h-3q-8 2 -15 2q-14 0 -30 -5.5t-30.5 -13t-25 -15t-13.5 -12.5q-2 -4 -2 -6q0 -5 6 -9t13 -7
t13.5 -5.5t8.5 -3.5q10 -3 22 -5.5t22 -5t16 -5t6 -4.5q3 -9 10 -11.5t18.5 -5t28 -6.5t39.5 -16q21 -5 31.5 -16.5t17.5 -27.5v-3q0 -21 6.5 -40t7.5 -36v-4q0 -11 -8.5 -21.5t-20 -18.5t-23 -13.5t-16.5 -6.5q-13 -2 -26 -1.5t-27 -10.5q-1 -3 -4 -6q-6 -6 -16 -10
q-21 -8 -42.5 -13.5t-39.5 -9.5t-31.5 -5.5t-19.5 -1.5h-1q-6 0 -10.5 3.5t-12.5 3.5q-6 0 -14 -4q-4 -7 -9.5 -9t-12.5 -2.5t-14 -1.5t-13 -5q-4 -4 -4 -5q0 -5 8 -9.5t19.5 -9.5t24 -11.5t20.5 -14.5q7 -7 10 -16t3 -18q0 -11 -3 -21t-7 -19q-5 -9 -19 -25t-43 -25
q-24 -12 -35 -16t-15.5 -5.5l-6 -2t-7.5 -6.5q0 -5 -9 -8.5t-20.5 -6.5t-23.5 -6t-19 -7q-9 -2 -14 -4.5l-9 -4.5t-10 -3t-16 -1q-11 -3 -19.5 -5.5t-17 -4.5t-17.5 -3.5t-22 -1.5q-8 2 -13 2q-11 0 -21.5 -3t-20.5 -6.5t-18 -6.5t-14 -3q-2 0 -2.5 0.5t-1.5 0.5
q-1 4 -5.5 5.5t-9 2t-8.5 2t-4 4.5t2 6q10 8 18.5 9.5t16.5 5.5q29 5 66.5 16t71.5 23.5t58.5 24t27.5 17.5q0 5 13.5 10.5t30 12t31 14.5t16.5 19q14 6 19 9t5 6q0 4 -4.5 8.5t-4.5 14.5q0 3 -11.5 11.5t-28 17.5t-34.5 15.5t-31 6.5h-1q-13 5 -23 10t-24 5q-10 0 -21 -4
q-6 0 -8.5 2.5t-4.5 5.5l-4 6t-7 4q-8 6 -16.5 9t-17.5 5.5t-17 5.5t-13 8q-3 2 -5 8.5t-4 14.5t-4 15t-4 9q-7 7 -7 20q0 11 6 23t17 19q10 10 29 20t41.5 19t47 16.5t46.5 14.5l14 4q7 8 16.5 10t21 2t22.5 0.5t21 4.5q14 2 32.5 8t35.5 6h3q9 3 9 7q0 5 -7.5 11.5
t-18 12.5t-21 10t-16.5 4h-1q-2 0 -9 3.5t-11 13.5q-3 7 -4 13.5t-1 11.5v8q0 2 1 3q-2 4 -2 11q0 6 2 12q1 3 3 4q-1 3 11 9t20 9q31 11 63 26t65 22q24 5 42 9.5t34.5 7.5t35 5t42.5 2h18q8 6 18.5 8t21.5 2q18 0 37 -3t33 -5q4 -2 7.5 -5.5t4.5 -7.5zM645 482
q-2 2 -8.5 2.5t-15.5 0.5q-13 0 -26 -0.5t-21 -2.5q-39 -8 -83 -22t-84 -30t-71.5 -32.5t-45.5 -31.5q-12 -12 -12 -19q0 -4 2.5 -6.5l4.5 -4.5q15 -11 30 -24.5t35 -13.5h4q11 0 25 -9t37 -11h9q33 0 70 10.5t64 18.5q22 10 51.5 18.5t59.5 19t57.5 25t46.5 36.5q5 5 5 11
q0 8 -8.5 11t-10.5 9q-11 8 -26.5 12t-26.5 12q-12 8 -24 8q-5 0 -9.5 -0.5t-9.5 -0.5q-6 0 -10.5 2.5t-8.5 11.5z" />
    <glyph glyph-name="dieresis" unicode="&#xa8;" horiz-adv-x="383" 
d="M524 531q7 -2 17 -10t10 -19q1 -1 1 -4q0 -5 -3 -9t-5 -6v-1q0 -5 -3 -3.5t-3 -3.5q-6 -8 -11 -19t-21 -16q-18 2 -31 9t-16 18q3 8 8.5 12.5t5.5 10.5q0 2 -2 6l11 20q2 7 10 12.5t13 7.5q1 1 5 1q9 0 14 -6zM328 545q17 -9 29 -14t14 -14q-2 -11 -8 -18.5t-12 -15.5
q-10 -2 -11 -9t-8 -10l-8 -16q-2 -2 -5 -2h-3q-1 0 -1 1q-7 0 -14.5 4t-14 9t-10.5 9t-4 6v1q0 4 3.5 11.5t9.5 16.5t13.5 17t15.5 13q2 2 3 7t6 5q3 0 5 -1z" />
    <glyph glyph-name="ordfeminine" unicode="&#xaa;" horiz-adv-x="307" 
d="M315 403q1 3 5 10t8.5 14.5t8 14.5t3.5 11q0 2 -1 2q-5 0 -14.5 -6.5t-14.5 -14.5q-10 -14 -23 -24.5t-18 -19.5q0 -4 -1.5 -5t-4.5 -2.5t-8 -4.5t-12 -11q-2 -8 -8 -10.5t-12 -7.5q-2 -2 -2.5 -5t-3.5 -5q-12 -3 -22.5 -10.5t-20.5 -9.5q-2 -1 -6 -1q-5 0 -13 1t-14 3
q-3 5 -11 8.5t-8 8.5q0 4 2 7q2 14 5.5 25t11.5 23q6 5 10 16q2 5 4 11v1q0 2 -1.5 3t-1.5 4t2 5q1 2 9.5 3.5t8.5 5.5q0 1 -3.5 1t-4.5 1q3 1 6 4.5t6 7.5t5.5 7.5t4.5 4.5q10 18 27 36t34 33t30.5 25t17.5 11q11 0 12.5 6.5t9.5 8.5q1 0 1.5 0.5t1.5 0.5q14 5 33 12.5
t31 7.5q3 0 17 -7t17 -19q6 0 8 -2t3 -5t1.5 -6t4.5 -4q-1 -3 -2 -5q-2 -4 -5 -4t-4 1q-11 4 -27 4q-19 0 -37.5 -6.5t-32.5 -14.5q-10 -1 -14 -4.5t-7 -7l-6 -7t-12 -5.5q-5 -11 -9.5 -11t-9.5 -5q-2 0 -2.5 -1t-1.5 -1q-14 -12 -24 -21t-21 -23q-2 -1 -4.5 -1.5t-2.5 -5.5
v-3q-2 -5 -6.5 -9.5t-10.5 -11.5q-9 -11 -11 -18.5t-5 -15.5q0 1 -1 -4t-1 -10v-5q1 -3 6 -3q7 0 17.5 7t17.5 12q10 9 17.5 14t16 10.5t19.5 15.5t28 30q8 5 17 16.5t19 11.5h1q15 4 27 22t22 29h7q6 0 11.5 -3t7.5 -6q4 -7 11 -10t7 -8q0 -3 -8 -9q-4 -3 -7 -5
q-2 -1 -10.5 -9.5t-8.5 -17.5v-1q-5 -11 -13.5 -15.5t-8.5 -19.5v-1q-1 -4 -7.5 -8.5t-11.5 -21.5q-5 -2 -7.5 -12t-3.5 -18v-5q0 -3 -0.5 -6t-0.5 -6q0 -7 2.5 -12t12.5 -7q1 0 2 -1q2 -2 2 -3q0 -2 -4 -6q-11 -3 -21 -8.5t-21 -7.5q-4 -2 -11 -2q-12 0 -12 9v1q-1 3 -1 9
q0 18 7.5 39t15.5 37z" />
    <glyph glyph-name="guillemotleft" unicode="&#xab;" horiz-adv-x="877" 
d="M452 -48q-19 12 -42.5 20t-46.5 17q-6 0 -8 3.5t-5 7t-9 6.5t-18 3q-3 0 -13 4t-21.5 9t-21 9.5t-11.5 4.5q-14 0 -21 4t-12.5 8.5t-11.5 8t-18 3.5h-6t-8 -1q-4 0 -8 3t-10.5 7t-16 7t-23.5 3h-3q-1 6 -7 7t-13 1.5t-14 3t-11 11.5q0 1 -0.5 1.5t-0.5 1.5q0 5 3.5 12
t8 14t9.5 12.5t7 7.5q2 1 7.5 5.5t12.5 9.5t14.5 9t14.5 4h2q9 8 19.5 11.5t19.5 9.5q6 2 26.5 12.5t49 24t60.5 28.5t60.5 28t50 21.5t28.5 9.5h3q10 0 19 8t20 8q14 12 30 17.5t36 15.5q38 15 74.5 29t76.5 31q2 1 6 1q10 0 18 -5t9 -8q0 -6 -11.5 -11.5t-35 -14
t-58.5 -23t-82 -39.5q-6 -3 -19.5 -11t-29.5 -16.5t-31.5 -14.5t-23.5 -6q-8 -4 -12.5 -9.5t-9 -10.5t-10.5 -9.5t-15 -5.5q-5 -5 -14 -5h-9q-5 0 -7 -1q-18 -8 -28 -16.5t-21 -20.5q-36 -12 -63.5 -28.5t-59.5 -39.5q-3 -6 -3 -9q0 -7 6.5 -11t10.5 -9q17 -7 32 -14t32 -15
q19 -9 43 -22.5t44 -24.5q1 -6 6 -9t11 -5t12.5 -3.5t10.5 -5.5q9 -7 22 -14.5t25.5 -14t21.5 -12t11 -9.5q2 -6 2 -11q0 -7 -1.5 -12.5t-6.5 -5.5q-4 0 -6 2q-8 6 -19 9t-19 9zM655 -15q-13 11 -24.5 22t-31.5 16q-6 2 -14 2.5t-8 5.5l2 4q-1 6 -14 6h-15q-6 0 -11 1.5
t-5 7.5v2q-20 17 -41.5 28.5t-48.5 18.5q-10 -2 -12 -2q-7 0 -10.5 3t-5.5 7t-5.5 7t-10.5 3q-6 0 -10 -1q-2 0 -3 -0.5t-3 -0.5q-6 0 -11 2t-9 4l-8 6q-5 3 -5 7q0 10 11 13q4 9 21 19t33 22q7 7 15 9.5t17.5 5.5t20.5 8.5t23 18.5q41 18 78.5 35.5t74.5 33.5q15 5 30.5 11
t32.5 14q1 -1 3 -1q4 0 7.5 2.5t8.5 2.5q9 0 21.5 3.5t19.5 11.5q27 9 47.5 21.5t48.5 16.5q26 13 48.5 21.5t54.5 15.5q5 -5 10.5 -7t5.5 -9v-1q-2 -4 -5 -5t-7 -1.5t-8.5 -1t-7.5 -3.5q-17 -8 -31 -15.5t-31 -12.5q-19 -10 -38.5 -18t-42.5 -13q-7 -2 -12.5 -6.5t-11 -9.5
t-11.5 -9t-14 -4q-2 0 -3 0.5t-3 0.5q-20 -10 -46 -20t-44 -21q-3 -1 -7 -1h-9q-8 0 -13 -6q-3 -6 -7 -8.5t-8.5 -4t-9.5 -3.5t-11 -7q-31 -8 -51 -30q-6 -6 -15.5 -9.5t-18.5 -7t-15 -8.5t-6 -15t7 -16t16 -10t17 -7t10 -7q6 -10 13 -15t14 -9t12.5 -9t7.5 -14q1 -6 10 -6
h7q6 0 8 -2l45 -33q-1 -2 -1 -5q0 -5 5 -8.5t11 -6.5t11 -6.5t5 -9.5q0 -1 -2 -7q0 -2 1 -5q2 -6 2 -10q0 -10 -7 -10q-8 0 -18.5 8.5t-14.5 10.5z" />
    <glyph glyph-name="uni00AD" unicode="&#xad;" horiz-adv-x="482" 
d="M77 181v2q0 7 10 11h4q5 0 9.5 0.5t8.5 0.5q16 0 16 -11q4 -3 8 -3q7 0 13.5 5.5t13.5 5.5q8 0 13 -9h13q31 0 63.5 1.5t61.5 1.5q30 0 53 -3q15 3 32.5 5t33.5 2q18 0 26 -3q9 -8 14 -12.5t8.5 -9t6 -10.5t7.5 -16q0 -9 -9 -9h-3q-17 2 -30 4t-27 2q-16 0 -37 -6
q-19 1 -40 2.5t-42 1.5q-20 0 -38.5 -2.5t-35.5 -8.5q-13 4 -26 6.5t-27 2.5q-16 0 -34 -6q-2 2 -7 2q-4 0 -7 -1t-7 -1q-5 0 -9 3q-7 4 -13.5 11.5t-11.5 15.5t-8 15t-3 10z" />
    <glyph glyph-name="macron" unicode="&#xaf;" horiz-adv-x="485" 
d="M578 469q0 -5 -6 -18.5t-13 -19.5q-4 -2 -5 -2q-2 0 -4 0.5t-4 0.5q-3 0 -5 -1q-8 4 -17 4q-8 0 -14.5 -2t-14.5 -4q-17 7 -42 7q-11 0 -22.5 -1t-20.5 -1q-7 2 -11.5 3t-9.5 1q-8 0 -15.5 -1.5t-16.5 -2.5h-1q-5 0 -5 7q0 1 0.5 1t0.5 1q4 12 6.5 16.5t11.5 15.5
q2 2 16 2q8 0 17 -1t17 -3q7 1 14.5 1.5t15.5 0.5q17 0 34.5 -1t34.5 -1h7q3 6 6 6q5 0 8.5 -4t8.5 -4q0 1 1 1t2 1q0 5 3 6.5t6 1.5q2 0 4.5 -0.5t5.5 -0.5h2q5 -3 5 -7v-2z" />
    <glyph glyph-name="degree" unicode="&#xb0;" horiz-adv-x="290" 
d="M397 470q-11 -6 -20.5 -12t-19 -10.5t-21.5 -7t-28 -2.5h-4q-5 -3 -9 -3q-8 0 -15.5 4.5t-13.5 7.5q-3 1 -6 7t-6 14.5t-5 18t-2 17.5t4.5 18t10.5 11q13 10 33.5 19.5t49.5 9.5q27 0 56 -11h1q6 0 10.5 -6.5t4.5 -13.5q0 -6 -3 -9q-2 -2 -2 -4q0 -3 1.5 -10t1.5 -10
t-6 -7v-2q0 -5 -3 -11t-9 -8zM364 494q3 1 3 4q0 2 -1.5 3t-1.5 2t1 1q1 1 3 5.5t2 6.5q0 3 -1.5 6t-4.5 3h-1q-7 3 -13.5 4t-12.5 1q-13 0 -22 -4t-15 -9q-2 0 -5.5 -6.5t-3.5 -10.5q0 -8 3 -16.5t5 -9.5q3 -2 6.5 -3.5t7.5 -1.5q3 0 4 1q14 0 22 3.5t18 9.5l2 2q5 2 5 7v2
z" />
    <glyph glyph-name="plusminus" unicode="&#xb1;" horiz-adv-x="731" 
d="M51 71q0 6 15 11h5q6 0 13 0.5t13 0.5q9 0 15.5 -2t7.5 -9q6 -3 11 -3q10 0 19.5 5.5t19.5 5.5t18 -9h19q44 0 90 1.5t88 1.5q43 0 76 -3q21 3 46.5 5t47.5 2q28 0 37 -3q13 -8 20.5 -12.5t12.5 -9t9 -10.5t10 -16q0 -9 -13 -9h-4q-23 2 -42.5 4t-39.5 2q-23 0 -53 -6
q-26 1 -56 2.5t-60 1.5q-29 0 -56 -2.5t-51 -8.5q-18 4 -37 6.5t-38 2.5q-24 0 -48 -6q-4 2 -11 2q-5 0 -10 -1t-10 -1q-6 0 -12 3q-11 4 -20 11.5t-16 15.5t-11.5 15t-4.5 10v2zM440 254q-11 -12 -13.5 -17t-2.5 -14q-8 -6 -12 -8.5t-7.5 -4.5t-6.5 -5l-9 -9v-2q0 -3 1 -6
t1 -6t-3 -6q-3 -7 -7 -13t-4 -14q0 -6 4 -13q5 -11 16.5 -17t11.5 -11v-1q-2 -3 -15 -3q-10 0 -22 2.5t-18 9.5q-2 8 -2.5 14t-5.5 14q-9 8 -9 21q0 8 2 17t2 17v3q4 6 6.5 14t5.5 16t7.5 15t12.5 12q4 3 4 4q0 2 -4 1.5t-4 1.5q0 1 4 4t9.5 12t11.5 20.5t11.5 23t8.5 17.5
v1q0 4 -5 4q-12 2 -17 7t-12 5q-2 0 -8 -2q-5 -6 -13 -7.5t-17 -1.5h-21q-7 0 -13 -0.5t-11 -2.5q-9 -1 -21 -2.5t-24 -1.5q-11 0 -19.5 2t-13.5 9q-1 7 -6 13.5t-10.5 12.5t-10 12t-4.5 12q0 4 3 7q2 2 7.5 2.5t13.5 0.5q12 0 28 -1t32 -1q12 0 23 1t20 4q4 1 9 1
t10.5 -1.5t15 -3t26.5 -3t44 -1.5q4 3 12 3q5 0 11 -0.5t11 -0.5q12 0 17 5q10 6 16 18.5t6 13.5l4 3q8 4 8 10q0 4 -1.5 7.5t-1.5 7.5q0 8 17 8h3l12 19q3 13 11 27t16.5 26.5t15.5 20.5t8 9q3 2 10 2q9 0 17.5 -3.5t17.5 -3.5q7 0 10 2h2q4 0 10 -4t12 -11t10 -16.5
t4 -19.5q0 -2 -3.5 -3.5t-11 -5.5t-18 -13.5t-23.5 -27.5v-1q0 -4 -5.5 -4.5t-12.5 -3.5q-1 0 -1 -0.5t-1 -0.5q-14 -11 -16.5 -18.5t-12.5 -21.5q0 1 -3.5 -3t-3.5 -9t5 -6q21 0 41 -0.5t40 -0.5q23 0 45.5 1t45.5 3q5 -1 10 -1h11h25q11 0 19.5 -1t12.5 -4
q11 -8 14.5 -17.5t8.5 -18.5q2 -7 6 -10t4 -6q0 -2 -4 -5q-11 -4 -19 -4q-7 0 -12 2t-12 5t-17 5.5t-26 4.5q-13 1 -27 1.5t-29 0.5q-21 0 -40.5 -1t-36.5 -4q-5 3 -7 3q-3 0 -6 -1.5t-8 -1.5h-3q-16 -3 -37 -2.5t-38 -5.5q-8 -3 -16 -12t-13 -17q-3 -2 -8 -2.5t-9.5 -1
t-8 -2t-3.5 -5.5q0 -3 1 -5q0 -2 0.5 -2.5t0.5 -2.5q0 -7 -5.5 -13.5t-12 -12.5t-12 -12.5t-6.5 -12.5z" />
    <glyph glyph-name="acute" unicode="&#xb4;" horiz-adv-x="383" 
d="M536 502q-2 -1 -8.5 -2.5t-14 -3.5t-14 -4.5t-7.5 -5.5q-1 -4 -10 -3t-17 -4q-11 -7 -25.5 -11t-27.5 -9q-7 -4 -14 -8.5t-16 -4.5q-2 0 -3 0.5t-3 0.5q-6 -2 -15 -4.5t-15 -2.5q-5 0 -6 1q-1 0 -1 2t5.5 5.5t7.5 6.5q11 5 16.5 9t14.5 12l4 2t5 3t7 4q9 4 17 11q4 4 8 7
l10 5q8 3 15 10l7 7q9 4 17.5 9t15.5 9q8 4 16 9q4 3 7 3h2q2 -1 6.5 -6t9 -12t8 -14t3.5 -13t-5 -8z" />
    <glyph glyph-name="mu" unicode="&#xb5;" horiz-adv-x="481" 
d="M367 43q0 -9 5.5 -14t11.5 -8.5t11.5 -6.5t5.5 -9q0 -3 -8.5 -8t-19.5 -9t-23.5 -7t-19.5 -3h-4q-12 2 -16.5 10.5t-4.5 19.5t3 23.5t6.5 24t6.5 20.5t3 13v3q0 5 3 10.5t7 11.5l10 14v1q0 5 4 12t9 14t9 13.5t4 11.5q0 6 -9 6l-8.5 -8.5l-18.5 -18.5l-24 -24t-24 -25
t-20 -20t-11 -9q-2 -11 -10 -17t-14 -7q-2 1 -7 1q-8 0 -13.5 -4.5t-7.5 -9.5q-1 -13 -9.5 -22t-20 -16t-23.5 -13t-21 -13h-2q-7 0 -14 -4t-15 -4q-5 0 -12 3q-23 12 -31 33t-8 46v7q-6 -9 -20.5 -29t-29.5 -41t-27 -37.5t-14 -18.5l-6 -7q-14 -17 -25.5 -34t-11.5 -31v-1
q-1 -4 -3.5 -4.5t-6.5 -1t-8 -2t-7 -7.5q-3 -3 -3 -10q0 -6 1 -8q0 -2 1 -3q-1 -3 -3.5 -7.5t-4.5 -9.5q-4 -5 -7 -11q0 -5 -3 -10t-10 -7q-17 6 -34.5 17.5t-17.5 26.5q0 8 7.5 16.5t9.5 13.5l53 72q6 6 9 11.5t6.5 10t8.5 8.5t15 7q4 3 6 11l2 8v1q0 6 11.5 18t16.5 22
q8 10 11.5 16t14.5 15q2 13 8.5 21t14.5 15t15 14.5t11 20.5q4 2 12 11.5t17.5 22.5t19.5 28t20 29v4l6 6q6 9 11.5 16.5t9.5 12.5l6 9q0 3 6 12.5t14 20.5q3 6 7 12l4 6l1 -2l13 15q13 15 24 30t26 15q8 0 19.5 -10.5t17.5 -23.5q0 -6 2.5 -8t2.5 -7q0 -4 -1 -7
q-4 -4 -10.5 -8t-13 -10t-12 -13t-7.5 -17q-3 -5 -12.5 -11.5t-20.5 -15.5t-19.5 -19t-9.5 -20q0 -5 -2.5 -8t-6.5 -5t-8.5 -5t-8.5 -9l-3 -8q-1 -3 -5 -9q-3 -5 -8 -11.5t-13 -9.5v-3q0 -11 -6.5 -20.5t-8.5 -21.5v-5q0 -7 -1.5 -16t-1.5 -17q0 -11 5 -17q3 -2 8 -2
q11 0 23 9.5t24 10.5t38.5 22t58.5 51t64.5 63t56.5 58q11 11 20.5 24t15.5 21q3 4 7.5 5t10 2.5t9.5 4t5 9.5q15 30 32.5 54t31.5 24q4 0 15 -5.5t21.5 -14.5t19 -20t8.5 -21v-4q-9 -12 -17 -22.5t-22 -13.5q-5 -4 -13 -13.5t-16 -21t-14.5 -22.5t-8.5 -17v-2
q0 -5 -0.5 -10.5t-3 -10.5t-8.5 -8.5t-17 -3.5q-8 -5 -9.5 -10t-1.5 -9t-0.5 -8t-5.5 -7q-9 -6 -10.5 -11.5t-2 -11.5t-4 -12.5t-16.5 -13.5q-2 -2 -6 -8t-8 -14t-7 -18t-3 -19z" />
    <glyph glyph-name="mu" unicode="&#x3bc;" horiz-adv-x="481" 
d="M367 43q0 -9 5.5 -14t11.5 -8.5t11.5 -6.5t5.5 -9q0 -3 -8.5 -8t-19.5 -9t-23.5 -7t-19.5 -3h-4q-12 2 -16.5 10.5t-4.5 19.5t3 23.5t6.5 24t6.5 20.5t3 13v3q0 5 3 10.5t7 11.5l10 14v1q0 5 4 12t9 14t9 13.5t4 11.5q0 6 -9 6l-8.5 -8.5l-18.5 -18.5l-24 -24t-24 -25
t-20 -20t-11 -9q-2 -11 -10 -17t-14 -7q-2 1 -7 1q-8 0 -13.5 -4.5t-7.5 -9.5q-1 -13 -9.5 -22t-20 -16t-23.5 -13t-21 -13h-2q-7 0 -14 -4t-15 -4q-5 0 -12 3q-23 12 -31 33t-8 46v7q-6 -9 -20.5 -29t-29.5 -41t-27 -37.5t-14 -18.5l-6 -7q-14 -17 -25.5 -34t-11.5 -31v-1
q-1 -4 -3.5 -4.5t-6.5 -1t-8 -2t-7 -7.5q-3 -3 -3 -10q0 -6 1 -8q0 -2 1 -3q-1 -3 -3.5 -7.5t-4.5 -9.5q-4 -5 -7 -11q0 -5 -3 -10t-10 -7q-17 6 -34.5 17.5t-17.5 26.5q0 8 7.5 16.5t9.5 13.5l53 72q6 6 9 11.5t6.5 10t8.5 8.5t15 7q4 3 6 11l2 8v1q0 6 11.5 18t16.5 22
q8 10 11.5 16t14.5 15q2 13 8.5 21t14.5 15t15 14.5t11 20.5q4 2 12 11.5t17.5 22.5t19.5 28t20 29v4l6 6q6 9 11.5 16.5t9.5 12.5l6 9q0 3 6 12.5t14 20.5q3 6 7 12l4 6l1 -2l13 15q13 15 24 30t26 15q8 0 19.5 -10.5t17.5 -23.5q0 -6 2.5 -8t2.5 -7q0 -4 -1 -7
q-4 -4 -10.5 -8t-13 -10t-12 -13t-7.5 -17q-3 -5 -12.5 -11.5t-20.5 -15.5t-19.5 -19t-9.5 -20q0 -5 -2.5 -8t-6.5 -5t-8.5 -5t-8.5 -9l-3 -8q-1 -3 -5 -9q-3 -5 -8 -11.5t-13 -9.5v-3q0 -11 -6.5 -20.5t-8.5 -21.5v-5q0 -7 -1.5 -16t-1.5 -17q0 -11 5 -17q3 -2 8 -2
q11 0 23 9.5t24 10.5t38.5 22t58.5 51t64.5 63t56.5 58q11 11 20.5 24t15.5 21q3 4 7.5 5t10 2.5t9.5 4t5 9.5q15 30 32.5 54t31.5 24q4 0 15 -5.5t21.5 -14.5t19 -20t8.5 -21v-4q-9 -12 -17 -22.5t-22 -13.5q-5 -4 -13 -13.5t-16 -21t-14.5 -22.5t-8.5 -17v-2
q0 -5 -0.5 -10.5t-3 -10.5t-8.5 -8.5t-17 -3.5q-8 -5 -9.5 -10t-1.5 -9t-0.5 -8t-5.5 -7q-9 -6 -10.5 -11.5t-2 -11.5t-4 -12.5t-16.5 -13.5q-2 -2 -6 -8t-8 -14t-7 -18t-3 -19z" />
    <glyph glyph-name="paragraph" unicode="&#xb6;" horiz-adv-x="587" 
d="M362 334q-18 -23 -35 -48t-31 -47q-16 -26 -29 -50q-8 -16 -15 -27t-12.5 -21.5t-9.5 -24t-6 -34.5v-1q0 -3 -6.5 -7.5t-14.5 -10.5t-14.5 -14t-6.5 -18q-6 -8 -10.5 -10t-9.5 -12q3 -8 3 -15q0 -13 -7 -24t-7 -25q-2 -8 -2 -14v-11q0 -13 -7 -16q-1 -1 -4 -1
q-8 0 -13.5 9.5t-13.5 17.5q-2 7 -4.5 18t-2.5 23v6.5t1 6.5v11q0 23 6.5 44t16 40.5t20.5 38t19 37.5q23 41 48.5 83.5t51.5 84.5q0 2 0.5 2.5t0.5 1.5q0 5 -3 7.5t-4 5.5q-6 4 -15.5 7t-9.5 17v4q5 0 5 5q0 3 -2 7.5t-4 6.5q-11 7 -23 7q-11 0 -22.5 -4t-22.5 -4
q-9 0 -17 4q-15 7 -26 16.5t-18 18.5q-9 11 -14 22q-6 10 -9 25t-3 33q0 25 5.5 49.5t16.5 41.5q24 34 64 62.5t90 49.5t106.5 33.5t113.5 16.5q15 3 32.5 3.5t34.5 1.5t33 5t28 15q6 1 12 1.5t11 0.5q11 0 19 -4q3 -9 18 -9q8 0 15.5 1.5t15.5 1.5q2 0 4 -0.5t4 -0.5
q5 1 13 1.5t17 0.5q23 0 54.5 -1.5t64.5 -1.5q20 0 40.5 1t37.5 4q11 -8 20.5 -18t9.5 -26v-2q-11 -8 -19 -11.5t-25 -8.5q-20 -6 -35.5 -14.5t-29 -19t-26 -22.5t-25.5 -25q-4 -2 -7 -6.5t-7 -9.5t-10.5 -9.5t-18.5 -6.5q-13 -3 -19.5 -8t-9 -11t-3 -11.5t-1.5 -9.5
q0 -20 -12.5 -33.5t-22.5 -17.5q-9 -3 -23 -16t-29.5 -31.5t-32.5 -40t-32 -42.5q-22 -30 -50 -66.5t-45 -77.5q-17 -8 -24 -17.5t-12.5 -22t-13 -27t-25.5 -30.5q1 1 -4.5 -9t-12.5 -23t-13.5 -26t-7.5 -17q-4 -19 -4 -43q0 -8 0.5 -15t0.5 -15q6 -8 14.5 -13.5t16 -9.5
t13 -7.5t5.5 -7.5q-5 -5 -14 -7t-17 -2q-5 0 -15 2q-22 7 -33.5 27.5t-16.5 40.5q-3 5 -4 10.5t-1 11.5q0 5 0.5 10.5t0.5 10.5v5l15 54q3 4 6 12t7.5 16t10.5 14t13 6q2 4 2 8v9v2q0 11 2.5 22.5t16.5 23.5q6 15 14 24t16 17t14 18t8 25q4 4 9.5 6t11.5 4.5t11 6t8 10.5
l-2 29q1 4 7 9.5t13 12.5t13 15.5t8 18.5q8 13 20 27.5t23.5 29.5t21 29t12.5 26q12 7 20.5 16.5t16 20.5t15 21.5t18.5 19.5q9 9 23.5 21.5t28 25.5t23.5 24.5t10 19.5q0 9 -17 9q-30 0 -57 -19.5t-42 -40.5q-28 -15 -47.5 -33t-36 -38t-32.5 -41t-36 -42q-7 -13 -16 -24.5
t-17 -24.5q-26 -25 -43.5 -57t-39.5 -59z" />
    <glyph glyph-name="periodcentered" unicode="&#xb7;" horiz-adv-x="180" 
d="M151 235q11 -8 23.5 -14.5t12.5 -19.5q0 -11 -4 -16.5t-12 -13.5l-2 -3q-5 -7 -7.5 -9.5t-8.5 -6.5q-1 0 -1 -0.5t-1 -0.5l-3 -2q-7 -6 -7.5 -13t-9.5 -11q-2 -1 -6 -1q-6 0 -14 2.5t-15.5 7t-12.5 10t-5 12.5q0 14 6.5 19.5t6.5 13.5v4q0 7 7 16l8 8q3 8 10 14t13 10h3
q5 0 11 -1t8 -5z" />
    <glyph glyph-name="cedilla" unicode="&#xb8;" horiz-adv-x="368" 
d="M111 11q6 -1 10.5 -6t4.5 -8q0 -2 -2 -2q-11 -7 -11 -15q0 -5 3.5 -10.5t8 -11t8.5 -12t4 -14.5q0 -11 -10 -17.5t-22 -10.5q-14 -4 -32 -7q-4 -1 -8 -1h-16q-11 0 -19 2t-8 7v2q4 11 7 14.5t7 3.5q6 0 12.5 -4.5t17.5 -4.5t22 7q18 11 18 17t-9.5 8.5t-9.5 5.5q2 2 2 3
q0 4 -7 5.5t-10 3.5q-5 3 -5 5q0 4 6 8.5t12.5 9t12.5 8.5t6 7q0 1 4.5 3.5t2.5 3.5z" />
    <glyph glyph-name="ordmasculine" unicode="&#xba;" horiz-adv-x="316" 
d="M184 331q-4 2 -5 8t-1 14q0 9 1 18.5t3 17.5q2 12 5 25.5t7 25.5t8.5 21.5t9.5 13.5q10 8 8.5 13t2.5 11q1 1 4.5 2.5t5.5 3.5q4 3 4 5t-6 3.5t-14 1.5h-11t-12 -2q-3 3 -3 6q0 6 8.5 15t21 16.5t27 13t26.5 5.5q4 0 5 -1t4 -1q11 0 38 7.5t58 7.5q5 0 9.5 -0.5t9.5 -0.5
h2q9 -2 18.5 -9.5t17 -17t13.5 -18.5t8 -14q3 -8 3 -13q0 -6 -2 -10t-4 -7l-2 -2q-5 -9 -11.5 -28.5t-31.5 -38.5q-3 -9 -10 -18t-18 -11q-1 1 -3 1q-3 0 -6 -3.5t-6 -3.5v-2q0 -14 -9 -22t-20 -16l-5 -3q-5 -4 -8.5 -10.5t-14.5 -8.5q-6 -1 -14 -5.5t-16.5 -10t-17.5 -9.5
t-17 -4h-2q-20 3 -30.5 14t-27.5 20zM248 351q5 6 10.5 5.5t10.5 1.5q26 12 48.5 29t36.5 35q13 12 14 18t9 11q8 7 8 11.5t7 5.5q5 2 5 5q0 1 -1 2t-1 3t3 5l4 7q3 1 4 5t1.5 8t1 7.5t3.5 4.5q2 1 3 4.5t1 7.5q0 6 -1.5 12t-5.5 9q-6 3 -16 3q-15 0 -33 -6.5t-30 -15.5
q-14 -9 -30.5 -25t-24.5 -33q-3 -5 -7 -5q-2 0 -6 2l-2 1q-5 0 -12 -8.5t-13 -18.5q-7 -12 -15 -27q-4 -14 -10.5 -27t-6.5 -27q0 -4 2 -12q0 -3 5.5 -4.5t13.5 -1.5q9 0 16.5 1.5t7.5 5.5v1z" />
    </font>
</defs>
</svg>
